<svg width="1920" height="1200" viewBox="0 0 1920 1200" fill="none" xmlns="http://www.w3.org/2000/svg">
<g clip-path="url(#clip0_1410_1545)">
<rect width="1920" height="1200" rx="64" fill="#6E7681" fill-opacity="0.1"/>
<path opacity="0.3" fill-rule="evenodd" clip-rule="evenodd" d="M-355 600H560V648.167V650.17V656.167V658.17V849.536V857.536V921L-355 921V600ZM568 857.536V921V929H560L-355 929H-363V600V592H-355H560H568H1352H1360H2275H2283V600V921V929H2275L1360 929H1352V857.536H570L568 857.536ZM568 849.536L570 849.536L1350 849.536L1352 849.536V658.17H568V849.536ZM1360 849.536V857.536V921L2275 921V600H1360V648.167V650.17V656.167V658.17V849.536ZM568 648.167V600H1352V648.167H568Z" fill="#6E7681"/>
<rect opacity="0.3" x="4" y="-4" width="472" height="232" rx="20" transform="matrix(1 0 0 -1 -36.0762 332)" stroke="#6E7681" stroke-width="8"/>
<path opacity="0.3" d="M126.261 132.586C106.948 123.555 62.4376 154.089 48.2753 190.118C41.343 207.754 33.3524 224.39 39.0585 235.165C55.0209 265.306 84.9415 172.723 105.962 179.026C121.783 183.77 99.7663 245.114 127.868 266.059C166.316 294.716 193.288 182.148 237.637 200.386C249.932 205.442 226.223 275.951 251.161 285.21C270.995 292.574 310.24 232.252 327.985 243.773C341.14 252.313 297.793 280.912 313.695 301.505C338.254 333.306 367.788 292.329 367.421 247.223C367.199 219.974 351.244 199.746 331.92 198.795C311.026 197.766 281.515 254.898 268.445 238.564C256.543 223.688 272.908 136.334 231.658 150.437C190.408 164.54 180.16 229.519 152.055 214.547C122.439 198.77 151.508 144.391 126.261 132.586Z" fill="#6E7681"/>
<path opacity="0.3" d="M1500.86 505H1436.91C1431.59 505 1427.43 509.597 1427.96 514.896L1434.46 579.896C1434.92 584.496 1438.79 588 1443.41 588H1494.36C1498.99 588 1502.86 584.496 1503.32 579.896L1509.82 514.896C1510.35 509.597 1506.19 505 1500.86 505Z" stroke="#6E7681" stroke-width="8" stroke-linejoin="round"/>
<path opacity="0.3" d="M1450.96 453.092C1450.96 453.092 1442.02 449.668 1434.38 452.132C1426.61 454.64 1419.4 461.549 1423.25 468.754C1426.72 475.229 1435.06 475.869 1442.02 473.603C1450.96 470.689 1452.45 462.16 1452.45 462.16" stroke="#6E7681" stroke-width="8" stroke-linecap="round"/>
<path opacity="0.3" d="M1480.12 449.337C1480.12 449.337 1489.76 445.686 1497.22 448.497C1504.69 451.307 1512.8 457.989 1508.88 465.068C1505.36 471.409 1497.22 472.188 1489.56 469.753C1481.9 467.319 1478.68 458.326 1478.68 458.326" stroke="#6E7681" stroke-width="8" stroke-linecap="round"/>
<path opacity="0.3" d="M1450.55 413.526C1450.55 413.526 1438.18 408.287 1427.31 413.613C1416.43 418.94 1410.11 429.12 1414.2 436.024C1418.57 443.429 1428.83 443.512 1438.51 439.513C1448.19 435.514 1452.31 424.323 1452.31 424.323" stroke="#6E7681" stroke-width="8" stroke-linecap="round"/>
<path opacity="0.3" d="M1479.36 407.214C1479.36 407.214 1490.34 403.886 1502.28 406.255C1514.23 408.624 1524.62 417.938 1520.35 426.587C1516.52 434.335 1505.04 435.078 1495 432.244C1486.38 429.812 1478.71 418.212 1478.71 418.212" stroke="#6E7681" stroke-width="8" stroke-linecap="round"/>
<path opacity="0.3" d="M1444.78 369.071C1444.78 369.071 1430.58 366.314 1417.14 374.926C1403.71 383.538 1399.08 393.295 1405.78 400.542C1411.8 407.055 1424.77 404.208 1434.29 398.375C1444.78 391.95 1448.22 379.656 1448.22 379.656" stroke="#6E7681" stroke-width="8" stroke-linecap="round"/>
<path opacity="0.3" d="M1473.54 368.202C1473.54 368.202 1481.85 363.02 1500.17 363.045C1518.48 363.07 1528.58 371.394 1525.27 381.334C1522.31 390.24 1509.02 393.101 1496.72 391.912C1486.15 390.891 1474.92 379.98 1474.92 379.98" stroke="#6E7681" stroke-width="8" stroke-linecap="round"/>
<path opacity="0.3" d="M1462.36 488.8C1470.03 445.545 1471.21 389.011 1452.13 356.31" stroke="#6E7681" stroke-width="8" stroke-linecap="round"/>
<path opacity="0.3" fill-rule="evenodd" clip-rule="evenodd" d="M784 586C784 582.686 786.686 580 790 580L1130 580C1133.31 580 1136 582.686 1136 586C1136 589.314 1133.31 592 1130 592L790 592C786.686 592 784 589.314 784 586Z" fill="#6E7681"/>
<rect opacity="0.3" x="800" y="366" width="320" height="210" rx="12" stroke="#6E7681" stroke-width="8" stroke-linejoin="round"/>
<path opacity="0.3" d="M819 541.465L819 384.465L1101 384.465L1101 541.465L819 541.465Z" stroke="#6E7681" stroke-width="8" stroke-linecap="round" stroke-linejoin="round"/>
<path opacity="0.3" fill-rule="evenodd" clip-rule="evenodd" d="M499.746 521H534.065C541.245 521 547.065 526.82 547.065 534V579.402C547.065 586.582 541.245 592.402 534.065 592.402H499.746C492.566 592.402 486.746 586.582 486.746 579.402V577.715C485.785 577.906 484.792 578.006 483.771 578.006C478.17 578.006 473.405 574.971 470.176 570.667C466.948 566.364 465.07 560.603 465.07 554.41C465.07 548.217 466.948 542.456 470.176 538.153C473.405 533.849 478.17 530.813 483.771 530.813C484.902 530.813 485.998 530.937 487.055 531.17C488.347 525.351 493.538 521 499.746 521ZM483.771 570.006C484.764 570.006 485.767 569.796 486.746 569.371V539.449C485.767 539.024 484.764 538.813 483.771 538.813C481.252 538.813 478.668 540.165 476.576 542.953C474.483 545.743 473.07 549.781 473.07 554.41C473.07 559.039 474.483 563.077 476.576 565.866C478.668 568.655 481.252 570.006 483.771 570.006ZM494.746 579.402V573.558C494.747 573.557 494.747 573.557 494.748 573.556V535.264C494.747 535.263 494.747 535.263 494.746 535.262V534C494.746 533.953 494.747 533.907 494.748 533.86V533.267C494.748 530.505 496.987 528.267 499.748 528.267H534.067C536.829 528.267 539.067 530.505 539.067 533.267V578.669C539.067 578.716 539.066 578.762 539.065 578.809V579.402C539.065 582.164 536.827 584.402 534.065 584.402H499.746C496.985 584.402 494.746 582.164 494.746 579.402Z" fill="#6E7681"/>
<path opacity="0.3" d="M530.906 571.2C532.563 571.2 533.906 569.857 533.906 568.2C533.906 566.543 532.563 565.2 530.906 565.2C529.249 565.2 527.906 566.543 527.906 568.2C527.906 569.857 529.249 571.2 530.906 571.2Z" fill="#6E7681"/>
<path opacity="0.3" d="M507.906 542.201V571.201H512.906V560.357C512.906 559.56 513.384 558.684 514.556 557.884C515.733 557.081 517.211 556.659 518.264 556.659C519.052 556.659 519.63 556.971 520.067 557.52C520.541 558.117 520.906 559.086 520.906 560.357V571.2L525.906 571.201V560.357C525.906 558.177 525.284 556.048 523.98 554.408C522.638 552.721 520.644 551.659 518.264 551.659C516.551 551.659 514.619 552.156 512.906 553.054V542.202L507.906 542.201Z" fill="#6E7681"/>
<path opacity="0.3" d="M356.781 588L436.781 588" stroke="#6E7681" stroke-width="8" stroke-linecap="round"/>
<circle opacity="0.3" cx="960" cy="180" r="84" stroke="#6E7681" stroke-width="8"/>
<g opacity="0.3">
<path fill-rule="evenodd" clip-rule="evenodd" d="M1032.73 180C1032.73 177.055 1030.34 174.667 1027.39 174.667C1024.45 174.667 1022.06 177.055 1022.06 180H1032.73Z" fill="#6E7681"/>
<path d="M1032.73 180C1032.73 182.946 1030.34 185.334 1027.39 185.334C1024.45 185.334 1022.06 182.946 1022.06 180M1032.73 180C1032.73 177.055 1030.34 174.667 1027.39 174.667C1024.45 174.667 1022.06 177.055 1022.06 180M1032.73 180H1022.06" stroke="#6E7681" stroke-width="2"/>
</g>
<g opacity="0.3">
<path fill-rule="evenodd" clip-rule="evenodd" d="M887.275 180C887.275 182.945 889.663 185.333 892.608 185.333C895.554 185.333 897.941 182.945 897.941 180H887.275Z" fill="#6E7681"/>
<path d="M887.275 180C887.275 177.054 889.663 174.666 892.608 174.666C895.554 174.666 897.941 177.054 897.941 180M887.275 180C887.275 182.945 889.663 185.333 892.608 185.333C895.554 185.333 897.941 182.945 897.941 180M887.275 180H897.941" stroke="#6E7681" stroke-width="2"/>
</g>
<g opacity="0.3">
<path fill-rule="evenodd" clip-rule="evenodd" d="M954.665 247.392C954.665 250.338 957.053 252.726 959.999 252.726C962.944 252.726 965.332 250.338 965.332 247.392H954.665Z" fill="#6E7681"/>
<path d="M959.999 242.059C957.053 242.059 954.665 244.447 954.665 247.392H965.332C965.332 244.447 962.944 242.059 959.999 242.059Z" fill="#6E7681"/>
<path d="M954.665 247.392C954.665 244.447 957.053 242.059 959.999 242.059C962.944 242.059 965.332 244.447 965.332 247.392M954.665 247.392C954.665 250.338 957.053 252.726 959.999 252.726C962.944 252.726 965.332 250.338 965.332 247.392M954.665 247.392H965.332" stroke="#6E7681" stroke-width="2"/>
</g>
<path opacity="0.3" d="M959.999 117.94C957.053 117.94 954.665 115.552 954.665 112.607C954.665 109.661 957.053 107.273 959.999 107.273C962.944 107.273 965.332 109.661 965.332 112.607C965.332 115.552 962.944 117.94 959.999 117.94Z" stroke="#6E7681" stroke-width="2"/>
<path opacity="0.3" fill-rule="evenodd" clip-rule="evenodd" d="M1032.73 181H964.15C963.728 182.76 962.214 184.095 960.364 184.251L943.981 222.735L940.301 221.169L956.684 182.684C956.09 181.951 955.735 181.017 955.735 180C955.735 178.172 956.884 176.612 958.5 176.005L958.5 117.94H961.5L961.5 176.004C962.813 176.496 963.818 177.617 964.15 179H1032.73V181Z" fill="#6E7681"/>
<path opacity="0.3" d="M1188.58 585.091L1186.38 574.631C1186.21 573.842 1186.3 573.224 1186.49 572.808C1190.06 564.904 1197.57 561 1208.25 561C1218.93 561 1226.44 564.904 1230.01 572.808C1230.2 573.224 1230.29 573.841 1230.12 574.631L1227.92 585.091C1227.53 586.943 1225.9 588.268 1224.01 588.268H1192.49C1190.6 588.268 1188.97 586.943 1188.58 585.091Z" stroke="#6E7681" stroke-width="8" stroke-linejoin="round"/>
<rect opacity="0.3" x="614" y="496" width="92" height="92" rx="8" stroke="#6E7681" stroke-width="8"/>
<path opacity="0.3" d="M646.678 531.314H650.698L650.698 569.314H646.971L646.971 537.5V536.293L646.118 537.146L636.328 546.936V541.665L646.678 531.314Z" fill="#6E7681" stroke="#6E7681"/>
<path opacity="0.3" d="M658.789 549.724C658.789 542.9 660.37 538.297 662.684 535.411C664.991 532.535 668.063 531.314 671.17 531.314C674.279 531.314 677.382 532.535 679.717 535.413C682.061 538.3 683.67 542.902 683.67 549.724C683.67 557.146 682.057 562.045 679.71 565.077C677.375 568.096 674.276 569.314 671.17 569.314C668.065 569.314 664.998 568.096 662.692 565.08C660.374 562.047 658.789 557.148 658.789 549.724ZM671.17 534.451C669.116 534.451 666.929 535.483 665.275 537.922C663.629 540.348 662.516 544.152 662.516 549.724C662.516 556.456 663.621 560.565 665.275 563.003C666.955 565.479 669.164 566.178 671.17 566.178C673.175 566.178 675.412 565.481 677.123 563.006C678.808 560.569 679.943 556.458 679.943 549.724C679.943 544.15 678.8 540.345 677.123 537.918C675.438 535.481 673.222 534.451 671.17 534.451Z" fill="#6E7681" stroke="#6E7681"/>
<path opacity="0.3" fill-rule="evenodd" clip-rule="evenodd" d="M639.746 511.667C638.569 511.667 637.815 512.567 637.815 513.417C637.815 513.791 638.017 514.105 638.459 514.418C638.911 514.738 639.496 514.97 640.063 515.196L640.074 515.2V515.2C640.083 515.204 640.093 515.208 640.102 515.211C640.637 515.424 641.378 515.718 641.985 516.149C642.609 516.592 643.211 517.266 643.211 518.25C643.211 519.856 641.841 521.333 639.947 521.333C638.374 521.333 637.111 520.344 636.469 519.435L637.558 518.665C638.034 519.34 638.935 520 639.947 520C641.124 520 641.878 519.101 641.878 518.25C641.878 517.885 641.672 517.562 641.213 517.237C640.748 516.907 640.147 516.664 639.581 516.439C639.559 516.43 639.537 516.421 639.514 516.412C638.987 516.203 638.274 515.92 637.689 515.507C637.068 515.067 636.482 514.4 636.482 513.417C636.482 511.811 637.852 510.334 639.746 510.334C641.318 510.334 642.581 511.321 643.224 512.231L642.135 513C641.659 512.326 640.758 511.667 639.746 511.667Z" fill="#6E7681"/>
<path opacity="0.3" d="M676.039 513.335L679.118 521.791L677.949 525H679.283L683.529 513.335H682.196L679.784 519.96L677.372 513.335H676.039Z" fill="#6E7681"/>
<path opacity="0.3" d="M651.356 513.335V521.334H650.022V520.32C649.831 520.976 648.783 521.668 648.039 521.668C646.207 521.668 644.723 519.97 644.723 518.08V513.335H646.056V518.08C646.056 519.273 646.983 520.335 648.039 520.335C649.096 520.335 650.022 519.441 650.022 518.248V513.335H651.356Z" fill="#6E7681"/>
<path opacity="0.3" d="M652.855 521.334V513.334H654.189V514.349C654.38 513.692 655.095 513.001 656.172 513.001C658.337 513.001 659.488 514.699 659.488 516.589V521.334H658.155V516.589C658.155 515.396 657.228 514.251 656.172 514.251C655.115 514.251 654.189 515.228 654.189 516.421V521.334H652.855Z" fill="#6E7681"/>
<path opacity="0.3" fill-rule="evenodd" clip-rule="evenodd" d="M666.288 520.655C665.735 521.081 665.048 521.334 664.305 521.334C662.473 521.334 660.988 519.802 660.988 517.913L660.988 516.089C660.988 514.199 662.473 512.668 664.305 512.668C665.048 512.668 665.735 512.92 666.288 513.346V510H667.621V521.333H666.288V520.655ZM664.305 514.001C665.361 514.001 666.288 514.896 666.288 516.089V517.913C666.288 519.105 665.361 520.001 664.305 520.001C663.248 520.001 662.322 519.105 662.322 517.913L662.322 516.089C662.322 514.896 663.248 514.001 664.305 514.001Z" fill="#6E7681"/>
<path opacity="0.3" fill-rule="evenodd" clip-rule="evenodd" d="M672.329 514.668C671.328 514.668 670.638 515.194 670.385 515.704L669.191 515.111C669.688 514.109 670.866 513.335 672.329 513.335C673.993 513.335 675.537 514.497 675.537 516.154V521.334L674.204 521.334V520.589C673.57 521.064 672.787 521.334 672.051 521.334C671.345 521.334 670.635 521.197 670.08 520.834C669.491 520.449 669.121 519.836 669.121 519.039C669.121 518.285 669.414 517.687 669.902 517.254C670.367 516.843 670.97 516.614 671.565 516.483C672.15 516.353 672.675 516.3 673.193 516.263C673.346 516.251 673.496 516.242 673.645 516.232C673.829 516.22 674.014 516.208 674.204 516.193V516.154C674.204 515.433 673.473 514.668 672.329 514.668ZM674.204 517.53C674.031 517.543 673.865 517.554 673.705 517.564C673.561 517.574 673.423 517.583 673.29 517.592C672.798 517.628 672.346 517.676 671.853 517.784C671.37 517.891 671.013 518.052 670.786 518.253C670.583 518.432 670.454 518.668 670.454 519.039C670.454 519.37 670.583 519.57 670.809 519.718C671.069 519.888 671.491 520.001 672.051 520.001C672.517 520.001 673.073 519.805 673.507 519.441C673.932 519.085 674.204 518.603 674.204 518.03V517.53Z" fill="#6E7681"/>
<path opacity="0.3" d="M635 489V503" stroke="#6E7681" stroke-width="4" stroke-linecap="round" stroke-linejoin="round"/>
<path opacity="0.3" d="M645 489V503" stroke="#6E7681" stroke-width="4" stroke-linecap="round" stroke-linejoin="round"/>
<path opacity="0.3" d="M655 489V503" stroke="#6E7681" stroke-width="4" stroke-linecap="round" stroke-linejoin="round"/>
<path opacity="0.3" d="M665 489V503" stroke="#6E7681" stroke-width="4" stroke-linecap="round" stroke-linejoin="round"/>
<path opacity="0.3" d="M675 489V503" stroke="#6E7681" stroke-width="4" stroke-linecap="round" stroke-linejoin="round"/>
<path opacity="0.3" d="M685 489V503" stroke="#6E7681" stroke-width="4" stroke-linecap="round" stroke-linejoin="round"/>
<path opacity="0.6" d="M605.511 142.965C603.635 141.09 601.092 140.036 598.44 140.036L521.56 140.036C518.908 140.036 516.364 141.09 514.489 142.965L-355.447 1012.9C-361.746 1019.2 -357.284 1029.97 -348.375 1029.97H1468.37C1477.28 1029.97 1481.74 1019.2 1475.45 1012.9L605.511 142.965Z" fill="url(#paint0_radial_1410_1545)"/>
<path opacity="0.3" fill-rule="evenodd" clip-rule="evenodd" d="M563.999 -400C563.999 -402.209 562.208 -404 559.999 -404C557.79 -404 555.999 -402.209 555.999 -400V97.6128C533.589 99.3866 515.338 115.936 510.986 137.519C509.895 142.933 514.476 147.455 519.999 147.455H599.999C605.522 147.455 610.103 142.933 609.012 137.519C604.66 115.936 586.409 99.3866 563.999 97.6128V-400ZM559.999 105.455C580.306 105.455 597.263 119.875 601.157 139.038C601.001 139.204 600.599 139.455 599.999 139.455H519.999C519.399 139.455 518.997 139.204 518.841 139.038C522.735 119.875 539.692 105.455 559.999 105.455Z" fill="#6E7681"/>
<circle opacity="0.3" cx="1355" cy="554.5" r="25" stroke="#6E7681" stroke-width="8"/>
<path opacity="0.3" fill-rule="evenodd" clip-rule="evenodd" d="M1291 513C1288.79 513 1287 514.791 1287 517H1277C1270.37 517 1265 522.373 1265 529V580C1265 585.799 1269.11 590.637 1274.58 591.756C1275.36 591.916 1276.17 592 1277 592H1291H1389C1395.63 592 1401 586.627 1401 580V529C1401 522.373 1395.63 517 1389 517H1295C1295 514.791 1293.21 513 1291 513ZM1389 525H1302.32C1302.76 526.251 1303 527.597 1303 529V580C1303 581.403 1302.76 582.749 1302.32 584H1389C1391.21 584 1393 582.209 1393 580V529C1393 526.791 1391.21 525 1389 525ZM1277 525H1291C1293.21 525 1295 526.791 1295 529V580C1295 582.209 1293.21 584 1291 584H1277C1276.86 584 1276.73 583.993 1276.59 583.979C1274.57 583.775 1273 582.071 1273 580V529C1273 526.791 1274.79 525 1277 525Z" fill="#6E7681"/>
<circle opacity="0.3" cx="1355" cy="554.5" r="3.5" stroke="#6E7681" stroke-width="3"/>
<path fill-rule="evenodd" clip-rule="evenodd" d="M732.071 457.532C689.159 457.532 664.391 424.7 664.391 379.196C664.391 332.828 692.327 304.892 732.359 304.892C752.807 304.892 770.951 313.82 779.015 327.068L781.319 309.5H823.079V522.62H778.727V439.1C770.375 450.044 751.943 457.532 732.071 457.532ZM709.031 381.5C709.031 360.188 722.279 345.5 743.303 345.5C764.039 345.5 778.439 359.9 778.439 381.5C778.439 403.1 764.039 417.5 743.303 417.5C722.279 417.5 709.031 402.812 709.031 381.5Z" fill="white"/>
<path d="M1180.41 309.499C1174.36 308.059 1168.6 307.483 1163.42 307.483C1144.12 307.483 1131.45 316.987 1125.4 331.099L1123.1 309.787H1081.34V453.499H1125.69V391.003C1125.69 362.491 1140.96 351.259 1166.3 351.259H1180.41V309.499Z" fill="white"/>
<path fill-rule="evenodd" clip-rule="evenodd" d="M721.487 770.5H679.727V553.348H724.079V643.204C732.719 630.244 751.727 621.604 772.463 621.604C812.783 621.604 838.415 652.996 838.415 699.94C838.415 744.58 809.903 774.244 769.007 774.244C750.902 774.244 735.119 767.043 726.458 755.979L721.487 770.5ZM736.703 726.054C742.661 730.911 750.483 733.636 759.503 733.636C780.527 733.636 793.775 718.948 793.775 697.636C793.775 676.324 780.527 661.636 759.503 661.636C759.252 661.636 759.003 661.638 758.755 661.642C738.421 661.984 724.367 676.296 724.367 697.636C724.367 709.84 728.964 719.745 736.703 726.054Z" fill="white"/>
<path d="M1226.41 578.692C1226.41 592.804 1215.18 604.036 1201.35 604.036C1187.24 604.036 1176.01 592.804 1176.01 578.692C1176.01 564.58 1187.24 553.636 1201.35 553.636C1215.18 553.636 1226.41 564.58 1226.41 578.692Z" fill="white"/>
<path d="M1179.46 770.5H1223.82V626.5H1179.46V770.5Z" fill="white"/>
<path d="M962.924 676.413C965.827 676.378 968.718 676.302 971.596 676.181C1014.76 674.362 1054.81 662.211 1084.83 621.862C1085.99 620.31 1087.09 618.701 1088.13 617.037C1095.46 605.386 1100.18 591.001 1103.17 574.25C1103.6 571.856 1103.99 569.409 1104.35 566.91C1106.87 549.418 1107.79 529.381 1107.84 507.019C1107.85 504.918 1107.85 502.857 1107.85 500.832C1107.86 476.87 1107.53 458.194 1105.81 442.49C1103.27 419.115 1097.66 402.325 1085.56 384.493C1068.03 360.302 1034.89 338.945 971.299 340.074C1027.08 341.433 1063.64 361.283 1078.97 382.185C1102.16 413.803 1103.94 439.677 1103.79 507.01C1103.67 557.949 1099.02 596.001 1081.58 619.441C1050.61 661.054 1008.68 671.809 962.875 672.358L962.924 676.413Z" fill="black"/>
<path d="M913.583 662.349C913.567 660.204 913.551 658.244 913.625 656.522C913.627 656.463 913.63 656.405 913.633 656.347H1012.91C1012.92 656.405 1012.92 656.463 1012.92 656.522C1012.99 658.244 1012.98 660.203 1012.96 662.349C1012.87 674.181 1012.73 691.68 1027.22 706.345C1042.01 721.324 1072.07 733.344 1133.01 733.344C1133.75 733.344 1134.58 733.332 1135.48 733.32C1153.99 733.062 1203.13 732.378 1203.13 822.257V822.264C1203.13 868.005 1203.13 1124.58 1216 1229.37H1128.54C1128.51 1228.7 1128.48 1228.02 1128.45 1227.34H798.1C798.068 1228.02 798.038 1228.7 798.008 1229.37H704C718.017 1124.57 723.416 867.981 723.416 822.257C723.416 732.378 772.56 733.062 791.063 733.32C791.965 733.332 792.793 733.344 793.54 733.344C854.48 733.344 884.533 721.323 899.329 706.344C913.813 691.68 913.676 674.181 913.583 662.349Z" fill="#E7C273"/>
<path d="M913.485 671.166C915.321 674.639 917.348 677.879 919.582 680.882C950.868 722.924 993.23 734.898 1039.51 734.344C1054.48 734.165 1069.04 732.906 1082.95 729.863C1054.19 725.24 1037.22 716.468 1027.22 706.345C1012.73 691.68 1012.87 674.181 1012.96 662.349C1012.98 660.203 1013 658.244 1012.92 656.522C1012.92 656.463 1012.92 656.405 1012.92 656.347H913.635C913.633 656.405 913.63 656.463 913.627 656.522C913.554 658.244 913.569 660.204 913.586 662.349C913.607 665.03 913.63 668.002 913.485 671.166Z" fill="black" fill-opacity="0.6"/>
<path d="M721.543 923.206C738.571 940.049 761.986 950.45 787.829 950.45C839.889 950.45 882.091 908.247 882.091 856.188C882.091 804.128 839.889 761.926 787.829 761.926C764.765 761.926 743.636 770.209 727.254 783.963C724.825 794.428 723.418 807.046 723.418 822.257C723.418 837.328 722.831 875.306 721.543 923.206Z" fill="black" fill-opacity="0.6"/>
<path d="M1143.75 761.904C1163.97 761.904 1182.7 768.273 1198.06 779.113C1201.24 790.464 1203.13 804.616 1203.13 822.257V822.267C1203.13 837.942 1203.13 878.364 1203.65 928.949C1187.36 942.369 1166.5 950.428 1143.75 950.428C1143.17 950.428 1142.59 950.423 1142.01 950.413C1145.17 1023.66 1150.8 1130.9 1159.78 1229.37H1128.54C1128.51 1228.7 1128.48 1228.02 1128.45 1227.34H1080L1059.94 899.354C1053.26 886.415 1049.48 871.731 1049.48 856.166C1049.48 804.107 1091.69 761.904 1143.75 761.904Z" fill="black" fill-opacity="0.6"/>
<path d="M798.1 1227.34H1128.45C1127.46 1205.7 1125.75 1179.47 1123.85 1150.29L1123.85 1150.26C1119.47 1082.92 1114.07 999.863 1114.07 921.176H1208.59C1204.94 873.466 1203.13 835.915 1203.13 822.257C1203.13 732.378 1153.99 733.062 1135.48 733.319C1134.58 733.332 1133.75 733.343 1133.01 733.343C1108.08 733.343 1088.32 731.332 1072.66 727.931C1065.65 733.002 1059.37 739.539 1052.75 746.433C1033.95 766.008 1012.37 788.469 963.273 788.468C914.171 788.469 892.6 766.009 873.799 746.433C867.178 739.539 860.9 733.002 853.884 727.931C838.224 731.332 818.466 733.343 793.54 733.343C792.794 733.343 791.965 733.332 791.063 733.319C772.56 733.062 723.416 732.378 723.416 822.257C723.416 835.915 721.602 873.466 717.953 921.176H812.475C812.475 999.864 807.074 1082.92 802.695 1150.26C800.796 1179.46 799.09 1205.7 798.1 1227.34Z" fill="#02DA9A"/>
<path fill-rule="evenodd" clip-rule="evenodd" d="M853.454 725.95C854.017 725.827 854.605 725.95 855.072 726.288C862.236 731.466 868.62 738.113 875.188 744.952L875.262 745.029C884.679 754.834 894.591 765.139 908.191 773.039C921.745 780.911 939.059 786.441 963.273 786.441C987.487 786.441 1004.8 780.911 1018.35 773.039C1031.96 765.139 1041.87 754.834 1051.28 745.029L1051.36 744.952C1057.93 738.113 1064.31 731.466 1071.47 726.288C1071.94 725.95 1072.53 725.827 1073.09 725.95C1088.58 729.313 1108.18 731.316 1133.01 731.316C1133.74 731.316 1134.65 731.303 1135.55 731.291C1144.81 731.162 1162.31 730.918 1177.47 742.369C1192.77 753.934 1205.16 776.979 1205.16 822.257C1205.16 835.831 1206.97 873.314 1210.61 921.021C1210.66 921.584 1210.46 922.14 1210.08 922.554C1209.7 922.968 1209.16 923.203 1208.59 923.203H1116.1C1116.19 1001.21 1121.53 1083.36 1125.87 1150.13L1125.88 1150.18C1127.77 1179.35 1129.48 1205.59 1130.47 1227.25C1130.5 1227.8 1130.29 1228.34 1129.91 1228.74C1129.53 1229.14 1129 1229.37 1128.45 1229.37H798.1C797.546 1229.37 797.016 1229.14 796.634 1228.74C796.251 1228.34 796.049 1227.8 796.074 1227.25C797.066 1205.58 798.773 1179.33 800.671 1150.14L800.672 1150.13C805.014 1083.36 810.355 1001.21 810.446 923.203H717.953C717.389 923.203 716.85 922.968 716.466 922.554C716.082 922.14 715.889 921.584 715.932 921.021C719.581 873.314 721.389 835.831 721.389 822.257C721.389 776.979 733.775 753.934 749.079 742.369C764.233 730.918 781.832 731.163 791.09 731.292C791.995 731.305 792.811 731.316 793.54 731.316C818.363 731.316 837.971 729.313 853.454 725.95ZM791.045 735.347C781.773 735.218 765.513 735.034 751.523 745.605C737.629 756.103 725.444 777.655 725.444 822.257C725.444 835.789 723.68 872.473 720.141 919.148H810.447V827.99C810.447 826.87 811.355 825.962 812.475 825.962C813.595 825.962 814.502 826.87 814.502 827.99V921.176C814.502 999.93 809.098 1083.04 804.72 1150.36L804.718 1150.39C802.881 1178.65 801.225 1204.11 800.224 1225.32H1126.32C1125.32 1204.12 1123.67 1178.67 1121.83 1150.42L1121.83 1150.39L1121.83 1150.37C1117.45 1083.05 1112.04 999.934 1112.04 921.176V827.99C1112.04 826.87 1112.95 825.962 1114.07 825.962C1115.19 825.962 1116.1 826.87 1116.1 827.99V919.148H1206.4C1202.87 872.473 1201.1 835.789 1201.1 822.257C1201.1 777.655 1188.92 756.103 1175.02 745.605C1161.03 735.034 1144.78 735.218 1135.51 735.347C1134.61 735.359 1133.77 735.371 1133.01 735.371C1108.45 735.371 1088.82 733.427 1073.13 730.104C1066.57 734.972 1060.62 741.159 1054.21 747.838L1054.14 747.906C1044.78 757.658 1034.52 768.34 1020.39 776.545C1006.18 784.797 988.161 790.496 963.273 790.496C938.385 790.496 920.362 784.797 906.155 776.545C892.028 768.34 881.769 757.658 872.403 747.906L872.337 747.838C865.923 741.16 859.973 734.972 853.42 730.104C837.729 733.427 818.099 735.371 793.54 735.371C792.78 735.371 791.939 735.359 791.045 735.347Z" fill="black"/>
<path d="M1131.09 465.783C1141.43 469.144 1143.3 497.66 1138.44 519.509C1134.57 536.907 1129.17 558.64 1116.61 559.901C1109.03 560.663 1089.57 552.385 1086.75 547.062C1072.45 520.149 1079.63 496.204 1103.43 477.16C1110.09 471.824 1119.98 462.172 1131.09 465.783Z" fill="#D0B170"/>
<path d="M1131.09 465.783C1129.13 465.147 1127.21 464.923 1125.34 465.013C1106.68 498.242 1105.53 520.064 1105.4 557.857C1109.78 559.313 1113.93 560.17 1116.61 559.901C1129.17 558.64 1134.57 536.907 1138.43 519.509C1143.29 497.66 1141.43 469.144 1131.09 465.783Z" fill="black" fill-opacity="0.6"/>
<path fill-rule="evenodd" clip-rule="evenodd" d="M1122.53 478.396C1121.54 477.86 1120.31 478.222 1119.77 479.205C1115.23 487.535 1112.83 493.426 1111.4 499.483C1110.08 505.034 1109.6 510.672 1108.94 518.286C1108.89 518.901 1108.84 519.529 1108.78 520.171C1108.68 521.287 1109.51 522.27 1110.63 522.367C1111.74 522.463 1112.72 521.638 1112.82 520.522C1112.87 519.914 1112.92 519.32 1112.97 518.74C1113.64 511.006 1114.1 505.665 1115.34 500.417C1116.67 494.831 1118.89 489.289 1123.33 481.147C1123.87 480.164 1123.51 478.933 1122.53 478.396Z" fill="black"/>
<path d="M795.46 465.783C785.118 469.144 783.257 497.66 788.115 519.509C791.984 536.907 797.38 558.64 809.94 559.901C817.519 560.663 836.979 552.385 839.807 547.062C854.105 520.149 846.919 496.204 823.127 477.16C816.46 471.824 806.571 462.172 795.46 465.783Z" fill="#D0B170"/>
<path fill-rule="evenodd" clip-rule="evenodd" d="M804.026 478.391C805.009 477.854 806.24 478.217 806.777 479.2C811.32 487.529 813.719 493.421 815.152 499.477C816.466 505.028 816.951 510.666 817.607 518.28C817.66 518.895 817.714 519.524 817.77 520.166C817.867 521.281 817.041 522.264 815.926 522.361C814.81 522.458 813.827 521.632 813.73 520.516C813.678 519.908 813.626 519.314 813.576 518.734C812.909 511 812.448 505.66 811.206 500.411C809.884 494.825 807.657 489.283 803.217 481.141C802.681 480.158 803.043 478.927 804.026 478.391Z" fill="black"/>
<path d="M844.171 619.441C826.728 596.001 822.083 557.949 821.965 507.01C821.81 439.677 823.59 413.803 846.781 382.185C862.872 360.248 902.346 339.471 962.877 340.01C1023.41 339.471 1062.88 360.248 1078.97 382.185C1102.16 413.803 1103.94 439.677 1103.79 507.01C1103.67 557.949 1099.03 596.001 1081.58 619.441C1050.61 661.054 1008.68 671.809 962.877 672.358C917.069 672.906 875.138 661.054 844.171 619.441Z" fill="#E7C273"/>
<ellipse cx="915.465" cy="512.622" rx="10.4102" ry="16.925" fill="#4D2C19"/>
<ellipse cx="1011.08" cy="512.622" rx="10.4102" ry="16.925" fill="#4D2C19"/>
<path d="M1036.56 480.282C1038.57 482.544 1038.74 486.613 1035.89 489.054C1028.03 495.774 1024.98 481.776 1013.29 481.98C1006.53 482.097 1002.19 488.211 998.284 481.98C992.793 473.222 1005.54 468.984 1013.82 468.983C1023.51 468.983 1033.24 476.533 1036.56 480.282Z" fill="#3A2113"/>
<path d="M889.985 480.282C887.979 482.544 887.809 486.613 890.661 489.054C898.513 495.774 901.566 481.776 913.258 481.98C920.014 482.097 924.355 488.211 928.263 481.98C933.754 473.222 921.008 468.984 912.731 468.983C903.032 468.983 893.31 476.533 889.985 480.282Z" fill="#3A2113"/>
<path fill-rule="evenodd" clip-rule="evenodd" d="M951.576 527.993C952.45 528.694 952.591 529.97 951.89 530.843C949.604 533.696 948.106 538.075 948.106 544.441C948.106 549.157 950.063 552.204 952.811 554.115C955.651 556.09 959.485 556.942 963.209 556.819C964.328 556.783 965.265 557.66 965.302 558.779C965.339 559.898 964.461 560.835 963.342 560.872C959.004 561.015 954.24 560.047 950.496 557.445C946.662 554.778 944.051 550.49 944.051 544.441C944.051 537.474 945.691 532.095 948.726 528.307C949.426 527.434 950.702 527.293 951.576 527.993Z" fill="black"/>
<path fill-rule="evenodd" clip-rule="evenodd" d="M907.392 592.303C907.729 591.235 908.869 590.643 909.936 590.981C948.012 603.02 977.43 603.02 1015.51 590.981C1016.57 590.643 1017.71 591.235 1018.05 592.303C1018.39 593.37 1017.8 594.509 1016.73 594.847C977.857 607.138 947.585 607.138 908.714 594.847C907.646 594.509 907.054 593.37 907.392 592.303Z" fill="black"/>
<path d="M846.783 382.185C862.874 360.248 902.348 339.471 962.879 340.01C1023.41 339.471 1062.88 360.248 1078.97 382.185C1092.8 401.028 1099.01 417.83 1101.75 442.583C1101.75 442.583 1017.11 443.935 962.879 443.935C908.648 443.935 824.012 442.583 824.012 442.583C826.746 417.83 832.962 401.028 846.783 382.185Z" fill="black"/>
<path d="M995.376 470.359C992.211 473.583 986.345 473.969 982.072 470.337C970.874 460.818 986.53 454.381 984.224 438.553C982.558 427.114 976.54 420.7 984.547 415.846C997.752 407.839 1004.19 423.629 1004.97 437.995C1005.83 453.811 1000.62 465.016 995.376 470.359Z" fill="black"/>
<path d="M963.342 471.13C959.503 473.512 953.875 474.402 950.423 469.982C941.125 458.079 958.537 453.511 960.05 439.615C961.301 428.123 956.902 420.705 965.748 417.632C979.122 412.985 983.232 429.972 980 443.993C976.411 459.561 969.703 467.183 963.342 471.13Z" fill="black"/>
<path d="M929.642 467.097C924.688 469.582 918.27 466.368 916.26 462.614C909.896 450.724 927.107 447.376 934.599 435.459C940.751 425.672 938.31 417.033 949.019 417.398C963.17 417.88 960.122 435.266 951.999 447.142C942.978 460.329 935.019 464.399 929.642 467.097Z" fill="black"/>
<path fill-rule="evenodd" clip-rule="evenodd" d="M445.289 453.652H396.617L472.649 240.532H518.153L593.897 453.652H544.361L529.385 408.724H460.65L445.289 453.652ZM474.089 369.556H516.137L500.873 324.052C498.962 318.079 496.852 311.312 495.695 306.22C495.458 305.174 495.26 304.199 495.113 303.316C494.249 308.212 491.945 316.276 489.353 324.052L474.089 369.556Z" fill="white"/>
<path d="M943.36 265.864V340.744C943.36 364.36 935.584 374.152 916.576 374.152C898.432 374.152 890.368 363.784 890.368 340.168V265.864H846.016V356.296C846.016 391.72 866.176 413.608 899.008 413.608C916.288 413.608 934.144 405.544 943.072 393.736L945.952 409.864H987.712V265.864H943.36Z" fill="#02DA9A" stroke="black" stroke-width="3"/>
<path d="M1034.24 243.4C1048.07 243.4 1059.3 232.168 1059.3 218.056C1059.3 203.944 1048.07 193 1034.24 193C1020.13 193 1008.9 203.944 1008.9 218.056C1008.9 232.168 1020.13 243.4 1034.24 243.4ZM1034.24 243.4C1048.07 243.4 1059.3 232.168 1059.3 218.056C1059.3 203.944 1048.07 193 1034.24 193C1020.13 193 1008.9 203.944 1008.9 218.056C1008.9 232.168 1020.13 243.4 1034.24 243.4Z" fill="#02DA9A"/>
<path d="M1034.24 243.4C1048.07 243.4 1059.3 232.168 1059.3 218.056C1059.3 203.944 1048.07 193 1034.24 193C1020.13 193 1008.9 203.944 1008.9 218.056C1008.9 232.168 1020.13 243.4 1034.24 243.4Z" stroke="black" stroke-width="3"/>
<path d="M1056.71 409.864H1012.36V265.864H1056.71V409.864Z" fill="#02DA9A" stroke="black" stroke-width="3"/>
<path d="M1238.56 453.652V417.652L1255.55 399.796L1287.8 453.652H1339.07L1286.65 366.676L1340.8 309.652H1285.21L1238.56 361.492V236.5H1194.2V453.652H1238.56Z" fill="white"/>
<path d="M1338.85 522.772C1347.49 525.364 1357.57 526.804 1368.23 526.804C1393.57 526.804 1409.7 514.42 1421.8 485.044L1494.95 309.652H1448.87L1414.02 402.1L1382.63 309.652H1335.11L1393 458.548L1390.41 465.46C1384.65 481.012 1378.31 485.62 1363.33 485.62H1338.85V522.772Z" fill="white"/>
<path d="M390.079 770.652V691.74C390.079 673.884 401.311 662.364 418.879 662.364C434.143 662.364 444.223 674.172 444.223 692.316V770.652H488.575V681.66C488.575 643.932 468.703 622.044 434.431 622.044C415.711 622.044 399.295 629.244 390.367 641.628V553.5H345.727V770.652H390.079Z" fill="white"/>
<path fill-rule="evenodd" clip-rule="evenodd" d="M583.453 774.108C537.373 774.108 503.965 743.868 503.965 698.364C503.965 652.86 537.373 622.332 583.453 622.332C629.245 622.332 662.653 652.86 662.653 698.364C662.653 743.868 629.245 774.108 583.453 774.108ZM548.605 698.076C548.605 676.476 562.717 662.076 583.453 662.076C603.901 662.076 618.013 676.476 618.013 698.076C618.013 719.964 603.901 734.364 583.453 734.364C562.717 734.364 548.605 719.964 548.605 698.076Z" fill="white"/>
<path fill-rule="evenodd" clip-rule="evenodd" d="M897.065 770.652H855.305V553.5H899.657V643.356C908.297 630.396 927.305 621.756 948.041 621.756C988.361 621.756 1013.99 653.148 1013.99 700.092C1013.99 744.732 985.481 774.396 944.585 774.396C926.48 774.396 910.697 767.195 902.036 756.132L897.065 770.652ZM912.281 726.206C918.24 731.063 926.061 733.788 935.081 733.788C956.105 733.788 969.353 719.1 969.353 697.788C969.353 676.476 956.105 661.788 935.081 661.788C934.831 661.788 934.581 661.79 934.333 661.794C913.999 662.136 899.945 676.448 899.945 697.788C899.945 709.992 904.542 719.898 912.281 726.206Z" fill="white"/>
<path d="M1013.74 839.772C1022.38 842.364 1032.46 843.804 1043.12 843.804C1068.46 843.804 1084.59 831.42 1096.68 802.044L1169.84 626.652H1123.76L1088.91 719.1L1057.52 626.652H1010L1067.88 775.548L1065.29 782.46C1059.53 798.012 1053.2 802.62 1038.22 802.62H1013.74V839.772Z" fill="white"/>
<path d="M1238.08 725.148C1238.08 754.236 1261.99 774.396 1300 774.396C1337.44 774.396 1363.65 755.676 1363.65 724.86C1363.65 701.82 1350.69 690.876 1327.07 685.692L1300.29 679.932C1290.21 677.628 1284.74 673.884 1284.74 667.26C1284.74 659.484 1291.07 654.3 1301.15 654.3C1311.81 654.3 1317.86 660.924 1317.86 670.716H1359.91C1359.91 641.628 1336.58 622.044 1303.17 622.044C1268.61 622.044 1242.98 639.324 1242.98 669.276C1242.98 694.62 1255.94 706.14 1282.43 711.9L1308.93 717.66C1319.59 719.964 1321.89 724.572 1321.89 728.892C1321.89 736.38 1315.55 741.276 1301.73 741.276C1288.19 741.276 1280.71 735.228 1280.13 725.148H1238.08Z" fill="white"/>
<path d="M1463.14 732.06C1457.96 733.788 1452.78 734.652 1448.46 734.652C1438.09 734.652 1430.89 729.18 1430.89 711.036V663.516H1462.86V626.652H1430.89V582.012H1386.54V626.652H1364.65V663.516H1386.54V720.252C1386.54 760.572 1407.27 774.108 1436.94 774.108C1449.03 774.108 1459.98 771.804 1468.33 767.772L1463.14 732.06Z" fill="white"/>
<path d="M1508.63 774.396C1522.74 774.396 1535.13 762.588 1535.13 748.476C1535.13 734.076 1522.74 722.268 1508.63 722.268C1493.94 722.268 1482.14 734.076 1482.14 748.476C1482.14 762.588 1493.94 774.396 1508.63 774.396Z" fill="white"/>
</g>
<defs>
<radialGradient id="paint0_radial_1410_1545" cx="0" cy="0" r="1" gradientUnits="userSpaceOnUse" gradientTransform="translate(559.999 97.454) rotate(90) scale(533.214 1066.43)">
<stop stop-color="white" stop-opacity="0.6"/>
<stop offset="1" stop-color="white" stop-opacity="0"/>
</radialGradient>
<clipPath id="clip0_1410_1545">
<rect width="1920" height="1200" rx="64" fill="white"/>
</clipPath>
</defs>
</svg>
