<svg width="250" height="32" viewBox="0 0 250 32" fill="none" xmlns="http://www.w3.org/2000/svg">
<g clip-path="url(#clip0_1484_4689)">
<rect width="250" height="32" rx="16" fill="#ECDFFC"/>
<rect width="250" height="32" rx="16" fill="white" fill-opacity="0.6" style="mix-blend-mode:luminosity"/>
<mask id="mask0_1484_4689" style="mask-type:alpha" maskUnits="userSpaceOnUse" x="0" y="0" width="250" height="32">
<rect width="250" height="32" rx="16" fill="white"/>
</mask>
<g mask="url(#mask0_1484_4689)">
<rect x="107" width="143" height="32" fill="#ECDFFC"/>
</g>
<path d="M30.984 10.48C31.352 10.48 31.672 10.5013 31.944 10.544C32.9413 10.6987 33.6853 11.1093 34.176 11.776C34.672 12.4373 34.92 13.2747 34.92 14.288C34.92 15.296 34.672 16.1333 34.176 16.8C33.68 17.4667 32.936 17.8773 31.944 18.032C31.672 18.0747 31.352 18.096 30.984 18.096H28.296V22H26.12V10.48H30.984ZM30.888 16.064C31.192 16.064 31.4373 16.0373 31.624 15.984C32.024 15.8773 32.3067 15.664 32.472 15.344C32.6427 15.0187 32.728 14.6667 32.728 14.288C32.728 13.9093 32.6427 13.56 32.472 13.24C32.3067 12.9147 32.024 12.6987 31.624 12.592C31.4373 12.5387 31.192 12.512 30.888 12.512H28.296V16.064H30.888ZM39.0543 13.776C39.5396 13.4773 40.1156 13.328 40.7823 13.328C40.9636 13.328 41.1289 13.3387 41.2783 13.36V15.392C41.1129 15.3387 40.9076 15.312 40.6623 15.312C40.2569 15.312 39.8969 15.3867 39.5823 15.536C39.1983 15.712 38.9049 15.9733 38.7023 16.32C38.4996 16.6667 38.3983 17.088 38.3983 17.584V22H36.2063V13.36H38.1263V14.752C38.3663 14.32 38.6756 13.9947 39.0543 13.776ZM46.2118 22.24C45.3531 22.24 44.5931 22.048 43.9318 21.664C43.2704 21.2747 42.7558 20.736 42.3878 20.048C42.0251 19.3547 41.8438 18.5653 41.8438 17.68C41.8438 16.7893 42.0278 16 42.3958 15.312C42.7691 14.6187 43.2864 14.08 43.9478 13.696C44.6144 13.312 45.3691 13.12 46.2118 13.12C47.0704 13.12 47.8304 13.3147 48.4918 13.704C49.1584 14.088 49.6758 14.6267 50.0438 15.32C50.4118 16.0133 50.5958 16.8 50.5958 17.68C50.5958 18.5653 50.4091 19.3547 50.0358 20.048C49.6678 20.736 49.1504 21.2747 48.4838 21.664C47.8224 22.048 47.0651 22.24 46.2118 22.24ZM46.2118 20.208C46.8891 20.208 47.4038 19.9787 47.7558 19.52C48.1131 19.0613 48.2918 18.448 48.2918 17.68C48.2918 16.896 48.1131 16.28 47.7558 15.832C47.3984 15.3787 46.8838 15.152 46.2118 15.152C45.5238 15.152 45.0064 15.3787 44.6598 15.832C44.3184 16.28 44.1478 16.896 44.1478 17.68C44.1478 18.4693 44.3238 19.088 44.6758 19.536C45.0331 19.984 45.5451 20.208 46.2118 20.208ZM56.755 13.104C57.7683 13.104 58.523 13.3627 59.019 13.88C59.5203 14.3973 59.8297 14.944 59.947 15.52C60.0697 16.096 60.131 16.64 60.131 17.152V22H57.923V17.92C57.923 17.4827 57.891 17.072 57.827 16.688C57.763 16.304 57.5923 15.952 57.315 15.632C57.043 15.312 56.627 15.152 56.067 15.152C55.5657 15.152 55.1337 15.3253 54.771 15.672C54.4083 16.0133 54.227 16.6613 54.227 17.616V22H52.019V13.36H53.955V14.248C54.2803 13.8853 54.6777 13.6053 55.147 13.408C55.6163 13.2053 56.1523 13.104 56.755 13.104ZM65.6186 22.24C64.76 22.24 64 22.048 63.3386 21.664C62.6773 21.2747 62.1626 20.736 61.7946 20.048C61.432 19.3547 61.2506 18.5653 61.2506 17.68C61.2506 16.7893 61.4346 16 61.8026 15.312C62.176 14.6187 62.6933 14.08 63.3546 13.696C64.0213 13.312 64.776 13.12 65.6186 13.12C66.4773 13.12 67.2373 13.3147 67.8986 13.704C68.5653 14.088 69.0826 14.6267 69.4506 15.32C69.8186 16.0133 70.0026 16.8 70.0026 17.68C70.0026 18.5653 69.816 19.3547 69.4426 20.048C69.0746 20.736 68.5573 21.2747 67.8906 21.664C67.2293 22.048 66.472 22.24 65.6186 22.24ZM65.6186 20.208C66.296 20.208 66.8106 19.9787 67.1626 19.52C67.52 19.0613 67.6986 18.448 67.6986 17.68C67.6986 16.896 67.52 16.28 67.1626 15.832C66.8053 15.3787 66.2906 15.152 65.6186 15.152C64.9306 15.152 64.4133 15.3787 64.0666 15.832C63.7253 16.28 63.5546 16.896 63.5546 17.68C63.5546 18.4693 63.7306 19.088 64.0826 19.536C64.44 19.984 64.952 20.208 65.6186 20.208ZM79.3779 13.36V22H77.4579V21.112C77.1325 21.4747 76.7352 21.7573 76.2659 21.96C75.7965 22.1573 75.2605 22.256 74.6579 22.256C73.6445 22.256 72.8872 21.9973 72.3859 21.48C71.8899 20.9627 71.5805 20.416 71.4579 19.84C71.3405 19.264 71.2819 18.72 71.2819 18.208V13.36H73.4899V17.44C73.4899 17.8773 73.5219 18.288 73.5859 18.672C73.6499 19.056 73.8179 19.408 74.0899 19.728C74.3672 20.048 74.7859 20.208 75.3459 20.208C75.8472 20.208 76.2792 20.0373 76.6419 19.696C77.0045 19.3493 77.1859 18.6987 77.1859 17.744V13.36H79.3779ZM86.0138 13.104C87.0271 13.104 87.7818 13.3627 88.2778 13.88C88.7791 14.3973 89.0884 14.944 89.2058 15.52C89.3284 16.096 89.3898 16.64 89.3898 17.152V22H87.1818V17.92C87.1818 17.4827 87.1498 17.072 87.0858 16.688C87.0218 16.304 86.8511 15.952 86.5738 15.632C86.3018 15.312 85.8858 15.152 85.3258 15.152C84.8244 15.152 84.3924 15.3253 84.0298 15.672C83.6671 16.0133 83.4858 16.6613 83.4858 17.616V22H81.2778V13.36H83.2138V14.248C83.5391 13.8853 83.9364 13.6053 84.4058 13.408C84.8751 13.2053 85.4111 13.104 86.0138 13.104ZM94.5216 22.24C93.4336 22.24 92.5536 21.9947 91.8816 21.504C91.215 21.0133 90.8096 20.3147 90.6656 19.408L92.8896 19.072C92.9803 19.4827 93.1803 19.8027 93.4896 20.032C93.8043 20.256 94.2016 20.368 94.6816 20.368C95.071 20.368 95.3723 20.2933 95.5856 20.144C95.8043 19.9893 95.9136 19.776 95.9136 19.504C95.9136 19.3227 95.8683 19.184 95.7776 19.088C95.6923 18.9867 95.511 18.888 95.2336 18.792C94.9616 18.696 94.495 18.56 93.8336 18.384C93.119 18.2027 92.5536 18 92.1376 17.776C91.7216 17.552 91.4203 17.2853 91.2336 16.976C91.047 16.6667 90.9536 16.288 90.9536 15.84C90.9536 15.2907 91.095 14.8107 91.3776 14.4C91.6603 13.9893 92.0603 13.6747 92.5776 13.456C93.095 13.232 93.7003 13.12 94.3936 13.12C95.0656 13.12 95.663 13.224 96.1856 13.432C96.7136 13.64 97.1376 13.9387 97.4576 14.328C97.783 14.712 97.983 15.1627 98.0576 15.68L95.8336 16.08C95.7963 15.76 95.6576 15.5067 95.4176 15.32C95.1776 15.1333 94.8523 15.024 94.4416 14.992L94.2736 14.984C93.9216 14.984 93.639 15.0507 93.4256 15.184C93.2176 15.3173 93.1136 15.4987 93.1136 15.728C93.1136 15.8827 93.167 16.0107 93.2736 16.112C93.3803 16.208 93.5883 16.3093 93.8976 16.416C94.207 16.5173 94.7136 16.656 95.4176 16.832C96.079 17.0027 96.607 17.2027 97.0016 17.432C97.3963 17.656 97.6843 17.9253 97.8656 18.24C98.047 18.5547 98.1376 18.9387 98.1376 19.392C98.1376 19.9787 97.9936 20.488 97.7056 20.92C97.4176 21.3467 97.0016 21.6747 96.4576 21.904C95.9136 22.128 95.2683 22.24 94.5216 22.24Z" fill="black"/>
<rect x="14" y="13" width="6" height="6" rx="3" fill="#8E5BEE"/>
<path d="M122.088 11.832H118.16V10.48H127.44V11.832H123.512V22H122.088V11.832ZM132.866 13.136C133.73 13.136 134.418 13.3493 134.93 13.776C135.442 14.2027 135.799 14.7253 136.002 15.344C136.204 15.9573 136.306 16.584 136.306 17.224V22H134.866V17.672C134.866 16.744 134.684 15.9813 134.322 15.384C133.964 14.7867 133.364 14.488 132.522 14.488C131.786 14.488 131.204 14.7387 130.778 15.24C130.356 15.736 130.146 16.472 130.146 17.448V22H128.706V10.48H129.986V14.472C130.311 14.04 130.716 13.7093 131.202 13.48C131.692 13.2507 132.247 13.136 132.866 13.136ZM139.434 18.08C139.492 18.9813 139.746 19.6747 140.194 20.16C140.647 20.6453 141.271 20.888 142.066 20.888C142.631 20.888 143.124 20.7573 143.546 20.496C143.972 20.2347 144.306 19.8587 144.546 19.368L145.914 19.84C145.578 20.5973 145.074 21.1867 144.402 21.608C143.73 22.0293 142.972 22.24 142.13 22.24C141.287 22.24 140.546 22.0533 139.906 21.68C139.271 21.3067 138.778 20.7787 138.426 20.096C138.079 19.4133 137.906 18.6267 137.906 17.736C137.906 16.8027 138.076 15.9893 138.418 15.296C138.764 14.5973 139.25 14.0613 139.874 13.688C140.503 13.3093 141.234 13.12 142.066 13.12C142.892 13.12 143.604 13.3067 144.202 13.68C144.804 14.048 145.266 14.5787 145.586 15.272C145.906 15.96 146.066 16.7787 146.066 17.728C146.066 17.8827 146.063 18 146.058 18.08H139.434ZM142.114 14.4C141.34 14.4 140.73 14.616 140.282 15.048C139.834 15.48 139.559 16.1093 139.458 16.936H144.578C144.402 15.2453 143.58 14.4 142.114 14.4ZM153.523 13.36H154.97L150.267 25.84H148.883L150.307 21.968L146.803 13.36H148.299L150.995 20.16L153.523 13.36ZM172.104 11.832H168.176V10.48H177.456V11.832H173.528V22H172.104V11.832ZM182.881 13.136C183.745 13.136 184.433 13.3493 184.945 13.776C185.457 14.2027 185.815 14.7253 186.017 15.344C186.22 15.9573 186.321 16.584 186.321 17.224V22H184.881V17.672C184.881 16.744 184.7 15.9813 184.337 15.384C183.98 14.7867 183.38 14.488 182.537 14.488C181.801 14.488 181.22 14.7387 180.793 15.24C180.372 15.736 180.161 16.472 180.161 17.448V22H178.721V10.48H180.001V14.472C180.327 14.04 180.732 13.7093 181.217 13.48C181.708 13.2507 182.263 13.136 182.881 13.136ZM189.449 18.08C189.508 18.9813 189.761 19.6747 190.209 20.16C190.663 20.6453 191.287 20.888 192.081 20.888C192.647 20.888 193.14 20.7573 193.561 20.496C193.988 20.2347 194.321 19.8587 194.561 19.368L195.929 19.84C195.593 20.5973 195.089 21.1867 194.417 21.608C193.745 22.0293 192.988 22.24 192.145 22.24C191.303 22.24 190.561 22.0533 189.921 21.68C189.287 21.3067 188.793 20.7787 188.441 20.096C188.095 19.4133 187.921 18.6267 187.921 17.736C187.921 16.8027 188.092 15.9893 188.433 15.296C188.78 14.5973 189.265 14.0613 189.889 13.688C190.519 13.3093 191.249 13.12 192.081 13.12C192.908 13.12 193.62 13.3067 194.217 13.68C194.82 14.048 195.281 14.5787 195.601 15.272C195.921 15.96 196.081 16.7787 196.081 17.728C196.081 17.8827 196.079 18 196.073 18.08H189.449ZM192.129 14.4C191.356 14.4 190.745 14.616 190.297 15.048C189.849 15.48 189.575 16.1093 189.473 16.936H194.593C194.417 15.2453 193.596 14.4 192.129 14.4ZM206.476 13.136C207.068 13.136 207.583 13.2613 208.02 13.512C208.457 13.7573 208.793 14.1093 209.028 14.568C209.263 15.0213 209.38 15.552 209.38 16.16L209.372 22H207.948L207.956 16.472C207.956 16.0507 207.876 15.6853 207.716 15.376C207.561 15.0613 207.343 14.8213 207.06 14.656C206.783 14.4907 206.463 14.408 206.1 14.408C205.764 14.408 205.452 14.4853 205.164 14.64C204.876 14.7947 204.644 15.0293 204.468 15.344C204.297 15.6587 204.212 16.048 204.212 16.512L204.204 22H202.788L202.796 16.528C202.796 16.096 202.719 15.72 202.564 15.4C202.409 15.08 202.191 14.8347 201.908 14.664C201.625 14.4933 201.297 14.408 200.924 14.408C200.551 14.408 200.223 14.496 199.94 14.672C199.657 14.848 199.436 15.096 199.276 15.416C199.121 15.7307 199.044 16.096 199.044 16.512V22H197.612V13.36H198.884V14.28C199.161 13.9227 199.513 13.6427 199.94 13.44C200.367 13.2373 200.833 13.136 201.34 13.136C201.921 13.136 202.428 13.2613 202.86 13.512C203.292 13.7573 203.625 14.1067 203.86 14.56C204.116 14.112 204.473 13.7627 204.932 13.512C205.396 13.2613 205.911 13.136 206.476 13.136Z" fill="#7D55C7"/>
<path d="M163.855 10.48L160.783 22H159.335L162.407 10.48H163.855Z" fill="#7D55C7" fill-opacity="0.3"/>
<rect x="0.5" y="0.5" width="249" height="31" rx="15.5" stroke="#363636" stroke-opacity="0.1" style="mix-blend-mode:luminosity"/>
</g>
<defs>
<clipPath id="clip0_1484_4689">
<rect width="250" height="32" fill="white"/>
</clipPath>
</defs>
</svg>
