<svg width="300" height="48" viewBox="0 0 300 48" fill="none" xmlns="http://www.w3.org/2000/svg">
<g clip-path="url(#clip0_1483_4667)">
<rect width="300" height="48" rx="24" fill="#0047BB"/>
<mask id="mask0_1483_4667" style="mask-type:alpha" maskUnits="userSpaceOnUse" x="0" y="0" width="300" height="48">
<rect width="300" height="48" rx="24" fill="white"/>
</mask>
<g mask="url(#mask0_1483_4667)">
<g style="mix-blend-mode:luminosity">
<rect x="156" width="144" height="48" fill="black" fill-opacity="0.3"/>
</g>
</g>
<path d="M40.976 15.72C41.528 15.72 42.008 15.752 42.416 15.816C43.912 16.048 45.028 16.664 45.764 17.664C46.508 18.656 46.88 19.912 46.88 21.432C46.88 22.944 46.508 24.2 45.764 25.2C45.02 26.2 43.904 26.816 42.416 27.048C42.008 27.112 41.528 27.144 40.976 27.144H36.944V33H33.68V15.72H40.976ZM40.832 24.096C41.288 24.096 41.656 24.056 41.936 23.976C42.536 23.816 42.96 23.496 43.208 23.016C43.464 22.528 43.592 22 43.592 21.432C43.592 20.864 43.464 20.34 43.208 19.86C42.96 19.372 42.536 19.048 41.936 18.888C41.656 18.808 41.288 18.768 40.832 18.768H36.944V24.096H40.832ZM52.6014 20.664C53.3294 20.216 54.1934 19.992 55.1934 19.992C55.4654 19.992 55.7134 20.008 55.9374 20.04V23.088C55.6894 23.008 55.3814 22.968 55.0134 22.968C54.4054 22.968 53.8654 23.08 53.3934 23.304C52.8174 23.568 52.3774 23.96 52.0734 24.48C51.7694 25 51.6174 25.632 51.6174 26.376V33H48.3294V20.04H51.2094V22.128C51.5694 21.48 52.0334 20.992 52.6014 20.664ZM62.8576 33.36C61.5696 33.36 60.4296 33.072 59.4376 32.496C58.4456 31.912 57.6736 31.104 57.1216 30.072C56.5776 29.032 56.3056 27.848 56.3056 26.52C56.3056 25.184 56.5816 24 57.1336 22.968C57.6936 21.928 58.4696 21.12 59.4616 20.544C60.4616 19.968 61.5936 19.68 62.8576 19.68C64.1456 19.68 65.2856 19.972 66.2776 20.556C67.2776 21.132 68.0536 21.94 68.6056 22.98C69.1576 24.02 69.4336 25.2 69.4336 26.52C69.4336 27.848 69.1536 29.032 68.5936 30.072C68.0416 31.104 67.2656 31.912 66.2656 32.496C65.2736 33.072 64.1376 33.36 62.8576 33.36ZM62.8576 30.312C63.8736 30.312 64.6456 29.968 65.1736 29.28C65.7096 28.592 65.9776 27.672 65.9776 26.52C65.9776 25.344 65.7096 24.42 65.1736 23.748C64.6376 23.068 63.8656 22.728 62.8576 22.728C61.8256 22.728 61.0496 23.068 60.5296 23.748C60.0176 24.42 59.7616 25.344 59.7616 26.52C59.7616 27.704 60.0256 28.632 60.5536 29.304C61.0896 29.976 61.8576 30.312 62.8576 30.312ZM78.1925 19.656C79.7125 19.656 80.8445 20.044 81.5885 20.82C82.3405 21.596 82.8045 22.416 82.9805 23.28C83.1645 24.144 83.2565 24.96 83.2565 25.728V33H79.9445V26.88C79.9445 26.224 79.8965 25.608 79.8005 25.032C79.7045 24.456 79.4485 23.928 79.0325 23.448C78.6245 22.968 78.0005 22.728 77.1605 22.728C76.4085 22.728 75.7605 22.988 75.2165 23.508C74.6725 24.02 74.4005 24.992 74.4005 26.424V33H71.0885V20.04H73.9925V21.372C74.4805 20.828 75.0765 20.408 75.7805 20.112C76.4845 19.808 77.2885 19.656 78.1925 19.656ZM91.0079 33.36C89.7199 33.36 88.5799 33.072 87.5879 32.496C86.5959 31.912 85.8239 31.104 85.2719 30.072C84.7279 29.032 84.4559 27.848 84.4559 26.52C84.4559 25.184 84.7319 24 85.2839 22.968C85.8439 21.928 86.6199 21.12 87.6119 20.544C88.6119 19.968 89.7439 19.68 91.0079 19.68C92.2959 19.68 93.4359 19.972 94.4279 20.556C95.4279 21.132 96.2039 21.94 96.7559 22.98C97.3079 24.02 97.5839 25.2 97.5839 26.52C97.5839 27.848 97.3039 29.032 96.7439 30.072C96.1919 31.104 95.4159 31.912 94.4159 32.496C93.4239 33.072 92.2879 33.36 91.0079 33.36ZM91.0079 30.312C92.0239 30.312 92.7959 29.968 93.3239 29.28C93.8599 28.592 94.1279 27.672 94.1279 26.52C94.1279 25.344 93.8599 24.42 93.3239 23.748C92.7879 23.068 92.0159 22.728 91.0079 22.728C89.9759 22.728 89.1999 23.068 88.6799 23.748C88.1679 24.42 87.9119 25.344 87.9119 26.52C87.9119 27.704 88.1759 28.632 88.7039 29.304C89.2399 29.976 90.0079 30.312 91.0079 30.312ZM111.167 20.04V33H108.287V31.668C107.799 32.212 107.203 32.636 106.499 32.94C105.795 33.236 104.991 33.384 104.087 33.384C102.567 33.384 101.431 32.996 100.679 32.22C99.9348 31.444 99.4708 30.624 99.2868 29.76C99.1108 28.896 99.0228 28.08 99.0228 27.312V20.04H102.335V26.16C102.335 26.816 102.383 27.432 102.479 28.008C102.575 28.584 102.827 29.112 103.235 29.592C103.651 30.072 104.279 30.312 105.119 30.312C105.871 30.312 106.519 30.056 107.063 29.544C107.607 29.024 107.879 28.048 107.879 26.616V20.04H111.167ZM120.641 19.656C122.161 19.656 123.293 20.044 124.037 20.82C124.789 21.596 125.253 22.416 125.429 23.28C125.613 24.144 125.705 24.96 125.705 25.728V33H122.393V26.88C122.393 26.224 122.345 25.608 122.249 25.032C122.153 24.456 121.897 23.928 121.481 23.448C121.073 22.968 120.449 22.728 119.609 22.728C118.857 22.728 118.209 22.988 117.665 23.508C117.121 24.02 116.849 24.992 116.849 26.424V33H113.537V20.04H116.441V21.372C116.929 20.828 117.525 20.408 118.229 20.112C118.933 19.808 119.737 19.656 120.641 19.656ZM132.922 33.36C131.29 33.36 129.97 32.992 128.962 32.256C127.962 31.52 127.354 30.472 127.138 29.112L130.474 28.608C130.61 29.224 130.91 29.704 131.374 30.048C131.846 30.384 132.442 30.552 133.162 30.552C133.746 30.552 134.198 30.44 134.518 30.216C134.846 29.984 135.01 29.664 135.01 29.256C135.01 28.984 134.942 28.776 134.806 28.632C134.678 28.48 134.406 28.332 133.99 28.188C133.582 28.044 132.882 27.84 131.89 27.576C130.818 27.304 129.97 27 129.346 26.664C128.722 26.328 128.27 25.928 127.99 25.464C127.71 25 127.57 24.432 127.57 23.76C127.57 22.936 127.782 22.216 128.206 21.6C128.63 20.984 129.23 20.512 130.006 20.184C130.782 19.848 131.69 19.68 132.73 19.68C133.738 19.68 134.634 19.836 135.418 20.148C136.21 20.46 136.846 20.908 137.326 21.492C137.814 22.068 138.114 22.744 138.226 23.52L134.89 24.12C134.834 23.64 134.626 23.26 134.266 22.98C133.906 22.7 133.418 22.536 132.802 22.488L132.55 22.476C132.022 22.476 131.598 22.576 131.278 22.776C130.966 22.976 130.81 23.248 130.81 23.592C130.81 23.824 130.89 24.016 131.05 24.168C131.21 24.312 131.522 24.464 131.986 24.624C132.45 24.776 133.21 24.984 134.266 25.248C135.258 25.504 136.05 25.804 136.642 26.148C137.234 26.484 137.666 26.888 137.938 27.36C138.21 27.832 138.346 28.408 138.346 29.088C138.346 29.968 138.13 30.732 137.698 31.38C137.266 32.02 136.642 32.512 135.826 32.856C135.01 33.192 134.042 33.36 132.922 33.36Z" fill="white"/>
<rect x="18" y="20" width="8" height="8" rx="4" fill="#02DA9A"/>
<path d="M173.12 19.48H174.544V24.56H180.608V19.48H182.032V31H180.608V25.912H174.544V31H173.12V19.48ZM185.324 27.08C185.383 27.9813 185.636 28.6747 186.084 29.16C186.538 29.6453 187.162 29.888 187.956 29.888C188.522 29.888 189.015 29.7573 189.436 29.496C189.863 29.2347 190.196 28.8587 190.436 28.368L191.804 28.84C191.468 29.5973 190.964 30.1867 190.292 30.608C189.62 31.0293 188.863 31.24 188.02 31.24C187.178 31.24 186.436 31.0533 185.796 30.68C185.162 30.3067 184.668 29.7787 184.316 29.096C183.97 28.4133 183.796 27.6267 183.796 26.736C183.796 25.8027 183.967 24.9893 184.308 24.296C184.655 23.5973 185.14 23.0613 185.764 22.688C186.394 22.3093 187.124 22.12 187.956 22.12C188.783 22.12 189.495 22.3067 190.092 22.68C190.695 23.048 191.156 23.5787 191.476 24.272C191.796 24.96 191.956 25.7787 191.956 26.728C191.956 26.8827 191.954 27 191.948 27.08H185.324ZM188.004 23.4C187.231 23.4 186.62 23.616 186.172 24.048C185.724 24.48 185.45 25.1093 185.348 25.936H190.468C190.292 24.2453 189.471 23.4 188.004 23.4ZM206.573 19.48H207.997V24.56H214.061V19.48H215.485V31H214.061V25.912H207.997V31H206.573V19.48ZM217.889 19.36H219.313V20.832H217.889V19.36ZM217.889 22.36H219.313V31H217.889V22.36ZM230.57 22.136C231.162 22.136 231.676 22.2613 232.114 22.512C232.551 22.7573 232.887 23.1093 233.122 23.568C233.356 24.0213 233.474 24.552 233.474 25.16L233.466 31H232.042L232.05 25.472C232.05 25.0507 231.97 24.6853 231.81 24.376C231.655 24.0613 231.436 23.8213 231.154 23.656C230.876 23.4907 230.556 23.408 230.194 23.408C229.858 23.408 229.546 23.4853 229.258 23.64C228.97 23.7947 228.738 24.0293 228.562 24.344C228.391 24.6587 228.306 25.048 228.306 25.512L228.298 31H226.882L226.89 25.528C226.89 25.096 226.812 24.72 226.658 24.4C226.503 24.08 226.284 23.8347 226.002 23.664C225.719 23.4933 225.391 23.408 225.018 23.408C224.644 23.408 224.316 23.496 224.034 23.672C223.751 23.848 223.53 24.096 223.37 24.416C223.215 24.7307 223.138 25.096 223.138 25.512V31H221.706V22.36H222.978V23.28C223.255 22.9227 223.607 22.6427 224.034 22.44C224.46 22.2373 224.927 22.136 225.434 22.136C226.015 22.136 226.522 22.2613 226.954 22.512C227.386 22.7573 227.719 23.1067 227.954 23.56C228.21 23.112 228.567 22.7627 229.026 22.512C229.49 22.2613 230.004 22.136 230.57 22.136ZM248.401 19.48H249.825V24.56H255.889V19.48H257.313V31H255.889V25.912H249.825V31H248.401V19.48ZM259.718 19.36H261.142V20.832H259.718V19.36ZM259.718 22.36H261.142V31H259.718V22.36ZM266.806 31.232C266.123 31.232 265.518 31.1307 264.99 30.928C264.462 30.7253 264.033 30.432 263.702 30.048C263.371 29.664 263.158 29.2027 263.062 28.664L264.518 28.432C264.635 28.9067 264.905 29.28 265.326 29.552C265.747 29.824 266.27 29.96 266.894 29.96C267.481 29.96 267.942 29.84 268.278 29.6C268.619 29.3547 268.79 29.0187 268.79 28.592C268.79 28.336 268.731 28.136 268.614 27.992C268.502 27.848 268.281 27.712 267.95 27.584C267.619 27.4507 267.086 27.2853 266.35 27.088C265.577 26.88 264.974 26.6693 264.542 26.456C264.11 26.2373 263.801 25.9867 263.614 25.704C263.427 25.4213 263.334 25.0693 263.334 24.648C263.334 24.1467 263.473 23.7067 263.75 23.328C264.027 22.944 264.417 22.648 264.918 22.44C265.419 22.2267 265.998 22.12 266.654 22.12C267.305 22.12 267.889 22.2267 268.406 22.44C268.929 22.648 269.347 22.944 269.662 23.328C269.982 23.7067 270.171 24.1467 270.23 24.648L268.774 24.912C268.705 24.4427 268.47 24.072 268.07 23.8C267.675 23.528 267.169 23.392 266.55 23.392C266.198 23.392 265.886 23.4427 265.614 23.544C265.347 23.64 265.139 23.7787 264.99 23.96C264.841 24.136 264.766 24.3413 264.766 24.576C264.766 24.7947 264.83 24.976 264.958 25.12C265.091 25.264 265.331 25.4027 265.678 25.536C266.025 25.664 266.545 25.816 267.238 25.992C268.011 26.1893 268.614 26.4 269.046 26.624C269.478 26.848 269.787 27.112 269.974 27.416C270.166 27.72 270.262 28.0987 270.262 28.552C270.262 29.1067 270.123 29.5867 269.846 29.992C269.569 30.392 269.171 30.6987 268.654 30.912C268.137 31.1253 267.521 31.232 266.806 31.232Z" fill="white"/>
<path d="M201.293 19.48L198.221 31H196.773L199.845 19.48H201.293ZM243.121 19.48L240.049 31H238.601L241.673 19.48H243.121Z" fill="white" fill-opacity="0.3"/>
</g>
<defs>
<clipPath id="clip0_1483_4667">
<rect width="300" height="48" fill="white"/>
</clipPath>
</defs>
</svg>
