<svg width="300" height="48" viewBox="0 0 300 48" fill="none" xmlns="http://www.w3.org/2000/svg">
<g clip-path="url(#clip0_1484_4689)">
<rect width="300" height="48" rx="24" fill="#8E5BEE"/>
<mask id="mask0_1484_4689" style="mask-type:alpha" maskUnits="userSpaceOnUse" x="0" y="0" width="300" height="48">
<rect width="300" height="48" rx="24" fill="white"/>
</mask>
<g mask="url(#mask0_1484_4689)">
<rect x="156" width="144" height="48" fill="#ECDFFC"/>
</g>
<path d="M40.976 15.72C41.528 15.72 42.008 15.752 42.416 15.816C43.912 16.048 45.028 16.664 45.764 17.664C46.508 18.656 46.88 19.912 46.88 21.432C46.88 22.944 46.508 24.2 45.764 25.2C45.02 26.2 43.904 26.816 42.416 27.048C42.008 27.112 41.528 27.144 40.976 27.144H36.944V33H33.68V15.72H40.976ZM40.832 24.096C41.288 24.096 41.656 24.056 41.936 23.976C42.536 23.816 42.96 23.496 43.208 23.016C43.464 22.528 43.592 22 43.592 21.432C43.592 20.864 43.464 20.34 43.208 19.86C42.96 19.372 42.536 19.048 41.936 18.888C41.656 18.808 41.288 18.768 40.832 18.768H36.944V24.096H40.832ZM52.6014 20.664C53.3294 20.216 54.1934 19.992 55.1934 19.992C55.4654 19.992 55.7134 20.008 55.9374 20.04V23.088C55.6894 23.008 55.3814 22.968 55.0134 22.968C54.4054 22.968 53.8654 23.08 53.3934 23.304C52.8174 23.568 52.3774 23.96 52.0734 24.48C51.7694 25 51.6174 25.632 51.6174 26.376V33H48.3294V20.04H51.2094V22.128C51.5694 21.48 52.0334 20.992 52.6014 20.664ZM62.8576 33.36C61.5696 33.36 60.4296 33.072 59.4376 32.496C58.4456 31.912 57.6736 31.104 57.1216 30.072C56.5776 29.032 56.3056 27.848 56.3056 26.52C56.3056 25.184 56.5816 24 57.1336 22.968C57.6936 21.928 58.4696 21.12 59.4616 20.544C60.4616 19.968 61.5936 19.68 62.8576 19.68C64.1456 19.68 65.2856 19.972 66.2776 20.556C67.2776 21.132 68.0536 21.94 68.6056 22.98C69.1576 24.02 69.4336 25.2 69.4336 26.52C69.4336 27.848 69.1536 29.032 68.5936 30.072C68.0416 31.104 67.2656 31.912 66.2656 32.496C65.2736 33.072 64.1376 33.36 62.8576 33.36ZM62.8576 30.312C63.8736 30.312 64.6456 29.968 65.1736 29.28C65.7096 28.592 65.9776 27.672 65.9776 26.52C65.9776 25.344 65.7096 24.42 65.1736 23.748C64.6376 23.068 63.8656 22.728 62.8576 22.728C61.8256 22.728 61.0496 23.068 60.5296 23.748C60.0176 24.42 59.7616 25.344 59.7616 26.52C59.7616 27.704 60.0256 28.632 60.5536 29.304C61.0896 29.976 61.8576 30.312 62.8576 30.312ZM78.1925 19.656C79.7125 19.656 80.8445 20.044 81.5885 20.82C82.3405 21.596 82.8045 22.416 82.9805 23.28C83.1645 24.144 83.2565 24.96 83.2565 25.728V33H79.9445V26.88C79.9445 26.224 79.8965 25.608 79.8005 25.032C79.7045 24.456 79.4485 23.928 79.0325 23.448C78.6245 22.968 78.0005 22.728 77.1605 22.728C76.4085 22.728 75.7605 22.988 75.2165 23.508C74.6725 24.02 74.4005 24.992 74.4005 26.424V33H71.0885V20.04H73.9925V21.372C74.4805 20.828 75.0765 20.408 75.7805 20.112C76.4845 19.808 77.2885 19.656 78.1925 19.656ZM91.0079 33.36C89.7199 33.36 88.5799 33.072 87.5879 32.496C86.5959 31.912 85.8239 31.104 85.2719 30.072C84.7279 29.032 84.4559 27.848 84.4559 26.52C84.4559 25.184 84.7319 24 85.2839 22.968C85.8439 21.928 86.6199 21.12 87.6119 20.544C88.6119 19.968 89.7439 19.68 91.0079 19.68C92.2959 19.68 93.4359 19.972 94.4279 20.556C95.4279 21.132 96.2039 21.94 96.7559 22.98C97.3079 24.02 97.5839 25.2 97.5839 26.52C97.5839 27.848 97.3039 29.032 96.7439 30.072C96.1919 31.104 95.4159 31.912 94.4159 32.496C93.4239 33.072 92.2879 33.36 91.0079 33.36ZM91.0079 30.312C92.0239 30.312 92.7959 29.968 93.3239 29.28C93.8599 28.592 94.1279 27.672 94.1279 26.52C94.1279 25.344 93.8599 24.42 93.3239 23.748C92.7879 23.068 92.0159 22.728 91.0079 22.728C89.9759 22.728 89.1999 23.068 88.6799 23.748C88.1679 24.42 87.9119 25.344 87.9119 26.52C87.9119 27.704 88.1759 28.632 88.7039 29.304C89.2399 29.976 90.0079 30.312 91.0079 30.312ZM111.167 20.04V33H108.287V31.668C107.799 32.212 107.203 32.636 106.499 32.94C105.795 33.236 104.991 33.384 104.087 33.384C102.567 33.384 101.431 32.996 100.679 32.22C99.9348 31.444 99.4708 30.624 99.2868 29.76C99.1108 28.896 99.0228 28.08 99.0228 27.312V20.04H102.335V26.16C102.335 26.816 102.383 27.432 102.479 28.008C102.575 28.584 102.827 29.112 103.235 29.592C103.651 30.072 104.279 30.312 105.119 30.312C105.871 30.312 106.519 30.056 107.063 29.544C107.607 29.024 107.879 28.048 107.879 26.616V20.04H111.167ZM120.641 19.656C122.161 19.656 123.293 20.044 124.037 20.82C124.789 21.596 125.253 22.416 125.429 23.28C125.613 24.144 125.705 24.96 125.705 25.728V33H122.393V26.88C122.393 26.224 122.345 25.608 122.249 25.032C122.153 24.456 121.897 23.928 121.481 23.448C121.073 22.968 120.449 22.728 119.609 22.728C118.857 22.728 118.209 22.988 117.665 23.508C117.121 24.02 116.849 24.992 116.849 26.424V33H113.537V20.04H116.441V21.372C116.929 20.828 117.525 20.408 118.229 20.112C118.933 19.808 119.737 19.656 120.641 19.656ZM132.922 33.36C131.29 33.36 129.97 32.992 128.962 32.256C127.962 31.52 127.354 30.472 127.138 29.112L130.474 28.608C130.61 29.224 130.91 29.704 131.374 30.048C131.846 30.384 132.442 30.552 133.162 30.552C133.746 30.552 134.198 30.44 134.518 30.216C134.846 29.984 135.01 29.664 135.01 29.256C135.01 28.984 134.942 28.776 134.806 28.632C134.678 28.48 134.406 28.332 133.99 28.188C133.582 28.044 132.882 27.84 131.89 27.576C130.818 27.304 129.97 27 129.346 26.664C128.722 26.328 128.27 25.928 127.99 25.464C127.71 25 127.57 24.432 127.57 23.76C127.57 22.936 127.782 22.216 128.206 21.6C128.63 20.984 129.23 20.512 130.006 20.184C130.782 19.848 131.69 19.68 132.73 19.68C133.738 19.68 134.634 19.836 135.418 20.148C136.21 20.46 136.846 20.908 137.326 21.492C137.814 22.068 138.114 22.744 138.226 23.52L134.89 24.12C134.834 23.64 134.626 23.26 134.266 22.98C133.906 22.7 133.418 22.536 132.802 22.488L132.55 22.476C132.022 22.476 131.598 22.576 131.278 22.776C130.966 22.976 130.81 23.248 130.81 23.592C130.81 23.824 130.89 24.016 131.05 24.168C131.21 24.312 131.522 24.464 131.986 24.624C132.45 24.776 133.21 24.984 134.266 25.248C135.258 25.504 136.05 25.804 136.642 26.148C137.234 26.484 137.666 26.888 137.938 27.36C138.21 27.832 138.346 28.408 138.346 29.088C138.346 29.968 138.13 30.732 137.698 31.38C137.266 32.02 136.642 32.512 135.826 32.856C135.01 33.192 134.042 33.36 132.922 33.36Z" fill="white"/>
<rect x="18" y="20" width="8" height="8" rx="4" fill="white"/>
<path d="M176.088 20.832H172.16V19.48H181.44V20.832H177.512V31H176.088V20.832ZM186.866 22.136C187.73 22.136 188.418 22.3493 188.93 22.776C189.442 23.2027 189.799 23.7253 190.002 24.344C190.204 24.9573 190.306 25.584 190.306 26.224V31H188.866V26.672C188.866 25.744 188.684 24.9813 188.322 24.384C187.964 23.7867 187.364 23.488 186.522 23.488C185.786 23.488 185.204 23.7387 184.778 24.24C184.356 24.736 184.146 25.472 184.146 26.448V31H182.706V19.48H183.986V23.472C184.311 23.04 184.716 22.7093 185.202 22.48C185.692 22.2507 186.247 22.136 186.866 22.136ZM193.434 27.08C193.492 27.9813 193.746 28.6747 194.194 29.16C194.647 29.6453 195.271 29.888 196.066 29.888C196.631 29.888 197.124 29.7573 197.546 29.496C197.972 29.2347 198.306 28.8587 198.546 28.368L199.914 28.84C199.578 29.5973 199.074 30.1867 198.402 30.608C197.73 31.0293 196.972 31.24 196.13 31.24C195.287 31.24 194.546 31.0533 193.906 30.68C193.271 30.3067 192.778 29.7787 192.426 29.096C192.079 28.4133 191.906 27.6267 191.906 26.736C191.906 25.8027 192.076 24.9893 192.418 24.296C192.764 23.5973 193.25 23.0613 193.874 22.688C194.503 22.3093 195.234 22.12 196.066 22.12C196.892 22.12 197.604 22.3067 198.202 22.68C198.804 23.048 199.266 23.5787 199.586 24.272C199.906 24.96 200.066 25.7787 200.066 26.728C200.066 26.8827 200.063 27 200.058 27.08H193.434ZM196.114 23.4C195.34 23.4 194.73 23.616 194.282 24.048C193.834 24.48 193.559 25.1093 193.458 25.936H198.578C198.402 24.2453 197.58 23.4 196.114 23.4ZM207.523 22.36H208.97L204.267 34.84H202.883L204.307 30.968L200.803 22.36H202.299L204.995 29.16L207.523 22.36ZM226.104 20.832H222.176V19.48H231.456V20.832H227.528V31H226.104V20.832ZM236.881 22.136C237.745 22.136 238.433 22.3493 238.945 22.776C239.457 23.2027 239.815 23.7253 240.017 24.344C240.22 24.9573 240.321 25.584 240.321 26.224V31H238.881V26.672C238.881 25.744 238.7 24.9813 238.337 24.384C237.98 23.7867 237.38 23.488 236.537 23.488C235.801 23.488 235.22 23.7387 234.793 24.24C234.372 24.736 234.161 25.472 234.161 26.448V31H232.721V19.48H234.001V23.472C234.327 23.04 234.732 22.7093 235.217 22.48C235.708 22.2507 236.263 22.136 236.881 22.136ZM243.449 27.08C243.508 27.9813 243.761 28.6747 244.209 29.16C244.663 29.6453 245.287 29.888 246.081 29.888C246.647 29.888 247.14 29.7573 247.561 29.496C247.988 29.2347 248.321 28.8587 248.561 28.368L249.929 28.84C249.593 29.5973 249.089 30.1867 248.417 30.608C247.745 31.0293 246.988 31.24 246.145 31.24C245.303 31.24 244.561 31.0533 243.921 30.68C243.287 30.3067 242.793 29.7787 242.441 29.096C242.095 28.4133 241.921 27.6267 241.921 26.736C241.921 25.8027 242.092 24.9893 242.433 24.296C242.78 23.5973 243.265 23.0613 243.889 22.688C244.519 22.3093 245.249 22.12 246.081 22.12C246.908 22.12 247.62 22.3067 248.217 22.68C248.82 23.048 249.281 23.5787 249.601 24.272C249.921 24.96 250.081 25.7787 250.081 26.728C250.081 26.8827 250.079 27 250.073 27.08H243.449ZM246.129 23.4C245.356 23.4 244.745 23.616 244.297 24.048C243.849 24.48 243.575 25.1093 243.473 25.936H248.593C248.417 24.2453 247.596 23.4 246.129 23.4ZM260.476 22.136C261.068 22.136 261.583 22.2613 262.02 22.512C262.457 22.7573 262.793 23.1093 263.028 23.568C263.263 24.0213 263.38 24.552 263.38 25.16L263.372 31H261.948L261.956 25.472C261.956 25.0507 261.876 24.6853 261.716 24.376C261.561 24.0613 261.343 23.8213 261.06 23.656C260.783 23.4907 260.463 23.408 260.1 23.408C259.764 23.408 259.452 23.4853 259.164 23.64C258.876 23.7947 258.644 24.0293 258.468 24.344C258.297 24.6587 258.212 25.048 258.212 25.512L258.204 31H256.788L256.796 25.528C256.796 25.096 256.719 24.72 256.564 24.4C256.409 24.08 256.191 23.8347 255.908 23.664C255.625 23.4933 255.297 23.408 254.924 23.408C254.551 23.408 254.223 23.496 253.94 23.672C253.657 23.848 253.436 24.096 253.276 24.416C253.121 24.7307 253.044 25.096 253.044 25.512V31H251.612V22.36H252.884V23.28C253.161 22.9227 253.513 22.6427 253.94 22.44C254.367 22.2373 254.833 22.136 255.34 22.136C255.921 22.136 256.428 22.2613 256.86 22.512C257.292 22.7573 257.625 23.1067 257.86 23.56C258.116 23.112 258.473 22.7627 258.932 22.512C259.396 22.2613 259.911 22.136 260.476 22.136Z" fill="#8E5BEE"/>
<path d="M217.855 19.48L214.783 31H213.335L216.407 19.48H217.855Z" fill="#8E5BEE" fill-opacity="0.3"/>
</g>
<defs>
<clipPath id="clip0_1484_4689">
<rect width="300" height="48" fill="white"/>
</clipPath>
</defs>
</svg>
