<svg width="300" height="48" viewBox="0 0 300 48" fill="none" xmlns="http://www.w3.org/2000/svg">
<g clip-path="url(#clip0_1484_4677)">
<rect width="300" height="48" rx="24" fill="#E45BEE"/>
<mask id="mask0_1484_4677" style="mask-type:alpha" maskUnits="userSpaceOnUse" x="0" y="0" width="300" height="48">
<rect width="300" height="48" rx="24" fill="white"/>
</mask>
<g mask="url(#mask0_1484_4677)">
<rect x="156" width="144" height="48" fill="#FCE3FC"/>
</g>
<path d="M40.976 15.72C41.528 15.72 42.008 15.752 42.416 15.816C43.912 16.048 45.028 16.664 45.764 17.664C46.508 18.656 46.88 19.912 46.88 21.432C46.88 22.944 46.508 24.2 45.764 25.2C45.02 26.2 43.904 26.816 42.416 27.048C42.008 27.112 41.528 27.144 40.976 27.144H36.944V33H33.68V15.72H40.976ZM40.832 24.096C41.288 24.096 41.656 24.056 41.936 23.976C42.536 23.816 42.96 23.496 43.208 23.016C43.464 22.528 43.592 22 43.592 21.432C43.592 20.864 43.464 20.34 43.208 19.86C42.96 19.372 42.536 19.048 41.936 18.888C41.656 18.808 41.288 18.768 40.832 18.768H36.944V24.096H40.832ZM52.6014 20.664C53.3294 20.216 54.1934 19.992 55.1934 19.992C55.4654 19.992 55.7134 20.008 55.9374 20.04V23.088C55.6894 23.008 55.3814 22.968 55.0134 22.968C54.4054 22.968 53.8654 23.08 53.3934 23.304C52.8174 23.568 52.3774 23.96 52.0734 24.48C51.7694 25 51.6174 25.632 51.6174 26.376V33H48.3294V20.04H51.2094V22.128C51.5694 21.48 52.0334 20.992 52.6014 20.664ZM62.8576 33.36C61.5696 33.36 60.4296 33.072 59.4376 32.496C58.4456 31.912 57.6736 31.104 57.1216 30.072C56.5776 29.032 56.3056 27.848 56.3056 26.52C56.3056 25.184 56.5816 24 57.1336 22.968C57.6936 21.928 58.4696 21.12 59.4616 20.544C60.4616 19.968 61.5936 19.68 62.8576 19.68C64.1456 19.68 65.2856 19.972 66.2776 20.556C67.2776 21.132 68.0536 21.94 68.6056 22.98C69.1576 24.02 69.4336 25.2 69.4336 26.52C69.4336 27.848 69.1536 29.032 68.5936 30.072C68.0416 31.104 67.2656 31.912 66.2656 32.496C65.2736 33.072 64.1376 33.36 62.8576 33.36ZM62.8576 30.312C63.8736 30.312 64.6456 29.968 65.1736 29.28C65.7096 28.592 65.9776 27.672 65.9776 26.52C65.9776 25.344 65.7096 24.42 65.1736 23.748C64.6376 23.068 63.8656 22.728 62.8576 22.728C61.8256 22.728 61.0496 23.068 60.5296 23.748C60.0176 24.42 59.7616 25.344 59.7616 26.52C59.7616 27.704 60.0256 28.632 60.5536 29.304C61.0896 29.976 61.8576 30.312 62.8576 30.312ZM78.1925 19.656C79.7125 19.656 80.8445 20.044 81.5885 20.82C82.3405 21.596 82.8045 22.416 82.9805 23.28C83.1645 24.144 83.2565 24.96 83.2565 25.728V33H79.9445V26.88C79.9445 26.224 79.8965 25.608 79.8005 25.032C79.7045 24.456 79.4485 23.928 79.0325 23.448C78.6245 22.968 78.0005 22.728 77.1605 22.728C76.4085 22.728 75.7605 22.988 75.2165 23.508C74.6725 24.02 74.4005 24.992 74.4005 26.424V33H71.0885V20.04H73.9925V21.372C74.4805 20.828 75.0765 20.408 75.7805 20.112C76.4845 19.808 77.2885 19.656 78.1925 19.656ZM91.0079 33.36C89.7199 33.36 88.5799 33.072 87.5879 32.496C86.5959 31.912 85.8239 31.104 85.2719 30.072C84.7279 29.032 84.4559 27.848 84.4559 26.52C84.4559 25.184 84.7319 24 85.2839 22.968C85.8439 21.928 86.6199 21.12 87.6119 20.544C88.6119 19.968 89.7439 19.68 91.0079 19.68C92.2959 19.68 93.4359 19.972 94.4279 20.556C95.4279 21.132 96.2039 21.94 96.7559 22.98C97.3079 24.02 97.5839 25.2 97.5839 26.52C97.5839 27.848 97.3039 29.032 96.7439 30.072C96.1919 31.104 95.4159 31.912 94.4159 32.496C93.4239 33.072 92.2879 33.36 91.0079 33.36ZM91.0079 30.312C92.0239 30.312 92.7959 29.968 93.3239 29.28C93.8599 28.592 94.1279 27.672 94.1279 26.52C94.1279 25.344 93.8599 24.42 93.3239 23.748C92.7879 23.068 92.0159 22.728 91.0079 22.728C89.9759 22.728 89.1999 23.068 88.6799 23.748C88.1679 24.42 87.9119 25.344 87.9119 26.52C87.9119 27.704 88.1759 28.632 88.7039 29.304C89.2399 29.976 90.0079 30.312 91.0079 30.312ZM111.167 20.04V33H108.287V31.668C107.799 32.212 107.203 32.636 106.499 32.94C105.795 33.236 104.991 33.384 104.087 33.384C102.567 33.384 101.431 32.996 100.679 32.22C99.9348 31.444 99.4708 30.624 99.2868 29.76C99.1108 28.896 99.0228 28.08 99.0228 27.312V20.04H102.335V26.16C102.335 26.816 102.383 27.432 102.479 28.008C102.575 28.584 102.827 29.112 103.235 29.592C103.651 30.072 104.279 30.312 105.119 30.312C105.871 30.312 106.519 30.056 107.063 29.544C107.607 29.024 107.879 28.048 107.879 26.616V20.04H111.167ZM120.641 19.656C122.161 19.656 123.293 20.044 124.037 20.82C124.789 21.596 125.253 22.416 125.429 23.28C125.613 24.144 125.705 24.96 125.705 25.728V33H122.393V26.88C122.393 26.224 122.345 25.608 122.249 25.032C122.153 24.456 121.897 23.928 121.481 23.448C121.073 22.968 120.449 22.728 119.609 22.728C118.857 22.728 118.209 22.988 117.665 23.508C117.121 24.02 116.849 24.992 116.849 26.424V33H113.537V20.04H116.441V21.372C116.929 20.828 117.525 20.408 118.229 20.112C118.933 19.808 119.737 19.656 120.641 19.656ZM132.922 33.36C131.29 33.36 129.97 32.992 128.962 32.256C127.962 31.52 127.354 30.472 127.138 29.112L130.474 28.608C130.61 29.224 130.91 29.704 131.374 30.048C131.846 30.384 132.442 30.552 133.162 30.552C133.746 30.552 134.198 30.44 134.518 30.216C134.846 29.984 135.01 29.664 135.01 29.256C135.01 28.984 134.942 28.776 134.806 28.632C134.678 28.48 134.406 28.332 133.99 28.188C133.582 28.044 132.882 27.84 131.89 27.576C130.818 27.304 129.97 27 129.346 26.664C128.722 26.328 128.27 25.928 127.99 25.464C127.71 25 127.57 24.432 127.57 23.76C127.57 22.936 127.782 22.216 128.206 21.6C128.63 20.984 129.23 20.512 130.006 20.184C130.782 19.848 131.69 19.68 132.73 19.68C133.738 19.68 134.634 19.836 135.418 20.148C136.21 20.46 136.846 20.908 137.326 21.492C137.814 22.068 138.114 22.744 138.226 23.52L134.89 24.12C134.834 23.64 134.626 23.26 134.266 22.98C133.906 22.7 133.418 22.536 132.802 22.488L132.55 22.476C132.022 22.476 131.598 22.576 131.278 22.776C130.966 22.976 130.81 23.248 130.81 23.592C130.81 23.824 130.89 24.016 131.05 24.168C131.21 24.312 131.522 24.464 131.986 24.624C132.45 24.776 133.21 24.984 134.266 25.248C135.258 25.504 136.05 25.804 136.642 26.148C137.234 26.484 137.666 26.888 137.938 27.36C138.21 27.832 138.346 28.408 138.346 29.088C138.346 29.968 138.13 30.732 137.698 31.38C137.266 32.02 136.642 32.512 135.826 32.856C135.01 33.192 134.042 33.36 132.922 33.36Z" fill="white"/>
<rect x="18" y="20" width="8" height="8" rx="4" fill="white"/>
<path d="M177.208 31.24C176.397 31.24 175.664 31.1013 175.008 30.824C174.352 30.5467 173.811 30.1493 173.384 29.632C172.963 29.1147 172.688 28.5067 172.56 27.808L174.032 27.576C174.155 28.056 174.368 28.4693 174.672 28.816C174.981 29.1627 175.36 29.4293 175.808 29.616C176.256 29.7973 176.747 29.888 177.28 29.888C177.797 29.888 178.267 29.8053 178.688 29.64C179.109 29.4747 179.44 29.24 179.68 28.936C179.925 28.632 180.048 28.2747 180.048 27.864C180.048 27.4053 179.901 27.0453 179.608 26.784C179.315 26.5227 178.925 26.32 178.44 26.176L175.504 25.304C174.757 25.0853 174.155 24.7547 173.696 24.312C173.237 23.8693 173.008 23.2587 173.008 22.48C173.008 21.8133 173.181 21.2373 173.528 20.752C173.88 20.2613 174.36 19.888 174.968 19.632C175.581 19.3707 176.272 19.2427 177.04 19.248C177.808 19.2533 178.499 19.392 179.112 19.664C179.731 19.9307 180.24 20.3173 180.64 20.824C181.04 21.3253 181.309 21.9227 181.448 22.616L179.936 22.88C179.856 22.4213 179.677 22.0187 179.4 21.672C179.123 21.3253 178.773 21.0613 178.352 20.88C177.936 20.6933 177.48 20.6 176.984 20.6C176.52 20.6 176.099 20.68 175.72 20.84C175.347 20.9947 175.051 21.2107 174.832 21.488C174.619 21.76 174.512 22.0693 174.512 22.416C174.512 22.7467 174.605 23.0213 174.792 23.24C174.979 23.4587 175.205 23.6293 175.472 23.752C175.744 23.8747 176.064 23.9867 176.432 24.088L178.624 24.72C179.12 24.8587 179.568 25.0267 179.968 25.224C180.373 25.416 180.733 25.7227 181.048 26.144C181.363 26.56 181.52 27.1067 181.52 27.784C181.52 28.504 181.331 29.1253 180.952 29.648C180.573 30.1707 180.056 30.568 179.4 30.84C178.749 31.1067 178.019 31.24 177.208 31.24ZM187.35 22.136C188.214 22.136 188.902 22.3493 189.414 22.776C189.926 23.2027 190.283 23.7253 190.486 24.344C190.689 24.9573 190.79 25.584 190.79 26.224V31H189.35V26.672C189.35 25.744 189.169 24.9813 188.806 24.384C188.449 23.7867 187.849 23.488 187.006 23.488C186.27 23.488 185.689 23.7387 185.262 24.24C184.841 24.736 184.63 25.472 184.63 26.448V31H183.19V19.48H184.47V23.472C184.795 23.04 185.201 22.7093 185.686 22.48C186.177 22.2507 186.731 22.136 187.35 22.136ZM193.918 27.08C193.977 27.9813 194.23 28.6747 194.678 29.16C195.131 29.6453 195.755 29.888 196.55 29.888C197.115 29.888 197.609 29.7573 198.03 29.496C198.457 29.2347 198.79 28.8587 199.03 28.368L200.398 28.84C200.062 29.5973 199.558 30.1867 198.886 30.608C198.214 31.0293 197.457 31.24 196.614 31.24C195.771 31.24 195.03 31.0533 194.39 30.68C193.755 30.3067 193.262 29.7787 192.91 29.096C192.563 28.4133 192.39 27.6267 192.39 26.736C192.39 25.8027 192.561 24.9893 192.902 24.296C193.249 23.5973 193.734 23.0613 194.358 22.688C194.987 22.3093 195.718 22.12 196.55 22.12C197.377 22.12 198.089 22.3067 198.686 22.68C199.289 23.048 199.75 23.5787 200.07 24.272C200.39 24.96 200.55 25.7787 200.55 26.728C200.55 26.8827 200.547 27 200.542 27.08H193.918ZM196.598 23.4C195.825 23.4 195.214 23.616 194.766 24.048C194.318 24.48 194.043 25.1093 193.942 25.936H199.062C198.886 24.2453 198.065 23.4 196.598 23.4ZM215.167 19.48H216.591V24.56H222.655V19.48H224.079V31H222.655V25.912H216.591V31H215.167V19.48ZM227.371 27.08C227.43 27.9813 227.683 28.6747 228.131 29.16C228.584 29.6453 229.208 29.888 230.003 29.888C230.568 29.888 231.062 29.7573 231.483 29.496C231.91 29.2347 232.243 28.8587 232.483 28.368L233.851 28.84C233.515 29.5973 233.011 30.1867 232.339 30.608C231.667 31.0293 230.91 31.24 230.067 31.24C229.224 31.24 228.483 31.0533 227.843 30.68C227.208 30.3067 226.715 29.7787 226.363 29.096C226.016 28.4133 225.843 27.6267 225.843 26.736C225.843 25.8027 226.014 24.9893 226.355 24.296C226.702 23.5973 227.187 23.0613 227.811 22.688C228.44 22.3093 229.171 22.12 230.003 22.12C230.83 22.12 231.542 22.3067 232.139 22.68C232.742 23.048 233.203 23.5787 233.523 24.272C233.843 24.96 234.003 25.7787 234.003 26.728C234.003 26.8827 234 27 233.995 27.08H227.371ZM230.051 23.4C229.278 23.4 228.667 23.616 228.219 24.048C227.771 24.48 227.496 25.1093 227.395 25.936H232.515C232.339 24.2453 231.518 23.4 230.051 23.4ZM237.784 22.888C238.024 22.696 238.307 22.5493 238.632 22.448C238.958 22.3467 239.286 22.296 239.616 22.296C239.824 22.296 240.03 22.3173 240.232 22.36V23.696C240.008 23.6427 239.792 23.616 239.584 23.616C239.067 23.616 238.624 23.752 238.256 24.024C237.867 24.3013 237.595 24.6667 237.44 25.12C237.286 25.568 237.208 26.0827 237.208 26.664V31H235.776V22.36H237.048V23.728C237.251 23.376 237.496 23.096 237.784 22.888Z" fill="#D65CD6"/>
<path d="M209.886 19.48L206.814 31H205.366L208.438 19.48H209.886Z" fill="#D65CD6" fill-opacity="0.3"/>
<g style="mix-blend-mode:multiply">
<path d="M177.208 31.24C176.397 31.24 175.664 31.1013 175.008 30.824C174.352 30.5467 173.811 30.1493 173.384 29.632C172.963 29.1147 172.688 28.5067 172.56 27.808L174.032 27.576C174.155 28.056 174.368 28.4693 174.672 28.816C174.981 29.1627 175.36 29.4293 175.808 29.616C176.256 29.7973 176.747 29.888 177.28 29.888C177.797 29.888 178.267 29.8053 178.688 29.64C179.109 29.4747 179.44 29.24 179.68 28.936C179.925 28.632 180.048 28.2747 180.048 27.864C180.048 27.4053 179.901 27.0453 179.608 26.784C179.315 26.5227 178.925 26.32 178.44 26.176L175.504 25.304C174.757 25.0853 174.155 24.7547 173.696 24.312C173.237 23.8693 173.008 23.2587 173.008 22.48C173.008 21.8133 173.181 21.2373 173.528 20.752C173.88 20.2613 174.36 19.888 174.968 19.632C175.581 19.3707 176.272 19.2427 177.04 19.248C177.808 19.2533 178.499 19.392 179.112 19.664C179.731 19.9307 180.24 20.3173 180.64 20.824C181.04 21.3253 181.309 21.9227 181.448 22.616L179.936 22.88C179.856 22.4213 179.677 22.0187 179.4 21.672C179.123 21.3253 178.773 21.0613 178.352 20.88C177.936 20.6933 177.48 20.6 176.984 20.6C176.52 20.6 176.099 20.68 175.72 20.84C175.347 20.9947 175.051 21.2107 174.832 21.488C174.619 21.76 174.512 22.0693 174.512 22.416C174.512 22.7467 174.605 23.0213 174.792 23.24C174.979 23.4587 175.205 23.6293 175.472 23.752C175.744 23.8747 176.064 23.9867 176.432 24.088L178.624 24.72C179.12 24.8587 179.568 25.0267 179.968 25.224C180.373 25.416 180.733 25.7227 181.048 26.144C181.363 26.56 181.52 27.1067 181.52 27.784C181.52 28.504 181.331 29.1253 180.952 29.648C180.573 30.1707 180.056 30.568 179.4 30.84C178.749 31.1067 178.019 31.24 177.208 31.24ZM187.35 22.136C188.214 22.136 188.902 22.3493 189.414 22.776C189.926 23.2027 190.283 23.7253 190.486 24.344C190.689 24.9573 190.79 25.584 190.79 26.224V31H189.35V26.672C189.35 25.744 189.169 24.9813 188.806 24.384C188.449 23.7867 187.849 23.488 187.006 23.488C186.27 23.488 185.689 23.7387 185.262 24.24C184.841 24.736 184.63 25.472 184.63 26.448V31H183.19V19.48H184.47V23.472C184.795 23.04 185.201 22.7093 185.686 22.48C186.177 22.2507 186.731 22.136 187.35 22.136ZM193.918 27.08C193.977 27.9813 194.23 28.6747 194.678 29.16C195.131 29.6453 195.755 29.888 196.55 29.888C197.115 29.888 197.609 29.7573 198.03 29.496C198.457 29.2347 198.79 28.8587 199.03 28.368L200.398 28.84C200.062 29.5973 199.558 30.1867 198.886 30.608C198.214 31.0293 197.457 31.24 196.614 31.24C195.771 31.24 195.03 31.0533 194.39 30.68C193.755 30.3067 193.262 29.7787 192.91 29.096C192.563 28.4133 192.39 27.6267 192.39 26.736C192.39 25.8027 192.561 24.9893 192.902 24.296C193.249 23.5973 193.734 23.0613 194.358 22.688C194.987 22.3093 195.718 22.12 196.55 22.12C197.377 22.12 198.089 22.3067 198.686 22.68C199.289 23.048 199.75 23.5787 200.07 24.272C200.39 24.96 200.55 25.7787 200.55 26.728C200.55 26.8827 200.547 27 200.542 27.08H193.918ZM196.598 23.4C195.825 23.4 195.214 23.616 194.766 24.048C194.318 24.48 194.043 25.1093 193.942 25.936H199.062C198.886 24.2453 198.065 23.4 196.598 23.4ZM215.167 19.48H216.591V24.56H222.655V19.48H224.079V31H222.655V25.912H216.591V31H215.167V19.48ZM227.371 27.08C227.43 27.9813 227.683 28.6747 228.131 29.16C228.584 29.6453 229.208 29.888 230.003 29.888C230.568 29.888 231.062 29.7573 231.483 29.496C231.91 29.2347 232.243 28.8587 232.483 28.368L233.851 28.84C233.515 29.5973 233.011 30.1867 232.339 30.608C231.667 31.0293 230.91 31.24 230.067 31.24C229.224 31.24 228.483 31.0533 227.843 30.68C227.208 30.3067 226.715 29.7787 226.363 29.096C226.016 28.4133 225.843 27.6267 225.843 26.736C225.843 25.8027 226.014 24.9893 226.355 24.296C226.702 23.5973 227.187 23.0613 227.811 22.688C228.44 22.3093 229.171 22.12 230.003 22.12C230.83 22.12 231.542 22.3067 232.139 22.68C232.742 23.048 233.203 23.5787 233.523 24.272C233.843 24.96 234.003 25.7787 234.003 26.728C234.003 26.8827 234 27 233.995 27.08H227.371ZM230.051 23.4C229.278 23.4 228.667 23.616 228.219 24.048C227.771 24.48 227.496 25.1093 227.395 25.936H232.515C232.339 24.2453 231.518 23.4 230.051 23.4ZM237.784 22.888C238.024 22.696 238.307 22.5493 238.632 22.448C238.958 22.3467 239.286 22.296 239.616 22.296C239.824 22.296 240.03 22.3173 240.232 22.36V23.696C240.008 23.6427 239.792 23.616 239.584 23.616C239.067 23.616 238.624 23.752 238.256 24.024C237.867 24.3013 237.595 24.6667 237.44 25.12C237.286 25.568 237.208 26.0827 237.208 26.664V31H235.776V22.36H237.048V23.728C237.251 23.376 237.496 23.096 237.784 22.888Z" fill="#D65CD6"/>
<path d="M209.886 19.48L206.814 31H205.366L208.438 19.48H209.886Z" fill="#D65CD6" fill-opacity="0.3"/>
</g>
</g>
<defs>
<clipPath id="clip0_1484_4677">
<rect width="300" height="48" fill="white"/>
</clipPath>
</defs>
</svg>
