<svg width="250" height="32" viewBox="0 0 250 32" fill="none" xmlns="http://www.w3.org/2000/svg">
<g clip-path="url(#clip0_1496_4703)">
<rect width="250" height="32" rx="16" fill="#0047BB"/>
<mask id="mask0_1496_4703" style="mask-type:alpha" maskUnits="userSpaceOnUse" x="0" y="0" width="250" height="32">
<rect width="250" height="32" rx="16" fill="white"/>
</mask>
<g mask="url(#mask0_1496_4703)">
<g style="mix-blend-mode:luminosity">
<rect x="106" width="144" height="32" fill="black" fill-opacity="0.3"/>
</g>
</g>
<path d="M29.984 10.48C30.352 10.48 30.672 10.5013 30.944 10.544C31.9413 10.6987 32.6853 11.1093 33.176 11.776C33.672 12.4373 33.92 13.2747 33.92 14.288C33.92 15.296 33.672 16.1333 33.176 16.8C32.68 17.4667 31.936 17.8773 30.944 18.032C30.672 18.0747 30.352 18.096 29.984 18.096H27.296V22H25.12V10.48H29.984ZM29.888 16.064C30.192 16.064 30.4373 16.0373 30.624 15.984C31.024 15.8773 31.3067 15.664 31.472 15.344C31.6427 15.0187 31.728 14.6667 31.728 14.288C31.728 13.9093 31.6427 13.56 31.472 13.24C31.3067 12.9147 31.024 12.6987 30.624 12.592C30.4373 12.5387 30.192 12.512 29.888 12.512H27.296V16.064H29.888ZM38.0543 13.776C38.5396 13.4773 39.1156 13.328 39.7823 13.328C39.9636 13.328 40.1289 13.3387 40.2783 13.36V15.392C40.1129 15.3387 39.9076 15.312 39.6623 15.312C39.2569 15.312 38.8969 15.3867 38.5823 15.536C38.1983 15.712 37.9049 15.9733 37.7023 16.32C37.4996 16.6667 37.3983 17.088 37.3983 17.584V22H35.2063V13.36H37.1263V14.752C37.3663 14.32 37.6756 13.9947 38.0543 13.776ZM45.2118 22.24C44.3531 22.24 43.5931 22.048 42.9318 21.664C42.2704 21.2747 41.7558 20.736 41.3878 20.048C41.0251 19.3547 40.8438 18.5653 40.8438 17.68C40.8438 16.7893 41.0278 16 41.3958 15.312C41.7691 14.6187 42.2864 14.08 42.9478 13.696C43.6144 13.312 44.3691 13.12 45.2118 13.12C46.0704 13.12 46.8304 13.3147 47.4918 13.704C48.1584 14.088 48.6758 14.6267 49.0438 15.32C49.4118 16.0133 49.5958 16.8 49.5958 17.68C49.5958 18.5653 49.4091 19.3547 49.0358 20.048C48.6678 20.736 48.1504 21.2747 47.4838 21.664C46.8224 22.048 46.0651 22.24 45.2118 22.24ZM45.2118 20.208C45.8891 20.208 46.4038 19.9787 46.7558 19.52C47.1131 19.0613 47.2918 18.448 47.2918 17.68C47.2918 16.896 47.1131 16.28 46.7558 15.832C46.3984 15.3787 45.8838 15.152 45.2118 15.152C44.5238 15.152 44.0064 15.3787 43.6598 15.832C43.3184 16.28 43.1478 16.896 43.1478 17.68C43.1478 18.4693 43.3238 19.088 43.6758 19.536C44.0331 19.984 44.5451 20.208 45.2118 20.208ZM55.755 13.104C56.7683 13.104 57.523 13.3627 58.019 13.88C58.5203 14.3973 58.8297 14.944 58.947 15.52C59.0697 16.096 59.131 16.64 59.131 17.152V22H56.923V17.92C56.923 17.4827 56.891 17.072 56.827 16.688C56.763 16.304 56.5923 15.952 56.315 15.632C56.043 15.312 55.627 15.152 55.067 15.152C54.5657 15.152 54.1337 15.3253 53.771 15.672C53.4083 16.0133 53.227 16.6613 53.227 17.616V22H51.019V13.36H52.955V14.248C53.2803 13.8853 53.6777 13.6053 54.147 13.408C54.6163 13.2053 55.1523 13.104 55.755 13.104ZM64.6186 22.24C63.76 22.24 63 22.048 62.3386 21.664C61.6773 21.2747 61.1626 20.736 60.7946 20.048C60.432 19.3547 60.2506 18.5653 60.2506 17.68C60.2506 16.7893 60.4346 16 60.8026 15.312C61.176 14.6187 61.6933 14.08 62.3546 13.696C63.0213 13.312 63.776 13.12 64.6186 13.12C65.4773 13.12 66.2373 13.3147 66.8986 13.704C67.5653 14.088 68.0826 14.6267 68.4506 15.32C68.8186 16.0133 69.0026 16.8 69.0026 17.68C69.0026 18.5653 68.816 19.3547 68.4426 20.048C68.0746 20.736 67.5573 21.2747 66.8906 21.664C66.2293 22.048 65.472 22.24 64.6186 22.24ZM64.6186 20.208C65.296 20.208 65.8106 19.9787 66.1626 19.52C66.52 19.0613 66.6986 18.448 66.6986 17.68C66.6986 16.896 66.52 16.28 66.1626 15.832C65.8053 15.3787 65.2906 15.152 64.6186 15.152C63.9306 15.152 63.4133 15.3787 63.0666 15.832C62.7253 16.28 62.5546 16.896 62.5546 17.68C62.5546 18.4693 62.7306 19.088 63.0826 19.536C63.44 19.984 63.952 20.208 64.6186 20.208ZM78.3779 13.36V22H76.4579V21.112C76.1325 21.4747 75.7352 21.7573 75.2659 21.96C74.7965 22.1573 74.2605 22.256 73.6579 22.256C72.6445 22.256 71.8872 21.9973 71.3859 21.48C70.8899 20.9627 70.5805 20.416 70.4579 19.84C70.3405 19.264 70.2819 18.72 70.2819 18.208V13.36H72.4899V17.44C72.4899 17.8773 72.5219 18.288 72.5859 18.672C72.6499 19.056 72.8179 19.408 73.0899 19.728C73.3672 20.048 73.7859 20.208 74.3459 20.208C74.8472 20.208 75.2792 20.0373 75.6419 19.696C76.0045 19.3493 76.1859 18.6987 76.1859 17.744V13.36H78.3779ZM85.0138 13.104C86.0271 13.104 86.7818 13.3627 87.2778 13.88C87.7791 14.3973 88.0884 14.944 88.2058 15.52C88.3284 16.096 88.3898 16.64 88.3898 17.152V22H86.1818V17.92C86.1818 17.4827 86.1498 17.072 86.0858 16.688C86.0218 16.304 85.8511 15.952 85.5738 15.632C85.3018 15.312 84.8858 15.152 84.3258 15.152C83.8244 15.152 83.3924 15.3253 83.0298 15.672C82.6671 16.0133 82.4858 16.6613 82.4858 17.616V22H80.2778V13.36H82.2138V14.248C82.5391 13.8853 82.9364 13.6053 83.4058 13.408C83.8751 13.2053 84.4111 13.104 85.0138 13.104ZM93.5216 22.24C92.4336 22.24 91.5536 21.9947 90.8816 21.504C90.215 21.0133 89.8096 20.3147 89.6656 19.408L91.8896 19.072C91.9803 19.4827 92.1803 19.8027 92.4896 20.032C92.8043 20.256 93.2016 20.368 93.6816 20.368C94.071 20.368 94.3723 20.2933 94.5856 20.144C94.8043 19.9893 94.9136 19.776 94.9136 19.504C94.9136 19.3227 94.8683 19.184 94.7776 19.088C94.6923 18.9867 94.511 18.888 94.2336 18.792C93.9616 18.696 93.495 18.56 92.8336 18.384C92.119 18.2027 91.5536 18 91.1376 17.776C90.7216 17.552 90.4203 17.2853 90.2336 16.976C90.047 16.6667 89.9536 16.288 89.9536 15.84C89.9536 15.2907 90.095 14.8107 90.3776 14.4C90.6603 13.9893 91.0603 13.6747 91.5776 13.456C92.095 13.232 92.7003 13.12 93.3936 13.12C94.0656 13.12 94.663 13.224 95.1856 13.432C95.7136 13.64 96.1376 13.9387 96.4576 14.328C96.783 14.712 96.983 15.1627 97.0576 15.68L94.8336 16.08C94.7963 15.76 94.6576 15.5067 94.4176 15.32C94.1776 15.1333 93.8523 15.024 93.4416 14.992L93.2736 14.984C92.9216 14.984 92.639 15.0507 92.4256 15.184C92.2176 15.3173 92.1136 15.4987 92.1136 15.728C92.1136 15.8827 92.167 16.0107 92.2736 16.112C92.3803 16.208 92.5883 16.3093 92.8976 16.416C93.207 16.5173 93.7136 16.656 94.4176 16.832C95.079 17.0027 95.607 17.2027 96.0016 17.432C96.3963 17.656 96.6843 17.9253 96.8656 18.24C97.047 18.5547 97.1376 18.9387 97.1376 19.392C97.1376 19.9787 96.9936 20.488 96.7056 20.92C96.4176 21.3467 96.0016 21.6747 95.4576 21.904C94.9136 22.128 94.2683 22.24 93.5216 22.24Z" fill="white"/>
<rect x="14" y="13" width="6" height="6" rx="3" fill="#02DA9A"/>
<path d="M119.12 10.48H120.544V15.56H126.608V10.48H128.032V22H126.608V16.912H120.544V22H119.12V10.48ZM131.324 18.08C131.383 18.9813 131.636 19.6747 132.084 20.16C132.538 20.6453 133.162 20.888 133.956 20.888C134.522 20.888 135.015 20.7573 135.436 20.496C135.863 20.2347 136.196 19.8587 136.436 19.368L137.804 19.84C137.468 20.5973 136.964 21.1867 136.292 21.608C135.62 22.0293 134.863 22.24 134.02 22.24C133.178 22.24 132.436 22.0533 131.796 21.68C131.162 21.3067 130.668 20.7787 130.316 20.096C129.97 19.4133 129.796 18.6267 129.796 17.736C129.796 16.8027 129.967 15.9893 130.308 15.296C130.655 14.5973 131.14 14.0613 131.764 13.688C132.394 13.3093 133.124 13.12 133.956 13.12C134.783 13.12 135.495 13.3067 136.092 13.68C136.695 14.048 137.156 14.5787 137.476 15.272C137.796 15.96 137.956 16.7787 137.956 17.728C137.956 17.8827 137.954 18 137.948 18.08H131.324ZM134.004 14.4C133.231 14.4 132.62 14.616 132.172 15.048C131.724 15.48 131.45 16.1093 131.348 16.936H136.468C136.292 15.2453 135.471 14.4 134.004 14.4ZM152.573 10.48H153.997V15.56H160.061V10.48H161.485V22H160.061V16.912H153.997V22H152.573V10.48ZM163.889 10.36H165.313V11.832H163.889V10.36ZM163.889 13.36H165.313V22H163.889V13.36ZM176.57 13.136C177.162 13.136 177.676 13.2613 178.114 13.512C178.551 13.7573 178.887 14.1093 179.122 14.568C179.356 15.0213 179.474 15.552 179.474 16.16L179.466 22H178.042L178.05 16.472C178.05 16.0507 177.97 15.6853 177.81 15.376C177.655 15.0613 177.436 14.8213 177.154 14.656C176.876 14.4907 176.556 14.408 176.194 14.408C175.858 14.408 175.546 14.4853 175.258 14.64C174.97 14.7947 174.738 15.0293 174.562 15.344C174.391 15.6587 174.306 16.048 174.306 16.512L174.298 22H172.882L172.89 16.528C172.89 16.096 172.812 15.72 172.658 15.4C172.503 15.08 172.284 14.8347 172.002 14.664C171.719 14.4933 171.391 14.408 171.018 14.408C170.644 14.408 170.316 14.496 170.034 14.672C169.751 14.848 169.53 15.096 169.37 15.416C169.215 15.7307 169.138 16.096 169.138 16.512V22H167.706V13.36H168.978V14.28C169.255 13.9227 169.607 13.6427 170.034 13.44C170.46 13.2373 170.927 13.136 171.434 13.136C172.015 13.136 172.522 13.2613 172.954 13.512C173.386 13.7573 173.719 14.1067 173.954 14.56C174.21 14.112 174.567 13.7627 175.026 13.512C175.49 13.2613 176.004 13.136 176.57 13.136ZM194.401 10.48H195.825V15.56H201.889V10.48H203.313V22H201.889V16.912H195.825V22H194.401V10.48ZM205.718 10.36H207.142V11.832H205.718V10.36ZM205.718 13.36H207.142V22H205.718V13.36ZM212.806 22.232C212.123 22.232 211.518 22.1307 210.99 21.928C210.462 21.7253 210.033 21.432 209.702 21.048C209.371 20.664 209.158 20.2027 209.062 19.664L210.518 19.432C210.635 19.9067 210.905 20.28 211.326 20.552C211.747 20.824 212.27 20.96 212.894 20.96C213.481 20.96 213.942 20.84 214.278 20.6C214.619 20.3547 214.79 20.0187 214.79 19.592C214.79 19.336 214.731 19.136 214.614 18.992C214.502 18.848 214.281 18.712 213.95 18.584C213.619 18.4507 213.086 18.2853 212.35 18.088C211.577 17.88 210.974 17.6693 210.542 17.456C210.11 17.2373 209.801 16.9867 209.614 16.704C209.427 16.4213 209.334 16.0693 209.334 15.648C209.334 15.1467 209.473 14.7067 209.75 14.328C210.027 13.944 210.417 13.648 210.918 13.44C211.419 13.2267 211.998 13.12 212.654 13.12C213.305 13.12 213.889 13.2267 214.406 13.44C214.929 13.648 215.347 13.944 215.662 14.328C215.982 14.7067 216.171 15.1467 216.23 15.648L214.774 15.912C214.705 15.4427 214.47 15.072 214.07 14.8C213.675 14.528 213.169 14.392 212.55 14.392C212.198 14.392 211.886 14.4427 211.614 14.544C211.347 14.64 211.139 14.7787 210.99 14.96C210.841 15.136 210.766 15.3413 210.766 15.576C210.766 15.7947 210.83 15.976 210.958 16.12C211.091 16.264 211.331 16.4027 211.678 16.536C212.025 16.664 212.545 16.816 213.238 16.992C214.011 17.1893 214.614 17.4 215.046 17.624C215.478 17.848 215.787 18.112 215.974 18.416C216.166 18.72 216.262 19.0987 216.262 19.552C216.262 20.1067 216.123 20.5867 215.846 20.992C215.569 21.392 215.171 21.6987 214.654 21.912C214.137 22.1253 213.521 22.232 212.806 22.232Z" fill="white"/>
<path d="M147.293 10.48L144.221 22H142.773L145.845 10.48H147.293ZM189.121 10.48L186.049 22H184.601L187.673 10.48H189.121Z" fill="white" fill-opacity="0.3"/>
<rect x="0.5" y="0.5" width="249" height="31" rx="15.5" stroke="#363636" stroke-opacity="0.1" style="mix-blend-mode:luminosity"/>
</g>
<defs>
<clipPath id="clip0_1496_4703">
<rect width="250" height="32" fill="white"/>
</clipPath>
</defs>
</svg>
