<svg width="250" height="32" viewBox="0 0 250 32" fill="none" xmlns="http://www.w3.org/2000/svg">
<g clip-path="url(#clip0_1484_4677)">
<rect width="250" height="32" rx="16" fill="#FCE3FC"/>
<rect width="250" height="32" rx="16" fill="white" fill-opacity="0.6"/>
<mask id="mask0_1484_4677" style="mask-type:alpha" maskUnits="userSpaceOnUse" x="0" y="0" width="250" height="32">
<rect width="250" height="32" rx="16" fill="white"/>
</mask>
<g mask="url(#mask0_1484_4677)">
<rect x="106" width="144" height="32" fill="#FCE3FC"/>
</g>
<path d="M29.984 10.48C30.352 10.48 30.672 10.5013 30.944 10.544C31.9413 10.6987 32.6853 11.1093 33.176 11.776C33.672 12.4373 33.92 13.2747 33.92 14.288C33.92 15.296 33.672 16.1333 33.176 16.8C32.68 17.4667 31.936 17.8773 30.944 18.032C30.672 18.0747 30.352 18.096 29.984 18.096H27.296V22H25.12V10.48H29.984ZM29.888 16.064C30.192 16.064 30.4373 16.0373 30.624 15.984C31.024 15.8773 31.3067 15.664 31.472 15.344C31.6427 15.0187 31.728 14.6667 31.728 14.288C31.728 13.9093 31.6427 13.56 31.472 13.24C31.3067 12.9147 31.024 12.6987 30.624 12.592C30.4373 12.5387 30.192 12.512 29.888 12.512H27.296V16.064H29.888ZM38.0543 13.776C38.5396 13.4773 39.1156 13.328 39.7823 13.328C39.9636 13.328 40.1289 13.3387 40.2783 13.36V15.392C40.1129 15.3387 39.9076 15.312 39.6623 15.312C39.2569 15.312 38.8969 15.3867 38.5823 15.536C38.1983 15.712 37.9049 15.9733 37.7023 16.32C37.4996 16.6667 37.3983 17.088 37.3983 17.584V22H35.2063V13.36H37.1263V14.752C37.3663 14.32 37.6756 13.9947 38.0543 13.776ZM45.2118 22.24C44.3531 22.24 43.5931 22.048 42.9318 21.664C42.2704 21.2747 41.7558 20.736 41.3878 20.048C41.0251 19.3547 40.8438 18.5653 40.8438 17.68C40.8438 16.7893 41.0278 16 41.3958 15.312C41.7691 14.6187 42.2864 14.08 42.9478 13.696C43.6144 13.312 44.3691 13.12 45.2118 13.12C46.0704 13.12 46.8304 13.3147 47.4918 13.704C48.1584 14.088 48.6758 14.6267 49.0438 15.32C49.4118 16.0133 49.5958 16.8 49.5958 17.68C49.5958 18.5653 49.4091 19.3547 49.0358 20.048C48.6678 20.736 48.1504 21.2747 47.4838 21.664C46.8224 22.048 46.0651 22.24 45.2118 22.24ZM45.2118 20.208C45.8891 20.208 46.4038 19.9787 46.7558 19.52C47.1131 19.0613 47.2918 18.448 47.2918 17.68C47.2918 16.896 47.1131 16.28 46.7558 15.832C46.3984 15.3787 45.8838 15.152 45.2118 15.152C44.5238 15.152 44.0064 15.3787 43.6598 15.832C43.3184 16.28 43.1478 16.896 43.1478 17.68C43.1478 18.4693 43.3238 19.088 43.6758 19.536C44.0331 19.984 44.5451 20.208 45.2118 20.208ZM55.755 13.104C56.7683 13.104 57.523 13.3627 58.019 13.88C58.5203 14.3973 58.8297 14.944 58.947 15.52C59.0697 16.096 59.131 16.64 59.131 17.152V22H56.923V17.92C56.923 17.4827 56.891 17.072 56.827 16.688C56.763 16.304 56.5923 15.952 56.315 15.632C56.043 15.312 55.627 15.152 55.067 15.152C54.5657 15.152 54.1337 15.3253 53.771 15.672C53.4083 16.0133 53.227 16.6613 53.227 17.616V22H51.019V13.36H52.955V14.248C53.2803 13.8853 53.6777 13.6053 54.147 13.408C54.6163 13.2053 55.1523 13.104 55.755 13.104ZM64.6186 22.24C63.76 22.24 63 22.048 62.3386 21.664C61.6773 21.2747 61.1626 20.736 60.7946 20.048C60.432 19.3547 60.2506 18.5653 60.2506 17.68C60.2506 16.7893 60.4346 16 60.8026 15.312C61.176 14.6187 61.6933 14.08 62.3546 13.696C63.0213 13.312 63.776 13.12 64.6186 13.12C65.4773 13.12 66.2373 13.3147 66.8986 13.704C67.5653 14.088 68.0826 14.6267 68.4506 15.32C68.8186 16.0133 69.0026 16.8 69.0026 17.68C69.0026 18.5653 68.816 19.3547 68.4426 20.048C68.0746 20.736 67.5573 21.2747 66.8906 21.664C66.2293 22.048 65.472 22.24 64.6186 22.24ZM64.6186 20.208C65.296 20.208 65.8106 19.9787 66.1626 19.52C66.52 19.0613 66.6986 18.448 66.6986 17.68C66.6986 16.896 66.52 16.28 66.1626 15.832C65.8053 15.3787 65.2906 15.152 64.6186 15.152C63.9306 15.152 63.4133 15.3787 63.0666 15.832C62.7253 16.28 62.5546 16.896 62.5546 17.68C62.5546 18.4693 62.7306 19.088 63.0826 19.536C63.44 19.984 63.952 20.208 64.6186 20.208ZM78.3779 13.36V22H76.4579V21.112C76.1325 21.4747 75.7352 21.7573 75.2659 21.96C74.7965 22.1573 74.2605 22.256 73.6579 22.256C72.6445 22.256 71.8872 21.9973 71.3859 21.48C70.8899 20.9627 70.5805 20.416 70.4579 19.84C70.3405 19.264 70.2819 18.72 70.2819 18.208V13.36H72.4899V17.44C72.4899 17.8773 72.5219 18.288 72.5859 18.672C72.6499 19.056 72.8179 19.408 73.0899 19.728C73.3672 20.048 73.7859 20.208 74.3459 20.208C74.8472 20.208 75.2792 20.0373 75.6419 19.696C76.0045 19.3493 76.1859 18.6987 76.1859 17.744V13.36H78.3779ZM85.0138 13.104C86.0271 13.104 86.7818 13.3627 87.2778 13.88C87.7791 14.3973 88.0884 14.944 88.2058 15.52C88.3284 16.096 88.3898 16.64 88.3898 17.152V22H86.1818V17.92C86.1818 17.4827 86.1498 17.072 86.0858 16.688C86.0218 16.304 85.8511 15.952 85.5738 15.632C85.3018 15.312 84.8858 15.152 84.3258 15.152C83.8244 15.152 83.3924 15.3253 83.0298 15.672C82.6671 16.0133 82.4858 16.6613 82.4858 17.616V22H80.2778V13.36H82.2138V14.248C82.5391 13.8853 82.9364 13.6053 83.4058 13.408C83.8751 13.2053 84.4111 13.104 85.0138 13.104ZM93.5216 22.24C92.4336 22.24 91.5536 21.9947 90.8816 21.504C90.215 21.0133 89.8096 20.3147 89.6656 19.408L91.8896 19.072C91.9803 19.4827 92.1803 19.8027 92.4896 20.032C92.8043 20.256 93.2016 20.368 93.6816 20.368C94.071 20.368 94.3723 20.2933 94.5856 20.144C94.8043 19.9893 94.9136 19.776 94.9136 19.504C94.9136 19.3227 94.8683 19.184 94.7776 19.088C94.6923 18.9867 94.511 18.888 94.2336 18.792C93.9616 18.696 93.495 18.56 92.8336 18.384C92.119 18.2027 91.5536 18 91.1376 17.776C90.7216 17.552 90.4203 17.2853 90.2336 16.976C90.047 16.6667 89.9536 16.288 89.9536 15.84C89.9536 15.2907 90.095 14.8107 90.3776 14.4C90.6603 13.9893 91.0603 13.6747 91.5776 13.456C92.095 13.232 92.7003 13.12 93.3936 13.12C94.0656 13.12 94.663 13.224 95.1856 13.432C95.7136 13.64 96.1376 13.9387 96.4576 14.328C96.783 14.712 96.983 15.1627 97.0576 15.68L94.8336 16.08C94.7963 15.76 94.6576 15.5067 94.4176 15.32C94.1776 15.1333 93.8523 15.024 93.4416 14.992L93.2736 14.984C92.9216 14.984 92.639 15.0507 92.4256 15.184C92.2176 15.3173 92.1136 15.4987 92.1136 15.728C92.1136 15.8827 92.167 16.0107 92.2736 16.112C92.3803 16.208 92.5883 16.3093 92.8976 16.416C93.207 16.5173 93.7136 16.656 94.4176 16.832C95.079 17.0027 95.607 17.2027 96.0016 17.432C96.3963 17.656 96.6843 17.9253 96.8656 18.24C97.047 18.5547 97.1376 18.9387 97.1376 19.392C97.1376 19.9787 96.9936 20.488 96.7056 20.92C96.4176 21.3467 96.0016 21.6747 95.4576 21.904C94.9136 22.128 94.2683 22.24 93.5216 22.24Z" fill="black"/>
<rect x="14" y="13" width="6" height="6" rx="3" fill="#E45BEE"/>
<path d="M123.208 22.24C122.397 22.24 121.664 22.1013 121.008 21.824C120.352 21.5467 119.811 21.1493 119.384 20.632C118.963 20.1147 118.688 19.5067 118.56 18.808L120.032 18.576C120.155 19.056 120.368 19.4693 120.672 19.816C120.981 20.1627 121.36 20.4293 121.808 20.616C122.256 20.7973 122.747 20.888 123.28 20.888C123.797 20.888 124.267 20.8053 124.688 20.64C125.109 20.4747 125.44 20.24 125.68 19.936C125.925 19.632 126.048 19.2747 126.048 18.864C126.048 18.4053 125.901 18.0453 125.608 17.784C125.315 17.5227 124.925 17.32 124.44 17.176L121.504 16.304C120.757 16.0853 120.155 15.7547 119.696 15.312C119.237 14.8693 119.008 14.2587 119.008 13.48C119.008 12.8133 119.181 12.2373 119.528 11.752C119.88 11.2613 120.36 10.888 120.968 10.632C121.581 10.3707 122.272 10.2427 123.04 10.248C123.808 10.2533 124.499 10.392 125.112 10.664C125.731 10.9307 126.24 11.3173 126.64 11.824C127.04 12.3253 127.309 12.9227 127.448 13.616L125.936 13.88C125.856 13.4213 125.677 13.0187 125.4 12.672C125.123 12.3253 124.773 12.0613 124.352 11.88C123.936 11.6933 123.48 11.6 122.984 11.6C122.52 11.6 122.099 11.68 121.72 11.84C121.347 11.9947 121.051 12.2107 120.832 12.488C120.619 12.76 120.512 13.0693 120.512 13.416C120.512 13.7467 120.605 14.0213 120.792 14.24C120.979 14.4587 121.205 14.6293 121.472 14.752C121.744 14.8747 122.064 14.9867 122.432 15.088L124.624 15.72C125.12 15.8587 125.568 16.0267 125.968 16.224C126.373 16.416 126.733 16.7227 127.048 17.144C127.363 17.56 127.52 18.1067 127.52 18.784C127.52 19.504 127.331 20.1253 126.952 20.648C126.573 21.1707 126.056 21.568 125.4 21.84C124.749 22.1067 124.019 22.24 123.208 22.24ZM133.35 13.136C134.214 13.136 134.902 13.3493 135.414 13.776C135.926 14.2027 136.283 14.7253 136.486 15.344C136.689 15.9573 136.79 16.584 136.79 17.224V22H135.35V17.672C135.35 16.744 135.169 15.9813 134.806 15.384C134.449 14.7867 133.849 14.488 133.006 14.488C132.27 14.488 131.689 14.7387 131.262 15.24C130.841 15.736 130.63 16.472 130.63 17.448V22H129.19V10.48H130.47V14.472C130.795 14.04 131.201 13.7093 131.686 13.48C132.177 13.2507 132.731 13.136 133.35 13.136ZM139.918 18.08C139.977 18.9813 140.23 19.6747 140.678 20.16C141.131 20.6453 141.755 20.888 142.55 20.888C143.115 20.888 143.609 20.7573 144.03 20.496C144.457 20.2347 144.79 19.8587 145.03 19.368L146.398 19.84C146.062 20.5973 145.558 21.1867 144.886 21.608C144.214 22.0293 143.457 22.24 142.614 22.24C141.771 22.24 141.03 22.0533 140.39 21.68C139.755 21.3067 139.262 20.7787 138.91 20.096C138.563 19.4133 138.39 18.6267 138.39 17.736C138.39 16.8027 138.561 15.9893 138.902 15.296C139.249 14.5973 139.734 14.0613 140.358 13.688C140.987 13.3093 141.718 13.12 142.55 13.12C143.377 13.12 144.089 13.3067 144.686 13.68C145.289 14.048 145.75 14.5787 146.07 15.272C146.39 15.96 146.55 16.7787 146.55 17.728C146.55 17.8827 146.547 18 146.542 18.08H139.918ZM142.598 14.4C141.825 14.4 141.214 14.616 140.766 15.048C140.318 15.48 140.043 16.1093 139.942 16.936H145.062C144.886 15.2453 144.065 14.4 142.598 14.4ZM161.167 10.48H162.591V15.56H168.655V10.48H170.079V22H168.655V16.912H162.591V22H161.167V10.48ZM173.371 18.08C173.43 18.9813 173.683 19.6747 174.131 20.16C174.584 20.6453 175.208 20.888 176.003 20.888C176.568 20.888 177.062 20.7573 177.483 20.496C177.91 20.2347 178.243 19.8587 178.483 19.368L179.851 19.84C179.515 20.5973 179.011 21.1867 178.339 21.608C177.667 22.0293 176.91 22.24 176.067 22.24C175.224 22.24 174.483 22.0533 173.843 21.68C173.208 21.3067 172.715 20.7787 172.363 20.096C172.016 19.4133 171.843 18.6267 171.843 17.736C171.843 16.8027 172.014 15.9893 172.355 15.296C172.702 14.5973 173.187 14.0613 173.811 13.688C174.44 13.3093 175.171 13.12 176.003 13.12C176.83 13.12 177.542 13.3067 178.139 13.68C178.742 14.048 179.203 14.5787 179.523 15.272C179.843 15.96 180.003 16.7787 180.003 17.728C180.003 17.8827 180 18 179.995 18.08H173.371ZM176.051 14.4C175.278 14.4 174.667 14.616 174.219 15.048C173.771 15.48 173.496 16.1093 173.395 16.936H178.515C178.339 15.2453 177.518 14.4 176.051 14.4ZM183.784 13.888C184.024 13.696 184.307 13.5493 184.632 13.448C184.958 13.3467 185.286 13.296 185.616 13.296C185.824 13.296 186.03 13.3173 186.232 13.36V14.696C186.008 14.6427 185.792 14.616 185.584 14.616C185.067 14.616 184.624 14.752 184.256 15.024C183.867 15.3013 183.595 15.6667 183.44 16.12C183.286 16.568 183.208 17.0827 183.208 17.664V22H181.776V13.36H183.048V14.728C183.251 14.376 183.496 14.096 183.784 13.888Z" fill="#E45DBF"/>
<path d="M155.886 10.48L152.814 22H151.366L154.438 10.48H155.886Z" fill="#E45DBF" fill-opacity="0.3"/>
<rect x="0.5" y="0.5" width="249" height="31" rx="15.5" stroke="#363636" stroke-opacity="0.1" style="mix-blend-mode:luminosity"/>
</g>
<defs>
<clipPath id="clip0_1484_4677">
<rect width="250" height="32" fill="white"/>
</clipPath>
</defs>
</svg>
