<svg fill="none" xmlns="http://www.w3.org/2000/svg">
<style>
@import url('https://fonts.googleapis.com/css2?family=Manrope:wght@500;800');
#link, #text, #link-icon {
    transition: all 300ms cubic-bezier(0.19, 1, 0.22, 1);
}
a {
    background: red;
}
a:hover g #link {
    y: 12;
    width: 20px;
    height: 20px;
}
a:active g #link {
    y: 12;
    width: 30px;
    height: 20px;
}
a:hover g #text {
    transform: translateX(8px);
}
#link-icon {
    clip-path: url(#link-clip);
    transform: scale(0.5) translateY(20px);
    opacity: 0;
}
a:hover g #link-icon {
    transform: scale(1) translateY(0);
    opacity: 1;
}
#con {
    fill: transparent;
}
</style>
<a>
<g id="con">
<rect x="0" width="100%" height="100%" />
<text fill="black" xml:space="preserve" style="white-space: pre" font-family="Manrope" font-size="32" font-weight="800" letter-spacing="-0.04em" id="text"><tspan x="16" y="34.256">Brief Introduction</tspan></text>
<g class="link-con">
<clipPath id="link-clip">
<rect y="18" width="8" height="8" rx="10" fill="#02DA9A" id="link"/>
</clipPath>
<rect y="18" width="8" height="8" rx="10" fill="#02DA9A" id="link"/>
<g id="link-icon">
<path d="M12.1933 22.536L14.3146 20.4147C15.0957 19.6336 15.0957 18.3673 14.3146 17.5862C13.5336 16.8052 12.2672 16.8052 11.4862 17.5862L10.4255 18.6469C10.2303 18.8422 9.91367 18.8422 9.71841 18.6469C9.52315 18.4516 9.52315 18.1351 9.71841 17.9398L10.7791 16.8791C11.9506 15.7076 13.8501 15.7076 15.0217 16.8791C16.1933 18.0507 16.1933 19.9502 15.0217 21.1218L12.9004 23.2431C11.7288 24.4147 9.82932 24.4147 8.65775 23.2431C8.53151 23.1169 8.41887 22.9822 8.31983 22.8408C8.17337 22.6318 8.25809 22.3515 8.47693 22.2202C8.72914 22.0689 9.05483 22.1779 9.24356 22.4035C9.28165 22.449 9.32208 22.4932 9.36486 22.536C10.1459 23.317 11.4122 23.317 12.1933 22.536Z" fill="black"/>
<path d="M8.65775 26.0715L9.71841 25.0109C9.91367 24.8156 10.2303 24.8156 10.4255 25.0109C10.6208 25.2061 10.6208 25.5227 10.4255 25.718L9.36486 26.7786C8.19328 27.9502 6.29379 27.9502 5.12222 26.7786C3.95064 25.6071 3.95064 23.7076 5.12222 22.536L7.24354 20.4147C8.41511 19.2431 10.3146 19.2431 11.4862 20.4147C11.6124 20.5409 11.7251 20.6756 11.8241 20.8169C11.9706 21.0259 11.8858 21.3062 11.667 21.4375C11.4148 21.5889 11.0891 21.4799 10.9004 21.2543C10.8623 21.2088 10.8218 21.1645 10.7791 21.1218C9.99802 20.3407 8.73169 20.3407 7.95064 21.1218L5.82932 23.2431C5.04827 24.0241 5.04827 25.2905 5.82932 26.0715C6.61037 26.8526 7.8767 26.8526 8.65775 26.0715Z" fill="black"/>
</g>
</g>
</g>
</a>
</svg>
