<svg width="1920" height="1200" viewBox="0 0 1920 1200" fill="none" xmlns="http://www.w3.org/2000/svg">
<g clip-path="url(#clip0_1847_1978)">
<rect width="1920" height="1200" rx="64" fill="Canvas"/>
<path opacity="0.1" fill-rule="evenodd" clip-rule="evenodd" d="M-355 600H560V648.167V650.17V656.167V658.17V849.536V857.536V921L-355 921V600ZM568 857.536V921V929H560L-355 929H-363V600V592H-355H560H568H1352H1360H2275H2283V600V921V929H2275L1360 929H1352V857.536H570L568 857.536ZM568 849.536L570 849.536L1350 849.536L1352 849.536V658.17H568V849.536ZM1360 849.536V857.536V921L2275 921V600H1360V648.167V650.17V656.167V658.17V849.536ZM568 648.167V600H1352V648.167H568Z" fill="CanvasText"/>
<rect opacity="0.1" x="4" y="-4" width="472" height="232" rx="20" transform="matrix(1 0 0 -1 -36.0742 332)" stroke="CanvasText" stroke-width="8"/>
<path opacity="0.1" d="M126.263 132.586C106.95 123.555 62.4396 154.089 48.2772 190.118C41.3449 207.754 33.3544 224.39 39.0604 235.165C55.0229 265.306 84.9435 172.723 105.964 179.026C121.785 183.77 99.7682 245.114 127.87 266.059C166.318 294.716 193.29 182.148 237.639 200.386C249.934 205.442 226.225 275.951 251.163 285.21C270.997 292.574 310.242 232.252 327.987 243.773C341.142 252.313 297.795 280.912 313.697 301.505C338.256 333.306 367.79 292.329 367.423 247.223C367.201 219.974 351.246 199.746 331.922 198.795C311.028 197.766 281.517 254.898 268.447 238.564C256.545 223.688 272.91 136.334 231.66 150.437C190.41 164.54 180.162 229.519 152.057 214.547C122.441 198.77 151.51 144.391 126.263 132.586Z" fill="CanvasText"/>
<path opacity="0.1" d="M1436.91 505C1431.59 505 1427.43 509.597 1427.96 514.896L1434.46 579.896C1434.92 584.496 1438.79 588 1443.41 588H1494.36C1498.99 588 1502.86 584.496 1503.32 579.896L1509.82 514.896C1510.35 509.597 1506.19 505 1500.86 505H1436.91Z" stroke="CanvasText" stroke-width="8" stroke-linejoin="round"/>
<path opacity="0.1" d="M1450.96 453.092C1450.96 453.092 1442.02 449.668 1434.38 452.132C1426.61 454.64 1419.4 461.549 1423.25 468.754C1426.72 475.229 1435.06 475.869 1442.02 473.603C1450.96 470.689 1452.45 462.16 1452.45 462.16" stroke="CanvasText" stroke-width="8" stroke-linecap="round"/>
<path opacity="0.1" d="M1480.12 449.337C1480.12 449.337 1489.76 445.686 1497.22 448.497C1504.69 451.307 1512.8 457.989 1508.88 465.068C1505.36 471.409 1497.22 472.188 1489.56 469.753C1481.9 467.319 1478.68 458.326 1478.68 458.326" stroke="CanvasText" stroke-width="8" stroke-linecap="round"/>
<path opacity="0.1" d="M1450.55 413.526C1450.55 413.526 1438.18 408.287 1427.31 413.613C1416.43 418.94 1410.11 429.12 1414.2 436.024C1418.57 443.429 1428.83 443.512 1438.51 439.513C1448.19 435.514 1452.31 424.323 1452.31 424.323" stroke="CanvasText" stroke-width="8" stroke-linecap="round"/>
<path opacity="0.1" d="M1479.36 407.214C1479.36 407.214 1490.34 403.886 1502.28 406.255C1514.23 408.624 1524.62 417.938 1520.35 426.587C1516.52 434.335 1505.04 435.078 1495 432.244C1486.38 429.812 1478.71 418.212 1478.71 418.212" stroke="CanvasText" stroke-width="8" stroke-linecap="round"/>
<path opacity="0.1" d="M1444.78 369.071C1444.78 369.071 1430.58 366.314 1417.14 374.926C1403.71 383.538 1399.08 393.295 1405.78 400.542C1411.8 407.055 1424.77 404.208 1434.29 398.375C1444.78 391.95 1448.22 379.656 1448.22 379.656" stroke="CanvasText" stroke-width="8" stroke-linecap="round"/>
<path opacity="0.1" d="M1473.54 368.202C1473.54 368.202 1481.85 363.02 1500.17 363.045C1518.48 363.07 1528.58 371.394 1525.27 381.334C1522.31 390.24 1509.02 393.101 1496.72 391.912C1486.15 390.891 1474.92 379.98 1474.92 379.98" stroke="CanvasText" stroke-width="8" stroke-linecap="round"/>
<path opacity="0.1" d="M1462.36 488.8C1470.03 445.545 1471.21 389.011 1452.13 356.31" stroke="CanvasText" stroke-width="8" stroke-linecap="round"/>
<path opacity="0.1" fill-rule="evenodd" clip-rule="evenodd" d="M784 586C784 582.686 786.686 580 790 580L1130 580C1133.31 580 1136 582.686 1136 586C1136 589.314 1133.31 592 1130 592L790 592C786.686 592 784 589.314 784 586Z" fill="CanvasText"/>
<rect opacity="0.1" x="800" y="366" width="320" height="210" rx="12" stroke="CanvasText" stroke-width="8" stroke-linejoin="round"/>
<path opacity="0.1" d="M819 541.465L819 384.465L1101 384.465L1101 541.465L819 541.465Z" stroke="CanvasText" stroke-width="8" stroke-linecap="round" stroke-linejoin="round"/>
<path opacity="0.1" fill-rule="evenodd" clip-rule="evenodd" d="M499.746 521H534.065C541.245 521 547.065 526.82 547.065 534V579.402C547.065 586.582 541.245 592.402 534.065 592.402H499.746C492.566 592.402 486.746 586.582 486.746 579.402V577.715C485.785 577.906 484.792 578.006 483.771 578.006C478.17 578.006 473.405 574.971 470.176 570.667C466.948 566.364 465.07 560.603 465.07 554.41C465.07 548.217 466.948 542.456 470.176 538.153C473.405 533.849 478.17 530.813 483.771 530.813C484.902 530.813 485.998 530.937 487.055 531.17C488.347 525.351 493.538 521 499.746 521ZM483.771 570.006C484.764 570.006 485.767 569.796 486.746 569.371V539.449C485.767 539.024 484.764 538.813 483.771 538.813C481.252 538.813 478.668 540.165 476.576 542.953C474.483 545.743 473.07 549.781 473.07 554.41C473.07 559.039 474.483 563.077 476.576 565.866C478.668 568.655 481.252 570.006 483.771 570.006ZM494.746 579.402V573.558C494.747 573.557 494.747 573.557 494.748 573.556V535.264C494.747 535.263 494.747 535.263 494.746 535.262V534C494.746 533.953 494.747 533.907 494.748 533.86V533.267C494.748 530.505 496.987 528.267 499.748 528.267H534.067C536.829 528.267 539.067 530.505 539.067 533.267V578.669C539.067 578.716 539.066 578.762 539.065 578.809V579.402C539.065 582.164 536.827 584.402 534.065 584.402H499.746C496.985 584.402 494.746 582.164 494.746 579.402Z" fill="CanvasText"/>
<path opacity="0.1" d="M530.906 571.2C532.563 571.2 533.906 569.857 533.906 568.2C533.906 566.543 532.563 565.2 530.906 565.2C529.249 565.2 527.906 566.543 527.906 568.2C527.906 569.857 529.249 571.2 530.906 571.2Z" fill="CanvasText"/>
<path opacity="0.1" d="M507.906 542.201V571.201H512.906V560.357C512.906 559.56 513.384 558.684 514.556 557.884C515.733 557.081 517.211 556.659 518.264 556.659C519.052 556.659 519.63 556.971 520.067 557.52C520.541 558.117 520.906 559.086 520.906 560.357V571.2L525.906 571.201V560.357C525.906 558.177 525.284 556.048 523.98 554.408C522.638 552.721 520.644 551.659 518.264 551.659C516.551 551.659 514.619 552.156 512.906 553.054V542.202L507.906 542.201Z" fill="CanvasText"/>
<path opacity="0.1" d="M356.781 588L436.781 588" stroke="CanvasText" stroke-width="8" stroke-linecap="round"/>
<circle opacity="0.1" cx="960" cy="180" r="84" stroke="CanvasText" stroke-width="8"/>
<g opacity="0.1">
<path fill-rule="evenodd" clip-rule="evenodd" d="M1032.73 180C1032.73 177.055 1030.34 174.667 1027.39 174.667C1024.45 174.667 1022.06 177.055 1022.06 180H1032.73Z" fill="CanvasText"/>
<path d="M1032.73 180C1032.73 182.946 1030.34 185.334 1027.39 185.334C1024.45 185.334 1022.06 182.946 1022.06 180M1032.73 180C1032.73 177.055 1030.34 174.667 1027.39 174.667C1024.45 174.667 1022.06 177.055 1022.06 180M1032.73 180H1022.06" stroke="CanvasText" stroke-width="2"/>
</g>
<g opacity="0.1">
<path fill-rule="evenodd" clip-rule="evenodd" d="M887.275 180C887.275 182.945 889.663 185.333 892.608 185.333C895.554 185.333 897.941 182.945 897.941 180H887.275Z" fill="CanvasText"/>
<path d="M887.275 180C887.275 177.054 889.663 174.666 892.608 174.666C895.554 174.666 897.941 177.054 897.941 180M887.275 180C887.275 182.945 889.663 185.333 892.608 185.333C895.554 185.333 897.941 182.945 897.941 180M887.275 180H897.941" stroke="CanvasText" stroke-width="2"/>
</g>
<g opacity="0.1">
<path fill-rule="evenodd" clip-rule="evenodd" d="M954.665 247.392C954.665 250.338 957.053 252.726 959.999 252.726C962.944 252.726 965.332 250.338 965.332 247.392H954.665Z" fill="CanvasText"/>
<path d="M959.999 242.059C957.053 242.059 954.665 244.447 954.665 247.392H965.332C965.332 244.447 962.944 242.059 959.999 242.059Z" fill="CanvasText"/>
<path d="M954.665 247.392C954.665 244.447 957.053 242.059 959.999 242.059C962.944 242.059 965.332 244.447 965.332 247.392M954.665 247.392C954.665 250.338 957.053 252.726 959.999 252.726C962.944 252.726 965.332 250.338 965.332 247.392M954.665 247.392H965.332" stroke="CanvasText" stroke-width="2"/>
</g>
<path opacity="0.1" d="M959.999 117.94C957.053 117.94 954.665 115.552 954.665 112.607C954.665 109.661 957.053 107.273 959.999 107.273C962.944 107.273 965.332 109.661 965.332 112.607C965.332 115.552 962.944 117.94 959.999 117.94Z" stroke="CanvasText" stroke-width="2"/>
<path opacity="0.1" fill-rule="evenodd" clip-rule="evenodd" d="M1032.73 181H964.15C963.728 182.76 962.214 184.095 960.364 184.251L943.981 222.735L940.301 221.169L956.684 182.684C956.09 181.951 955.735 181.017 955.735 180C955.735 178.172 956.884 176.612 958.5 176.005L958.5 117.94H961.5L961.5 176.004C962.813 176.496 963.818 177.617 964.15 179H1032.73V181Z" fill="CanvasText"/>
<path opacity="0.1" d="M1188.58 585.091L1186.38 574.631C1186.21 573.842 1186.3 573.224 1186.49 572.808C1190.06 564.904 1197.57 561 1208.25 561C1218.93 561 1226.44 564.904 1230.01 572.808C1230.2 573.224 1230.29 573.841 1230.12 574.631L1227.92 585.091C1227.53 586.943 1225.9 588.268 1224.01 588.268H1192.49C1190.6 588.268 1188.97 586.943 1188.58 585.091Z" stroke="CanvasText" stroke-width="8" stroke-linejoin="round"/>
<rect opacity="0.1" x="614" y="496" width="92" height="92" rx="8" stroke="CanvasText" stroke-width="8"/>
<path opacity="0.1" d="M646.971 537.5V536.293L646.118 537.146L636.328 546.936V541.665L646.678 531.314H650.698L650.698 569.314H646.971L646.971 537.5Z" fill="CanvasText" stroke="CanvasText"/>
<path opacity="0.1" d="M658.789 549.724C658.789 542.9 660.37 538.297 662.684 535.411C664.991 532.535 668.063 531.314 671.17 531.314C674.279 531.314 677.382 532.535 679.717 535.413C682.061 538.3 683.67 542.902 683.67 549.724C683.67 557.146 682.057 562.045 679.71 565.077C677.375 568.096 674.276 569.314 671.17 569.314C668.065 569.314 664.998 568.096 662.692 565.08C660.374 562.047 658.789 557.148 658.789 549.724ZM671.17 534.451C669.116 534.451 666.929 535.483 665.275 537.922C663.629 540.348 662.516 544.152 662.516 549.724C662.516 556.456 663.621 560.565 665.275 563.003C666.955 565.479 669.164 566.178 671.17 566.178C673.175 566.178 675.412 565.481 677.123 563.006C678.808 560.569 679.943 556.458 679.943 549.724C679.943 544.15 678.8 540.345 677.123 537.918C675.438 535.481 673.222 534.451 671.17 534.451Z" fill="CanvasText" stroke="CanvasText"/>
<path opacity="0.1" fill-rule="evenodd" clip-rule="evenodd" d="M639.746 511.667C638.569 511.667 637.815 512.567 637.815 513.417C637.815 513.791 638.017 514.105 638.459 514.418C638.911 514.738 639.496 514.97 640.063 515.196L640.074 515.2C640.083 515.204 640.093 515.208 640.102 515.211C640.637 515.424 641.378 515.718 641.985 516.149C642.609 516.592 643.211 517.266 643.211 518.25C643.211 519.856 641.841 521.333 639.947 521.333C638.374 521.333 637.111 520.344 636.469 519.435L637.558 518.665C638.034 519.34 638.935 520 639.947 520C641.124 520 641.878 519.101 641.878 518.25C641.878 517.885 641.672 517.562 641.213 517.237C640.748 516.907 640.147 516.664 639.581 516.439C639.559 516.43 639.537 516.421 639.514 516.412C638.987 516.203 638.274 515.92 637.689 515.507C637.068 515.067 636.482 514.4 636.482 513.417C636.482 511.811 637.852 510.334 639.746 510.334C641.318 510.334 642.581 511.321 643.224 512.231L642.135 513C641.659 512.326 640.758 511.667 639.746 511.667Z" fill="CanvasText"/>
<path opacity="0.1" d="M676.039 513.335L679.118 521.791L677.949 525H679.283L683.529 513.335H682.196L679.784 519.96L677.372 513.335H676.039Z" fill="CanvasText"/>
<path opacity="0.1" d="M651.356 513.335V521.334H650.022V520.32C649.831 520.976 648.783 521.668 648.039 521.668C646.207 521.668 644.723 519.97 644.723 518.08V513.335H646.056V518.08C646.056 519.273 646.983 520.335 648.039 520.335C649.096 520.335 650.022 519.441 650.022 518.248V513.335H651.356Z" fill="CanvasText"/>
<path opacity="0.1" d="M652.855 521.334V513.334H654.189V514.349C654.38 513.692 655.095 513.001 656.172 513.001C658.337 513.001 659.488 514.699 659.488 516.589V521.334H658.155V516.589C658.155 515.396 657.228 514.251 656.172 514.251C655.115 514.251 654.189 515.228 654.189 516.421V521.334H652.855Z" fill="CanvasText"/>
<path opacity="0.1" fill-rule="evenodd" clip-rule="evenodd" d="M666.288 520.655C665.735 521.081 665.048 521.334 664.305 521.334C662.473 521.334 660.988 519.802 660.988 517.913L660.988 516.089C660.988 514.199 662.473 512.668 664.305 512.668C665.048 512.668 665.735 512.92 666.288 513.346V510H667.621V521.333H666.288V520.655ZM664.305 514.001C665.361 514.001 666.288 514.896 666.288 516.089V517.913C666.288 519.105 665.361 520.001 664.305 520.001C663.248 520.001 662.322 519.105 662.322 517.913L662.322 516.089C662.322 514.896 663.248 514.001 664.305 514.001Z" fill="CanvasText"/>
<path opacity="0.1" fill-rule="evenodd" clip-rule="evenodd" d="M672.329 514.668C671.328 514.668 670.638 515.194 670.385 515.704L669.191 515.111C669.688 514.109 670.866 513.335 672.329 513.335C673.993 513.335 675.537 514.497 675.537 516.154V521.334L674.204 521.334V520.589C673.57 521.064 672.787 521.334 672.051 521.334C671.345 521.334 670.635 521.197 670.08 520.834C669.491 520.449 669.121 519.836 669.121 519.039C669.121 518.285 669.414 517.687 669.902 517.254C670.367 516.843 670.97 516.614 671.565 516.483C672.15 516.353 672.675 516.3 673.193 516.263C673.346 516.251 673.496 516.242 673.645 516.232C673.829 516.22 674.014 516.208 674.204 516.193V516.154C674.204 515.433 673.473 514.668 672.329 514.668ZM674.204 517.53C674.031 517.543 673.865 517.554 673.705 517.564C673.561 517.574 673.423 517.583 673.29 517.592C672.798 517.628 672.346 517.676 671.853 517.784C671.37 517.891 671.013 518.052 670.786 518.253C670.583 518.432 670.454 518.668 670.454 519.039C670.454 519.37 670.583 519.57 670.809 519.718C671.069 519.888 671.491 520.001 672.051 520.001C672.517 520.001 673.073 519.805 673.507 519.441C673.932 519.085 674.204 518.603 674.204 518.03V517.53Z" fill="CanvasText"/>
<path opacity="0.1" d="M635 489V503" stroke="CanvasText" stroke-width="4" stroke-linecap="round" stroke-linejoin="round"/>
<path opacity="0.1" d="M645 489V503" stroke="CanvasText" stroke-width="4" stroke-linecap="round" stroke-linejoin="round"/>
<path opacity="0.1" d="M655 489V503" stroke="CanvasText" stroke-width="4" stroke-linecap="round" stroke-linejoin="round"/>
<path opacity="0.1" d="M665 489V503" stroke="CanvasText" stroke-width="4" stroke-linecap="round" stroke-linejoin="round"/>
<path opacity="0.1" d="M675 489V503" stroke="CanvasText" stroke-width="4" stroke-linecap="round" stroke-linejoin="round"/>
<path opacity="0.1" d="M685 489V503" stroke="CanvasText" stroke-width="4" stroke-linecap="round" stroke-linejoin="round"/>
<path opacity="0.1" fill-rule="evenodd" clip-rule="evenodd" d="M563.999 -400C563.999 -402.209 562.208 -404 559.999 -404C557.79 -404 555.999 -402.209 555.999 -400V97.6128C533.589 99.3866 515.338 115.936 510.986 137.519C509.895 142.933 514.476 147.455 519.999 147.455H599.999C605.522 147.455 610.103 142.933 609.012 137.519C604.66 115.936 586.409 99.3866 563.999 97.6128V-400ZM559.999 105.455C580.306 105.455 597.263 119.875 601.157 139.038C601.001 139.204 600.599 139.455 599.999 139.455H519.999C519.399 139.455 518.997 139.204 518.841 139.038C522.735 119.875 539.692 105.455 559.999 105.455Z" fill="CanvasText"/>
<circle opacity="0.1" cx="1355" cy="554.5" r="25" stroke="CanvasText" stroke-width="8"/>
<path opacity="0.1" fill-rule="evenodd" clip-rule="evenodd" d="M1291 513C1288.79 513 1287 514.791 1287 517H1277C1270.37 517 1265 522.373 1265 529V580C1265 585.799 1269.11 590.637 1274.58 591.756C1275.36 591.916 1276.17 592 1277 592H1291H1389C1395.63 592 1401 586.627 1401 580V529C1401 522.373 1395.63 517 1389 517H1295C1295 514.791 1293.21 513 1291 513ZM1389 525H1302.32C1302.76 526.251 1303 527.597 1303 529V580C1303 581.403 1302.76 582.749 1302.32 584H1389C1391.21 584 1393 582.209 1393 580V529C1393 526.791 1391.21 525 1389 525ZM1277 525H1291C1293.21 525 1295 526.791 1295 529V580C1295 582.209 1293.21 584 1291 584H1277C1276.86 584 1276.73 583.993 1276.59 583.979C1274.57 583.775 1273 582.071 1273 580V529C1273 526.791 1274.79 525 1277 525Z" fill="CanvasText"/>
<circle opacity="0.1" cx="1355" cy="554.5" r="3.5" stroke="CanvasText" stroke-width="3"/>
<path fill-rule="evenodd" clip-rule="evenodd" d="M732.071 457.532C689.159 457.532 664.391 424.7 664.391 379.196C664.391 332.828 692.327 304.892 732.359 304.892C752.807 304.892 770.951 313.82 779.015 327.068L781.319 309.5H823.079V522.62H778.727V439.1C770.375 450.044 751.943 457.532 732.071 457.532ZM709.031 381.5C709.031 360.188 722.279 345.5 743.303 345.5C764.039 345.5 778.439 359.9 778.439 381.5C778.439 403.1 764.039 417.5 743.303 417.5C722.279 417.5 709.031 402.812 709.031 381.5Z" fill="CanvasText"/>
<path d="M1180.41 309.499C1174.36 308.059 1168.6 307.483 1163.42 307.483C1144.12 307.483 1131.45 316.987 1125.4 331.099L1123.1 309.787H1081.34V453.499H1125.69V391.003C1125.69 362.491 1140.96 351.259 1166.3 351.259H1180.41V309.499Z" fill="CanvasText"/>
<path fill-rule="evenodd" clip-rule="evenodd" d="M721.487 770.5H679.727V553.348H724.079V643.204C732.719 630.244 751.727 621.604 772.463 621.604C812.783 621.604 838.415 652.996 838.415 699.94C838.415 744.58 809.903 774.244 769.007 774.244C750.902 774.244 735.119 767.043 726.458 755.979L721.487 770.5ZM736.703 726.054C742.661 730.911 750.483 733.636 759.503 733.636C780.527 733.636 793.775 718.948 793.775 697.636C793.775 676.324 780.527 661.636 759.503 661.636C759.252 661.636 759.003 661.638 758.755 661.642C738.421 661.984 724.367 676.296 724.367 697.636C724.367 709.84 728.964 719.745 736.703 726.054Z" fill="CanvasText"/>
<path d="M1226.41 578.692C1226.41 592.804 1215.18 604.036 1201.35 604.036C1187.24 604.036 1176.01 592.804 1176.01 578.692C1176.01 564.58 1187.24 553.636 1201.35 553.636C1215.18 553.636 1226.41 564.58 1226.41 578.692Z" fill="CanvasText"/>
<path d="M1179.46 770.5H1223.82V626.5H1179.46V770.5Z" fill="CanvasText"/>
<path d="M683.783 489.345C643.107 560.052 781.434 639.342 953.332 639.342C1146.74 639.342 1291.63 496.713 1237.79 461.904C1209.83 443.826 1155.46 442.363 1127.36 455.144C1093.41 470.585 1040.82 489.811 939.892 491.803C878.97 493.005 825.964 487.446 792.738 469.122L792.519 469.001C749.871 445.479 698.436 463.872 683.783 489.345Z" fill="#7A6332"/>
<path fill-rule="evenodd" clip-rule="evenodd" d="M961.089 454.802C912.053 454.802 868.025 454.379 834.516 494.04C781.438 541.883 834.516 664.912 834.516 664.912H1087.66C1087.66 664.912 1140.74 541.884 1087.66 494.04C1054.15 454.378 1010.12 454.802 961.089 454.802Z" fill="black"/>
<path d="M834.516 494.04C868.025 454.379 912.053 454.802 961.089 454.802C1010.12 454.802 1054.15 454.378 1087.66 494.04C1140.74 541.884 1087.66 664.912 1087.66 664.912H834.516C834.516 664.912 781.438 541.883 834.516 494.04Z" fill="black"/>
<path fill-rule="evenodd" clip-rule="evenodd" d="M961.089 454.802C912.053 454.802 868.025 454.379 834.516 494.04C781.438 541.883 834.516 664.912 834.516 664.912H1087.66C1087.66 664.912 1140.74 541.884 1087.66 494.04C1054.15 454.378 1010.12 454.802 961.089 454.802Z" fill="black"/>
<path fill-rule="evenodd" clip-rule="evenodd" d="M961.089 345.95C779.838 345.95 764.924 430.556 768.699 525.683C771.294 591.088 771.574 618.459 768.699 681.367C939.86 688.103 1026.95 676.879 1147.61 676.879C1152.97 602.413 1155.08 580.422 1147.61 525.683C1133.93 425.457 1142.34 345.95 961.089 345.95ZM961.089 454.802C912.053 454.802 868.025 454.379 834.516 494.04C781.438 541.883 834.516 664.912 834.516 664.912H1087.66C1087.66 664.912 1140.74 541.884 1087.66 494.04C1054.15 454.378 1010.12 454.802 961.089 454.802Z" fill="black"/>
<path d="M915.765 661.226C915.748 659.066 915.733 657.093 915.807 655.359C915.81 655.3 915.812 655.241 915.815 655.183H1006.57C1006.57 655.241 1006.57 655.3 1006.57 655.359C1006.65 657.093 1006.63 659.066 1006.62 661.226C1004.22 673.138 1006.38 690.757 1020.97 705.521C1035.86 720.602 1070.72 732.704 1132.08 732.704C1132.83 732.704 1133.67 732.693 1134.57 732.68C1153.2 732.421 1202.68 731.732 1202.68 822.223V822.229C1202.68 868.282 1202.68 1126.6 1215.64 1232.11H1127.58C1127.55 1231.43 1127.52 1230.75 1127.49 1230.07H794.893C794.861 1230.75 794.831 1231.43 794.801 1232.11H700.152C714.265 1126.6 719.701 868.257 719.701 822.223C719.701 731.732 769.179 732.421 787.808 732.68C788.716 732.693 789.55 732.704 790.302 732.704C851.657 732.704 886.517 720.602 901.413 705.521C915.997 690.757 918.16 673.138 915.765 661.226Z" fill="#E7C273"/>
<path d="M915.756 661.226C916.392 664.387 916.706 667.951 916.553 671.756C918.158 674.633 919.902 677.343 921.793 679.885C953.292 722.213 991.34 734.269 1037.94 733.711C1052.84 733.532 1067.34 732.292 1081.2 729.301C1050.65 724.698 1031.3 715.88 1021.12 705.682C1021.07 705.628 1021.01 705.575 1020.96 705.521C1020.88 705.44 1020.8 705.359 1020.72 705.278C1006.35 690.564 1004.23 673.074 1006.61 661.227C1006.62 659.067 1006.64 657.093 1006.56 655.359L1006.56 655.183H915.806L915.798 655.359C915.724 657.093 915.739 659.066 915.756 661.226Z" fill="black" fill-opacity="0.4"/>
<path d="M717.812 923.858C734.957 940.816 758.531 951.287 784.55 951.287C836.964 951.287 879.454 908.797 879.454 856.383C879.454 803.969 836.964 761.479 784.55 761.479C761.329 761.479 740.056 769.819 723.563 783.667C721.117 794.203 719.7 806.906 719.7 822.222C719.7 837.395 719.11 875.631 717.812 923.858Z" fill="black" fill-opacity="0.4"/>
<path d="M1142.89 761.46C1163.25 761.46 1182.12 767.872 1197.57 778.786C1200.78 790.214 1202.68 804.463 1202.68 822.224V822.234C1202.68 838.015 1202.68 878.712 1203.2 929.642C1186.81 943.153 1165.8 951.267 1142.89 951.267C1142.31 951.267 1141.73 951.262 1141.14 951.252C1144.32 1025 1138.48 1132.97 1159.03 1232.11H1127.58C1127.55 1231.43 1127.52 1230.75 1127.49 1230.07H1078.71L1058.51 899.845C1051.79 886.819 1047.99 872.035 1047.99 856.364C1047.99 803.95 1090.48 761.46 1142.89 761.46Z" fill="black" fill-opacity="0.4"/>
<path d="M794.895 1230.07H1127.49C1126.49 1208.28 1124.78 1181.87 1122.87 1152.49L1122.86 1152.46C1118.46 1084.66 1113.02 1001.04 1113.02 921.817H1208.18C1204.51 873.782 1202.68 835.975 1202.68 822.224C1202.68 731.733 1153.2 732.422 1134.58 732.681C1133.67 732.694 1132.83 732.705 1132.08 732.705C1106.99 732.705 1087.09 730.681 1071.33 727.256C1064.26 732.362 1057.94 738.943 1051.28 745.884C1032.35 765.593 1010.63 788.206 961.193 788.206C911.756 788.206 890.039 765.593 871.11 745.884C864.444 738.943 858.123 732.362 851.059 727.256C835.292 730.681 815.4 732.705 790.305 732.705C789.553 732.705 788.719 732.694 787.811 732.681C769.182 732.422 719.703 731.733 719.703 822.224C719.703 835.975 717.877 873.782 714.203 921.817H809.368C809.368 1001.04 803.93 1084.66 799.522 1152.46C797.61 1181.85 795.892 1208.27 794.895 1230.07Z" fill="#02DA9A"/>
<path d="M790.295 730.664C789.774 730.664 789.214 730.658 788.606 730.65C789.214 730.658 789.797 730.664 790.295 730.664Z" fill="black"/>
<path fill-rule="evenodd" clip-rule="evenodd" d="M784.171 734.691C775.404 734.7 762.786 735.514 751.198 742.837C762.784 735.516 775.403 734.7 784.171 734.691Z" fill="black"/>
<path fill-rule="evenodd" clip-rule="evenodd" d="M852.246 725.601C851.776 725.261 851.183 725.137 850.617 725.26C835.028 728.647 815.287 730.664 790.295 730.664C789.774 730.664 789.214 730.658 788.606 730.65C788.34 730.646 787.191 730.631 786.912 730.627C777.378 730.506 760.298 730.634 745.531 741.792C730.123 753.435 717.652 776.637 717.652 822.223C717.652 835.89 715.832 873.628 712.158 921.66C712.115 922.227 712.31 922.786 712.696 923.203C713.083 923.62 713.625 923.857 714.194 923.857H807.316C807.224 1002.4 801.847 1085.1 797.475 1152.32L797.475 1152.33L797.475 1152.33C795.564 1181.71 793.844 1208.16 792.847 1229.97C792.821 1230.53 793.025 1231.07 793.41 1231.48C793.795 1231.88 794.328 1232.11 794.886 1232.11H1127.48C1128.04 1232.11 1128.57 1231.88 1128.96 1231.48C1129.34 1231.07 1129.55 1230.53 1129.52 1229.97C1128.59 1209.53 1127.02 1185.03 1125.25 1157.85L1124.9 1152.42L1124.9 1152.38C1120.52 1085.16 1115.14 1002.4 1115.05 923.857H1208.17C1208.74 923.857 1209.28 923.62 1209.67 923.203C1210.06 922.786 1210.25 922.227 1210.21 921.66C1206.53 873.628 1204.71 835.89 1204.71 822.223C1204.71 776.637 1192.24 753.435 1176.84 741.792L1176.83 741.785C1162.06 730.633 1145 730.506 1135.46 730.627C1135.15 730.631 1134.7 730.637 1134.38 730.642C1134.15 730.645 1134.02 730.647 1133.79 730.65C1133.17 730.658 1132.58 730.664 1132.07 730.664C1107.08 730.664 1087.34 728.647 1071.75 725.26C1071.18 725.137 1070.59 725.261 1070.12 725.601C1062.91 730.815 1056.48 737.507 1049.87 744.392C1040.39 754.264 1030.33 764.717 1016.64 772.67C1002.99 780.596 985.562 786.164 961.183 786.164C936.804 786.164 919.373 780.596 905.727 772.67C892.034 764.717 881.98 754.264 872.499 744.392C865.886 737.507 859.459 730.815 852.246 725.601ZM721.744 822.223C721.744 777.318 734.013 755.62 748.001 745.049C748.662 744.55 749.327 744.075 749.996 743.623C750.395 743.353 750.796 743.091 751.198 742.837C762.786 735.514 775.404 734.7 784.171 734.691C784.514 734.691 784.853 734.692 785.187 734.694C785.484 734.695 785.776 734.698 786.063 734.7C786.674 734.706 787.261 734.714 787.817 734.722C788.145 734.727 788.467 734.731 788.781 734.735C789.316 734.742 789.826 734.746 790.304 734.746C815.03 734.746 834.794 732.789 850.591 729.443C857.189 734.344 863.18 740.574 869.638 747.298C879.067 757.116 889.462 767.939 903.685 776.2C917.989 784.508 936.135 790.246 961.192 790.246C986.25 790.246 1004.4 784.508 1018.7 776.2C1032.92 767.939 1043.32 757.116 1052.75 747.298C1059.21 740.574 1065.2 734.344 1071.79 729.443C1087.59 732.789 1107.35 734.746 1132.08 734.746C1132.56 734.746 1134.06 734.728 1134.6 734.722C1135.77 734.705 1137.04 734.688 1138.41 734.692C1140.3 734.696 1142.37 734.74 1144.57 734.878C1149.54 735.193 1155.16 735.995 1160.88 737.94C1162.73 738.57 1164.59 739.32 1166.45 740.212C1169.13 741.504 1171.8 743.094 1174.38 745.049C1188.37 755.62 1200.64 777.318 1200.64 822.223C1200.64 835.848 1202.42 872.781 1205.98 919.775H1115.06C1115.06 919.775 1119.66 865.801 1105.85 827.995C1105.47 826.936 1104.94 825.954 1103.81 825.954C1102.69 825.954 1101.38 826.936 1101.77 827.995C1111.77 855.379 1112.12 883.08 1111.54 902.962C1111.46 905.799 1111.36 908.476 1111.27 910.971L1111.27 910.973L1111.27 910.98C1111.11 915.136 1110.98 918.785 1110.98 921.816C1110.98 939.397 1116.41 1084.44 1120.81 1152.33L1120.83 1152.59L1120.83 1152.6C1122.68 1181.03 1124.34 1206.68 1125.35 1228.03H797.033C798.042 1206.67 799.709 1181.04 801.558 1152.59L801.56 1152.56C805.968 1084.78 811.409 939.419 811.409 921.816C811.409 904.213 806.805 865.801 820.614 827.995C821.001 826.936 819.7 825.954 818.573 825.954C817.446 825.954 816.918 826.936 816.532 827.995C802.723 865.801 807.326 919.775 807.326 919.775H716.405C719.968 872.781 721.744 835.848 721.744 822.223Z" fill="black"/>
<path fill-rule="evenodd" clip-rule="evenodd" d="M879.735 394.897C932.375 376.17 995.797 353.608 1075.78 356.118C1115.9 357.377 1156.75 383.751 1187.41 409.541C1202.78 422.468 1215.66 435.313 1224.7 444.925C1229.22 449.732 1232.78 453.733 1235.21 456.534C1236.43 457.935 1237.37 459.036 1238 459.788C1238.13 459.947 1238.25 460.091 1238.36 460.218C1238.5 460.392 1238.62 460.536 1238.72 460.649L1238.81 460.765C1245.79 465.348 1249.6 471.734 1250.46 479.353C1251.32 486.974 1249.2 495.701 1244.61 504.982C1235.43 523.545 1216.12 544.807 1189.18 564.886C1135.28 605.07 1050.39 640.851 953.335 640.851C867.184 640.851 789.361 620.988 738.105 592.174C712.488 577.774 693.381 561.067 683.258 543.361C673.089 525.573 672.01 506.785 682.476 488.591C706.444 446.927 753.568 420.244 788.857 417.188C804.404 415.842 821.799 414.334 844.761 406.956C855.872 403.385 867.479 399.257 879.678 394.917L879.735 394.897ZM685.094 490.097C675.223 507.257 676.181 524.896 685.88 541.861C695.626 558.909 714.217 575.281 739.585 589.541C790.298 618.05 867.587 637.831 953.335 637.831C1049.68 637.831 1133.95 602.298 1187.38 562.465C1214.11 542.535 1233.02 521.614 1241.9 503.643C1246.35 494.659 1248.23 486.531 1247.46 479.69C1246.7 472.919 1243.33 467.282 1236.97 463.172C1223.3 454.333 1203.02 449.481 1182.55 448.46C1162.1 447.439 1141.75 450.262 1127.99 456.518C1093.86 472.039 1041.07 491.316 939.925 493.312C878.99 494.515 825.619 488.979 792.011 470.444L791.792 470.323C770.847 458.771 747.722 457.5 728.01 462.267C708.246 467.047 692.15 477.832 685.094 490.097ZM793.251 467.678L793.47 467.799C826.313 485.912 878.955 491.495 939.865 490.293C1040.58 488.305 1092.97 469.129 1126.74 453.768C1141.09 447.244 1161.97 444.408 1182.71 445.443C1200.07 446.31 1217.53 449.898 1231.14 456.465C1228.89 453.913 1225.98 450.695 1222.5 446.994C1213.52 437.443 1200.72 424.684 1185.47 411.853C1154.89 386.126 1114.71 360.362 1075.68 359.137C996.301 356.646 933.345 379.031 880.69 397.763L880.678 397.767C868.493 402.102 856.845 406.245 845.686 409.831C822.39 417.317 804.714 418.847 789.136 420.196L789.118 420.198C759.8 422.736 721.754 442.187 696.659 473.269C704.989 467.078 715.589 462.164 727.3 459.332C747.631 454.415 771.548 455.708 793.251 467.678Z" fill="black"/>
<path d="M1130.15 463.327C1140.56 466.711 1142.43 495.421 1137.54 517.419C1133.65 534.935 1128.21 556.816 1115.57 558.086C1107.94 558.852 1088.35 550.518 1085.5 545.159C1071.1 518.063 1078.34 493.954 1102.29 474.781C1109 469.409 1118.96 459.691 1130.15 463.327Z" fill="#D0B170"/>
<path d="M1130.14 463.327C1128.17 462.686 1126.24 462.46 1124.36 462.552C1105.57 496.006 1104.41 517.977 1104.28 556.027C1108.69 557.493 1112.87 558.356 1115.57 558.086C1128.21 556.816 1133.64 534.935 1137.54 517.419C1142.43 495.421 1140.56 466.711 1130.14 463.327Z" fill="black" fill-opacity="0.4"/>
<path fill-rule="evenodd" clip-rule="evenodd" d="M1121.41 476.02C1120.42 475.48 1119.18 475.845 1118.64 476.835C1114.06 485.221 1111.65 491.153 1110.21 497.25C1108.88 502.839 1108.39 508.515 1107.73 516.182C1107.68 516.801 1107.63 517.433 1107.57 518.08C1107.47 519.203 1108.3 520.192 1109.43 520.29C1110.55 520.387 1111.54 519.556 1111.64 518.433C1111.69 517.82 1111.74 517.222 1111.79 516.638C1112.46 508.852 1112.93 503.475 1114.18 498.19C1115.51 492.567 1117.75 486.986 1122.22 478.79C1122.76 477.8 1122.4 476.56 1121.41 476.02Z" fill="black"/>
<path d="M792.231 463.327C781.818 466.711 779.945 495.421 784.836 517.419C788.731 534.935 794.163 556.816 806.809 558.086C814.44 558.852 834.032 550.518 836.88 545.159C851.274 518.063 844.04 493.954 820.086 474.781C813.374 469.409 803.417 459.691 792.231 463.327Z" fill="#D0B170"/>
<path fill-rule="evenodd" clip-rule="evenodd" d="M800.849 476.02C801.839 475.48 803.079 475.845 803.619 476.835C808.193 485.221 810.608 491.153 812.051 497.25C813.374 502.839 813.863 508.515 814.523 516.182C814.577 516.801 814.631 517.433 814.687 518.08C814.785 519.203 813.953 520.192 812.83 520.29C811.707 520.387 810.718 519.556 810.62 518.433C810.567 517.82 810.515 517.222 810.465 516.638C809.793 508.852 809.329 503.475 808.079 498.19C806.748 492.567 804.506 486.986 800.035 478.79C799.495 477.8 799.86 476.56 800.849 476.02Z" fill="black"/>
<path d="M841.283 618.03C823.721 594.43 819.045 556.12 818.926 504.834C818.77 437.042 820.562 410.992 843.911 379.159C860.111 357.073 899.854 336.154 960.797 336.697C1021.74 336.154 1061.48 357.073 1077.68 379.159C1101.03 410.992 1102.82 437.042 1102.67 504.834C1102.55 556.12 1097.87 594.43 1080.31 618.03C1049.13 659.927 997.712 670.755 960.797 671.307C923.882 671.859 872.461 659.927 841.283 618.03Z" fill="#E7C273"/>
<path d="M924.399 508.673C924.399 518.841 919.248 527.083 912.893 527.083C906.538 527.083 901.387 518.841 901.387 508.673C901.387 498.505 906.538 490.263 912.893 490.263C919.248 490.263 924.399 498.505 924.399 508.673Z" fill="#4D2C19"/>
<path d="M1021.06 508.673C1021.06 518.841 1015.9 527.083 1009.55 527.083C1003.19 527.083 998.043 518.841 998.043 508.673C998.043 498.505 1003.19 490.263 1009.55 490.263C1015.9 490.263 1021.06 498.505 1021.06 508.673Z" fill="#4D2C19"/>
<path d="M1036.02 474.15C1038.05 476.409 1037.75 479.767 1034.87 482.204C1026.96 488.914 1023.64 475.097 1011.86 475.301C1005.05 475.418 1000.84 481.522 996.901 475.301C991.366 466.557 1004.67 462.644 1013.01 462.644C1022.79 462.643 1032.67 470.407 1036.02 474.15Z" fill="#3A2113"/>
<path d="M887.59 474.15C885.568 476.409 885.866 479.767 888.741 482.204C896.656 488.914 899.969 475.097 911.754 475.301C918.563 475.418 922.773 481.522 926.712 475.301C932.247 466.557 918.945 462.644 910.603 462.644C900.827 462.643 890.942 470.407 887.59 474.15Z" fill="#3A2113"/>
<path d="M957.773 515.424C955.617 527.048 936.838 553.395 960.074 557.997" stroke="black" stroke-width="4" stroke-linecap="round"/>
<path fill-rule="evenodd" clip-rule="evenodd" d="M904.846 588.064C905.186 586.991 906.073 586.574 907.148 586.913C945.486 601.3 975.819 601.3 1014.16 586.913C1015.23 586.574 1016.12 586.991 1016.46 588.064C1016.8 589.136 1016.38 590.026 1015.31 590.365C976.168 605.005 945.136 605.005 905.997 590.365C904.922 590.026 904.506 589.136 904.846 588.064Z" fill="black"/>
<path fill-rule="evenodd" clip-rule="evenodd" d="M800.773 452.356H1123.68C1122.58 406.255 1114.91 381.821 1095.13 346.114C1081.21 320.995 1048.3 274.137 962.228 273.624C876.134 273.111 843.249 320.995 829.329 346.114C813.943 373.878 805.885 394.826 802.544 424.445C801.588 432.918 801.018 442.101 800.773 452.356Z" fill="#BC9D5B"/>
<path fill-rule="evenodd" clip-rule="evenodd" d="M869.596 301.479C849.128 316.341 837.557 334.376 830.646 346.846C815.326 374.49 807.353 395.247 804.04 424.614C803.139 432.606 802.582 441.246 802.319 450.845H1122.13C1121.52 428.63 1119.34 411.552 1114.95 395.74C1110.47 379.563 1103.66 364.643 1093.8 346.846C1086.9 334.384 1075.32 316.603 1054.85 301.867C1034.39 287.143 1004.96 275.389 962.215 275.134C919.471 274.879 890.045 286.632 869.596 301.479ZM867.822 299.035C888.819 283.788 918.882 271.855 962.233 272.113C1005.56 272.372 1035.61 284.302 1056.61 299.416C1077.59 314.517 1089.43 332.725 1096.44 345.382C1106.37 363.291 1113.29 378.441 1117.86 394.933C1122.43 411.425 1124.64 429.191 1125.19 452.32L1125.22 453.866H799.223L799.26 452.32C799.505 442.031 800.077 432.802 801.039 424.275C804.408 394.405 812.552 373.265 828.004 345.382C835.014 332.733 846.844 314.266 867.822 299.035Z" fill="black"/>
<path fill-rule="evenodd" clip-rule="evenodd" d="M793.781 428.304C851.169 365.882 951.158 357.637 1054.3 357.637L793.781 428.304Z" fill="#CEB888"/>
<path fill-rule="evenodd" clip-rule="evenodd" d="M798.602 425.434L1042.83 359.185C995.26 359.498 948.771 361.941 907.21 371.039C864.243 380.444 826.657 396.937 798.602 425.434ZM906.565 368.088C951.795 358.188 1002.71 356.128 1054.3 356.128L1054.7 359.096L789.137 431.132L792.675 427.283C821.653 395.763 861.326 377.991 906.565 368.088Z" fill="black"/>
<path d="M1237.79 461.904C1237.79 461.904 1154.88 360.112 1075.72 357.628C996.03 355.127 932.833 377.609 880.18 396.34C867.986 400.678 856.357 404.815 845.219 408.394C822.086 415.827 804.548 417.346 788.983 418.694C754.189 421.706 707.504 448.107 683.781 489.345C698.434 463.872 749.869 445.479 792.517 469.001L792.736 469.122C825.962 487.447 878.968 493.005 939.891 491.803C1040.82 489.811 1093.41 470.585 1127.36 455.144C1155.46 442.363 1209.82 443.826 1237.79 461.904Z" fill="#BC9D5B"/>
<path fill-rule="evenodd" clip-rule="evenodd" d="M879.731 394.897C932.372 376.17 995.793 353.608 1075.77 356.118C1115.89 357.377 1156.75 383.751 1187.41 409.541C1202.78 422.468 1215.66 435.313 1224.7 444.925C1229.22 449.732 1232.78 453.733 1235.21 456.534C1236.43 457.935 1237.36 459.036 1237.99 459.788C1238.31 460.164 1238.55 460.453 1238.71 460.649C1238.79 460.747 1238.85 460.821 1238.89 460.872L1238.94 460.929L1238.95 460.944L1238.96 460.948C1238.96 460.949 1238.96 460.95 1237.79 461.903L1238.96 460.95L1236.97 463.172C1223.3 454.333 1203.01 449.481 1182.55 448.46C1162.09 447.439 1141.74 450.262 1127.99 456.518C1093.86 472.039 1041.07 491.316 939.921 493.312C878.986 494.515 825.616 488.979 792.008 470.444L791.788 470.323C770.843 458.771 747.719 457.5 728.007 462.267C708.242 467.047 692.146 477.832 685.091 490.097L682.473 488.591C706.44 446.927 753.564 420.244 788.854 417.188C804.4 415.842 821.795 414.334 844.758 406.956C855.869 403.385 867.475 399.257 879.674 394.917L879.731 394.897ZM696.656 473.269C704.986 467.078 715.586 462.164 727.297 459.332C747.627 454.415 771.544 455.708 793.247 467.678L793.466 467.799C826.309 485.912 878.952 491.495 939.862 490.293C1040.58 488.305 1092.96 469.129 1126.74 453.768C1141.08 447.244 1161.96 444.408 1182.7 445.443C1200.06 446.31 1217.52 449.898 1231.14 456.465C1228.88 453.913 1225.98 450.695 1222.5 446.994C1213.51 437.443 1200.72 424.684 1185.47 411.853C1154.88 386.126 1114.71 360.362 1075.68 359.137C996.297 356.646 933.341 379.031 880.687 397.763L880.674 397.767C868.489 402.102 856.842 406.245 845.682 409.831C822.386 417.317 804.71 418.847 789.132 420.196L789.114 420.198C759.796 422.736 721.751 442.187 696.656 473.269Z" fill="black"/>
<path fill-rule="evenodd" clip-rule="evenodd" d="M445.289 453.652H396.617L472.649 240.532H518.153L593.897 453.652H544.361L529.385 408.724H460.65L445.289 453.652ZM474.089 369.556H516.137L500.873 324.052C498.962 318.079 496.852 311.312 495.695 306.22C495.458 305.174 495.26 304.199 495.113 303.316C494.249 308.212 491.945 316.276 489.353 324.052L474.089 369.556Z" fill="CanvasText"/>
<path d="M943.36 265.864V340.744C943.36 364.36 935.584 374.152 916.576 374.152C898.432 374.152 890.368 363.784 890.368 340.168V265.864H846.016V356.296C846.016 391.72 866.176 413.608 899.008 413.608C916.288 413.608 934.144 405.544 943.072 393.736L945.952 409.864H987.712V265.864H943.36Z" fill="#02DA9A" stroke="black" stroke-width="3"/>
<path d="M1034.24 243.4C1048.07 243.4 1059.3 232.168 1059.3 218.056C1059.3 203.944 1048.07 193 1034.24 193C1020.13 193 1008.9 203.944 1008.9 218.056C1008.9 232.168 1020.13 243.4 1034.24 243.4ZM1034.24 243.4C1048.07 243.4 1059.3 232.168 1059.3 218.056C1059.3 203.944 1048.07 193 1034.24 193C1020.13 193 1008.9 203.944 1008.9 218.056C1008.9 232.168 1020.13 243.4 1034.24 243.4Z" fill="#02DA9A" stroke="black" stroke-width="3"/>
<path d="M1056.71 409.864H1012.36V265.864H1056.71V409.864Z" fill="#02DA9A" stroke="black" stroke-width="3"/>
<path d="M1238.56 453.652V417.652L1255.55 399.796L1287.8 453.652H1339.07L1286.65 366.676L1340.8 309.652H1285.21L1238.56 361.492V236.5H1194.2V453.652H1238.56Z" fill="CanvasText"/>
<path d="M1338.85 522.772C1347.49 525.364 1357.57 526.804 1368.23 526.804C1393.57 526.804 1409.7 514.42 1421.8 485.044L1494.95 309.652H1448.87L1414.02 402.1L1382.63 309.652H1335.11L1393 458.548L1390.41 465.46C1384.65 481.012 1378.31 485.62 1363.33 485.62H1338.85V522.772Z" fill="CanvasText"/>
<path d="M390.079 770.652V691.74C390.079 673.884 401.311 662.364 418.879 662.364C434.143 662.364 444.223 674.172 444.223 692.316V770.652H488.575V681.66C488.575 643.932 468.703 622.044 434.431 622.044C415.711 622.044 399.295 629.244 390.367 641.628V553.5H345.727V770.652H390.079Z" fill="CanvasText"/>
<path fill-rule="evenodd" clip-rule="evenodd" d="M583.453 774.108C537.373 774.108 503.965 743.868 503.965 698.364C503.965 652.86 537.373 622.332 583.453 622.332C629.245 622.332 662.653 652.86 662.653 698.364C662.653 743.868 629.245 774.108 583.453 774.108ZM548.605 698.076C548.605 676.476 562.717 662.076 583.453 662.076C603.901 662.076 618.013 676.476 618.013 698.076C618.013 719.964 603.901 734.364 583.453 734.364C562.717 734.364 548.605 719.964 548.605 698.076Z" fill="CanvasText"/>
<path fill-rule="evenodd" clip-rule="evenodd" d="M897.065 770.652H855.305V553.5H899.657V643.356C908.297 630.396 927.305 621.756 948.041 621.756C988.361 621.756 1013.99 653.148 1013.99 700.092C1013.99 744.732 985.481 774.396 944.585 774.396C926.48 774.396 910.697 767.195 902.036 756.132L897.065 770.652ZM912.281 726.206C918.24 731.063 926.061 733.788 935.081 733.788C956.105 733.788 969.353 719.1 969.353 697.788C969.353 676.476 956.105 661.788 935.081 661.788C934.831 661.788 934.581 661.79 934.333 661.794C913.999 662.136 899.945 676.448 899.945 697.788C899.945 709.992 904.542 719.898 912.281 726.206Z" fill="CanvasText"/>
<path d="M1013.74 839.772C1022.38 842.364 1032.46 843.804 1043.12 843.804C1068.46 843.804 1084.59 831.42 1096.68 802.044L1169.84 626.652H1123.76L1088.91 719.1L1057.52 626.652H1010L1067.88 775.548L1065.29 782.46C1059.53 798.012 1053.2 802.62 1038.22 802.62H1013.74V839.772Z" fill="CanvasText"/>
<path d="M1238.08 725.148C1238.08 754.236 1261.99 774.396 1300 774.396C1337.44 774.396 1363.65 755.676 1363.65 724.86C1363.65 701.82 1350.69 690.876 1327.07 685.692L1300.29 679.932C1290.21 677.628 1284.74 673.884 1284.74 667.26C1284.74 659.484 1291.07 654.3 1301.15 654.3C1311.81 654.3 1317.86 660.924 1317.86 670.716H1359.91C1359.91 641.628 1336.58 622.044 1303.17 622.044C1268.61 622.044 1242.98 639.324 1242.98 669.276C1242.98 694.62 1255.94 706.14 1282.43 711.9L1308.93 717.66C1319.59 719.964 1321.89 724.572 1321.89 728.892C1321.89 736.38 1315.55 741.276 1301.73 741.276C1288.19 741.276 1280.71 735.228 1280.13 725.148H1238.08Z" fill="CanvasText"/>
<path d="M1463.14 732.06C1457.96 733.788 1452.78 734.652 1448.46 734.652C1438.09 734.652 1430.89 729.18 1430.89 711.036V663.516H1462.86V626.652H1430.89V582.012H1386.54V626.652H1364.65V663.516H1386.54V720.252C1386.54 760.572 1407.27 774.108 1436.94 774.108C1449.03 774.108 1459.98 771.804 1468.33 767.772L1463.14 732.06Z" fill="CanvasText"/>
<path d="M1508.63 774.396C1522.74 774.396 1535.13 762.588 1535.13 748.476C1535.13 734.076 1522.74 722.268 1508.63 722.268C1493.94 722.268 1482.14 734.076 1482.14 748.476C1482.14 762.588 1493.94 774.396 1508.63 774.396Z" fill="CanvasText"/>
</g>
<rect x="2" y="2" width="1916" height="1196" rx="62" stroke="CanvasText" stroke-width="4"/>
<defs>
<clipPath id="clip0_1847_1978">
<rect width="1920" height="1200" rx="64" fill="CanvasText"/>
</clipPath>
</defs>
</svg>
