<svg width="2160" height="1200" viewBox="0 0 2160 1200" fill="none" xmlns="http://www.w3.org/2000/svg">
<g clip-path="url(#clip0_1847_1702)">
<rect width="2160" height="1200" rx="64" fill="Canvas"/>
<path opacity="0.1" fill-rule="evenodd" clip-rule="evenodd" d="M-235 600H680V648.167V650.17V656.167V658.17V849.536V857.536V921L-235 921V600ZM688 857.536V921V929H680L-235 929H-243V600V592H-235H680H688H1472H1480H2395H2403V600V921V929H2395L1480 929H1472V857.536H690L688 857.536ZM688 849.536L690 849.536L1470 849.536L1472 849.536V658.17H688V849.536ZM1480 849.536V857.536V921L2395 921V600H1480V648.167V650.17V656.167V658.17V849.536ZM688 648.167V600H1472V648.167H688Z" fill="CanvasText"/>
<rect opacity="0.1" x="4" y="-4" width="472" height="232" rx="20" transform="matrix(1 0 0 -1 83.9258 332)" stroke="CanvasText" stroke-width="8"/>
<path opacity="0.1" d="M246.263 132.585C226.95 123.554 182.44 154.088 168.277 190.117C161.345 207.753 153.354 224.389 159.06 235.164C175.023 265.305 204.943 172.722 225.964 179.025C241.785 183.769 219.768 245.113 247.87 266.058C286.318 294.715 313.29 182.147 357.639 200.385C369.934 205.441 346.225 275.95 371.163 285.209C390.997 292.573 430.242 232.251 447.987 243.772C461.142 252.312 417.795 280.912 433.697 301.504C458.256 333.305 487.79 292.328 487.423 247.222C487.201 219.973 471.246 199.745 451.922 198.794C431.028 197.765 401.517 254.897 388.447 238.563C376.545 223.687 392.91 136.333 351.66 150.436C310.41 164.539 300.162 229.518 272.057 214.546C242.441 198.769 271.51 144.39 246.263 132.585Z" fill="CanvasText"/>
<path opacity="0.1" d="M1556.91 505C1551.59 505 1547.43 509.597 1547.96 514.896L1554.46 579.896C1554.92 584.496 1558.79 588 1563.41 588H1614.36C1618.99 588 1622.86 584.496 1623.32 579.896L1629.82 514.896C1630.35 509.597 1626.19 505 1620.86 505H1556.91Z" stroke="CanvasText" stroke-width="8" stroke-linejoin="round"/>
<path opacity="0.1" d="M1570.96 453.092C1570.96 453.092 1562.02 449.668 1554.38 452.132C1546.61 454.64 1539.4 461.549 1543.25 468.754C1546.72 475.229 1555.06 475.869 1562.02 473.603C1570.96 470.689 1572.45 462.16 1572.45 462.16" stroke="CanvasText" stroke-width="8" stroke-linecap="round"/>
<path opacity="0.1" d="M1600.12 449.337C1600.12 449.337 1609.76 445.686 1617.22 448.497C1624.69 451.307 1632.8 457.989 1628.88 465.068C1625.36 471.409 1617.22 472.188 1609.56 469.753C1601.9 467.319 1598.68 458.326 1598.68 458.326" stroke="CanvasText" stroke-width="8" stroke-linecap="round"/>
<path opacity="0.1" d="M1570.55 413.526C1570.55 413.526 1558.18 408.287 1547.31 413.613C1536.43 418.94 1530.11 429.12 1534.2 436.024C1538.57 443.429 1548.83 443.512 1558.51 439.513C1568.19 435.514 1572.31 424.323 1572.31 424.323" stroke="CanvasText" stroke-width="8" stroke-linecap="round"/>
<path opacity="0.1" d="M1599.36 407.214C1599.36 407.214 1610.34 403.886 1622.28 406.255C1634.23 408.624 1644.62 417.938 1640.35 426.587C1636.52 434.335 1625.04 435.078 1615 432.244C1606.38 429.812 1598.71 418.212 1598.71 418.212" stroke="CanvasText" stroke-width="8" stroke-linecap="round"/>
<path opacity="0.1" d="M1564.78 369.071C1564.78 369.071 1550.58 366.314 1537.14 374.926C1523.71 383.538 1519.08 393.295 1525.78 400.542C1531.8 407.055 1544.77 404.208 1554.29 398.375C1564.78 391.95 1568.22 379.656 1568.22 379.656" stroke="CanvasText" stroke-width="8" stroke-linecap="round"/>
<path opacity="0.1" d="M1593.54 368.202C1593.54 368.202 1601.85 363.02 1620.17 363.045C1638.48 363.07 1648.58 371.394 1645.27 381.334C1642.31 390.24 1629.02 393.101 1616.72 391.912C1606.15 390.891 1594.92 379.98 1594.92 379.98" stroke="CanvasText" stroke-width="8" stroke-linecap="round"/>
<path opacity="0.1" d="M1582.36 488.8C1590.03 445.545 1591.21 389.011 1572.13 356.31" stroke="CanvasText" stroke-width="8" stroke-linecap="round"/>
<path opacity="0.1" fill-rule="evenodd" clip-rule="evenodd" d="M904 586C904 582.686 906.686 580 910 580L1250 580C1253.31 580 1256 582.686 1256 586C1256 589.314 1253.31 592 1250 592L910 592C906.686 592 904 589.314 904 586Z" fill="CanvasText"/>
<rect opacity="0.1" x="920" y="366" width="320" height="210" rx="12" stroke="CanvasText" stroke-width="8" stroke-linejoin="round"/>
<path opacity="0.1" d="M939 541.465L939 384.465L1221 384.465L1221 541.465L939 541.465Z" stroke="CanvasText" stroke-width="8" stroke-linecap="round" stroke-linejoin="round"/>
<path opacity="0.1" fill-rule="evenodd" clip-rule="evenodd" d="M619.746 521H654.065C661.245 521 667.065 526.82 667.065 534V579.402C667.065 586.582 661.245 592.402 654.065 592.402H619.746C612.566 592.402 606.746 586.582 606.746 579.402V577.715C605.785 577.906 604.792 578.006 603.771 578.006C598.17 578.006 593.405 574.971 590.176 570.667C586.948 566.364 585.07 560.603 585.07 554.41C585.07 548.217 586.948 542.456 590.176 538.153C593.405 533.849 598.17 530.813 603.771 530.813C604.902 530.813 605.998 530.937 607.055 531.17C608.347 525.351 613.538 521 619.746 521ZM603.771 570.006C604.764 570.006 605.767 569.796 606.746 569.371V539.449C605.767 539.024 604.764 538.813 603.771 538.813C601.252 538.813 598.668 540.165 596.576 542.953C594.483 545.743 593.07 549.781 593.07 554.41C593.07 559.039 594.483 563.077 596.576 565.866C598.668 568.655 601.252 570.006 603.771 570.006ZM614.746 579.402V573.558C614.747 573.557 614.747 573.557 614.748 573.556V535.264C614.747 535.263 614.747 535.263 614.746 535.262V534C614.746 533.953 614.747 533.907 614.748 533.86V533.267C614.748 530.505 616.987 528.267 619.748 528.267H654.067C656.829 528.267 659.067 530.505 659.067 533.267V578.669C659.067 578.716 659.066 578.762 659.065 578.809V579.402C659.065 582.164 656.827 584.402 654.065 584.402H619.746C616.985 584.402 614.746 582.164 614.746 579.402Z" fill="CanvasText"/>
<path opacity="0.1" d="M650.906 571.2C652.563 571.2 653.906 569.857 653.906 568.2C653.906 566.543 652.563 565.2 650.906 565.2C649.249 565.2 647.906 566.543 647.906 568.2C647.906 569.857 649.249 571.2 650.906 571.2Z" fill="CanvasText"/>
<path opacity="0.1" d="M627.906 542.201V571.201H632.906V560.357C632.906 559.56 633.384 558.684 634.556 557.884C635.733 557.081 637.211 556.659 638.264 556.659C639.052 556.659 639.63 556.971 640.067 557.52C640.541 558.117 640.906 559.086 640.906 560.357V571.2L645.906 571.201V560.357C645.906 558.177 645.284 556.048 643.98 554.408C642.638 552.721 640.644 551.659 638.264 551.659C636.551 551.659 634.619 552.156 632.906 553.054V542.202L627.906 542.201Z" fill="CanvasText"/>
<path opacity="0.1" d="M476.781 588L556.781 588" stroke="CanvasText" stroke-width="8" stroke-linecap="round"/>
<circle opacity="0.1" cx="1080" cy="180" r="84" stroke="CanvasText" stroke-width="8"/>
<g opacity="0.1">
<path fill-rule="evenodd" clip-rule="evenodd" d="M1152.73 180C1152.73 177.055 1150.34 174.667 1147.39 174.667C1144.45 174.667 1142.06 177.055 1142.06 180H1152.73Z" fill="CanvasText"/>
<path d="M1152.73 180C1152.73 182.946 1150.34 185.334 1147.39 185.334C1144.45 185.334 1142.06 182.946 1142.06 180M1152.73 180C1152.73 177.055 1150.34 174.667 1147.39 174.667C1144.45 174.667 1142.06 177.055 1142.06 180M1152.73 180H1142.06" stroke="CanvasText" stroke-width="2"/>
</g>
<g opacity="0.1">
<path fill-rule="evenodd" clip-rule="evenodd" d="M1007.27 180C1007.27 182.945 1009.66 185.333 1012.61 185.333C1015.55 185.333 1017.94 182.945 1017.94 180H1007.27Z" fill="CanvasText"/>
<path d="M1007.27 180C1007.27 177.054 1009.66 174.666 1012.61 174.666C1015.55 174.666 1017.94 177.054 1017.94 180M1007.27 180C1007.27 182.945 1009.66 185.333 1012.61 185.333C1015.55 185.333 1017.94 182.945 1017.94 180M1007.27 180H1017.94" stroke="CanvasText" stroke-width="2"/>
</g>
<g opacity="0.1">
<path fill-rule="evenodd" clip-rule="evenodd" d="M1074.67 247.392C1074.67 250.338 1077.05 252.726 1080 252.726C1082.94 252.726 1085.33 250.338 1085.33 247.392H1074.67Z" fill="CanvasText"/>
<path d="M1080 242.059C1077.05 242.059 1074.67 244.447 1074.67 247.392H1085.33C1085.33 244.447 1082.94 242.059 1080 242.059Z" fill="CanvasText"/>
<path d="M1074.67 247.392C1074.67 244.447 1077.05 242.059 1080 242.059C1082.94 242.059 1085.33 244.447 1085.33 247.392M1074.67 247.392C1074.67 250.338 1077.05 252.726 1080 252.726C1082.94 252.726 1085.33 250.338 1085.33 247.392M1074.67 247.392H1085.33" stroke="CanvasText" stroke-width="2"/>
</g>
<path opacity="0.1" d="M1080 117.94C1077.05 117.94 1074.67 115.552 1074.67 112.607C1074.67 109.661 1077.05 107.273 1080 107.273C1082.94 107.273 1085.33 109.661 1085.33 112.607C1085.33 115.552 1082.94 117.94 1080 117.94Z" stroke="CanvasText" stroke-width="2"/>
<path opacity="0.1" fill-rule="evenodd" clip-rule="evenodd" d="M1152.73 181.001H1084.15C1083.73 182.761 1082.21 184.096 1080.36 184.252L1063.98 222.736L1060.3 221.17L1076.68 182.685C1076.09 181.952 1075.73 181.018 1075.73 180.001C1075.73 178.173 1076.88 176.613 1078.5 176.006L1078.5 117.941H1081.5L1081.5 176.005C1082.81 176.497 1083.82 177.618 1084.15 179.001H1152.73V181.001Z" fill="CanvasText"/>
<path opacity="0.1" d="M1308.58 585.091L1306.38 574.631C1306.21 573.842 1306.3 573.224 1306.49 572.808C1310.06 564.904 1317.57 561 1328.25 561C1338.93 561 1346.44 564.904 1350.01 572.808C1350.2 573.224 1350.29 573.841 1350.12 574.631L1347.92 585.091C1347.53 586.943 1345.9 588.268 1344.01 588.268H1312.49C1310.6 588.268 1308.97 586.943 1308.58 585.091Z" stroke="CanvasText" stroke-width="8" stroke-linejoin="round"/>
<rect opacity="0.1" x="734" y="496" width="92" height="92" rx="8" stroke="CanvasText" stroke-width="8"/>
<path opacity="0.1" d="M766.971 537.5V536.293L766.118 537.146L756.328 546.936V541.665L766.678 531.314H770.698L770.698 569.314H766.971L766.971 537.5Z" fill="CanvasText" stroke="CanvasText"/>
<path opacity="0.1" d="M778.789 549.724C778.789 542.9 780.37 538.297 782.684 535.411C784.991 532.535 788.063 531.314 791.17 531.314C794.279 531.314 797.382 532.535 799.717 535.413C802.061 538.3 803.67 542.902 803.67 549.724C803.67 557.146 802.057 562.045 799.71 565.077C797.375 568.096 794.276 569.314 791.17 569.314C788.065 569.314 784.998 568.096 782.692 565.08C780.374 562.047 778.789 557.148 778.789 549.724ZM791.17 534.451C789.116 534.451 786.929 535.483 785.275 537.922C783.629 540.348 782.516 544.152 782.516 549.724C782.516 556.456 783.621 560.565 785.275 563.003C786.955 565.479 789.164 566.178 791.17 566.178C793.175 566.178 795.412 565.481 797.123 563.006C798.808 560.569 799.943 556.458 799.943 549.724C799.943 544.15 798.8 540.345 797.123 537.918C795.438 535.481 793.222 534.451 791.17 534.451Z" fill="CanvasText" stroke="CanvasText"/>
<path opacity="0.1" fill-rule="evenodd" clip-rule="evenodd" d="M759.746 511.667C758.569 511.667 757.815 512.567 757.815 513.417C757.815 513.791 758.017 514.105 758.459 514.418C758.911 514.738 759.496 514.97 760.063 515.196L760.074 515.2C760.083 515.204 760.093 515.208 760.102 515.211C760.637 515.424 761.378 515.718 761.985 516.149C762.609 516.592 763.211 517.266 763.211 518.25C763.211 519.856 761.841 521.333 759.947 521.333C758.374 521.333 757.111 520.344 756.469 519.435L757.558 518.665C758.034 519.34 758.935 520 759.947 520C761.124 520 761.878 519.101 761.878 518.25C761.878 517.885 761.672 517.562 761.213 517.237C760.748 516.907 760.147 516.664 759.581 516.439C759.559 516.43 759.537 516.421 759.514 516.412C758.987 516.203 758.274 515.92 757.689 515.507C757.068 515.067 756.482 514.4 756.482 513.417C756.482 511.811 757.852 510.334 759.746 510.334C761.318 510.334 762.581 511.321 763.224 512.231L762.135 513C761.659 512.326 760.758 511.667 759.746 511.667Z" fill="CanvasText"/>
<path opacity="0.1" d="M796.039 513.335L799.118 521.791L797.949 525H799.283L803.529 513.335H802.196L799.784 519.96L797.372 513.335H796.039Z" fill="CanvasText"/>
<path opacity="0.1" d="M771.356 513.335V521.334H770.022V520.32C769.831 520.976 768.783 521.668 768.039 521.668C766.207 521.668 764.723 519.97 764.723 518.08V513.335H766.056V518.08C766.056 519.273 766.983 520.335 768.039 520.335C769.096 520.335 770.022 519.441 770.022 518.248V513.335H771.356Z" fill="CanvasText"/>
<path opacity="0.1" d="M772.855 521.334V513.334H774.189V514.349C774.38 513.692 775.095 513.001 776.172 513.001C778.337 513.001 779.488 514.699 779.488 516.589V521.334H778.155V516.589C778.155 515.396 777.228 514.251 776.172 514.251C775.115 514.251 774.189 515.228 774.189 516.421V521.334H772.855Z" fill="CanvasText"/>
<path opacity="0.1" fill-rule="evenodd" clip-rule="evenodd" d="M786.288 520.655C785.735 521.081 785.048 521.334 784.305 521.334C782.473 521.334 780.988 519.802 780.988 517.913L780.988 516.089C780.988 514.199 782.473 512.668 784.305 512.668C785.048 512.668 785.735 512.92 786.288 513.346V510H787.621V521.333H786.288V520.655ZM784.305 514.001C785.361 514.001 786.288 514.896 786.288 516.089V517.913C786.288 519.105 785.361 520.001 784.305 520.001C783.248 520.001 782.322 519.105 782.322 517.913L782.322 516.089C782.322 514.896 783.248 514.001 784.305 514.001Z" fill="CanvasText"/>
<path opacity="0.1" fill-rule="evenodd" clip-rule="evenodd" d="M792.329 514.668C791.328 514.668 790.638 515.194 790.385 515.704L789.191 515.111C789.688 514.109 790.866 513.335 792.329 513.335C793.993 513.335 795.537 514.497 795.537 516.154V521.334L794.204 521.334V520.589C793.57 521.064 792.787 521.334 792.051 521.334C791.345 521.334 790.635 521.197 790.08 520.834C789.491 520.449 789.121 519.836 789.121 519.039C789.121 518.285 789.414 517.687 789.902 517.254C790.367 516.843 790.97 516.614 791.565 516.483C792.15 516.353 792.675 516.3 793.193 516.263C793.346 516.251 793.496 516.242 793.645 516.232C793.829 516.22 794.014 516.208 794.204 516.193V516.154C794.204 515.433 793.473 514.668 792.329 514.668ZM794.204 517.53C794.031 517.543 793.865 517.554 793.705 517.564C793.561 517.574 793.423 517.583 793.29 517.592C792.798 517.628 792.346 517.676 791.853 517.784C791.37 517.891 791.013 518.052 790.786 518.253C790.583 518.432 790.454 518.668 790.454 519.039C790.454 519.37 790.583 519.57 790.809 519.718C791.069 519.888 791.491 520.001 792.051 520.001C792.517 520.001 793.073 519.805 793.507 519.441C793.932 519.085 794.204 518.603 794.204 518.03V517.53Z" fill="CanvasText"/>
<path opacity="0.1" d="M755 489V503" stroke="CanvasText" stroke-width="4" stroke-linecap="round" stroke-linejoin="round"/>
<path opacity="0.1" d="M765 489V503" stroke="CanvasText" stroke-width="4" stroke-linecap="round" stroke-linejoin="round"/>
<path opacity="0.1" d="M775 489V503" stroke="CanvasText" stroke-width="4" stroke-linecap="round" stroke-linejoin="round"/>
<path opacity="0.1" d="M785 489V503" stroke="CanvasText" stroke-width="4" stroke-linecap="round" stroke-linejoin="round"/>
<path opacity="0.1" d="M795 489V503" stroke="CanvasText" stroke-width="4" stroke-linecap="round" stroke-linejoin="round"/>
<path opacity="0.1" d="M805 489V503" stroke="CanvasText" stroke-width="4" stroke-linecap="round" stroke-linejoin="round"/>
<path opacity="0.1" fill-rule="evenodd" clip-rule="evenodd" d="M683.999 -400C683.999 -402.209 682.208 -404 679.999 -404C677.79 -404 675.999 -402.209 675.999 -400V97.6128C653.589 99.3866 635.338 115.936 630.986 137.519C629.895 142.933 634.476 147.455 639.999 147.455H719.999C725.522 147.455 730.103 142.933 729.012 137.519C724.66 115.936 706.409 99.3866 683.999 97.6128V-400ZM679.999 105.455C700.306 105.455 717.263 119.875 721.157 139.038C721.001 139.204 720.599 139.455 719.999 139.455H639.999C639.399 139.455 638.997 139.204 638.841 139.038C642.735 119.875 659.692 105.455 679.999 105.455Z" fill="CanvasText"/>
<circle opacity="0.1" cx="1475" cy="554.5" r="25" stroke="CanvasText" stroke-width="8"/>
<path opacity="0.1" fill-rule="evenodd" clip-rule="evenodd" d="M1411 513C1408.79 513 1407 514.791 1407 517H1397C1390.37 517 1385 522.373 1385 529V580C1385 585.799 1389.11 590.637 1394.58 591.756C1395.36 591.916 1396.17 592 1397 592H1411H1509C1515.63 592 1521 586.627 1521 580V529C1521 522.373 1515.63 517 1509 517H1415C1415 514.791 1413.21 513 1411 513ZM1509 525H1422.32C1422.76 526.251 1423 527.597 1423 529V580C1423 581.403 1422.76 582.749 1422.32 584H1509C1511.21 584 1513 582.209 1513 580V529C1513 526.791 1511.21 525 1509 525ZM1397 525H1411C1413.21 525 1415 526.791 1415 529V580C1415 582.209 1413.21 584 1411 584H1397C1396.86 584 1396.73 583.993 1396.59 583.979C1394.57 583.775 1393 582.071 1393 580V529C1393 526.791 1394.79 525 1397 525Z" fill="CanvasText"/>
<circle opacity="0.1" cx="1475" cy="554.5" r="3.5" stroke="CanvasText" stroke-width="3"/>
<path fill-rule="evenodd" clip-rule="evenodd" d="M852.071 457.532C809.159 457.532 784.391 424.7 784.391 379.196C784.391 332.828 812.327 304.892 852.359 304.892C872.807 304.892 890.951 313.82 899.015 327.068L901.319 309.5H943.079V522.62H898.727V439.1C890.375 450.044 871.943 457.532 852.071 457.532ZM829.031 381.5C829.031 360.188 842.279 345.5 863.303 345.5C884.039 345.5 898.439 359.9 898.439 381.5C898.439 403.1 884.039 417.5 863.303 417.5C842.279 417.5 829.031 402.812 829.031 381.5Z" fill="CanvasText"/>
<path d="M1300.41 309.499C1294.36 308.059 1288.6 307.483 1283.42 307.483C1264.12 307.483 1251.45 316.987 1245.4 331.099L1243.1 309.787H1201.34V453.499H1245.69V391.003C1245.69 362.491 1260.96 351.259 1286.3 351.259H1300.41V309.499Z" fill="CanvasText"/>
<path fill-rule="evenodd" clip-rule="evenodd" d="M841.487 770.5H799.727V553.348H844.079V643.204C852.719 630.244 871.727 621.604 892.463 621.604C932.783 621.604 958.415 652.996 958.415 699.94C958.415 744.58 929.903 774.244 889.007 774.244C870.902 774.244 855.119 767.043 846.458 755.979L841.487 770.5ZM856.703 726.054C862.661 730.911 870.483 733.636 879.503 733.636C900.527 733.636 913.775 718.948 913.775 697.636C913.775 676.324 900.527 661.636 879.503 661.636C879.252 661.636 879.003 661.638 878.755 661.642C858.421 661.984 844.367 676.296 844.367 697.636C844.367 709.84 848.964 719.745 856.703 726.054Z" fill="CanvasText"/>
<path d="M1346.41 578.692C1346.41 592.804 1335.18 604.036 1321.35 604.036C1307.24 604.036 1296.01 592.804 1296.01 578.692C1296.01 564.58 1307.24 553.636 1321.35 553.636C1335.18 553.636 1346.41 564.58 1346.41 578.692Z" fill="CanvasText"/>
<path d="M1299.46 770.5H1343.82V626.5H1299.46V770.5Z" fill="CanvasText"/>
<path d="M803.783 489.345C763.107 560.052 901.434 639.342 1073.33 639.342C1266.74 639.342 1411.63 496.713 1357.79 461.904C1329.83 443.826 1275.46 442.363 1247.36 455.144C1213.41 470.585 1160.82 489.811 1059.89 491.803C998.97 493.005 945.964 487.446 912.738 469.122L912.519 469.001C869.871 445.479 818.436 463.872 803.783 489.345Z" fill="#7A6332"/>
<path fill-rule="evenodd" clip-rule="evenodd" d="M1081.09 454.802C1032.05 454.802 988.025 454.379 954.516 494.04C901.438 541.883 954.516 664.912 954.516 664.912H1207.66C1207.66 664.912 1260.74 541.884 1207.66 494.04C1174.15 454.378 1130.12 454.802 1081.09 454.802Z" fill="black"/>
<path d="M954.516 494.04C988.025 454.379 1032.05 454.802 1081.09 454.802C1130.12 454.802 1174.15 454.378 1207.66 494.04C1260.74 541.884 1207.66 664.912 1207.66 664.912H954.516C954.516 664.912 901.438 541.883 954.516 494.04Z" fill="black"/>
<path fill-rule="evenodd" clip-rule="evenodd" d="M1081.09 454.802C1032.05 454.802 988.025 454.379 954.516 494.04C901.438 541.883 954.516 664.912 954.516 664.912H1207.66C1207.66 664.912 1260.74 541.884 1207.66 494.04C1174.15 454.378 1130.12 454.802 1081.09 454.802Z" fill="black"/>
<path fill-rule="evenodd" clip-rule="evenodd" d="M1081.09 345.95C899.838 345.95 884.924 430.556 888.699 525.683C891.294 591.088 891.574 618.459 888.699 681.367C1059.86 688.103 1146.95 676.879 1267.61 676.879C1272.97 602.413 1275.08 580.422 1267.61 525.683C1253.93 425.457 1262.34 345.95 1081.09 345.95ZM1081.09 454.802C1032.05 454.802 988.025 454.379 954.516 494.04C901.438 541.883 954.516 664.912 954.516 664.912H1207.66C1207.66 664.912 1260.74 541.884 1207.66 494.04C1174.15 454.378 1130.12 454.802 1081.09 454.802Z" fill="black"/>
<path d="M1035.77 661.226C1035.75 659.066 1035.73 657.093 1035.81 655.359C1035.81 655.3 1035.81 655.241 1035.81 655.183H1126.57C1126.57 655.241 1126.57 655.3 1126.57 655.359C1126.65 657.093 1126.63 659.066 1126.62 661.226C1124.22 673.138 1126.38 690.757 1140.97 705.521C1155.86 720.602 1190.72 732.704 1252.08 732.704C1252.83 732.704 1253.67 732.693 1254.57 732.68C1273.2 732.421 1322.68 731.732 1322.68 822.223V822.229C1322.68 868.282 1322.68 1126.6 1335.64 1232.11H1247.58C1247.55 1231.43 1247.52 1230.75 1247.49 1230.07H914.893C914.861 1230.75 914.831 1231.43 914.801 1232.11H820.152C834.265 1126.6 839.701 868.257 839.701 822.223C839.701 731.732 889.179 732.421 907.808 732.68C908.716 732.693 909.55 732.704 910.302 732.704C971.657 732.704 1006.52 720.602 1021.41 705.521C1036 690.757 1038.16 673.138 1035.77 661.226Z" fill="#E7C273"/>
<path d="M1035.76 661.226C1036.39 664.387 1036.71 667.951 1036.55 671.756C1038.16 674.633 1039.9 677.343 1041.79 679.885C1073.29 722.213 1111.34 734.269 1157.94 733.711C1172.84 733.532 1187.34 732.292 1201.2 729.301C1170.65 724.698 1151.3 715.88 1141.12 705.682C1141.07 705.628 1141.01 705.575 1140.96 705.521C1140.88 705.44 1140.8 705.359 1140.72 705.278C1126.35 690.564 1124.23 673.074 1126.61 661.227C1126.62 659.067 1126.64 657.093 1126.56 655.359L1126.56 655.183H1035.81L1035.8 655.359C1035.72 657.093 1035.74 659.066 1035.76 661.226Z" fill="black" fill-opacity="0.4"/>
<path d="M837.812 923.858C854.957 940.816 878.531 951.287 904.55 951.287C956.964 951.287 999.454 908.797 999.454 856.383C999.454 803.969 956.964 761.479 904.55 761.479C881.329 761.479 860.056 769.819 843.563 783.667C841.117 794.203 839.7 806.906 839.7 822.222C839.7 837.395 839.11 875.631 837.812 923.858Z" fill="black" fill-opacity="0.4"/>
<path d="M1262.89 761.46C1283.25 761.46 1302.12 767.872 1317.57 778.786C1320.78 790.214 1322.68 804.463 1322.68 822.224V822.234C1322.68 838.015 1322.68 878.712 1323.2 929.642C1306.81 943.153 1285.8 951.267 1262.89 951.267C1262.31 951.267 1261.73 951.262 1261.14 951.252C1264.32 1025 1258.48 1132.97 1279.03 1232.11H1247.58C1247.55 1231.43 1247.52 1230.75 1247.49 1230.07H1198.71L1178.51 899.845C1171.79 886.819 1167.99 872.035 1167.99 856.364C1167.99 803.95 1210.48 761.46 1262.89 761.46Z" fill="black" fill-opacity="0.4"/>
<path d="M914.895 1230.07H1247.49C1246.49 1208.28 1244.78 1181.87 1242.87 1152.49L1242.86 1152.46C1238.46 1084.66 1233.02 1001.04 1233.02 921.817H1328.18C1324.51 873.782 1322.68 835.975 1322.68 822.224C1322.68 731.733 1273.2 732.422 1254.58 732.681C1253.67 732.694 1252.83 732.705 1252.08 732.705C1226.99 732.705 1207.09 730.681 1191.33 727.256C1184.26 732.362 1177.94 738.943 1171.28 745.884C1152.35 765.593 1130.63 788.206 1081.19 788.206C1031.76 788.206 1010.04 765.593 991.11 745.884C984.444 738.943 978.123 732.362 971.059 727.256C955.292 730.681 935.4 732.705 910.305 732.705C909.553 732.705 908.719 732.694 907.811 732.681C889.182 732.422 839.703 731.733 839.703 822.224C839.703 835.975 837.877 873.782 834.203 921.817H929.368C929.368 1001.04 923.93 1084.66 919.522 1152.46C917.61 1181.85 915.892 1208.27 914.895 1230.07Z" fill="#02DA9A"/>
<path d="M910.295 730.664C909.774 730.664 909.214 730.658 908.606 730.65C909.214 730.658 909.797 730.664 910.295 730.664Z" fill="black"/>
<path fill-rule="evenodd" clip-rule="evenodd" d="M904.171 734.691C895.404 734.7 882.786 735.514 871.198 742.837C882.784 735.516 895.403 734.7 904.171 734.691Z" fill="black"/>
<path fill-rule="evenodd" clip-rule="evenodd" d="M972.246 725.601C971.776 725.261 971.183 725.137 970.617 725.26C955.028 728.647 935.287 730.664 910.295 730.664C909.774 730.664 909.214 730.658 908.606 730.65C908.34 730.646 907.191 730.631 906.912 730.627C897.378 730.506 880.298 730.634 865.531 741.792C850.123 753.435 837.652 776.637 837.652 822.223C837.652 835.89 835.832 873.628 832.158 921.66C832.115 922.227 832.31 922.786 832.696 923.203C833.083 923.62 833.625 923.857 834.194 923.857H927.316C927.224 1002.4 921.847 1085.1 917.475 1152.32L917.475 1152.33L917.475 1152.33C915.564 1181.71 913.844 1208.16 912.847 1229.97C912.821 1230.53 913.025 1231.07 913.41 1231.48C913.795 1231.88 914.328 1232.11 914.886 1232.11H1247.48C1248.04 1232.11 1248.57 1231.88 1248.96 1231.48C1249.34 1231.07 1249.55 1230.53 1249.52 1229.97C1248.59 1209.53 1247.02 1185.03 1245.25 1157.85L1244.9 1152.42L1244.9 1152.38C1240.52 1085.16 1235.14 1002.4 1235.05 923.857H1328.17C1328.74 923.857 1329.28 923.62 1329.67 923.203C1330.06 922.786 1330.25 922.227 1330.21 921.66C1326.53 873.628 1324.71 835.89 1324.71 822.223C1324.71 776.637 1312.24 753.435 1296.84 741.792L1296.83 741.785C1282.06 730.633 1265 730.506 1255.46 730.627C1255.15 730.631 1254.7 730.637 1254.38 730.642C1254.15 730.645 1254.02 730.647 1253.79 730.65C1253.17 730.658 1252.58 730.664 1252.07 730.664C1227.08 730.664 1207.34 728.647 1191.75 725.26C1191.18 725.137 1190.59 725.261 1190.12 725.601C1182.91 730.815 1176.48 737.507 1169.87 744.392C1160.39 754.264 1150.33 764.717 1136.64 772.67C1122.99 780.596 1105.56 786.164 1081.18 786.164C1056.8 786.164 1039.37 780.596 1025.73 772.67C1012.03 764.717 1001.98 754.264 992.499 744.392C985.886 737.507 979.459 730.815 972.246 725.601ZM841.744 822.223C841.744 777.318 854.013 755.62 868.001 745.049C868.662 744.55 869.327 744.075 869.996 743.623C870.395 743.353 870.796 743.091 871.198 742.837C882.786 735.514 895.404 734.7 904.171 734.691C904.514 734.691 904.853 734.692 905.187 734.694C905.484 734.695 905.776 734.698 906.063 734.7C906.674 734.706 907.261 734.714 907.817 734.722C908.145 734.727 908.467 734.731 908.781 734.735C909.316 734.742 909.826 734.746 910.304 734.746C935.03 734.746 954.794 732.789 970.591 729.443C977.189 734.344 983.18 740.574 989.638 747.298C999.067 757.116 1009.46 767.939 1023.69 776.2C1037.99 784.508 1056.13 790.246 1081.19 790.246C1106.25 790.246 1124.4 784.508 1138.7 776.2C1152.92 767.939 1163.32 757.116 1172.75 747.298C1179.21 740.574 1185.2 734.344 1191.79 729.443C1207.59 732.789 1227.35 734.746 1252.08 734.746C1252.56 734.746 1254.06 734.728 1254.6 734.722C1255.77 734.705 1257.04 734.688 1258.41 734.692C1260.3 734.696 1262.37 734.74 1264.57 734.878C1269.54 735.193 1275.16 735.995 1280.88 737.94C1282.73 738.57 1284.59 739.32 1286.45 740.212C1289.13 741.504 1291.8 743.094 1294.38 745.049C1308.37 755.62 1320.64 777.318 1320.64 822.223C1320.64 835.848 1322.42 872.781 1325.98 919.775H1235.06C1235.06 919.775 1239.66 865.801 1225.85 827.995C1225.47 826.936 1224.94 825.954 1223.81 825.954C1222.69 825.954 1221.38 826.936 1221.77 827.995C1231.77 855.379 1232.12 883.08 1231.54 902.962C1231.46 905.799 1231.36 908.476 1231.27 910.971L1231.27 910.973L1231.27 910.98C1231.11 915.136 1230.98 918.785 1230.98 921.816C1230.98 939.397 1236.41 1084.44 1240.81 1152.33L1240.83 1152.59L1240.83 1152.6C1242.68 1181.03 1244.34 1206.68 1245.35 1228.03H917.033C918.042 1206.67 919.709 1181.04 921.558 1152.59L921.56 1152.56C925.968 1084.78 931.409 939.419 931.409 921.816C931.409 904.213 926.805 865.801 940.614 827.995C941.001 826.936 939.7 825.954 938.573 825.954C937.446 825.954 936.918 826.936 936.532 827.995C922.723 865.801 927.326 919.775 927.326 919.775H836.405C839.968 872.781 841.744 835.848 841.744 822.223Z" fill="black"/>
<path fill-rule="evenodd" clip-rule="evenodd" d="M999.735 394.897C1052.38 376.17 1115.8 353.608 1195.78 356.118C1235.9 357.377 1276.75 383.751 1307.41 409.541C1322.78 422.468 1335.66 435.313 1344.7 444.925C1349.22 449.732 1352.78 453.733 1355.21 456.534C1356.43 457.935 1357.37 459.036 1358 459.788C1358.13 459.947 1358.25 460.091 1358.36 460.218C1358.5 460.392 1358.62 460.536 1358.72 460.649L1358.81 460.765C1365.79 465.348 1369.6 471.734 1370.46 479.353C1371.32 486.974 1369.2 495.701 1364.61 504.982C1355.43 523.545 1336.12 544.807 1309.18 564.886C1255.28 605.07 1170.39 640.851 1073.33 640.851C987.184 640.851 909.361 620.988 858.105 592.174C832.488 577.774 813.381 561.067 803.258 543.361C793.089 525.573 792.01 506.785 802.476 488.591C826.444 446.927 873.568 420.244 908.857 417.188C924.404 415.842 941.799 414.334 964.761 406.956C975.872 403.385 987.479 399.257 999.678 394.917L999.735 394.897ZM805.094 490.097C795.223 507.257 796.181 524.896 805.88 541.861C815.626 558.909 834.217 575.281 859.585 589.541C910.298 618.05 987.587 637.831 1073.33 637.831C1169.68 637.831 1253.95 602.298 1307.38 562.465C1334.11 542.535 1353.02 521.614 1361.9 503.643C1366.35 494.659 1368.23 486.531 1367.46 479.69C1366.7 472.919 1363.33 467.282 1356.97 463.172C1343.3 454.333 1323.02 449.481 1302.55 448.46C1282.1 447.439 1261.75 450.262 1247.99 456.518C1213.86 472.039 1161.07 491.316 1059.92 493.312C998.99 494.515 945.619 488.979 912.011 470.444L911.792 470.323C890.847 458.771 867.722 457.5 848.01 462.267C828.246 467.047 812.15 477.832 805.094 490.097ZM913.251 467.678L913.47 467.799C946.313 485.912 998.955 491.495 1059.87 490.293C1160.58 488.305 1212.97 469.129 1246.74 453.768C1261.09 447.244 1281.97 444.408 1302.71 445.443C1320.07 446.31 1337.53 449.898 1351.14 456.465C1348.89 453.913 1345.98 450.695 1342.5 446.994C1333.52 437.443 1320.72 424.684 1305.47 411.853C1274.89 386.126 1234.71 360.362 1195.68 359.137C1116.3 356.646 1053.34 379.031 1000.69 397.763L1000.68 397.767C988.493 402.102 976.845 406.245 965.686 409.831C942.39 417.317 924.714 418.847 909.136 420.196L909.118 420.198C879.8 422.736 841.754 442.187 816.659 473.269C824.989 467.078 835.589 462.164 847.3 459.332C867.631 454.415 891.548 455.708 913.251 467.678Z" fill="black"/>
<path d="M1250.15 463.327C1260.56 466.711 1262.43 495.421 1257.54 517.419C1253.65 534.935 1248.21 556.816 1235.57 558.086C1227.94 558.852 1208.35 550.518 1205.5 545.159C1191.1 518.063 1198.34 493.954 1222.29 474.781C1229 469.409 1238.96 459.691 1250.15 463.327Z" fill="#D0B170"/>
<path d="M1250.14 463.327C1248.17 462.686 1246.24 462.46 1244.36 462.552C1225.57 496.006 1224.41 517.977 1224.28 556.027C1228.69 557.493 1232.87 558.356 1235.57 558.086C1248.21 556.816 1253.64 534.935 1257.54 517.419C1262.43 495.421 1260.56 466.711 1250.14 463.327Z" fill="black" fill-opacity="0.4"/>
<path fill-rule="evenodd" clip-rule="evenodd" d="M1241.41 476.02C1240.42 475.48 1239.18 475.845 1238.64 476.835C1234.06 485.221 1231.65 491.153 1230.21 497.25C1228.88 502.839 1228.39 508.515 1227.73 516.182C1227.68 516.801 1227.63 517.433 1227.57 518.08C1227.47 519.203 1228.3 520.192 1229.43 520.29C1230.55 520.387 1231.54 519.556 1231.64 518.433C1231.69 517.82 1231.74 517.222 1231.79 516.638C1232.46 508.852 1232.93 503.475 1234.18 498.19C1235.51 492.567 1237.75 486.986 1242.22 478.79C1242.76 477.8 1242.4 476.56 1241.41 476.02Z" fill="black"/>
<path d="M912.231 463.327C901.818 466.711 899.945 495.421 904.836 517.419C908.731 534.935 914.163 556.816 926.809 558.086C934.44 558.852 954.032 550.518 956.88 545.159C971.274 518.063 964.04 493.954 940.086 474.781C933.374 469.409 923.417 459.691 912.231 463.327Z" fill="#D0B170"/>
<path fill-rule="evenodd" clip-rule="evenodd" d="M920.849 476.02C921.839 475.48 923.079 475.845 923.619 476.835C928.193 485.221 930.608 491.153 932.051 497.25C933.374 502.839 933.863 508.515 934.523 516.182C934.577 516.801 934.631 517.433 934.687 518.08C934.785 519.203 933.953 520.192 932.83 520.29C931.707 520.387 930.718 519.556 930.62 518.433C930.567 517.82 930.515 517.222 930.465 516.638C929.793 508.852 929.329 503.475 928.079 498.19C926.748 492.567 924.506 486.986 920.035 478.79C919.495 477.8 919.86 476.56 920.849 476.02Z" fill="black"/>
<path d="M961.283 618.03C943.721 594.43 939.045 556.12 938.926 504.834C938.77 437.042 940.562 410.992 963.911 379.159C980.111 357.073 1019.85 336.154 1080.8 336.697C1141.74 336.154 1181.48 357.073 1197.68 379.159C1221.03 410.992 1222.82 437.042 1222.67 504.834C1222.55 556.12 1217.87 594.43 1200.31 618.03C1169.13 659.927 1117.71 670.755 1080.8 671.307C1043.88 671.859 992.461 659.927 961.283 618.03Z" fill="#E7C273"/>
<path d="M1044.4 508.673C1044.4 518.841 1039.25 527.083 1032.89 527.083C1026.54 527.083 1021.39 518.841 1021.39 508.673C1021.39 498.505 1026.54 490.263 1032.89 490.263C1039.25 490.263 1044.4 498.505 1044.4 508.673Z" fill="#4D2C19"/>
<path d="M1141.06 508.673C1141.06 518.841 1135.9 527.083 1129.55 527.083C1123.19 527.083 1118.04 518.841 1118.04 508.673C1118.04 498.505 1123.19 490.263 1129.55 490.263C1135.9 490.263 1141.06 498.505 1141.06 508.673Z" fill="#4D2C19"/>
<path d="M1156.02 474.15C1158.05 476.409 1157.75 479.767 1154.87 482.204C1146.96 488.914 1143.64 475.097 1131.86 475.301C1125.05 475.418 1120.84 481.522 1116.9 475.301C1111.37 466.557 1124.67 462.644 1133.01 462.644C1142.79 462.643 1152.67 470.407 1156.02 474.15Z" fill="#3A2113"/>
<path d="M1007.59 474.15C1005.57 476.409 1005.87 479.767 1008.74 482.204C1016.66 488.914 1019.97 475.097 1031.75 475.301C1038.56 475.418 1042.77 481.522 1046.71 475.301C1052.25 466.557 1038.95 462.644 1030.6 462.644C1020.83 462.643 1010.94 470.407 1007.59 474.15Z" fill="#3A2113"/>
<path d="M1077.77 515.424C1075.62 527.048 1056.84 553.395 1080.07 557.997" stroke="black" stroke-width="4" stroke-linecap="round"/>
<path fill-rule="evenodd" clip-rule="evenodd" d="M1024.85 588.064C1025.19 586.991 1026.07 586.574 1027.15 586.913C1065.49 601.3 1095.82 601.3 1134.16 586.913C1135.23 586.574 1136.12 586.991 1136.46 588.064C1136.8 589.136 1136.38 590.026 1135.31 590.365C1096.17 605.005 1065.14 605.005 1026 590.365C1024.92 590.026 1024.51 589.136 1024.85 588.064Z" fill="black"/>
<path fill-rule="evenodd" clip-rule="evenodd" d="M920.773 452.356H1243.68C1242.58 406.255 1234.91 381.821 1215.13 346.114C1201.21 320.995 1168.3 274.137 1082.23 273.624C996.134 273.111 963.249 320.995 949.329 346.114C933.943 373.878 925.885 394.826 922.544 424.445C921.588 432.918 921.018 442.101 920.773 452.356Z" fill="#BC9D5B"/>
<path fill-rule="evenodd" clip-rule="evenodd" d="M989.596 301.479C969.128 316.341 957.557 334.376 950.646 346.846C935.326 374.49 927.353 395.247 924.04 424.614C923.139 432.606 922.582 441.246 922.319 450.845H1242.13C1241.52 428.63 1239.34 411.552 1234.95 395.74C1230.47 379.563 1223.66 364.643 1213.8 346.846C1206.9 334.384 1195.32 316.603 1174.85 301.867C1154.39 287.143 1124.96 275.389 1082.21 275.134C1039.47 274.879 1010.04 286.632 989.596 301.479ZM987.822 299.035C1008.82 283.788 1038.88 271.855 1082.23 272.113C1125.56 272.372 1155.61 284.302 1176.61 299.416C1197.59 314.517 1209.43 332.725 1216.44 345.382C1226.37 363.291 1233.29 378.441 1237.86 394.933C1242.43 411.425 1244.64 429.191 1245.19 452.32L1245.22 453.866H919.223L919.26 452.32C919.505 442.031 920.077 432.802 921.039 424.275C924.408 394.405 932.552 373.265 948.004 345.382C955.014 332.733 966.844 314.266 987.822 299.035Z" fill="black"/>
<path fill-rule="evenodd" clip-rule="evenodd" d="M913.781 428.304C971.169 365.882 1071.16 357.637 1174.3 357.637L913.781 428.304Z" fill="#CEB888"/>
<path fill-rule="evenodd" clip-rule="evenodd" d="M918.602 425.434L1162.83 359.185C1115.26 359.498 1068.77 361.941 1027.21 371.039C984.243 380.444 946.657 396.937 918.602 425.434ZM1026.56 368.088C1071.79 358.188 1122.71 356.128 1174.3 356.128L1174.7 359.096L909.137 431.132L912.675 427.283C941.653 395.763 981.326 377.991 1026.56 368.088Z" fill="black"/>
<path d="M1357.79 461.904C1357.79 461.904 1274.88 360.112 1195.72 357.628C1116.03 355.127 1052.83 377.609 1000.18 396.34C987.986 400.678 976.357 404.815 965.219 408.394C942.086 415.827 924.548 417.346 908.983 418.694C874.189 421.706 827.504 448.107 803.781 489.345C818.434 463.872 869.869 445.479 912.517 469.001L912.736 469.122C945.962 487.447 998.968 493.005 1059.89 491.803C1160.82 489.811 1213.41 470.585 1247.36 455.144C1275.46 442.363 1329.82 443.826 1357.79 461.904Z" fill="#BC9D5B"/>
<path fill-rule="evenodd" clip-rule="evenodd" d="M999.731 394.897C1052.37 376.17 1115.79 353.608 1195.77 356.118C1235.89 357.377 1276.75 383.751 1307.41 409.541C1322.78 422.468 1335.66 435.313 1344.7 444.925C1349.22 449.732 1352.78 453.733 1355.21 456.534C1356.43 457.935 1357.36 459.036 1357.99 459.788C1358.31 460.164 1358.55 460.453 1358.71 460.649C1358.79 460.747 1358.85 460.821 1358.89 460.872L1358.94 460.929L1358.95 460.944L1358.96 460.948C1358.96 460.949 1358.96 460.95 1357.79 461.903L1358.96 460.95L1356.97 463.172C1343.3 454.333 1323.01 449.481 1302.55 448.46C1282.09 447.439 1261.74 450.262 1247.99 456.518C1213.86 472.039 1161.07 491.316 1059.92 493.312C998.986 494.515 945.616 488.979 912.008 470.444L911.788 470.323C890.843 458.771 867.719 457.5 848.007 462.267C828.242 467.047 812.146 477.832 805.091 490.097L802.473 488.591C826.44 446.927 873.564 420.244 908.854 417.188C924.4 415.842 941.795 414.334 964.758 406.956C975.869 403.385 987.475 399.257 999.674 394.917L999.731 394.897ZM816.656 473.269C824.986 467.078 835.586 462.164 847.297 459.332C867.627 454.415 891.544 455.708 913.247 467.678L913.466 467.799C946.309 485.912 998.952 491.495 1059.86 490.293C1160.58 488.305 1212.96 469.129 1246.74 453.768C1261.08 447.244 1281.96 444.408 1302.7 445.443C1320.06 446.31 1337.52 449.898 1351.14 456.465C1348.88 453.913 1345.98 450.695 1342.5 446.994C1333.51 437.443 1320.72 424.684 1305.47 411.853C1274.88 386.126 1234.71 360.362 1195.68 359.137C1116.3 356.646 1053.34 379.031 1000.69 397.763L1000.67 397.767C988.489 402.102 976.842 406.245 965.682 409.831C942.386 417.317 924.71 418.847 909.132 420.196L909.114 420.198C879.796 422.736 841.751 442.187 816.656 473.269Z" fill="black"/>
<path fill-rule="evenodd" clip-rule="evenodd" d="M565.289 453.652H516.617L592.649 240.532H638.153L713.897 453.652H664.361L649.385 408.724H580.65L565.289 453.652ZM594.089 369.556H636.137L620.873 324.052C618.962 318.079 616.852 311.312 615.695 306.22C615.458 305.174 615.26 304.199 615.113 303.316C614.249 308.212 611.945 316.276 609.353 324.052L594.089 369.556Z" fill="CanvasText"/>
<path d="M1063.36 265.864V340.744C1063.36 364.36 1055.58 374.152 1036.58 374.152C1018.43 374.152 1010.37 363.784 1010.37 340.168V265.864H966.016V356.296C966.016 391.72 986.176 413.608 1019.01 413.608C1036.29 413.608 1054.14 405.544 1063.07 393.736L1065.95 409.864H1107.71V265.864H1063.36Z" fill="#02DA9A" stroke="black" stroke-width="3"/>
<path d="M1154.24 243.4C1168.07 243.4 1179.3 232.168 1179.3 218.056C1179.3 203.944 1168.07 193 1154.24 193C1140.13 193 1128.9 203.944 1128.9 218.056C1128.9 232.168 1140.13 243.4 1154.24 243.4ZM1154.24 243.4C1168.07 243.4 1179.3 232.168 1179.3 218.056C1179.3 203.944 1168.07 193 1154.24 193C1140.13 193 1128.9 203.944 1128.9 218.056C1128.9 232.168 1140.13 243.4 1154.24 243.4Z" fill="#02DA9A" stroke="black" stroke-width="3"/>
<path d="M1176.71 409.864H1132.36V265.864H1176.71V409.864Z" fill="#02DA9A" stroke="black" stroke-width="3"/>
<path d="M1358.56 453.652V417.652L1375.55 399.796L1407.8 453.652H1459.07L1406.65 366.676L1460.8 309.652H1405.21L1358.56 361.492V236.5H1314.2V453.652H1358.56Z" fill="CanvasText"/>
<path d="M1458.85 522.772C1467.49 525.364 1477.57 526.804 1488.23 526.804C1513.57 526.804 1529.7 514.42 1541.8 485.044L1614.95 309.652H1568.87L1534.02 402.1L1502.63 309.652H1455.11L1513 458.548L1510.41 465.46C1504.65 481.012 1498.31 485.62 1483.33 485.62H1458.85V522.772Z" fill="CanvasText"/>
<path d="M510.079 770.652V691.74C510.079 673.884 521.311 662.364 538.879 662.364C554.143 662.364 564.223 674.172 564.223 692.316V770.652H608.575V681.66C608.575 643.932 588.703 622.044 554.431 622.044C535.711 622.044 519.295 629.244 510.367 641.628V553.5H465.727V770.652H510.079Z" fill="CanvasText"/>
<path fill-rule="evenodd" clip-rule="evenodd" d="M703.453 774.108C657.373 774.108 623.965 743.868 623.965 698.364C623.965 652.86 657.373 622.332 703.453 622.332C749.245 622.332 782.653 652.86 782.653 698.364C782.653 743.868 749.245 774.108 703.453 774.108ZM668.605 698.076C668.605 676.476 682.717 662.076 703.453 662.076C723.901 662.076 738.013 676.476 738.013 698.076C738.013 719.964 723.901 734.364 703.453 734.364C682.717 734.364 668.605 719.964 668.605 698.076Z" fill="CanvasText"/>
<path fill-rule="evenodd" clip-rule="evenodd" d="M1017.06 770.652H975.305V553.5H1019.66V643.356C1028.3 630.396 1047.3 621.756 1068.04 621.756C1108.36 621.756 1133.99 653.148 1133.99 700.092C1133.99 744.732 1105.48 774.396 1064.58 774.396C1046.48 774.396 1030.7 767.195 1022.04 756.132L1017.06 770.652ZM1032.28 726.206C1038.24 731.063 1046.06 733.788 1055.08 733.788C1076.1 733.788 1089.35 719.1 1089.35 697.788C1089.35 676.476 1076.1 661.788 1055.08 661.788C1054.83 661.788 1054.58 661.79 1054.33 661.794C1034 662.136 1019.94 676.448 1019.94 697.788C1019.94 709.992 1024.54 719.898 1032.28 726.206Z" fill="CanvasText"/>
<path d="M1133.74 839.772C1142.38 842.364 1152.46 843.804 1163.12 843.804C1188.46 843.804 1204.59 831.42 1216.68 802.044L1289.84 626.652H1243.76L1208.91 719.1L1177.52 626.652H1130L1187.88 775.548L1185.29 782.46C1179.53 798.012 1173.2 802.62 1158.22 802.62H1133.74V839.772Z" fill="CanvasText"/>
<path d="M1358.08 725.148C1358.08 754.236 1381.99 774.396 1420 774.396C1457.44 774.396 1483.65 755.676 1483.65 724.86C1483.65 701.82 1470.69 690.876 1447.07 685.692L1420.29 679.932C1410.21 677.628 1404.74 673.884 1404.74 667.26C1404.74 659.484 1411.07 654.3 1421.15 654.3C1431.81 654.3 1437.86 660.924 1437.86 670.716H1479.91C1479.91 641.628 1456.58 622.044 1423.17 622.044C1388.61 622.044 1362.98 639.324 1362.98 669.276C1362.98 694.62 1375.94 706.14 1402.43 711.9L1428.93 717.66C1439.59 719.964 1441.89 724.572 1441.89 728.892C1441.89 736.38 1435.55 741.276 1421.73 741.276C1408.19 741.276 1400.71 735.228 1400.13 725.148H1358.08Z" fill="CanvasText"/>
<path d="M1583.14 732.06C1577.96 733.788 1572.78 734.652 1568.46 734.652C1558.09 734.652 1550.89 729.18 1550.89 711.036V663.516H1582.86V626.652H1550.89V582.012H1506.54V626.652H1484.65V663.516H1506.54V720.252C1506.54 760.572 1527.27 774.108 1556.94 774.108C1569.03 774.108 1579.98 771.804 1588.33 767.772L1583.14 732.06Z" fill="CanvasText"/>
<path d="M1628.63 774.396C1642.74 774.396 1655.13 762.588 1655.13 748.476C1655.13 734.076 1642.74 722.268 1628.63 722.268C1613.94 722.268 1602.14 734.076 1602.14 748.476C1602.14 762.588 1613.94 774.396 1628.63 774.396Z" fill="CanvasText"/>
</g>
<rect x="2" y="2" width="2156" height="1196" rx="62" stroke="CanvasText" stroke-width="4"/>
<defs>
<clipPath id="clip0_1847_1702">
<rect width="2160" height="1200" rx="64" fill="Canvas"/>
</clipPath>
</defs>
</svg>
