<svg width="1400" height="1200" viewBox="0 0 1400 1200" fill="none" xmlns="http://www.w3.org/2000/svg">
<g clip-path="url(#clip0_1411_1820)">
<rect width="1400" height="1200" rx="64" fill="#6E7681" fill-opacity="0.1"/>
<path opacity="0.3" d="M-619 596H304V925L-619 925V596Z" stroke="#6E7681" stroke-width="8"/>
<path opacity="0.3" d="M1096 596H2019V925L1096 925V596Z" stroke="#6E7681" stroke-width="8"/>
<g opacity="0.3">
<mask id="path-4-inside-1_1411_1820" fill="white">
<path d="M300 648.167H1100V929H300V648.167Z"/>
</mask>
<path d="M300 648.167V640.167H292V648.167H300ZM1100 648.167H1108V640.167H1100V648.167ZM300 656.167H1100V640.167H300V656.167ZM1092 648.167V929H1108V648.167H1092ZM308 929V648.167H292V929H308Z" fill="#6E7681" mask="url(#path-4-inside-1_1411_1820)"/>
</g>
<path opacity="0.3" d="M1090 853.536L310 853.536" stroke="#6E7681" stroke-width="8"/>
<rect opacity="0.3" x="304" y="596" width="792" height="58.17" stroke="#6E7681" stroke-width="8"/>
<path opacity="0.3" d="M1100 853.536L300 853.536" stroke="#6E7681" stroke-width="8"/>
<rect opacity="0.3" x="4" y="-4" width="472" height="232" rx="20" transform="matrix(1 0 0 -1 -296.076 332)" stroke="#6E7681" stroke-width="8"/>
<path opacity="0.3" d="M-133.739 132.586C-153.052 123.555 -197.562 154.089 -211.725 190.118C-218.657 207.754 -226.648 224.39 -220.942 235.165C-204.979 265.306 -175.058 172.723 -154.038 179.026C-138.217 183.77 -160.234 245.114 -132.132 266.059C-93.6838 294.716 -66.7124 182.148 -22.3628 200.386C-10.0681 205.442 -33.7768 275.951 -8.83942 285.21C10.9948 292.574 50.24 232.252 67.9852 243.773C81.1397 252.313 37.7926 280.912 53.6951 301.505C78.2538 333.306 107.788 292.329 107.421 247.223C107.199 219.974 91.2442 199.746 71.9203 198.795C51.0261 197.766 21.5149 254.898 8.44525 238.564C-3.45701 223.688 12.9082 136.334 -28.3417 150.437C-69.5917 164.54 -79.8403 229.519 -107.945 214.547C-137.561 198.77 -108.492 144.391 -133.739 132.586Z" fill="#6E7681"/>
<path opacity="0.3" d="M1240.86 505H1176.91C1171.59 505 1167.43 509.597 1167.96 514.896L1174.46 579.896C1174.92 584.496 1178.79 588 1183.41 588H1234.36C1238.99 588 1242.86 584.496 1243.32 579.896L1249.82 514.896C1250.35 509.597 1246.19 505 1240.86 505Z" stroke="#6E7681" stroke-width="8" stroke-linejoin="round"/>
<path opacity="0.3" d="M1190.96 453.092C1190.96 453.092 1182.02 449.668 1174.38 452.132C1166.61 454.64 1159.4 461.549 1163.25 468.754C1166.72 475.229 1175.06 475.869 1182.02 473.603C1190.96 470.689 1192.45 462.16 1192.45 462.16" stroke="#6E7681" stroke-width="8" stroke-linecap="round"/>
<path opacity="0.3" d="M1220.12 449.337C1220.12 449.337 1229.76 445.686 1237.22 448.497C1244.69 451.307 1252.8 457.989 1248.88 465.068C1245.36 471.409 1237.22 472.188 1229.56 469.753C1221.9 467.319 1218.68 458.326 1218.68 458.326" stroke="#6E7681" stroke-width="8" stroke-linecap="round"/>
<path opacity="0.3" d="M1190.55 413.526C1190.55 413.526 1178.18 408.287 1167.31 413.613C1156.43 418.94 1150.11 429.12 1154.2 436.024C1158.57 443.429 1168.83 443.512 1178.51 439.513C1188.19 435.514 1192.31 424.323 1192.31 424.323" stroke="#6E7681" stroke-width="8" stroke-linecap="round"/>
<path opacity="0.3" d="M1219.36 407.214C1219.36 407.214 1230.34 403.886 1242.28 406.255C1254.23 408.624 1264.62 417.938 1260.35 426.587C1256.52 434.335 1245.04 435.078 1235 432.244C1226.38 429.812 1218.71 418.212 1218.71 418.212" stroke="#6E7681" stroke-width="8" stroke-linecap="round"/>
<path opacity="0.3" d="M1184.78 369.071C1184.78 369.071 1170.58 366.314 1157.14 374.926C1143.71 383.538 1139.08 393.295 1145.78 400.542C1151.8 407.055 1164.77 404.208 1174.29 398.375C1184.78 391.95 1188.22 379.656 1188.22 379.656" stroke="#6E7681" stroke-width="8" stroke-linecap="round"/>
<path opacity="0.3" d="M1213.54 368.202C1213.54 368.202 1221.85 363.02 1240.17 363.045C1258.48 363.07 1268.58 371.394 1265.27 381.334C1262.31 390.24 1249.02 393.101 1236.72 391.912C1226.15 390.891 1214.92 379.98 1214.92 379.98" stroke="#6E7681" stroke-width="8" stroke-linecap="round"/>
<path opacity="0.3" d="M1202.36 488.8C1210.03 445.545 1211.21 389.011 1192.13 356.31" stroke="#6E7681" stroke-width="8" stroke-linecap="round"/>
<path opacity="0.3" fill-rule="evenodd" clip-rule="evenodd" d="M524 586C524 582.686 526.686 580 530 580L870 580C873.314 580 876 582.686 876 586C876 589.314 873.314 592 870 592L530 592C526.686 592 524 589.314 524 586Z" fill="#6E7681"/>
<rect opacity="0.3" x="540" y="366" width="320" height="210" rx="12" stroke="#6E7681" stroke-width="8" stroke-linejoin="round"/>
<path opacity="0.3" d="M559 541.465L559 384.465L841 384.465L841 541.465L559 541.465Z" stroke="#6E7681" stroke-width="8" stroke-linecap="round" stroke-linejoin="round"/>
<path opacity="0.3" fill-rule="evenodd" clip-rule="evenodd" d="M239.748 521H274.067C281.247 521 287.067 526.82 287.067 534V579.402C287.067 586.582 281.247 592.402 274.067 592.402H239.748C232.568 592.402 226.748 586.582 226.748 579.402V577.715C225.787 577.906 224.794 578.006 223.773 578.006C218.172 578.006 213.407 574.971 210.178 570.667C206.95 566.364 205.072 560.603 205.072 554.41C205.072 548.217 206.95 542.456 210.178 538.153C213.407 533.849 218.172 530.813 223.773 530.813C224.903 530.813 226 530.937 227.057 531.17C228.349 525.351 233.54 521 239.748 521ZM223.773 570.006C224.766 570.006 225.769 569.796 226.748 569.371V539.449C225.769 539.024 224.766 538.813 223.773 538.813C221.254 538.813 218.67 540.165 216.578 542.953C214.485 545.743 213.072 549.781 213.072 554.41C213.072 559.039 214.485 563.077 216.578 565.866C218.67 568.655 221.254 570.006 223.773 570.006ZM234.748 579.402V573.558C234.749 573.557 234.749 573.557 234.75 573.556V535.264C234.749 535.263 234.749 535.263 234.748 535.262V534C234.748 533.953 234.749 533.907 234.75 533.86V533.267C234.75 530.505 236.989 528.267 239.75 528.267H274.069C276.83 528.267 279.069 530.505 279.069 533.267V578.669C279.069 578.716 279.068 578.762 279.067 578.809V579.402C279.067 582.164 276.829 584.402 274.067 584.402H239.748C236.987 584.402 234.748 582.164 234.748 579.402Z" fill="#6E7681"/>
<path opacity="0.3" d="M270.91 571.2C272.567 571.2 273.91 569.857 273.91 568.2C273.91 566.543 272.567 565.2 270.91 565.2C269.253 565.2 267.91 566.543 267.91 568.2C267.91 569.857 269.253 571.2 270.91 571.2Z" fill="#6E7681"/>
<path opacity="0.3" d="M247.91 542.201V571.201H252.91V560.357C252.91 559.56 253.387 558.684 254.559 557.884C255.737 557.081 257.215 556.659 258.268 556.659C259.055 556.659 259.633 556.971 260.071 557.52C260.545 558.117 260.91 559.086 260.91 560.357V571.2L265.91 571.201V560.357C265.91 558.177 265.288 556.048 263.983 554.408C262.641 552.721 260.648 551.659 258.268 551.659C256.555 551.659 254.623 552.156 252.91 553.054V542.202L247.91 542.201Z" fill="#6E7681"/>
<path opacity="0.3" d="M96.7812 588L176.781 588" stroke="#6E7681" stroke-width="8" stroke-linecap="round"/>
<circle opacity="0.3" cx="700" cy="180" r="84" stroke="#6E7681" stroke-width="8"/>
<g opacity="0.3">
<path fill-rule="evenodd" clip-rule="evenodd" d="M772.725 180C772.725 177.055 770.337 174.667 767.392 174.667C764.446 174.667 762.059 177.055 762.059 180H772.725Z" fill="#6E7681"/>
<path d="M772.725 180C772.725 182.946 770.337 185.334 767.392 185.334C764.446 185.334 762.059 182.946 762.059 180M772.725 180C772.725 177.055 770.337 174.667 767.392 174.667C764.446 174.667 762.059 177.055 762.059 180M772.725 180H762.059" stroke="#6E7681" stroke-width="2"/>
</g>
<g opacity="0.3">
<path fill-rule="evenodd" clip-rule="evenodd" d="M627.275 180C627.275 182.945 629.663 185.333 632.608 185.333C635.554 185.333 637.941 182.945 637.941 180H627.275Z" fill="#6E7681"/>
<path d="M627.275 180C627.275 177.054 629.663 174.666 632.608 174.666C635.554 174.666 637.941 177.054 637.941 180M627.275 180C627.275 182.945 629.663 185.333 632.608 185.333C635.554 185.333 637.941 182.945 637.941 180M627.275 180H637.941" stroke="#6E7681" stroke-width="2"/>
</g>
<g opacity="0.3">
<path fill-rule="evenodd" clip-rule="evenodd" d="M694.665 247.392C694.665 250.338 697.053 252.726 699.999 252.726C702.944 252.726 705.332 250.338 705.332 247.392H694.665Z" fill="#6E7681"/>
<path d="M699.999 242.059C697.053 242.059 694.665 244.447 694.665 247.392H705.332C705.332 244.447 702.944 242.059 699.999 242.059Z" fill="#6E7681"/>
<path d="M694.665 247.392C694.665 244.447 697.053 242.059 699.999 242.059C702.944 242.059 705.332 244.447 705.332 247.392M694.665 247.392C694.665 250.338 697.053 252.726 699.999 252.726C702.944 252.726 705.332 250.338 705.332 247.392M694.665 247.392H705.332" stroke="#6E7681" stroke-width="2"/>
</g>
<path opacity="0.3" d="M699.999 117.94C697.053 117.94 694.665 115.552 694.665 112.607C694.665 109.661 697.053 107.273 699.999 107.273C702.944 107.273 705.332 109.661 705.332 112.607C705.332 115.552 702.944 117.94 699.999 117.94Z" stroke="#6E7681" stroke-width="2"/>
<path opacity="0.3" fill-rule="evenodd" clip-rule="evenodd" d="M772.727 181H704.15C703.728 182.76 702.214 184.095 700.364 184.251L683.981 222.735L680.301 221.169L696.684 182.684C696.09 181.951 695.735 181.017 695.735 180C695.735 178.172 696.884 176.612 698.5 176.005L698.5 117.94H701.5L701.5 176.004C702.813 176.496 703.818 177.617 704.15 179H772.727V181Z" fill="#6E7681"/>
<path opacity="0.3" d="M928.578 585.091L926.378 574.631C926.212 573.842 926.297 573.224 926.485 572.808C930.059 564.904 937.57 561 948.25 561C958.93 561 966.441 564.904 970.015 572.808C970.203 573.224 970.288 573.841 970.122 574.631L967.922 585.091C967.533 586.943 965.9 588.268 964.008 588.268H932.492C930.601 588.268 928.967 586.943 928.578 585.091Z" stroke="#6E7681" stroke-width="8" stroke-linejoin="round"/>
<rect opacity="0.3" x="354" y="496" width="92" height="92" rx="8" stroke="#6E7681" stroke-width="8"/>
<path opacity="0.3" d="M386.678 531.314H390.698L390.698 569.314H386.971L386.971 537.5V536.293L386.118 537.146L376.328 546.936V541.665L386.678 531.314Z" fill="#6E7681" stroke="#6E7681"/>
<path opacity="0.3" d="M398.789 549.724C398.789 542.9 400.37 538.297 402.684 535.411C404.991 532.535 408.063 531.314 411.17 531.314C414.279 531.314 417.382 532.535 419.717 535.413C422.061 538.3 423.67 542.902 423.67 549.724C423.67 557.146 422.057 562.045 419.71 565.077C417.375 568.096 414.276 569.314 411.17 569.314C408.065 569.314 404.998 568.096 402.692 565.08C400.374 562.047 398.789 557.148 398.789 549.724ZM411.17 534.451C409.116 534.451 406.929 535.483 405.275 537.922C403.629 540.348 402.516 544.152 402.516 549.724C402.516 556.456 403.621 560.565 405.275 563.003C406.955 565.479 409.164 566.178 411.17 566.178C413.175 566.178 415.412 565.481 417.123 563.006C418.808 560.569 419.943 556.458 419.943 549.724C419.943 544.15 418.8 540.345 417.123 537.918C415.438 535.481 413.222 534.451 411.17 534.451Z" fill="#6E7681" stroke="#6E7681"/>
<path opacity="0.3" fill-rule="evenodd" clip-rule="evenodd" d="M379.746 511.667C378.569 511.667 377.815 512.567 377.815 513.417C377.815 513.791 378.017 514.105 378.459 514.418C378.911 514.738 379.496 514.97 380.063 515.196L380.074 515.2V515.2C380.083 515.204 380.093 515.208 380.102 515.211C380.637 515.424 381.378 515.718 381.985 516.149C382.609 516.592 383.211 517.266 383.211 518.25C383.211 519.856 381.841 521.333 379.947 521.333C378.374 521.333 377.111 520.344 376.469 519.435L377.558 518.665C378.034 519.34 378.935 520 379.947 520C381.124 520 381.878 519.101 381.878 518.25C381.878 517.885 381.672 517.562 381.213 517.237C380.748 516.907 380.147 516.664 379.581 516.439C379.559 516.43 379.537 516.421 379.514 516.412C378.987 516.203 378.274 515.92 377.689 515.507C377.068 515.067 376.482 514.4 376.482 513.417C376.482 511.811 377.852 510.334 379.746 510.334C381.318 510.334 382.581 511.321 383.224 512.231L382.135 513C381.659 512.326 380.758 511.667 379.746 511.667Z" fill="#6E7681"/>
<path opacity="0.3" d="M416.039 513.335L419.118 521.791L417.949 525H419.283L423.529 513.335H422.196L419.784 519.96L417.372 513.335H416.039Z" fill="#6E7681"/>
<path opacity="0.3" d="M391.356 513.335V521.334H390.022V520.32C389.831 520.976 388.783 521.668 388.039 521.668C386.207 521.668 384.723 519.97 384.723 518.08V513.335H386.056V518.08C386.056 519.273 386.983 520.335 388.039 520.335C389.096 520.335 390.022 519.441 390.022 518.248V513.335H391.356Z" fill="#6E7681"/>
<path opacity="0.3" d="M392.855 521.334V513.334H394.189V514.349C394.38 513.692 395.095 513.001 396.172 513.001C398.337 513.001 399.488 514.699 399.488 516.589V521.334H398.155V516.589C398.155 515.396 397.228 514.251 396.172 514.251C395.115 514.251 394.189 515.228 394.189 516.421V521.334H392.855Z" fill="#6E7681"/>
<path opacity="0.3" fill-rule="evenodd" clip-rule="evenodd" d="M406.288 520.655C405.735 521.081 405.048 521.334 404.305 521.334C402.473 521.334 400.988 519.802 400.988 517.913L400.988 516.089C400.988 514.199 402.473 512.668 404.305 512.668C405.048 512.668 405.735 512.92 406.288 513.346V510H407.621V521.333H406.288V520.655ZM404.305 514.001C405.361 514.001 406.288 514.896 406.288 516.089V517.913C406.288 519.105 405.361 520.001 404.305 520.001C403.248 520.001 402.322 519.105 402.322 517.913L402.322 516.089C402.322 514.896 403.248 514.001 404.305 514.001Z" fill="#6E7681"/>
<path opacity="0.3" fill-rule="evenodd" clip-rule="evenodd" d="M412.329 514.668C411.328 514.668 410.638 515.194 410.385 515.704L409.191 515.111C409.688 514.109 410.866 513.335 412.329 513.335C413.993 513.335 415.537 514.497 415.537 516.154V521.334L414.204 521.334V520.589C413.57 521.064 412.787 521.334 412.051 521.334C411.345 521.334 410.635 521.197 410.08 520.834C409.491 520.449 409.121 519.836 409.121 519.039C409.121 518.285 409.414 517.687 409.902 517.254C410.367 516.843 410.97 516.614 411.565 516.483C412.15 516.353 412.675 516.3 413.193 516.263C413.346 516.251 413.496 516.242 413.645 516.232C413.829 516.22 414.014 516.208 414.204 516.193V516.154C414.204 515.433 413.473 514.668 412.329 514.668ZM414.204 517.53C414.031 517.543 413.865 517.554 413.705 517.564C413.561 517.574 413.423 517.583 413.29 517.592C412.798 517.628 412.346 517.676 411.853 517.784C411.37 517.891 411.013 518.052 410.786 518.253C410.583 518.432 410.454 518.668 410.454 519.039C410.454 519.37 410.583 519.57 410.809 519.718C411.069 519.888 411.491 520.001 412.051 520.001C412.517 520.001 413.073 519.805 413.507 519.441C413.932 519.085 414.204 518.603 414.204 518.03V517.53Z" fill="#6E7681"/>
<path opacity="0.3" d="M375 489V503" stroke="#6E7681" stroke-width="4" stroke-linecap="round" stroke-linejoin="round"/>
<path opacity="0.3" d="M385 489V503" stroke="#6E7681" stroke-width="4" stroke-linecap="round" stroke-linejoin="round"/>
<path opacity="0.3" d="M395 489V503" stroke="#6E7681" stroke-width="4" stroke-linecap="round" stroke-linejoin="round"/>
<path opacity="0.3" d="M405 489V503" stroke="#6E7681" stroke-width="4" stroke-linecap="round" stroke-linejoin="round"/>
<path opacity="0.3" d="M415 489V503" stroke="#6E7681" stroke-width="4" stroke-linecap="round" stroke-linejoin="round"/>
<path opacity="0.3" d="M425 489V503" stroke="#6E7681" stroke-width="4" stroke-linecap="round" stroke-linejoin="round"/>
<path opacity="0.6" d="M345.511 142.965C343.635 141.09 341.092 140.036 338.44 140.036L261.56 140.036C258.908 140.036 256.364 141.09 254.489 142.965L-615.447 1012.9C-621.746 1019.2 -617.284 1029.97 -608.375 1029.97H1208.37C1217.28 1029.97 1221.74 1019.2 1215.45 1012.9L345.511 142.965Z" fill="url(#paint0_radial_1411_1820)"/>
<path opacity="0.3" fill-rule="evenodd" clip-rule="evenodd" d="M304.001 -400C304.001 -402.209 302.21 -404 300.001 -404C297.792 -404 296.001 -402.209 296.001 -400V97.6128C273.591 99.3866 255.34 115.936 250.988 137.519C249.897 142.933 254.478 147.455 260.001 147.455H340.001C345.524 147.455 350.105 142.933 349.014 137.519C344.662 115.936 326.411 99.3866 304.001 97.6128V-400ZM300.001 105.455C320.308 105.455 337.265 119.875 341.159 139.038C341.003 139.204 340.601 139.455 340.001 139.455H260.001C259.401 139.455 258.999 139.204 258.843 139.038C262.737 119.875 279.694 105.455 300.001 105.455Z" fill="#6E7681"/>
<circle opacity="0.3" cx="1095" cy="554.5" r="25" stroke="#6E7681" stroke-width="8"/>
<path opacity="0.3" fill-rule="evenodd" clip-rule="evenodd" d="M1031 513C1028.79 513 1027 514.791 1027 517H1017C1010.37 517 1005 522.373 1005 529V580C1005 586.213 1009.72 591.324 1015.77 591.938C1016.18 591.979 1016.59 592 1017 592H1031H1129C1135.63 592 1141 586.627 1141 580V529C1141 522.373 1135.63 517 1129 517H1035C1035 514.791 1033.21 513 1031 513ZM1129 525H1042.32C1042.76 526.251 1043 527.597 1043 529V580C1043 581.403 1042.76 582.749 1042.32 584H1129C1131.21 584 1133 582.209 1133 580V529C1133 526.791 1131.21 525 1129 525ZM1017 525H1031C1033.21 525 1035 526.791 1035 529V580C1035 582.209 1033.21 584 1031 584H1017C1016.86 584 1016.73 583.993 1016.59 583.979C1014.57 583.775 1013 582.071 1013 580V529C1013 526.791 1014.79 525 1017 525Z" fill="#6E7681"/>
<circle opacity="0.3" cx="1095" cy="554.5" r="3.5" stroke="#6E7681" stroke-width="3"/>
<path fill-rule="evenodd" clip-rule="evenodd" d="M496.071 457.532C453.159 457.532 428.391 424.7 428.391 379.196C428.391 332.828 456.327 304.892 496.359 304.892C516.807 304.892 534.951 313.82 543.015 327.068L545.319 309.5H587.079V522.62H542.727V439.1C534.375 450.044 515.943 457.532 496.071 457.532ZM473.031 381.5C473.031 360.188 486.279 345.5 507.303 345.5C528.039 345.5 542.439 359.9 542.439 381.5C542.439 403.1 528.039 417.5 507.303 417.5C486.279 417.5 473.031 402.812 473.031 381.5Z" fill="white"/>
<path d="M944.412 309.499C938.364 308.059 932.604 307.483 927.42 307.483C908.124 307.483 895.452 316.987 889.404 331.099L887.1 309.787H845.34V453.499H889.692V391.003C889.692 362.491 904.956 351.259 930.3 351.259H944.412V309.499Z" fill="white"/>
<path fill-rule="evenodd" clip-rule="evenodd" d="M485.487 770.5H443.727V553.348H488.079V643.204C496.719 630.244 515.727 621.604 536.463 621.604C576.783 621.604 602.415 652.996 602.415 699.94C602.415 744.58 573.903 774.244 533.007 774.244C514.902 774.244 499.119 767.043 490.458 755.979L485.487 770.5ZM500.703 726.054C506.661 730.911 514.483 733.636 523.503 733.636C544.527 733.636 557.775 718.948 557.775 697.636C557.775 676.324 544.527 661.636 523.503 661.636C523.252 661.636 523.003 661.638 522.755 661.642C502.421 661.984 488.367 676.296 488.367 697.636C488.367 709.84 492.964 719.745 500.703 726.054Z" fill="white"/>
<path d="M990.408 578.692C990.408 592.804 979.176 604.036 965.352 604.036C951.24 604.036 940.008 592.804 940.008 578.692C940.008 564.58 951.24 553.636 965.352 553.636C979.176 553.636 990.408 564.58 990.408 578.692Z" fill="white"/>
<path d="M943.464 770.5H987.816V626.5H943.464V770.5Z" fill="white"/>
<path d="M653.583 662.349C653.567 660.204 653.551 658.244 653.625 656.522C653.627 656.463 653.63 656.405 653.633 656.347H752.913C752.916 656.405 752.918 656.463 752.921 656.522C752.994 658.244 752.979 660.203 752.962 662.349C752.869 674.181 752.732 691.68 767.218 706.345C782.014 721.324 812.066 733.344 873.006 733.344C873.753 733.344 874.581 733.332 875.483 733.32C893.986 733.062 943.13 732.378 943.13 822.257V822.264C943.13 868.005 943.13 1124.58 956 1229.37H868.538C868.508 1228.7 868.478 1228.02 868.447 1227.34H538.1C538.068 1228.02 538.038 1228.7 538.008 1229.37H444C458.017 1124.57 463.416 867.981 463.416 822.257C463.416 732.378 512.56 733.062 531.063 733.32C531.965 733.332 532.793 733.344 533.54 733.344C594.48 733.344 624.533 721.323 639.329 706.344C653.813 691.68 653.676 674.181 653.583 662.349Z" fill="#E7C273"/>
<path d="M653.485 671.166C655.321 674.639 657.348 677.879 659.582 680.882C690.868 722.924 733.23 734.898 779.511 734.344C794.481 734.165 809.041 732.906 822.949 729.863C794.188 725.24 777.22 716.468 767.22 706.345C752.735 691.68 752.872 674.181 752.965 662.349C752.982 660.203 752.997 658.244 752.923 656.522C752.921 656.463 752.918 656.405 752.915 656.347H653.635C653.633 656.405 653.63 656.463 653.627 656.522C653.554 658.244 653.569 660.204 653.586 662.349C653.607 665.03 653.63 668.002 653.485 671.166Z" fill="black" fill-opacity="0.6"/>
<path d="M461.543 923.206C478.571 940.049 501.986 950.45 527.829 950.45C579.889 950.45 622.091 908.247 622.091 856.188C622.091 804.128 579.889 761.926 527.829 761.926C504.765 761.926 483.636 770.209 467.254 783.963C464.825 794.428 463.418 807.046 463.418 822.257C463.418 837.328 462.831 875.306 461.543 923.206Z" fill="black" fill-opacity="0.6"/>
<path d="M883.746 761.904C903.969 761.904 922.705 768.273 938.057 779.113C941.24 790.464 943.133 804.616 943.133 822.257V822.267C943.133 837.942 943.133 878.364 943.65 928.949C927.364 942.369 906.497 950.428 883.746 950.428C883.167 950.428 882.588 950.423 882.011 950.413C885.169 1023.66 890.796 1130.9 899.777 1229.37H868.54C868.511 1228.7 868.48 1228.02 868.449 1227.34H819.999L799.938 899.354C793.257 886.415 789.484 871.731 789.484 856.166C789.484 804.107 831.687 761.904 883.746 761.904Z" fill="black" fill-opacity="0.6"/>
<path d="M538.1 1227.34H868.446C867.456 1205.7 865.751 1179.47 863.853 1150.29L863.851 1150.26C859.472 1082.92 854.071 999.863 854.071 921.176H948.593C944.943 873.466 943.13 835.915 943.13 822.257C943.13 732.378 893.986 733.062 875.483 733.319C874.581 733.332 873.752 733.343 873.005 733.343C848.08 733.343 828.322 731.332 812.662 727.931C805.646 733.002 799.368 739.539 792.746 746.433C773.946 766.008 752.375 788.469 703.273 788.468C654.171 788.469 632.6 766.009 613.799 746.433C607.178 739.539 600.9 733.002 593.884 727.931C578.224 731.332 558.466 733.343 533.54 733.343C532.794 733.343 531.965 733.332 531.063 733.319C512.56 733.062 463.416 732.378 463.416 822.257C463.416 835.915 461.602 873.466 457.953 921.176H552.475C552.475 999.864 547.074 1082.92 542.695 1150.26C540.796 1179.46 539.09 1205.7 538.1 1227.34Z" fill="#02DA9A"/>
<path fill-rule="evenodd" clip-rule="evenodd" d="M593.454 725.95C594.017 725.827 594.605 725.95 595.072 726.288C602.236 731.466 608.62 738.113 615.188 744.952L615.262 745.029C624.679 754.834 634.591 765.139 648.191 773.039C661.745 780.911 679.059 786.441 703.273 786.441C727.487 786.441 744.801 780.911 758.355 773.039C771.955 765.139 781.867 754.834 791.284 745.029L791.358 744.952C797.926 738.113 804.31 731.466 811.474 726.288C811.941 725.95 812.529 725.827 813.092 725.95C828.575 729.313 848.183 731.316 873.006 731.316C873.735 731.316 874.648 731.303 875.553 731.291C884.811 731.162 902.313 730.918 917.467 742.369C932.771 753.934 945.157 776.979 945.157 822.257C945.157 835.831 946.965 873.314 950.614 921.021C950.657 921.584 950.464 922.14 950.08 922.554C949.696 922.968 949.157 923.203 948.593 923.203H856.1C856.191 1001.21 861.532 1083.36 865.874 1150.13L865.878 1150.18C867.774 1179.35 869.481 1205.59 870.472 1227.25C870.497 1227.8 870.295 1228.34 869.912 1228.74C869.53 1229.14 869 1229.37 868.446 1229.37H538.1C537.546 1229.37 537.016 1229.14 536.634 1228.74C536.251 1228.34 536.049 1227.8 536.074 1227.25C537.066 1205.58 538.773 1179.33 540.671 1150.14L540.672 1150.13C545.014 1083.36 550.355 1001.21 550.446 923.203H457.953C457.389 923.203 456.85 922.968 456.466 922.554C456.082 922.14 455.889 921.584 455.932 921.021C459.581 873.314 461.389 835.831 461.389 822.257C461.389 776.979 473.775 753.934 489.079 742.369C504.233 730.918 521.832 731.163 531.09 731.292C531.995 731.305 532.811 731.316 533.54 731.316C558.363 731.316 577.971 729.313 593.454 725.95ZM531.045 735.347C521.773 735.218 505.513 735.034 491.523 745.605C477.629 756.103 465.444 777.655 465.444 822.257C465.444 835.789 463.68 872.473 460.141 919.148H550.447V827.99C550.447 826.87 551.355 825.962 552.475 825.962C553.595 825.962 554.502 826.87 554.502 827.99V921.176C554.502 999.93 549.098 1083.04 544.72 1150.36L544.718 1150.39C542.881 1178.65 541.225 1204.11 540.224 1225.32H866.322C865.321 1204.12 863.666 1178.67 861.83 1150.42L861.828 1150.39L861.826 1150.37C857.449 1083.05 852.044 999.934 852.044 921.176V827.99C852.044 826.87 852.951 825.962 854.071 825.962C855.191 825.962 856.099 826.87 856.099 827.99V919.148H946.405C942.866 872.473 941.102 835.789 941.102 822.257C941.102 777.655 928.917 756.103 915.023 745.605C901.033 735.034 884.78 735.218 875.508 735.347C874.614 735.359 873.767 735.371 873.006 735.371C848.447 735.371 828.817 733.427 813.126 730.104C806.573 734.972 800.623 741.159 794.209 747.838L794.143 747.906C784.777 757.658 774.518 768.34 760.391 776.545C746.184 784.797 728.161 790.496 703.273 790.496C678.385 790.496 660.362 784.797 646.155 776.545C632.028 768.34 621.769 757.658 612.403 747.906L612.337 747.838C605.923 741.16 599.973 734.972 593.42 730.104C577.729 733.427 558.099 735.371 533.54 735.371C532.78 735.371 531.939 735.359 531.045 735.347Z" fill="black"/>
<path d="M871.092 465.783C881.435 469.144 883.295 497.66 878.437 519.509C874.568 536.907 869.173 558.64 856.612 559.901C849.033 560.663 829.573 552.385 826.745 547.062C812.448 520.149 819.633 496.204 843.425 477.16C850.092 471.824 859.982 462.172 871.092 465.783Z" fill="#D0B170"/>
<path d="M871.09 465.783C869.133 465.147 867.214 464.923 865.344 465.013C846.684 498.242 845.53 520.064 845.398 557.857C849.78 559.313 853.935 560.17 856.61 559.901C869.17 558.64 874.566 536.907 878.434 519.509C883.293 497.66 881.432 469.144 871.09 465.783Z" fill="black" fill-opacity="0.6"/>
<path fill-rule="evenodd" clip-rule="evenodd" d="M862.525 478.396C861.542 477.86 860.31 478.222 859.774 479.205C855.231 487.535 852.832 493.426 851.399 499.483C850.085 505.034 849.599 510.672 848.943 518.286C848.89 518.901 848.836 519.529 848.781 520.171C848.684 521.287 849.51 522.27 850.625 522.367C851.741 522.463 852.724 521.638 852.82 520.522C852.873 519.914 852.924 519.32 852.975 518.74C853.642 511.006 854.102 505.665 855.345 500.417C856.667 494.831 858.893 489.289 863.334 481.147C863.87 480.164 863.508 478.933 862.525 478.396Z" fill="black"/>
<path d="M535.46 465.783C525.118 469.144 523.257 497.66 528.115 519.509C531.984 536.907 537.38 558.64 549.94 559.901C557.519 560.663 576.979 552.385 579.807 547.062C594.105 520.149 586.919 496.204 563.127 477.16C556.46 471.824 546.571 462.172 535.46 465.783Z" fill="#D0B170"/>
<path fill-rule="evenodd" clip-rule="evenodd" d="M544.026 478.391C545.009 477.854 546.24 478.217 546.777 479.2C551.32 487.529 553.719 493.421 555.152 499.477C556.466 505.028 556.951 510.666 557.607 518.28C557.66 518.895 557.714 519.524 557.77 520.166C557.867 521.281 557.041 522.264 555.926 522.361C554.81 522.458 553.827 521.632 553.73 520.516C553.678 519.908 553.626 519.314 553.576 518.734C552.909 511 552.448 505.66 551.206 500.411C549.884 494.825 547.657 489.283 543.217 481.141C542.681 480.158 543.043 478.927 544.026 478.391Z" fill="black"/>
<path d="M584.171 619.441C566.728 596.001 562.083 557.949 561.965 507.01C561.81 439.677 563.59 413.803 586.781 382.185C602.872 360.248 642.346 339.471 702.877 340.01C763.407 339.471 802.882 360.248 818.972 382.185C842.164 413.803 843.943 439.677 843.788 507.01C843.671 557.949 839.026 596.001 821.582 619.441C790.615 661.054 748.685 671.809 702.877 672.358C657.069 672.906 615.138 661.054 584.171 619.441Z" fill="#E7C273"/>
<path d="M702.924 676.413C705.827 676.378 708.718 676.302 711.596 676.181C754.759 674.362 794.807 662.211 824.834 621.862C825.988 620.31 827.088 618.701 828.134 617.037C835.458 605.386 840.184 591.001 843.173 574.25C843.6 571.856 843.992 569.409 844.352 566.91C846.871 549.418 847.79 529.381 847.841 507.019C847.846 504.918 847.849 502.857 847.85 500.832C847.857 476.87 847.526 458.194 845.814 442.49C843.265 419.115 837.66 402.325 825.564 384.493C808.029 360.302 774.887 338.945 711.299 340.074C767.077 341.433 803.639 361.283 818.971 382.185C842.162 413.803 843.942 439.677 843.786 507.01C843.669 557.949 839.024 596.001 821.58 619.441C790.613 661.054 748.683 671.809 702.875 672.358L702.924 676.413Z" fill="black"/>
<ellipse cx="655.465" cy="512.622" rx="10.4102" ry="16.925" fill="#4D2C19"/>
<ellipse cx="751.082" cy="512.622" rx="10.4102" ry="16.925" fill="#4D2C19"/>
<path d="M776.562 480.282C778.568 482.544 778.738 486.613 775.886 489.054C768.034 495.774 764.981 481.776 753.289 481.98C746.533 482.097 742.192 488.211 738.284 481.98C732.793 473.222 745.539 468.984 753.815 468.983C763.514 468.983 773.237 476.533 776.562 480.282Z" fill="#3A2113"/>
<path d="M629.985 480.282C627.979 482.544 627.809 486.613 630.661 489.054C638.513 495.774 641.566 481.776 653.258 481.98C660.014 482.097 664.355 488.211 668.263 481.98C673.754 473.222 661.008 468.984 652.731 468.983C643.032 468.983 633.31 476.533 629.985 480.282Z" fill="#3A2113"/>
<path fill-rule="evenodd" clip-rule="evenodd" d="M691.576 527.993C692.45 528.694 692.591 529.97 691.89 530.843C689.604 533.696 688.106 538.075 688.106 544.441C688.106 549.157 690.063 552.204 692.811 554.115C695.651 556.09 699.485 556.942 703.209 556.819C704.328 556.783 705.265 557.66 705.302 558.779C705.339 559.898 704.461 560.835 703.342 560.872C699.004 561.015 694.24 560.047 690.496 557.445C686.662 554.778 684.051 550.49 684.051 544.441C684.051 537.474 685.691 532.095 688.726 528.307C689.426 527.434 690.702 527.293 691.576 527.993Z" fill="black"/>
<path fill-rule="evenodd" clip-rule="evenodd" d="M647.392 592.303C647.729 591.235 648.869 590.643 649.936 590.981C688.012 603.02 717.43 603.02 755.506 590.981C756.573 590.643 757.713 591.235 758.05 592.303C758.388 593.37 757.796 594.509 756.728 594.847C717.857 607.138 687.585 607.138 648.714 594.847C647.646 594.509 647.054 593.37 647.392 592.303Z" fill="black"/>
<path d="M586.783 382.185C602.874 360.248 642.348 339.471 702.879 340.01C763.409 339.471 802.884 360.248 818.975 382.185C832.795 401.028 839.012 417.83 841.746 442.583C841.746 442.583 757.11 443.935 702.879 443.935C648.648 443.935 564.012 442.583 564.012 442.583C566.746 417.83 572.962 401.028 586.783 382.185Z" fill="black"/>
<path d="M735.376 470.359C732.211 473.583 726.345 473.969 722.072 470.337C710.874 460.818 726.53 454.381 724.224 438.553C722.558 427.114 716.54 420.7 724.547 415.846C737.752 407.839 744.19 423.629 744.972 437.995C745.834 453.811 740.62 465.016 735.376 470.359Z" fill="black"/>
<path d="M703.342 471.13C699.503 473.512 693.875 474.402 690.423 469.982C681.125 458.079 698.537 453.511 700.05 439.615C701.301 428.123 696.902 420.705 705.748 417.632C719.122 412.985 723.232 429.972 720 443.993C716.411 459.561 709.703 467.183 703.342 471.13Z" fill="black"/>
<path d="M669.642 467.097C664.688 469.582 658.27 466.368 656.26 462.614C649.896 450.724 667.107 447.376 674.599 435.459C680.751 425.672 678.31 417.033 689.019 417.398C703.17 417.88 700.122 435.266 691.999 447.142C682.978 460.329 675.019 464.399 669.642 467.097Z" fill="black"/>
<path fill-rule="evenodd" clip-rule="evenodd" d="M209.289 453.652H160.617L236.649 240.532H282.153L357.897 453.652H308.361L293.385 408.724H224.65L209.289 453.652ZM238.089 369.556H280.137L264.873 324.052C262.962 318.079 260.852 311.312 259.695 306.22C259.458 305.174 259.26 304.199 259.113 303.316C258.249 308.212 255.945 316.276 253.353 324.052L238.089 369.556Z" fill="white"/>
<path d="M707.36 265.864V340.744C707.36 364.36 699.584 374.152 680.576 374.152C662.432 374.152 654.368 363.784 654.368 340.168V265.864H610.016V356.296C610.016 391.72 630.176 413.608 663.008 413.608C680.288 413.608 698.144 405.544 707.072 393.736L709.952 409.864H751.712V265.864H707.36Z" fill="#02DA9A" stroke="black" stroke-width="3"/>
<path d="M798.242 243.4C812.066 243.4 823.298 232.168 823.298 218.056C823.298 203.944 812.066 193 798.242 193C784.13 193 772.898 203.944 772.898 218.056C772.898 232.168 784.13 243.4 798.242 243.4ZM798.242 243.4C812.066 243.4 823.298 232.168 823.298 218.056C823.298 203.944 812.066 193 798.242 193C784.13 193 772.898 203.944 772.898 218.056C772.898 232.168 784.13 243.4 798.242 243.4Z" fill="#02DA9A"/>
<path d="M798.242 243.4C812.066 243.4 823.298 232.168 823.298 218.056C823.298 203.944 812.066 193 798.242 193C784.13 193 772.898 203.944 772.898 218.056C772.898 232.168 784.13 243.4 798.242 243.4Z" stroke="black" stroke-width="3"/>
<path d="M820.707 409.864H776.355V265.864H820.707V409.864Z" fill="#02DA9A" stroke="black" stroke-width="3"/>
<path d="M1002.56 453.652V417.652L1019.55 399.796L1051.8 453.652H1103.07L1050.65 366.676L1104.8 309.652H1049.21L1002.56 361.492V236.5H958.203V453.652H1002.56Z" fill="white"/>
<path d="M1102.85 522.772C1111.49 525.364 1121.57 526.804 1132.23 526.804C1157.57 526.804 1173.7 514.42 1185.8 485.044L1258.95 309.652H1212.87L1178.02 402.1L1146.63 309.652H1099.11L1157 458.548L1154.41 465.46C1148.65 481.012 1142.31 485.62 1127.33 485.62H1102.85V522.772Z" fill="white"/>
<path d="M154.079 770.652V691.74C154.079 673.884 165.311 662.364 182.879 662.364C198.143 662.364 208.223 674.172 208.223 692.316V770.652H252.575V681.66C252.575 643.932 232.703 622.044 198.431 622.044C179.711 622.044 163.295 629.244 154.367 641.628V553.5H109.727V770.652H154.079Z" fill="white"/>
<path fill-rule="evenodd" clip-rule="evenodd" d="M347.455 774.108C301.375 774.108 267.967 743.868 267.967 698.364C267.967 652.86 301.375 622.332 347.455 622.332C393.247 622.332 426.655 652.86 426.655 698.364C426.655 743.868 393.247 774.108 347.455 774.108ZM312.607 698.076C312.607 676.476 326.719 662.076 347.455 662.076C367.903 662.076 382.015 676.476 382.015 698.076C382.015 719.964 367.903 734.364 347.455 734.364C326.719 734.364 312.607 719.964 312.607 698.076Z" fill="white"/>
<path fill-rule="evenodd" clip-rule="evenodd" d="M661.065 770.652H619.305V553.5H663.657V643.356C672.297 630.396 691.305 621.756 712.041 621.756C752.361 621.756 777.993 653.148 777.993 700.092C777.993 744.732 749.481 774.396 708.585 774.396C690.48 774.396 674.697 767.195 666.036 756.132L661.065 770.652ZM676.281 726.206C682.24 731.063 690.061 733.788 699.081 733.788C720.105 733.788 733.353 719.1 733.353 697.788C733.353 676.476 720.105 661.788 699.081 661.788C698.831 661.788 698.581 661.79 698.333 661.794C677.999 662.136 663.945 676.448 663.945 697.788C663.945 709.992 668.542 719.898 676.281 726.206Z" fill="white"/>
<path d="M777.74 839.772C786.38 842.364 796.46 843.804 807.116 843.804C832.46 843.804 848.588 831.42 860.684 802.044L933.836 626.652H887.756L852.908 719.1L821.516 626.652H773.996L831.884 775.548L829.292 782.46C823.532 798.012 817.196 802.62 802.22 802.62H777.74V839.772Z" fill="white"/>
<path d="M1002.08 725.148C1002.08 754.236 1025.99 774.396 1064 774.396C1101.44 774.396 1127.65 755.676 1127.65 724.86C1127.65 701.82 1114.69 690.876 1091.07 685.692L1064.29 679.932C1054.21 677.628 1048.74 673.884 1048.74 667.26C1048.74 659.484 1055.07 654.3 1065.15 654.3C1075.81 654.3 1081.86 660.924 1081.86 670.716H1123.91C1123.91 641.628 1100.58 622.044 1067.17 622.044C1032.61 622.044 1006.98 639.324 1006.98 669.276C1006.98 694.62 1019.94 706.14 1046.43 711.9L1072.93 717.66C1083.59 719.964 1085.89 724.572 1085.89 728.892C1085.89 736.38 1079.55 741.276 1065.73 741.276C1052.19 741.276 1044.71 735.228 1044.13 725.148H1002.08Z" fill="white"/>
<path d="M1227.14 732.06C1221.96 733.788 1216.78 734.652 1212.46 734.652C1202.09 734.652 1194.89 729.18 1194.89 711.036V663.516H1226.86V626.652H1194.89V582.012H1150.54V626.652H1128.65V663.516H1150.54V720.252C1150.54 760.572 1171.27 774.108 1200.94 774.108C1213.03 774.108 1223.98 771.804 1232.33 767.772L1227.14 732.06Z" fill="white"/>
<path d="M1272.63 774.396C1286.74 774.396 1299.13 762.588 1299.13 748.476C1299.13 734.076 1286.74 722.268 1272.63 722.268C1257.94 722.268 1246.14 734.076 1246.14 748.476C1246.14 762.588 1257.94 774.396 1272.63 774.396Z" fill="white"/>
</g>
<defs>
<radialGradient id="paint0_radial_1411_1820" cx="0" cy="0" r="1" gradientUnits="userSpaceOnUse" gradientTransform="translate(299.999 97.454) rotate(90) scale(533.214 1066.43)">
<stop stop-color="white" stop-opacity="0.6"/>
<stop offset="1" stop-color="white" stop-opacity="0"/>
</radialGradient>
<clipPath id="clip0_1411_1820">
<rect width="1400" height="1200" rx="64" fill="white"/>
</clipPath>
</defs>
</svg>
