<svg width="540" height="540" viewBox="0 0 540 540" fill="none" xmlns="http://www.w3.org/2000/svg">
<mask id="mask0_2226_61" style="mask-type:alpha" maskUnits="userSpaceOnUse" x="14" y="41" width="512" height="458">
<rect x="14" y="41" width="512" height="457.102" fill="white"/>
</mask>
<g mask="url(#mask0_2226_61)">
<path d="M361.003 237.222C362.697 237.202 364.384 237.158 366.062 237.087C391.241 236.025 414.602 228.938 432.117 205.401C432.791 204.495 433.432 203.557 434.043 202.586C438.315 195.79 441.072 187.399 442.815 177.627C443.064 176.23 443.293 174.803 443.503 173.346C444.972 163.142 445.508 151.453 445.538 138.409C445.541 137.184 445.543 135.981 445.543 134.8C445.548 120.822 445.354 109.928 444.356 100.767C442.869 87.1319 439.599 77.3381 432.543 66.9358C422.315 52.8248 402.982 40.3661 365.889 41.025C398.426 41.8178 419.754 53.3969 428.697 65.5899C442.226 84.0333 443.264 99.1266 443.173 138.404C443.105 168.119 440.395 190.315 430.22 203.989C412.156 228.263 387.696 234.537 360.975 234.857L361.003 237.222Z" fill="black"/>
<path fill-rule="evenodd" clip-rule="evenodd" d="M336.898 228.47L336.898 228.471C336.952 235.373 337.032 245.581 328.583 254.135C319.952 262.873 302.421 269.885 266.873 269.885C266.437 269.885 265.954 269.878 265.428 269.871C254.635 269.721 225.967 269.321 225.967 321.751C225.967 348.423 222.818 498.102 214.641 559.234H269.479C269.497 558.842 269.514 558.448 269.532 558.051H462.235C461.657 545.428 460.662 530.127 459.555 513.102L459.555 513.094L459.554 513.085L459.554 513.084C457 473.805 453.849 425.355 453.849 379.454V353.874V269.639C425.613 268.328 410.87 261.916 403.185 254.135C394.735 245.581 394.815 235.373 394.869 228.471C394.879 227.219 394.888 226.076 394.845 225.072L394.84 224.97H336.927L336.922 225.072C336.879 226.076 336.888 227.219 336.898 228.47Z" fill="#E7C273"/>
<path d="M336.839 233.614C337.91 235.64 339.092 237.53 340.396 239.282C358.646 263.806 383.357 270.791 410.354 270.468C419.086 270.364 427.58 269.63 435.693 267.854C418.915 265.157 409.018 260.04 403.184 254.135C394.735 245.581 394.815 235.373 394.869 228.471C394.879 227.219 394.888 226.076 394.845 225.072C394.843 225.038 394.842 225.004 394.84 224.97H336.927C336.925 225.004 336.923 225.038 336.922 225.072C336.879 226.077 336.888 227.22 336.898 228.471C336.91 230.035 336.924 231.769 336.839 233.614Z" fill="black" fill-opacity="0.6"/>
<path d="M224.874 380.638C234.807 390.463 248.465 396.53 263.541 396.53C293.909 396.53 318.527 371.912 318.527 341.544C318.527 311.176 293.909 286.558 263.541 286.558C250.087 286.558 237.761 291.39 228.205 299.413C226.788 305.517 225.967 312.877 225.967 321.751C225.967 330.542 225.625 352.696 224.874 380.638Z" fill="black"/>
<path fill-rule="evenodd" clip-rule="evenodd" d="M301.822 265.572C302.151 265.501 302.494 265.572 302.766 265.769C306.945 268.79 310.669 272.668 314.501 276.657L314.544 276.702C320.037 282.421 325.819 288.432 333.753 293.04C341.659 297.633 351.759 300.859 365.883 300.859C380.008 300.859 390.108 297.633 398.014 293.04C405.948 288.432 411.73 282.421 417.223 276.702L417.266 276.657C421.098 272.667 424.822 268.79 429.001 265.769C429.273 265.572 429.616 265.501 429.945 265.572C438.977 267.534 450.414 268.702 464.894 268.702C465.32 268.702 465.853 268.695 466.38 268.688C471.781 268.612 481.99 268.47 490.83 275.15C499.757 281.896 506.983 295.339 506.983 321.751C506.983 329.669 508.037 351.534 510.166 379.364C510.191 379.692 510.078 380.016 509.854 380.258C509.631 380.499 509.316 380.637 508.987 380.637H455.033C455.086 426.142 458.201 474.061 460.734 513.008L460.736 513.041C461.843 530.057 462.838 545.365 463.416 557.997C463.431 558.32 463.313 558.635 463.09 558.868C462.867 559.102 462.558 559.234 462.235 559.234H269.532C269.209 559.234 268.9 559.102 268.677 558.868C268.454 558.635 268.336 558.32 268.351 557.997C268.929 545.359 269.925 530.042 271.032 513.017L271.033 513.008C273.566 474.061 276.681 426.142 276.735 380.637H222.78C222.451 380.637 222.137 380.499 221.913 380.258C221.689 380.016 221.576 379.692 221.601 379.364C223.73 351.534 224.784 329.669 224.784 321.751C224.784 295.339 232.01 281.896 240.937 275.15C249.777 268.47 260.043 268.613 265.443 268.688C265.972 268.696 266.447 268.702 266.873 268.702C281.353 268.702 292.791 267.534 301.822 265.572ZM265.417 271.054C260.009 270.978 250.523 270.871 242.363 277.037C234.258 283.162 227.15 295.734 227.15 321.751C227.15 329.645 226.121 351.044 224.057 378.271H276.735V325.095C276.735 324.442 277.265 323.913 277.918 323.913C278.571 323.913 279.101 324.442 279.101 325.095V379.454C279.101 425.394 275.948 473.876 273.394 513.146L273.393 513.162C272.322 529.645 271.356 544.497 270.771 556.869H460.996C460.412 544.502 459.446 529.656 458.375 513.181L458.374 513.162L458.373 513.152C455.819 473.881 452.666 425.396 452.666 379.454V325.095C452.666 324.442 453.196 323.913 453.849 323.913C454.502 323.913 455.032 324.442 455.032 325.095V378.271H507.711C505.646 351.044 504.617 329.645 504.617 321.751C504.617 295.734 497.509 283.162 489.404 277.037C481.244 270.871 471.763 270.978 466.354 271.054C465.833 271.061 465.338 271.068 464.894 271.068C450.568 271.068 439.118 269.934 429.965 267.995C426.142 270.835 422.671 274.444 418.929 278.34L418.891 278.38C413.428 284.069 407.443 290.3 399.202 295.086C390.915 299.899 380.402 303.224 365.883 303.224C351.365 303.224 340.852 299.899 332.565 295.086C324.324 290.3 318.339 284.069 312.876 278.38L312.838 278.34C309.096 274.444 305.625 270.835 301.802 267.995C292.649 269.934 281.199 271.068 266.873 271.068C266.429 271.068 265.939 271.061 265.417 271.054Z" fill="black"/>
<path d="M269.532 558.051H462.235C461.657 545.429 460.662 530.128 459.555 513.104L459.554 513.085C457 473.806 453.849 425.355 453.849 379.454H508.987C506.858 351.623 505.8 329.718 505.8 321.751C505.8 269.322 477.133 269.721 466.339 269.871C465.813 269.878 465.33 269.885 464.894 269.885C450.354 269.885 438.829 268.712 429.694 266.728C425.601 269.686 421.939 273.499 418.076 277.521C407.109 288.94 394.526 302.041 365.883 302.041C337.24 302.041 324.657 288.94 313.691 277.521C309.828 273.499 306.166 269.686 302.073 266.728C292.938 268.712 281.413 269.885 266.873 269.885C266.437 269.885 265.954 269.878 265.428 269.871C254.634 269.721 225.967 269.322 225.967 321.751C225.967 329.718 224.909 351.623 222.78 379.454H277.918C277.918 425.355 274.767 473.806 272.213 513.085C271.105 530.117 270.11 545.424 269.532 558.051Z" fill="#02DA9A"/>
<path d="M277.918 379.454V353.874M277.918 379.454H222.78C224.909 351.623 225.967 329.718 225.967 321.751C225.967 269.322 254.634 269.721 265.428 269.871C265.954 269.878 266.437 269.885 266.873 269.885C281.413 269.885 292.938 268.712 302.073 266.728C306.166 269.686 309.828 273.499 313.691 277.521C324.657 288.94 337.24 302.041 365.883 302.041C394.526 302.041 407.109 288.94 418.076 277.521C421.939 273.499 425.601 269.686 429.694 266.728C438.829 268.712 450.354 269.885 464.894 269.885C465.33 269.885 465.813 269.878 466.339 269.871C477.133 269.721 505.8 269.322 505.8 321.751C505.8 329.718 506.858 351.623 508.987 379.454H453.849M277.918 379.454C277.918 425.355 274.767 473.806 272.213 513.085C271.105 530.117 270.11 545.424 269.532 558.051H462.235C461.657 545.429 460.662 530.128 459.555 513.104L459.554 513.085C457 473.806 453.849 425.355 453.849 379.454M453.849 379.454V353.874" stroke="black" stroke-width="2.3" stroke-linecap="round" stroke-linejoin="round"/>
<path d="M467 272C466.474 272.007 466.436 272 466 272C462.104 272 458.476 272.161 455 272V354V380C455 391.377 457.422 410.103 449 426C442.978 437.366 426.56 441 394 441C330.05 441 336 467.715 336 473C336 486.597 336 485 336 485C457.511 485 502.07 493.66 504 455C506.312 408.677 503 337.079 503 322C503 273.678 477.8 271.85 467 272Z" fill="#E7C273"/>
<path d="M385.665 469.746C354.235 471.291 374.39 476.479 308.893 476.479" stroke="#E1B351" stroke-width="18" stroke-linecap="round"/>
<path d="M391.33 469.323C359.737 470.188 380.62 476.479 323.123 476.479" stroke="#E4BB62" stroke-width="18" stroke-linecap="round"/>
<path d="M415.236 467.748C383.806 466.293 368.271 476.67 348.773 476.67" stroke="#E7C273" stroke-width="18" stroke-linecap="round"/>
<path fill-rule="evenodd" clip-rule="evenodd" d="M454.119 401.903C453.946 393.67 453.849 385.492 453.849 377.454H505.859C495.575 392.345 478.388 402.103 458.922 402.103C457.305 402.103 455.703 402.036 454.119 401.903Z" fill="black" fill-opacity="0.6"/>
<path fill-rule="evenodd" clip-rule="evenodd" d="M454.854 378.304V270.841C457.99 270.969 461.285 271.035 464.75 271.035C465.193 271.035 465.684 271.028 466.205 271.021L466.211 271.021C471.619 270.946 481.109 270.837 489.279 277.011C497.395 283.144 504.505 295.728 504.505 321.751C504.505 329.647 505.535 351.06 507.601 378.304H454.854Z" fill="#02DA9A"/>
<path d="M453.849 353.875V379.454H508.987" stroke="black" stroke-width="2.3" stroke-linecap="round" stroke-linejoin="round"/>
<path d="M270.776 114.355C264.743 116.316 263.657 132.95 266.491 145.695C268.748 155.844 271.896 168.522 279.222 169.257C283.643 169.701 294.995 164.873 296.645 161.768C304.985 146.069 300.794 132.101 286.915 120.992C283.026 117.879 277.257 112.249 270.776 114.355Z" fill="#D0B170"/>
<path fill-rule="evenodd" clip-rule="evenodd" d="M275.771 121.71C276.345 121.397 277.063 121.608 277.376 122.182C280.026 127.04 281.426 130.477 282.262 134.01C283.028 137.248 283.311 140.537 283.694 144.979C283.725 145.337 283.756 145.704 283.789 146.078C283.845 146.729 283.364 147.302 282.713 147.359C282.062 147.415 281.489 146.934 281.432 146.283C281.402 145.928 281.372 145.582 281.342 145.243C280.953 140.732 280.685 137.616 279.96 134.555C279.189 131.296 277.89 128.063 275.299 123.314C274.987 122.741 275.198 122.022 275.771 121.71Z" fill="black"/>
<path d="M291.73 203.989C281.555 190.315 278.845 168.119 278.777 138.404C278.686 99.1267 279.724 84.0335 293.253 65.59C302.639 52.7935 325.665 40.6732 360.975 40.9879C396.284 40.6732 419.311 52.7935 428.697 65.59C442.225 84.0335 443.263 99.1267 443.173 138.404C443.104 168.119 440.395 190.315 430.219 203.989C412.155 228.263 387.696 234.537 360.975 234.857C334.254 235.177 309.794 228.263 291.73 203.989Z" fill="#E7C273"/>
<ellipse cx="319.073" cy="152.456" rx="6.0726" ry="9.87287" fill="#4D2C19"/>
<ellipse cx="374.849" cy="152.456" rx="6.0726" ry="9.87287" fill="#4D2C19"/>
<path d="M390.372 131.591C391.542 132.91 391.642 135.284 389.978 136.708C385.397 140.628 383.617 133.462 376.796 133.581C372.856 133.65 370.323 137.216 368.044 133.581C364.84 128.473 372.275 126 377.103 126C382.761 126 388.433 129.404 390.372 131.591Z" fill="#3A2113"/>
<path d="M304.869 131.591C303.698 132.91 303.599 135.284 305.263 136.708C309.843 140.628 311.624 133.462 318.444 133.581C322.385 133.65 324.918 137.216 327.197 133.581C330.4 128.473 322.965 126 318.137 126C312.48 126 306.808 129.404 304.869 131.591Z" fill="#3A2113"/>
<path fill-rule="evenodd" clip-rule="evenodd" d="M340.39 158.422C340.899 158.83 340.981 159.575 340.573 160.084C339.24 161.748 338.365 164.303 338.365 168.016C338.365 170.768 339.507 172.545 341.11 173.66C342.767 174.811 345.003 175.308 347.176 175.237C347.828 175.216 348.375 175.727 348.397 176.38C348.418 177.033 347.906 177.58 347.253 177.601C344.723 177.684 341.944 177.12 339.76 175.602C337.523 174.047 336 171.545 336 168.016C336 163.952 336.957 160.815 338.727 158.605C339.136 158.096 339.88 158.013 340.39 158.422Z" fill="black"/>
<path fill-rule="evenodd" clip-rule="evenodd" d="M317.055 193.826C317.252 193.204 317.917 192.858 318.54 193.055C335.75 201.078 356.911 200.078 378.122 193.055C378.744 192.858 379.409 193.204 379.606 193.826C379.803 194.449 379.458 195.114 378.835 195.311C357.16 202.48 335.501 203.48 317.826 195.311C317.204 195.114 316.858 194.449 317.055 193.826Z" fill="black"/>
<path d="M459.098 114.355C465.131 116.316 466.216 132.95 463.382 145.696C461.126 155.844 457.978 168.522 450.651 169.257C446.23 169.701 438.398 167.072 433.229 161.768C421.803 150.043 429.08 132.101 442.959 120.992C446.848 117.879 452.617 112.249 459.098 114.355Z" fill="#D0B170"/>
<path fill-rule="evenodd" clip-rule="evenodd" d="M455.773 113.905C456.855 113.856 457.965 113.987 459.097 114.355C465.13 116.316 466.216 132.95 463.382 145.696C461.125 155.844 457.977 168.522 450.651 169.257C448.984 169.425 446.834 169.155 444.524 168.471C444.25 165.533 444.11 162.557 444.11 159.548C444.11 143.005 448.338 127.451 455.773 113.905Z" fill="black" fill-opacity="0.6"/>
<path fill-rule="evenodd" clip-rule="evenodd" d="M454.069 121.709C453.496 121.396 452.778 121.608 452.465 122.181C449.815 127.04 448.415 130.477 447.579 134.009C446.813 137.248 446.529 140.536 446.147 144.978C446.116 145.337 446.084 145.703 446.052 146.078C445.995 146.728 446.477 147.302 447.128 147.358C447.779 147.415 448.352 146.933 448.408 146.282C448.439 145.928 448.469 145.581 448.498 145.243C448.888 140.731 449.156 137.616 449.881 134.554C450.652 131.296 451.951 128.063 454.541 123.314C454.854 122.74 454.643 122.022 454.069 121.709Z" fill="black"/>
<path fill-rule="evenodd" clip-rule="evenodd" d="M279.549 105.296H442.4C441.066 88.33 437.565 77.6798 428.697 65.5899C419.311 52.7934 396.284 40.6731 360.975 40.9878C325.665 40.6731 302.639 52.7934 293.252 65.5899C284.384 77.6798 280.883 88.33 279.549 105.296Z" fill="black"/>
<path d="M366.87 121.024C365.024 122.905 361.602 123.13 359.11 121.011C352.578 115.459 361.71 111.704 360.365 102.471C359.393 95.7982 355.883 92.0569 360.554 89.2249C368.256 84.5546 372.012 93.7649 372.468 102.145C372.971 111.371 369.929 117.908 366.87 121.024Z" fill="black"/>
<path d="M348.184 121.474C345.945 122.863 342.661 123.383 340.648 120.805C335.224 113.861 345.381 111.196 346.263 103.09C346.993 96.3868 344.427 92.0594 349.587 90.2667C357.389 87.5561 359.787 97.4654 357.901 105.644C355.808 114.726 351.894 119.172 348.184 121.474Z" fill="black"/>
<path d="M328.526 119.121C325.636 120.571 321.892 118.696 320.72 116.506C317.007 109.571 327.047 107.618 331.417 100.666C335.006 94.9571 333.582 89.9177 339.829 90.1305C348.083 90.4118 346.306 100.554 341.567 107.481C336.305 115.173 331.662 117.548 328.526 119.121Z" fill="black"/>
<path d="M51.367 293.593H289.391C293.533 293.593 297.251 296.932 297.695 301.05L317.994 489.119C318.082 489.943 317.483 490.611 316.654 490.611H66.6308C65.8024 490.611 65.0587 489.943 64.9698 489.119L44.6718 301.05C44.2273 296.932 47.2249 293.593 51.367 293.593Z" fill="#38B28E" stroke="#1C6550" stroke-width="3"/>
<path d="M318.422 484.603H463.922C464.751 484.603 465.422 485.275 465.422 486.103C465.422 488.588 463.408 490.603 460.922 490.603H318.422V484.603Z" fill="#38B28E" stroke="#1C6550" stroke-width="3" stroke-linejoin="round"/>
<path d="M148.985 355.84C148.461 351.325 151.44 347.666 155.639 347.666H165.778C167.878 347.666 169.884 348.58 171.432 350.059L171.465 350.09L171.435 350.061L179.48 357.748C178.039 356.38 176.204 355.498 174.268 355.385C174.127 355.377 173.986 355.372 173.843 355.372L163.704 355.372C159.505 355.372 156.526 359.032 157.05 363.547L161.484 401.693C161.502 401.846 161.524 401.998 161.549 402.148C161.896 404.225 162.941 406.095 164.385 407.475L164.382 407.472L156.32 399.768C154.771 398.289 153.682 396.244 153.419 393.987L148.985 355.84Z" fill="#25775F"/>
<path d="M180.613 409.868L182.145 423.051C182.407 425.309 183.497 427.353 185.045 428.832L193.11 436.539C191.666 435.16 190.622 433.289 190.275 431.213C190.249 431.062 190.228 430.91 190.21 430.758L187.782 409.868H180.613Z" fill="#25775F"/>
<path d="M187.782 409.868H205.525C205.534 409.868 205.543 409.868 205.552 409.868C205.685 409.868 205.818 409.872 205.95 409.88C207.887 409.994 209.722 410.875 211.163 412.245L203.146 404.585L203.117 404.556L203.114 404.554C201.566 403.075 199.559 402.161 197.46 402.161H186.886L187.782 409.868Z" fill="#25775F"/>
<rect x="14" y="492.102" width="512" height="6" rx="3" fill="#1C6550"/>
</g>
</svg>
