<svg width="16" height="16" viewBox="0 0 16 16" fill="none" xmlns="http://www.w3.org/2000/svg">
<g clip-path="url(#clip0_1455_2295)">
<g filter="url(#filter0_f_1455_2295)">
<mask id="mask0_1455_2295" style="mask-type:alpha" maskUnits="userSpaceOnUse" x="1" y="1" width="14" height="14">
<path fill-rule="evenodd" clip-rule="evenodd" d="M11 1V5H15V15H1V5V1H11Z" fill="#C5D6F3"/>
</mask>
<g mask="url(#mask0_1455_2295)">
<rect x="1" y="1" width="14" height="2" fill="#CEDEF8"/>
<rect x="1" y="3" width="14" height="2" fill="#CEDEF8"/>
<rect x="1" y="5" width="14" height="2" fill="#CBDBF7"/>
<rect x="1" y="7" width="14" height="2" fill="#C5D6F3"/>
<rect x="1" y="9" width="14" height="6" fill="#C0D0F0"/>
</g>
<rect width="2" height="1" transform="matrix(1 0 0 -1 1 15)" fill="#58AE3A"/>
<rect width="10" height="1" transform="matrix(1 0 0 -1 2 14)" fill="#58AE3A"/>
<rect width="2" height="1" transform="matrix(1 0 0 -1 3 13)" fill="#58AE3A"/>
<rect width="6" height="1" transform="matrix(1 0 0 -1 4 12)" fill="#58AE3A"/>
<rect width="2" height="1" transform="matrix(1 0 0 -1 10 12)" fill="#58AE3A"/>
<rect width="8" height="1" transform="matrix(1 0 0 -1 5 13)" fill="#58AE3A"/>
<rect width="2" height="1" transform="matrix(1 0 0 -1 12 14)" fill="#58AE3A"/>
<rect width="12" height="1" transform="matrix(1 0 0 -1 3 15)" fill="#58AE3A"/>
<rect width="4" height="1" transform="matrix(1 0 0 -1 6 11)" fill="#58AE3A"/>
<rect width="2" height="1" transform="matrix(1 0 0 -1 7 10)" fill="#58AE3A" fill-opacity="0.2"/>
<rect width="1" height="1" transform="matrix(1 0 0 -1 5 11)" fill="#58AE3A" fill-opacity="0.4"/>
<rect width="1" height="1" transform="matrix(1 0 0 -1 10 11)" fill="#58AE3A" fill-opacity="0.4"/>
<rect width="1" height="1" transform="matrix(1 0 0 -1 4 11)" fill="#58AE3A" fill-opacity="0.2"/>
<rect width="1" height="1" transform="matrix(1 0 0 -1 11 11)" fill="#58AE3A" fill-opacity="0.2"/>
<rect width="1" height="1" transform="matrix(1 0 0 -1 3 12)" fill="#58AE3A" fill-opacity="0.4"/>
<rect width="1" height="1" transform="matrix(1 0 0 -1 12 12)" fill="#58AE3A" fill-opacity="0.4"/>
<rect width="1" height="1" transform="matrix(1 0 0 -1 13 13)" fill="#58AE3A" fill-opacity="0.4"/>
<rect width="1" height="1" transform="matrix(1 0 0 -1 14 14)" fill="#58AE3A" fill-opacity="0.4"/>
<rect width="1" height="1" transform="matrix(1 0 0 -1 2 13)" fill="#58AE3A" fill-opacity="0.4"/>
<rect width="1" height="1" transform="matrix(1 0 0 -1 1 14)" fill="#58AE3A" fill-opacity="0.4"/>
<rect width="12" height="1" fill="#A3A3A3"/>
<rect width="1" height="1" transform="matrix(-1 0 0 1 13 1)" fill="#A3A3A3"/>
<rect width="1" height="4" transform="matrix(-1 0 0 1 12 1)" fill="#A3A3A3"/>
<rect width="4" height="1" transform="matrix(-1 0 0 1 15 4)" fill="#A3A3A3"/>
<rect width="2" height="1" transform="matrix(-1 0 0 1 14 3)" fill="white"/>
<rect width="1" height="1" transform="matrix(-1 0 0 1 13 2)" fill="white"/>
<rect width="1" height="1" transform="matrix(-1 0 0 1 14 2)" fill="#A3A3A3"/>
<rect width="1" height="1" transform="matrix(-1 0 0 1 15 3)" fill="#A3A3A3"/>
<rect width="1" height="1" transform="matrix(-1 0 0 1 14 1)" fill="#A3A3A3" fill-opacity="0.1"/>
<rect width="1" height="1" transform="matrix(-1 0 0 1 13 0)" fill="#A3A3A3" fill-opacity="0.1"/>
<rect width="1" height="1" transform="matrix(-1 0 0 1 15 2)" fill="#A3A3A3" fill-opacity="0.1"/>
<rect width="1" height="1" transform="matrix(-1 0 0 1 16 3)" fill="#A3A3A3" fill-opacity="0.1"/>
<rect width="1" height="11" transform="matrix(-1 0 0 1 16 4)" fill="#A3A3A3"/>
<rect y="15" width="16" height="1" fill="#A3A3A3"/>
<rect y="1" width="1" height="14" fill="#A3A3A3"/>
<rect width="10" height="1" transform="matrix(1 0 0 -1 1 2)" fill="white" fill-opacity="0.8"/>
<rect width="10" height="1" transform="matrix(1 0 0 -1 1 3)" fill="white" fill-opacity="0.4"/>
<rect width="4" height="1" transform="matrix(1 0 0 -1 11 6)" fill="white" fill-opacity="0.8"/>
<rect width="4" height="1" transform="matrix(1 0 0 -1 11 7)" fill="white" fill-opacity="0.4"/>
<rect width="1" height="4" transform="matrix(1 0 0 -1 10 6)" fill="white" fill-opacity="0.4"/>
<rect width="1" height="9" transform="matrix(1 0 0 -1 14 15)" fill="white" fill-opacity="0.3"/>
<rect width="1" height="13" transform="matrix(1 0 0 -1 1 15)" fill="white" fill-opacity="0.3"/>
<rect x="2" y="5" width="2" height="1" fill="white"/>
<rect x="3" y="4" width="3" height="1" fill="white"/>
<rect x="4" y="3" width="3" height="1" fill="white"/>
<rect x="6" y="4" width="2" height="1" fill="white"/>
<rect x="4" y="5" width="4" height="1" fill="white"/>
<rect x="8" y="15" width="3" height="1" fill="white"/>
<rect x="9" y="14" width="3" height="1" fill="white"/>
<rect x="10" y="13" width="3" height="1" fill="white"/>
<rect x="11" y="12" width="3" height="1" fill="white"/>
<rect x="12" y="11" width="3" height="1" fill="white"/>
<rect x="13" y="10" width="3" height="1" fill="white"/>
<rect x="14" y="9" width="2" height="1" fill="white"/>
<rect x="15" y="8" width="1" height="1" fill="white"/>
</g>
</g>
<defs>
<filter id="filter0_f_1455_2295" x="-1" y="-1" width="18" height="18" filterUnits="userSpaceOnUse" color-interpolation-filters="sRGB">
<feFlood flood-opacity="0" result="BackgroundImageFix"/>
<feBlend mode="normal" in="SourceGraphic" in2="BackgroundImageFix" result="shape"/>
<feGaussianBlur stdDeviation="0.5" result="effect1_foregroundBlur_1455_2295"/>
</filter>
<clipPath id="clip0_1455_2295">
<rect width="16" height="16" fill="white"/>
</clipPath>
</defs>
</svg>
