<svg width="16" height="16" viewBox="0 0 16 16" fill="none" xmlns="http://www.w3.org/2000/svg">
<g clip-path="url(#clip0_1509_1146)">
<mask id="mask0_1509_1146" style="mask-type:alpha" maskUnits="userSpaceOnUse" x="1" y="1" width="14" height="14">
<path fill-rule="evenodd" clip-rule="evenodd" d="M11 1V5H15V15H1V5V1H11Z" fill="#C5D6F3"/>
</mask>
<g mask="url(#mask0_1509_1146)">
<rect x="1" y="1" width="14" height="2" fill="#CEDEF8"/>
<rect x="1" y="3" width="14" height="2" fill="#CEDEF8"/>
<rect x="1" y="5" width="14" height="2" fill="#CBDBF7"/>
<rect x="1" y="7" width="14" height="2" fill="#C5D6F3"/>
<rect x="1" y="9" width="14" height="6" fill="#C0D0F0"/>
</g>
<path fill-rule="evenodd" clip-rule="evenodd" d="M10 10V11H12V12H13V13H14V14H15V15H3H1V14H2V13H3V12H4V11H6V10H10Z" fill="#58AE3A"/>
<rect width="2" height="1" transform="matrix(1 0 0 -1 7 10)" fill="#58AE3A" fill-opacity="0.2"/>
<rect width="1" height="1" transform="matrix(1 0 0 -1 5 11)" fill="#58AE3A" fill-opacity="0.4"/>
<rect width="1" height="1" transform="matrix(1 0 0 -1 10 11)" fill="#58AE3A" fill-opacity="0.4"/>
<rect width="1" height="1" transform="matrix(1 0 0 -1 4 11)" fill="#58AE3A" fill-opacity="0.2"/>
<rect width="1" height="1" transform="matrix(1 0 0 -1 11 11)" fill="#58AE3A" fill-opacity="0.2"/>
<rect width="1" height="1" transform="matrix(1 0 0 -1 3 12)" fill="#58AE3A" fill-opacity="0.4"/>
<rect width="1" height="1" transform="matrix(1 0 0 -1 12 12)" fill="#58AE3A" fill-opacity="0.4"/>
<rect width="1" height="1" transform="matrix(1 0 0 -1 13 13)" fill="#58AE3A" fill-opacity="0.4"/>
<rect width="1" height="1" transform="matrix(1 0 0 -1 14 14)" fill="#58AE3A" fill-opacity="0.4"/>
<rect width="1" height="1" transform="matrix(1 0 0 -1 2 13)" fill="#58AE3A" fill-opacity="0.4"/>
<rect width="1" height="1" transform="matrix(1 0 0 -1 1 14)" fill="#58AE3A" fill-opacity="0.4"/>
<path fill-rule="evenodd" clip-rule="evenodd" d="M12 2H13V3H14V4H12V3V2Z" fill="white"/>
<rect width="1" height="1" transform="matrix(-1 0 0 1 14 1)" fill="#A3A3A3" fill-opacity="0.1"/>
<rect width="1" height="1" transform="matrix(-1 0 0 1 13 0)" fill="#A3A3A3" fill-opacity="0.1"/>
<rect width="1" height="1" transform="matrix(-1 0 0 1 15 2)" fill="#A3A3A3" fill-opacity="0.1"/>
<rect width="1" height="1" transform="matrix(-1 0 0 1 16 3)" fill="#A3A3A3" fill-opacity="0.1"/>
<path fill-rule="evenodd" clip-rule="evenodd" d="M0 0H12V1H13V2H12V4H14V3H15V4H16V15V16H0V15V1V0ZM1 1V15H15V5H12H11V4V1H1ZM14 3V2H13V3H14Z" fill="#A3A3A3"/>
<rect width="10" height="1" transform="matrix(1 0 0 -1 1 2)" fill="white" fill-opacity="0.8"/>
<rect width="10" height="1" transform="matrix(1 0 0 -1 1 3)" fill="white" fill-opacity="0.4"/>
<rect width="4" height="1" transform="matrix(1 0 0 -1 11 6)" fill="white" fill-opacity="0.8"/>
<rect width="4" height="1" transform="matrix(1 0 0 -1 11 7)" fill="white" fill-opacity="0.4"/>
<rect width="1" height="4" transform="matrix(1 0 0 -1 10 6)" fill="white" fill-opacity="0.4"/>
<rect width="1" height="9" transform="matrix(1 0 0 -1 14 15)" fill="white" fill-opacity="0.3"/>
<rect width="1" height="13" transform="matrix(1 0 0 -1 1 15)" fill="white" fill-opacity="0.3"/>
<path fill-rule="evenodd" clip-rule="evenodd" d="M7 3H4V4H3V5H2V6H4H8V5V4H7V3Z" fill="white"/>
<path fill-rule="evenodd" clip-rule="evenodd" d="M16 8H15V9H14V10H13V11H12V12H11V13H10V14H9V15H8V16H11V15H12V14H13V13H14V12H15V11H16V10V9V8Z" fill="white"/>
</g>
<defs>
<clipPath id="clip0_1509_1146">
<rect width="16" height="16" fill="white"/>
</clipPath>
</defs>
</svg>
