<svg width="226" height="64" viewBox="0 0 226 64" fill="none" xmlns="http://www.w3.org/2000/svg">
<g clip-path="url(#clip0_1470_2966)">
<rect x="0.5" y="0.5" width="225" height="63" rx="31.5" stroke="CanvasText"/>
<path d="M59.296 32.48C59.296 33.9733 59.1147 35.36 58.752 36.64C58.4 37.92 57.8773 39.0613 57.184 40.064L58.912 41.792L56.256 44.48L54.48 42.72C52.7093 43.8933 50.592 44.48 48.128 44.48C45.856 44.48 43.8773 43.984 42.192 42.992C40.5067 41.9893 39.2107 40.5813 38.304 38.768C37.408 36.9547 36.96 34.8587 36.96 32.48C36.96 30.1013 37.408 28.0053 38.304 26.192C39.2107 24.3787 40.5067 22.976 42.192 21.984C43.8773 20.9813 45.856 20.48 48.128 20.48C50.4 20.48 52.3787 20.9813 54.064 21.984C55.7493 22.976 57.04 24.3787 57.936 26.192C58.8427 28.0053 59.296 30.1013 59.296 32.48ZM48.24 40.384C49.456 40.384 50.512 40.1387 51.408 39.648L49.536 37.792L52.224 35.104L53.92 36.8C54.432 35.5947 54.688 34.1547 54.688 32.48C54.688 30.0267 54.1333 28.1067 53.024 26.72C51.9147 25.3227 50.2827 24.608 48.128 24.576C46.6987 24.5547 45.4933 24.8693 44.512 25.52C43.5307 26.16 42.7947 27.0773 42.304 28.272C41.8133 29.456 41.568 30.8587 41.568 32.48C41.568 34.9547 42.1333 36.8907 43.264 38.288C44.3947 39.6853 46.0533 40.384 48.24 40.384ZM77.082 26.72V44H73.242V42.224C72.5913 42.9493 71.7967 43.5147 70.858 43.92C69.9193 44.3147 68.8473 44.512 67.642 44.512C65.6153 44.512 64.1007 43.9947 63.098 42.96C62.106 41.9253 61.4873 40.832 61.242 39.68C61.0073 38.528 60.89 37.44 60.89 36.416V26.72H65.306V34.88C65.306 35.7547 65.37 36.576 65.498 37.344C65.626 38.112 65.962 38.816 66.506 39.456C67.0607 40.096 67.898 40.416 69.018 40.416C70.0207 40.416 70.8847 40.0747 71.61 39.392C72.3353 38.6987 72.698 37.3973 72.698 35.488V26.72H77.082ZM80.5937 20.48H84.9457V24.32H80.5937V20.48ZM80.5937 26.72H84.9457V44H80.5937V26.72ZM96.0785 44.48C94.3292 44.48 92.8038 44.0853 91.5025 43.296C90.2118 42.5067 89.2198 41.424 88.5265 40.048C87.8438 38.6613 87.5025 37.0987 87.5025 35.36C87.5025 33.6107 87.8545 32.048 88.5585 30.672C89.2732 29.2853 90.2812 28.2027 91.5825 27.424C92.8945 26.6347 94.4145 26.24 96.1425 26.24C97.4865 26.24 98.6972 26.4747 99.7745 26.944C100.863 27.4027 101.759 28.0693 102.463 28.944C103.177 29.808 103.663 30.8267 103.919 32L99.5665 33.152C99.3105 32.2667 98.8678 31.5733 98.2385 31.072C97.6092 30.56 96.8892 30.304 96.0785 30.304C94.7558 30.304 93.7638 30.768 93.1025 31.696C92.4412 32.624 92.1105 33.8453 92.1105 35.36C92.1105 36.9067 92.4518 38.1387 93.1345 39.056C93.8172 39.9627 94.7985 40.416 96.0785 40.416C97.0172 40.416 97.7478 40.2027 98.2705 39.776C98.8038 39.3493 99.2038 38.6987 99.4705 37.824L103.919 38.752C103.428 40.5867 102.5 42 101.135 42.992C99.7692 43.984 98.0838 44.48 96.0785 44.48ZM105.839 20.96H110.255V35.04L116.111 26.72H121.487L115.247 35.36L121.903 44H116.239L110.255 35.68V44H105.807L105.839 20.96ZM127.661 20.96H132.013V39.936H141.933V44H127.661V20.96ZM143.694 20.48H148.046V24.32H143.694V20.48ZM143.694 26.72H148.046V44H143.694V26.72ZM161.003 26.208C163.029 26.208 164.539 26.7253 165.531 27.76C166.533 28.7947 167.152 29.888 167.387 31.04C167.632 32.192 167.755 33.28 167.755 34.304V44H163.339V35.84C163.339 34.9653 163.275 34.144 163.147 33.376C163.019 32.608 162.677 31.904 162.123 31.264C161.579 30.624 160.747 30.304 159.627 30.304C158.624 30.304 157.76 30.6507 157.035 31.344C156.309 32.0267 155.947 33.3227 155.947 35.232V44H151.531V26.72H155.403V28.496C156.053 27.7707 156.848 27.2107 157.787 26.816C158.725 26.4107 159.797 26.208 161.003 26.208ZM170.626 20.96H175.042V35.04L180.898 26.72H186.274L180.034 35.36L186.69 44H181.026L175.042 35.68V44H170.594L170.626 20.96ZM193.442 44.48C191.266 44.48 189.506 43.9893 188.162 43.008C186.829 42.0267 186.018 40.6293 185.73 38.816L190.178 38.144C190.359 38.9653 190.759 39.6053 191.378 40.064C192.007 40.512 192.802 40.736 193.762 40.736C194.541 40.736 195.143 40.5867 195.57 40.288C196.007 39.9787 196.226 39.552 196.226 39.008C196.226 38.6453 196.135 38.368 195.954 38.176C195.783 37.9733 195.421 37.776 194.866 37.584C194.322 37.392 193.389 37.12 192.066 36.768C190.637 36.4053 189.506 36 188.674 35.552C187.842 35.104 187.239 34.5707 186.866 33.952C186.493 33.3333 186.306 32.576 186.306 31.68C186.306 30.5813 186.589 29.6213 187.154 28.8C187.719 27.9787 188.519 27.3493 189.554 26.912C190.589 26.464 191.799 26.24 193.186 26.24C194.53 26.24 195.725 26.448 196.77 26.864C197.826 27.28 198.674 27.8773 199.314 28.656C199.965 29.424 200.365 30.3253 200.514 31.36L196.066 32.16C195.991 31.52 195.714 31.0133 195.234 30.64C194.754 30.2667 194.103 30.048 193.282 29.984L192.946 29.968C192.242 29.968 191.677 30.1013 191.25 30.368C190.834 30.6347 190.626 30.9973 190.626 31.456C190.626 31.7653 190.733 32.0213 190.946 32.224C191.159 32.416 191.575 32.6187 192.194 32.832C192.813 33.0347 193.826 33.312 195.234 33.664C196.557 34.0053 197.613 34.4053 198.402 34.864C199.191 35.312 199.767 35.8507 200.13 36.48C200.493 37.1093 200.674 37.8773 200.674 38.784C200.674 39.9573 200.386 40.976 199.81 41.84C199.234 42.6933 198.402 43.3493 197.314 43.808C196.226 44.256 194.935 44.48 193.442 44.48Z" fill="CanvasText"/>
<rect x="20" y="28" width="8" height="8" rx="4" fill="Highlight"/>
</g>
<defs>
<clipPath id="clip0_1470_2966">
<rect width="226" height="64" fill="Canvas"/>
</clipPath>
</defs>
</svg>
