<svg width="221" height="64" viewBox="0 0 221 64" fill="none" xmlns="http://www.w3.org/2000/svg">
<rect width="221" height="64" rx="32" fill="#6E7681" fill-opacity="0.1"/>
<g filter="url(#filter0_d_1405_936)">
<rect x="12" y="12" width="197" height="40" rx="20" fill="#21262D" shape-rendering="crispEdges"/>
<path d="M39.9862 38.1067L41.5772 36.5157C41.8701 36.2228 42.345 36.2228 42.6379 36.5157C42.9308 36.8086 42.9308 37.2835 42.6379 37.5764L41.0469 39.1674C39.2895 40.9247 36.4403 40.9247 34.6829 39.1674C32.9256 37.41 32.9256 34.5608 34.6829 32.8034L37.8649 29.6214C39.6223 27.8641 42.4715 27.8641 44.2289 29.6214C44.4182 29.8108 44.5872 30.0128 44.7357 30.2248C44.9554 30.5383 44.8283 30.9588 44.5001 31.1558C44.1218 31.3827 43.6332 31.2193 43.3501 30.8809C43.293 30.8126 43.2324 30.7463 43.1682 30.6821C41.9966 29.5105 40.0971 29.5105 38.9256 30.6821L35.7436 33.8641C34.572 35.0356 34.572 36.9351 35.7436 38.1067C36.9151 39.2783 38.8146 39.2783 39.9862 38.1067Z" fill="white"/>
<path d="M45.2889 32.804L48.4709 29.622C49.6425 28.4504 49.6425 26.5509 48.4709 25.3794C47.2994 24.2078 45.3999 24.2078 44.2283 25.3794L42.6373 26.9703C42.3444 27.2632 41.8695 27.2632 41.5766 26.9703C41.2837 26.6775 41.2837 26.2026 41.5766 25.9097L43.1676 24.3187C44.925 22.5613 47.7742 22.5613 49.5316 24.3187C51.2889 26.0761 51.2889 28.9253 49.5316 30.6827L46.3496 33.8646C44.5923 35.622 41.743 35.622 39.9856 33.8646C39.7963 33.6753 39.6273 33.4732 39.4788 33.2612C39.2591 32.9478 39.3862 32.5273 39.7144 32.3303C40.0927 32.1033 40.5813 32.2668 40.8644 32.6052C40.9215 32.6735 40.9821 32.7398 41.0463 32.804C42.2179 33.9756 44.1174 33.9756 45.2889 32.804Z" fill="#02DA9A"/>
<path d="M65.672 26.98C65.976 26.98 66.2587 27.0013 66.52 27.044C67.128 27.14 67.6453 27.3533 68.072 27.684C68.4987 28.0093 68.8213 28.4253 69.04 28.932C69.2587 29.4333 69.368 29.9933 69.368 30.612C69.368 31.2307 69.2587 31.7933 69.04 32.3C68.8213 32.8013 68.496 33.2173 68.064 33.548C67.6373 33.8733 67.1227 34.084 66.52 34.18C66.2587 34.2227 65.976 34.244 65.672 34.244H62.544V38.5H61.12V26.98H65.672ZM65.624 32.892C65.896 32.892 66.136 32.868 66.344 32.82C66.8613 32.7027 67.2507 32.436 67.512 32.02C67.7787 31.604 67.912 31.1347 67.912 30.612C67.912 30.0893 67.7787 29.62 67.512 29.204C67.2507 28.788 66.8613 28.5213 66.344 28.404C66.136 28.356 65.896 28.332 65.624 28.332H62.544V32.892H65.624ZM71.9336 34.58C71.9923 35.4813 72.2456 36.1747 72.6936 36.66C73.147 37.1453 73.771 37.388 74.5656 37.388C75.131 37.388 75.6243 37.2573 76.0456 36.996C76.4723 36.7347 76.8056 36.3587 77.0456 35.868L78.4136 36.34C78.0776 37.0973 77.5736 37.6867 76.9016 38.108C76.2296 38.5293 75.4723 38.74 74.6296 38.74C73.787 38.74 73.0456 38.5533 72.4056 38.18C71.771 37.8067 71.2776 37.2787 70.9256 36.596C70.579 35.9133 70.4056 35.1267 70.4056 34.236C70.4056 33.3027 70.5763 32.4893 70.9176 31.796C71.2643 31.0973 71.7496 30.5613 72.3736 30.188C73.003 29.8093 73.7336 29.62 74.5656 29.62C75.3923 29.62 76.1043 29.8067 76.7016 30.18C77.3043 30.548 77.7656 31.0787 78.0856 31.772C78.4056 32.46 78.5656 33.2787 78.5656 34.228C78.5656 34.3827 78.563 34.5 78.5576 34.58H71.9336ZM74.6136 30.9C73.8403 30.9 73.2296 31.116 72.7816 31.548C72.3336 31.98 72.059 32.6093 71.9576 33.436H77.0776C76.9016 31.7453 76.0803 30.9 74.6136 30.9ZM82.3468 30.388C82.5868 30.196 82.8694 30.0493 83.1948 29.948C83.5201 29.8467 83.8481 29.796 84.1788 29.796C84.3868 29.796 84.5921 29.8173 84.7948 29.86V31.196C84.5708 31.1427 84.3548 31.116 84.1468 31.116C83.6294 31.116 83.1868 31.252 82.8188 31.524C82.4294 31.8013 82.1574 32.1667 82.0028 32.62C81.8481 33.068 81.7708 33.5827 81.7708 34.164V38.5H80.3388V29.86H81.6108V31.228C81.8134 30.876 82.0588 30.596 82.3468 30.388ZM89.259 38.732C88.5763 38.732 87.971 38.6307 87.443 38.428C86.915 38.2253 86.4857 37.932 86.155 37.548C85.8243 37.164 85.611 36.7027 85.515 36.164L86.971 35.932C87.0883 36.4067 87.3577 36.78 87.779 37.052C88.2003 37.324 88.723 37.46 89.347 37.46C89.9337 37.46 90.395 37.34 90.731 37.1C91.0723 36.8547 91.243 36.5187 91.243 36.092C91.243 35.836 91.1843 35.636 91.067 35.492C90.955 35.348 90.7337 35.212 90.403 35.084C90.0723 34.9507 89.539 34.7853 88.803 34.588C88.0297 34.38 87.427 34.1693 86.995 33.956C86.563 33.7373 86.2537 33.4867 86.067 33.204C85.8803 32.9213 85.787 32.5693 85.787 32.148C85.787 31.6467 85.9257 31.2067 86.203 30.828C86.4803 30.444 86.8697 30.148 87.371 29.94C87.8723 29.7267 88.451 29.62 89.107 29.62C89.7577 29.62 90.3417 29.7267 90.859 29.94C91.3817 30.148 91.8003 30.444 92.115 30.828C92.435 31.2067 92.6243 31.6467 92.683 32.148L91.227 32.412C91.1577 31.9427 90.923 31.572 90.523 31.3C90.1283 31.028 89.6217 30.892 89.003 30.892C88.651 30.892 88.339 30.9427 88.067 31.044C87.8003 31.14 87.5923 31.2787 87.443 31.46C87.2937 31.636 87.219 31.8413 87.219 32.076C87.219 32.2947 87.283 32.476 87.411 32.62C87.5443 32.764 87.7843 32.9027 88.131 33.036C88.4777 33.164 88.9977 33.316 89.691 33.492C90.4643 33.6893 91.067 33.9 91.499 34.124C91.931 34.348 92.2403 34.612 92.427 34.916C92.619 35.22 92.715 35.5987 92.715 36.052C92.715 36.6067 92.5763 37.0867 92.299 37.492C92.0217 37.892 91.6243 38.1987 91.107 38.412C90.5897 38.6253 89.9737 38.732 89.259 38.732ZM98.1594 38.74C97.3114 38.74 96.5727 38.548 95.9434 38.164C95.3194 37.7747 94.8394 37.236 94.5034 36.548C94.1674 35.8547 93.9994 35.0627 93.9994 34.172C93.9994 33.276 94.17 32.484 94.5114 31.796C94.8527 31.108 95.338 30.5747 95.9674 30.196C96.5967 29.812 97.3274 29.62 98.1594 29.62C99.0074 29.62 99.746 29.812 100.375 30.196C101.005 30.58 101.487 31.116 101.823 31.804C102.159 32.492 102.327 33.2813 102.327 34.172C102.327 35.0733 102.157 35.8707 101.815 36.564C101.479 37.252 100.997 37.788 100.367 38.172C99.738 38.5507 99.002 38.74 98.1594 38.74ZM98.1594 37.388C99.0287 37.388 99.6874 37.1 100.135 36.524C100.589 35.9427 100.815 35.1587 100.815 34.172C100.815 33.1747 100.589 32.3933 100.135 31.828C99.682 31.2573 99.0234 30.972 98.1594 30.972C97.2847 30.972 96.6234 31.26 96.1754 31.836C95.7327 32.412 95.5114 33.1907 95.5114 34.172C95.5114 35.1693 95.738 35.956 96.1914 36.532C96.65 37.1027 97.306 37.388 98.1594 37.388ZM108.241 29.636C109.105 29.636 109.793 29.8493 110.305 30.276C110.817 30.7027 111.174 31.2253 111.377 31.844C111.579 32.4573 111.681 33.084 111.681 33.724V38.5H110.241V34.172C110.241 33.244 110.059 32.4813 109.697 31.884C109.339 31.2867 108.739 30.988 107.897 30.988C107.161 30.988 106.579 31.2387 106.153 31.74C105.731 32.236 105.521 32.972 105.521 33.948V38.5H104.081V29.86H105.361V30.972C105.686 30.54 106.091 30.2093 106.577 29.98C107.067 29.7507 107.622 29.636 108.241 29.636ZM120.401 31.308C120.513 31.5533 120.587 31.8253 120.625 32.124C120.662 32.4173 120.681 32.7613 120.681 33.156V38.5H119.417V37.156C118.729 38.212 117.662 38.74 116.217 38.74C115.593 38.74 115.059 38.6253 114.617 38.396C114.174 38.1613 113.841 37.8493 113.617 37.46C113.393 37.0707 113.281 36.6387 113.281 36.164C113.281 34.8893 113.987 34.044 115.401 33.628C115.817 33.516 116.294 33.4173 116.833 33.332C117.371 33.2467 118.017 33.1533 118.769 33.052L119.281 32.98C119.259 32.2813 119.083 31.7693 118.753 31.444C118.422 31.1133 117.889 30.948 117.153 30.948C116.609 30.948 116.142 31.0733 115.753 31.324C115.369 31.5693 115.102 31.948 114.953 32.46L113.601 32.052C113.809 31.2787 114.214 30.6813 114.817 30.26C115.425 29.8333 116.209 29.62 117.169 29.62C117.963 29.62 118.638 29.764 119.193 30.052C119.753 30.3347 120.155 30.7533 120.401 31.308ZM116.433 37.548C116.929 37.548 117.366 37.46 117.745 37.284C118.123 37.1027 118.43 36.8627 118.665 36.564C118.899 36.26 119.051 35.924 119.121 35.556C119.174 35.3747 119.209 35.172 119.225 34.948C119.246 34.724 119.259 34.4733 119.265 34.196L118.873 34.244C118.121 34.3453 117.542 34.428 117.137 34.492C116.737 34.556 116.371 34.636 116.041 34.732C115.63 34.86 115.302 35.036 115.057 35.26C114.817 35.484 114.697 35.7827 114.697 36.156C114.697 36.4067 114.758 36.6387 114.881 36.852C115.003 37.06 115.195 37.228 115.457 37.356C115.718 37.484 116.043 37.548 116.433 37.548ZM122.921 26.74H124.345V38.5H122.921V26.74ZM129.068 26.98H130.556L133.116 36.092L135.668 26.988L137.164 26.98L139.724 36.092L142.276 26.98H143.772L140.436 38.5H139.012L136.42 29.468L133.828 38.5H132.404L129.068 26.98ZM145.231 34.58C145.289 35.4813 145.543 36.1747 145.991 36.66C146.444 37.1453 147.068 37.388 147.863 37.388C148.428 37.388 148.921 37.2573 149.343 36.996C149.769 36.7347 150.103 36.3587 150.343 35.868L151.711 36.34C151.375 37.0973 150.871 37.6867 150.199 38.108C149.527 38.5293 148.769 38.74 147.927 38.74C147.084 38.74 146.343 38.5533 145.703 38.18C145.068 37.8067 144.575 37.2787 144.223 36.596C143.876 35.9133 143.703 35.1267 143.703 34.236C143.703 33.3027 143.873 32.4893 144.215 31.796C144.561 31.0973 145.047 30.5613 145.671 30.188C146.3 29.8093 147.031 29.62 147.863 29.62C148.689 29.62 149.401 29.8067 149.999 30.18C150.601 30.548 151.063 31.0787 151.383 31.772C151.703 32.46 151.863 33.2787 151.863 34.228C151.863 34.3827 151.86 34.5 151.855 34.58H145.231ZM147.911 30.9C147.137 30.9 146.527 31.116 146.079 31.548C145.631 31.98 145.356 32.6093 145.255 33.436H150.375C150.199 31.7453 149.377 30.9 147.911 30.9ZM157.612 29.62C158.396 29.62 159.078 29.8173 159.66 30.212C160.246 30.6067 160.694 31.1507 161.004 31.844C161.318 32.532 161.476 33.308 161.476 34.172C161.476 35.0413 161.318 35.8227 161.004 36.516C160.694 37.204 160.246 37.748 159.66 38.148C159.078 38.5427 158.393 38.74 157.604 38.74C157.033 38.74 156.521 38.636 156.068 38.428C155.614 38.2147 155.225 37.9133 154.9 37.524V38.5H153.628V26.98H155.06V30.644C155.374 30.3133 155.745 30.06 156.172 29.884C156.604 29.708 157.084 29.62 157.612 29.62ZM157.428 37.436C157.977 37.436 158.441 37.2947 158.82 37.012C159.204 36.7293 159.489 36.3427 159.676 35.852C159.868 35.3613 159.964 34.8013 159.964 34.172C159.964 33.548 159.868 32.9933 159.676 32.508C159.489 32.0173 159.201 31.6307 158.812 31.348C158.428 31.0653 157.953 30.924 157.388 30.924C156.572 30.924 155.953 31.2173 155.532 31.804C155.11 32.3907 154.9 33.18 154.9 34.172C154.9 35.164 155.11 35.956 155.532 36.548C155.958 37.14 156.59 37.436 157.428 37.436ZM166.368 38.732C165.686 38.732 165.08 38.6307 164.552 38.428C164.024 38.2253 163.595 37.932 163.264 37.548C162.934 37.164 162.72 36.7027 162.624 36.164L164.08 35.932C164.198 36.4067 164.467 36.78 164.888 37.052C165.31 37.324 165.832 37.46 166.456 37.46C167.043 37.46 167.504 37.34 167.84 37.1C168.182 36.8547 168.352 36.5187 168.352 36.092C168.352 35.836 168.294 35.636 168.176 35.492C168.064 35.348 167.843 35.212 167.512 35.084C167.182 34.9507 166.648 34.7853 165.912 34.588C165.139 34.38 164.536 34.1693 164.104 33.956C163.672 33.7373 163.363 33.4867 163.176 33.204C162.99 32.9213 162.896 32.5693 162.896 32.148C162.896 31.6467 163.035 31.2067 163.312 30.828C163.59 30.444 163.979 30.148 164.48 29.94C164.982 29.7267 165.56 29.62 166.216 29.62C166.867 29.62 167.451 29.7267 167.968 29.94C168.491 30.148 168.91 30.444 169.224 30.828C169.544 31.2067 169.734 31.6467 169.792 32.148L168.336 32.412C168.267 31.9427 168.032 31.572 167.632 31.3C167.238 31.028 166.731 30.892 166.112 30.892C165.76 30.892 165.448 30.9427 165.176 31.044C164.91 31.14 164.702 31.2787 164.552 31.46C164.403 31.636 164.328 31.8413 164.328 32.076C164.328 32.2947 164.392 32.476 164.52 32.62C164.654 32.764 164.894 32.9027 165.24 33.036C165.587 33.164 166.107 33.316 166.8 33.492C167.574 33.6893 168.176 33.9 168.608 34.124C169.04 34.348 169.35 34.612 169.536 34.916C169.728 35.22 169.824 35.5987 169.824 36.052C169.824 36.6067 169.686 37.0867 169.408 37.492C169.131 37.892 168.734 38.1987 168.216 38.412C167.699 38.6253 167.083 38.732 166.368 38.732ZM171.749 26.86H173.173V28.332H171.749V26.86ZM171.749 29.86H173.173V38.5H171.749V29.86ZM177.789 35.172V35.636C177.789 35.908 177.8 36.1267 177.821 36.292C177.842 36.4573 177.89 36.6013 177.965 36.724C178.093 36.9533 178.274 37.1187 178.509 37.22C178.749 37.3213 179.042 37.372 179.389 37.372C179.64 37.372 179.976 37.34 180.397 37.276V38.5C179.954 38.5907 179.528 38.636 179.117 38.636C178.546 38.636 178.045 38.5427 177.613 38.356C177.186 38.164 176.869 37.8653 176.661 37.46C176.538 37.22 176.458 36.9747 176.421 36.724C176.384 36.4733 176.365 36.1613 176.365 35.788V35.236V31.036H174.613V29.86H176.365V27.46H177.789V29.86H180.397V31.036H177.789V35.172ZM182.84 34.58C182.899 35.4813 183.152 36.1747 183.6 36.66C184.053 37.1453 184.677 37.388 185.472 37.388C186.037 37.388 186.531 37.2573 186.952 36.996C187.379 36.7347 187.712 36.3587 187.952 35.868L189.32 36.34C188.984 37.0973 188.48 37.6867 187.808 38.108C187.136 38.5293 186.379 38.74 185.536 38.74C184.693 38.74 183.952 38.5533 183.312 38.18C182.677 37.8067 182.184 37.2787 181.832 36.596C181.485 35.9133 181.312 35.1267 181.312 34.236C181.312 33.3027 181.483 32.4893 181.824 31.796C182.171 31.0973 182.656 30.5613 183.28 30.188C183.909 29.8093 184.64 29.62 185.472 29.62C186.299 29.62 187.011 29.8067 187.608 30.18C188.211 30.548 188.672 31.0787 188.992 31.772C189.312 32.46 189.472 33.2787 189.472 34.228C189.472 34.3827 189.469 34.5 189.464 34.58H182.84ZM185.52 30.9C184.747 30.9 184.136 31.116 183.688 31.548C183.24 31.98 182.965 32.6093 182.864 33.436H187.984C187.808 31.7453 186.987 30.9 185.52 30.9Z" fill="white"/>
<rect x="12.5" y="12.5" width="196" height="39" rx="19.5" stroke="#1B1F24" stroke-opacity="0.15" shape-rendering="crispEdges"/>
</g>
<defs>
<filter id="filter0_d_1405_936" x="12" y="12" width="197" height="41" filterUnits="userSpaceOnUse" color-interpolation-filters="sRGB">
<feFlood flood-opacity="0" result="BackgroundImageFix"/>
<feColorMatrix in="SourceAlpha" type="matrix" values="0 0 0 0 0 0 0 0 0 0 0 0 0 0 0 0 0 0 127 0" result="hardAlpha"/>
<feOffset dy="1"/>
<feComposite in2="hardAlpha" operator="out"/>
<feColorMatrix type="matrix" values="0 0 0 0 0.105882 0 0 0 0 0.121569 0 0 0 0 0.141176 0 0 0 0.04 0"/>
<feBlend mode="normal" in2="BackgroundImageFix" result="effect1_dropShadow_1405_936"/>
<feBlend mode="normal" in="SourceGraphic" in2="effect1_dropShadow_1405_936" result="shape"/>
</filter>
</defs>
</svg>
