<svg width="131" height="64" viewBox="0 0 131 64" fill="none" xmlns="http://www.w3.org/2000/svg">
<g clip-path="url(#clip0_1405_897)">
<rect width="131" height="64" rx="32" fill="#AFB8C1" fill-opacity="0.2"/>
<g filter="url(#filter0_d_1405_897)">
<rect x="12" y="12" width="107" height="40" rx="20" fill="#F6F8FA" shape-rendering="crispEdges"/>
<path d="M40.9407 33.9393L35.0317 28.0303C34.5592 27.5579 34.8939 26.75 35.5621 26.75H48.4407C49.1089 26.75 49.4435 27.5579 48.9711 28.0303L43.0621 33.9393C42.4763 34.5251 41.5265 34.5251 40.9407 33.9393Z" fill="#02DA9A"/>
<path fill-rule="evenodd" clip-rule="evenodd" d="M35.25 26C34.0074 26 33 27.0074 33 28.25V37.25C33 38.4926 34.0074 39.5 35.25 39.5H48.75C49.9926 39.5 51 38.4926 51 37.25V28.25C51 27.0074 49.9926 26 48.75 26H35.25ZM34.5 36.9393L38.6893 32.75L34.5 28.5607V36.9393ZM39.75 33.8107L35.5607 38H48.4393L44.25 33.8106L43.591 34.4697C42.7123 35.3483 41.2877 35.3483 40.409 34.4697L39.75 33.8107ZM49.5 28.5606V36.9393L45.3106 32.75L49.5 28.5606ZM48.4393 27.5H35.5606L41.4696 33.409C41.7625 33.7019 42.2374 33.7019 42.5303 33.409L48.4393 27.5Z" fill="black"/>
<path d="M61.12 26.98H68.4V28.332H62.544V31.94H67.44V33.292H62.544V37.148H68.4V38.5H61.12V26.98ZM79.1791 29.636C79.7711 29.636 80.2858 29.7613 80.7231 30.012C81.1605 30.2573 81.4965 30.6093 81.7311 31.068C81.9658 31.5213 82.0831 32.052 82.0831 32.66L82.0751 38.5H80.6511L80.6591 32.972C80.6591 32.5507 80.5791 32.1853 80.4191 31.876C80.2645 31.5613 80.0458 31.3213 79.7631 31.156C79.4858 30.9907 79.1658 30.908 78.8031 30.908C78.4671 30.908 78.1551 30.9853 77.8671 31.14C77.5791 31.2947 77.3471 31.5293 77.1711 31.844C77.0005 32.1587 76.9151 32.548 76.9151 33.012L76.9071 38.5H75.4911L75.4991 33.028C75.4991 32.596 75.4218 32.22 75.2671 31.9C75.1125 31.58 74.8938 31.3347 74.6111 31.164C74.3285 30.9933 74.0005 30.908 73.6271 30.908C73.2538 30.908 72.9258 30.996 72.6431 31.172C72.3605 31.348 72.1391 31.596 71.9791 31.916C71.8245 32.2307 71.7471 32.596 71.7471 33.012V38.5H70.3151V29.86H71.5871V30.78C71.8645 30.4227 72.2165 30.1427 72.6431 29.94C73.0698 29.7373 73.5365 29.636 74.0431 29.636C74.6245 29.636 75.1311 29.7613 75.5631 30.012C75.9951 30.2573 76.3285 30.6067 76.5631 31.06C76.8191 30.612 77.1765 30.2627 77.6351 30.012C78.0991 29.7613 78.6138 29.636 79.1791 29.636ZM90.8069 31.308C90.9189 31.5533 90.9935 31.8253 91.0309 32.124C91.0682 32.4173 91.0869 32.7613 91.0869 33.156V38.5H89.8229V37.156C89.1349 38.212 88.0682 38.74 86.6229 38.74C85.9989 38.74 85.4655 38.6253 85.0229 38.396C84.5802 38.1613 84.2469 37.8493 84.0229 37.46C83.7989 37.0707 83.6869 36.6387 83.6869 36.164C83.6869 34.8893 84.3935 34.044 85.8069 33.628C86.2229 33.516 86.7002 33.4173 87.2389 33.332C87.7775 33.2467 88.4229 33.1533 89.1749 33.052L89.6869 32.98C89.6655 32.2813 89.4895 31.7693 89.1589 31.444C88.8282 31.1133 88.2949 30.948 87.5589 30.948C87.0149 30.948 86.5482 31.0733 86.1589 31.324C85.7749 31.5693 85.5082 31.948 85.3589 32.46L84.0069 32.052C84.2149 31.2787 84.6202 30.6813 85.2229 30.26C85.8309 29.8333 86.6149 29.62 87.5749 29.62C88.3695 29.62 89.0442 29.764 89.5989 30.052C90.1589 30.3347 90.5615 30.7533 90.8069 31.308ZM86.8389 37.548C87.3349 37.548 87.7722 37.46 88.1509 37.284C88.5295 37.1027 88.8362 36.8627 89.0709 36.564C89.3055 36.26 89.4575 35.924 89.5269 35.556C89.5802 35.3747 89.6149 35.172 89.6309 34.948C89.6522 34.724 89.6655 34.4733 89.6709 34.196L89.2789 34.244C88.5269 34.3453 87.9482 34.428 87.5429 34.492C87.1429 34.556 86.7775 34.636 86.4469 34.732C86.0362 34.86 85.7082 35.036 85.4629 35.26C85.2229 35.484 85.1029 35.7827 85.1029 36.156C85.1029 36.4067 85.1642 36.6387 85.2869 36.852C85.4095 37.06 85.6015 37.228 85.8629 37.356C86.1242 37.484 86.4495 37.548 86.8389 37.548ZM93.3269 26.86H94.7509V28.332H93.3269V26.86ZM93.3269 29.86H94.7509V38.5H93.3269V29.86ZM97.3113 26.74H98.7353V38.5H97.3113V26.74Z" fill="black"/>
<rect x="12.5" y="12.5" width="106" height="39" rx="19.5" stroke="#1B1F24" stroke-opacity="0.15" shape-rendering="crispEdges"/>
</g>
</g>
<defs>
<filter id="filter0_d_1405_897" x="12" y="12" width="107" height="41" filterUnits="userSpaceOnUse" color-interpolation-filters="sRGB">
<feFlood flood-opacity="0" result="BackgroundImageFix"/>
<feColorMatrix in="SourceAlpha" type="matrix" values="0 0 0 0 0 0 0 0 0 0 0 0 0 0 0 0 0 0 127 0" result="hardAlpha"/>
<feOffset dy="1"/>
<feComposite in2="hardAlpha" operator="out"/>
<feColorMatrix type="matrix" values="0 0 0 0 0.105882 0 0 0 0 0.121569 0 0 0 0 0.141176 0 0 0 0.04 0"/>
<feBlend mode="normal" in2="BackgroundImageFix" result="effect1_dropShadow_1405_897"/>
<feBlend mode="normal" in="SourceGraphic" in2="effect1_dropShadow_1405_897" result="shape"/>
</filter>
<clipPath id="clip0_1405_897">
<rect width="131" height="64" fill="white"/>
</clipPath>
</defs>
</svg>
