<svg width="1400" height="1200" viewBox="0 0 1400 1200" fill="none" xmlns="http://www.w3.org/2000/svg">
<g clip-path="url(#clip0_1865_2685)">
<rect width="1400" height="1200" rx="64" fill="#003324"/>
<path opacity="0.3" fill-rule="evenodd" clip-rule="evenodd" d="M-615 600H300V648.167V650.17V656.167V658.17V849.536V857.536V921L-615 921V600ZM308 857.536V921V929H300L-615 929H-623V600V592H-615H300H308H1092H1100H2015H2023V600V921V929H2015L1100 929H1092V857.536H310L308 857.536ZM308 849.536L310 849.536L1090 849.536L1092 849.536V658.17H308V849.536ZM1100 849.536V857.536V921L2015 921V600H1100V648.167V650.17V656.167V658.17V849.536ZM308 648.167V600H1092V648.167H308Z" fill="#6E7681"/>
<rect opacity="0.3" x="4" y="-4" width="472" height="232" rx="20" transform="matrix(1 0 0 -1 -296.074 332)" stroke="#6E7681" stroke-width="8"/>
<path opacity="0.3" d="M-133.737 132.586C-153.05 123.555 -197.56 154.089 -211.723 190.118C-218.655 207.754 -226.646 224.39 -220.94 235.165C-204.977 265.306 -175.057 172.723 -154.036 179.026C-138.215 183.77 -160.232 245.114 -132.13 266.059C-93.6818 294.716 -66.7104 182.148 -22.3609 200.386C-10.0661 205.442 -33.7748 275.951 -8.83747 285.21C10.9967 292.574 50.242 232.252 67.9872 243.773C81.1416 252.313 37.7946 280.912 53.697 301.505C78.2558 333.306 107.79 292.329 107.423 247.223C107.201 219.974 91.2461 199.746 71.9222 198.795C51.0281 197.766 21.5168 254.898 8.4472 238.564C-3.45506 223.688 12.9102 136.334 -28.3398 150.437C-69.5897 164.54 -79.8383 229.519 -107.943 214.547C-137.559 198.77 -108.49 144.391 -133.737 132.586Z" fill="#6E7681"/>
<path opacity="0.3" d="M1240.86 505H1176.91C1171.59 505 1167.43 509.597 1167.96 514.896L1174.46 579.896C1174.92 584.496 1178.79 588 1183.41 588H1234.36C1238.99 588 1242.86 584.496 1243.32 579.896L1249.82 514.896C1250.35 509.597 1246.19 505 1240.86 505Z" stroke="#6E7681" stroke-width="8" stroke-linejoin="round"/>
<path opacity="0.3" d="M1190.96 453.092C1190.96 453.092 1182.02 449.668 1174.38 452.132C1166.61 454.64 1159.4 461.549 1163.25 468.754C1166.72 475.229 1175.06 475.869 1182.02 473.603C1190.96 470.689 1192.45 462.16 1192.45 462.16" stroke="#6E7681" stroke-width="8" stroke-linecap="round"/>
<path opacity="0.3" d="M1220.12 449.337C1220.12 449.337 1229.76 445.686 1237.22 448.497C1244.69 451.307 1252.8 457.989 1248.88 465.068C1245.36 471.409 1237.22 472.188 1229.56 469.753C1221.9 467.319 1218.68 458.326 1218.68 458.326" stroke="#6E7681" stroke-width="8" stroke-linecap="round"/>
<path opacity="0.3" d="M1190.55 413.526C1190.55 413.526 1178.18 408.287 1167.31 413.613C1156.43 418.94 1150.11 429.12 1154.2 436.024C1158.57 443.429 1168.83 443.512 1178.51 439.513C1188.19 435.514 1192.31 424.323 1192.31 424.323" stroke="#6E7681" stroke-width="8" stroke-linecap="round"/>
<path opacity="0.3" d="M1219.36 407.214C1219.36 407.214 1230.34 403.886 1242.28 406.255C1254.23 408.624 1264.62 417.938 1260.35 426.587C1256.52 434.335 1245.04 435.078 1235 432.244C1226.38 429.812 1218.71 418.212 1218.71 418.212" stroke="#6E7681" stroke-width="8" stroke-linecap="round"/>
<path opacity="0.3" d="M1184.78 369.071C1184.78 369.071 1170.58 366.314 1157.14 374.926C1143.71 383.538 1139.08 393.295 1145.78 400.542C1151.8 407.055 1164.77 404.208 1174.29 398.375C1184.78 391.95 1188.22 379.656 1188.22 379.656" stroke="#6E7681" stroke-width="8" stroke-linecap="round"/>
<path opacity="0.3" d="M1213.54 368.202C1213.54 368.202 1221.85 363.02 1240.17 363.045C1258.48 363.07 1268.58 371.394 1265.27 381.334C1262.31 390.24 1249.02 393.101 1236.72 391.912C1226.15 390.891 1214.92 379.98 1214.92 379.98" stroke="#6E7681" stroke-width="8" stroke-linecap="round"/>
<path opacity="0.3" d="M1202.36 488.8C1210.03 445.545 1211.21 389.011 1192.13 356.31" stroke="#6E7681" stroke-width="8" stroke-linecap="round"/>
<path opacity="0.3" fill-rule="evenodd" clip-rule="evenodd" d="M524 586C524 582.686 526.686 580 530 580L870 580C873.314 580 876 582.686 876 586C876 589.314 873.314 592 870 592L530 592C526.686 592 524 589.314 524 586Z" fill="#6E7681"/>
<rect opacity="0.3" x="540" y="366" width="320" height="210" rx="12" stroke="#6E7681" stroke-width="8" stroke-linejoin="round"/>
<path opacity="0.3" d="M559 541.465L559 384.465L841 384.465L841 541.465L559 541.465Z" stroke="#6E7681" stroke-width="8" stroke-linecap="round" stroke-linejoin="round"/>
<path opacity="0.3" fill-rule="evenodd" clip-rule="evenodd" d="M239.746 521H274.065C281.245 521 287.065 526.821 287.065 534V579.403C287.065 586.582 281.245 592.403 274.065 592.403H239.746C232.566 592.403 226.746 586.582 226.746 579.403V577.715C225.785 577.906 224.792 578.007 223.771 578.007C218.17 578.007 213.405 574.972 210.176 570.668C206.948 566.365 205.07 560.604 205.07 554.41C205.07 548.217 206.948 542.456 210.176 538.153C213.405 533.849 218.17 530.814 223.771 530.814C224.902 530.814 225.998 530.938 227.055 531.171C228.347 525.352 233.538 521 239.746 521ZM223.771 570.007C224.764 570.007 225.767 569.797 226.746 569.372V539.449C225.767 539.024 224.764 538.814 223.771 538.814C221.252 538.814 218.668 540.165 216.576 542.954C214.483 545.744 213.07 549.781 213.07 554.41C213.07 559.04 214.483 563.077 216.576 565.867C218.668 568.655 221.252 570.007 223.771 570.007ZM234.746 579.403V573.558C234.747 573.558 234.747 573.557 234.748 573.557V535.264C234.747 535.264 234.747 535.263 234.746 535.263V534C234.746 533.954 234.747 533.907 234.748 533.86V533.267C234.748 530.506 236.987 528.267 239.748 528.267H274.067C276.829 528.267 279.067 530.506 279.067 533.267V578.669C279.067 578.716 279.066 578.763 279.065 578.809V579.403C279.065 582.164 276.827 584.403 274.065 584.403H239.746C236.985 584.403 234.746 582.164 234.746 579.403Z" fill="#6E7681"/>
<path opacity="0.3" d="M270.906 571.201C272.563 571.201 273.906 569.858 273.906 568.201C273.906 566.544 272.563 565.201 270.906 565.201C269.249 565.201 267.906 566.544 267.906 568.201C267.906 569.858 269.249 571.201 270.906 571.201Z" fill="#6E7681"/>
<path opacity="0.3" d="M247.906 542.201V571.201H252.906V560.357C252.906 559.56 253.384 558.684 254.556 557.884C255.733 557.081 257.211 556.659 258.264 556.659C259.052 556.659 259.63 556.971 260.067 557.52C260.541 558.117 260.906 559.086 260.906 560.357V571.2L265.906 571.201V560.357C265.906 558.177 265.284 556.048 263.98 554.408C262.638 552.721 260.644 551.659 258.264 551.659C256.551 551.659 254.619 552.156 252.906 553.054V542.202L247.906 542.201Z" fill="#6E7681"/>
<path opacity="0.3" d="M96.7812 588L176.781 588" stroke="#6E7681" stroke-width="8" stroke-linecap="round"/>
<circle opacity="0.3" cx="700" cy="180" r="84" stroke="#6E7681" stroke-width="8"/>
<g opacity="0.3">
<path fill-rule="evenodd" clip-rule="evenodd" d="M772.725 180C772.725 177.055 770.337 174.667 767.392 174.667C764.446 174.667 762.059 177.055 762.059 180H772.725Z" fill="#6E7681"/>
<path d="M772.725 180C772.725 182.946 770.337 185.334 767.392 185.334C764.446 185.334 762.059 182.946 762.059 180M772.725 180C772.725 177.055 770.337 174.667 767.392 174.667C764.446 174.667 762.059 177.055 762.059 180M772.725 180H762.059" stroke="#6E7681" stroke-width="2"/>
</g>
<g opacity="0.3">
<path fill-rule="evenodd" clip-rule="evenodd" d="M627.275 180C627.275 182.945 629.663 185.333 632.608 185.333C635.554 185.333 637.941 182.945 637.941 180H627.275Z" fill="#6E7681"/>
<path d="M627.275 180C627.275 177.054 629.663 174.666 632.608 174.666C635.554 174.666 637.941 177.054 637.941 180M627.275 180C627.275 182.945 629.663 185.333 632.608 185.333C635.554 185.333 637.941 182.945 637.941 180M627.275 180H637.941" stroke="#6E7681" stroke-width="2"/>
</g>
<g opacity="0.3">
<path fill-rule="evenodd" clip-rule="evenodd" d="M694.665 247.392C694.665 250.338 697.053 252.726 699.999 252.726C702.944 252.726 705.332 250.338 705.332 247.392H694.665Z" fill="#6E7681"/>
<path d="M699.999 242.059C697.053 242.059 694.665 244.447 694.665 247.392H705.332C705.332 244.447 702.944 242.059 699.999 242.059Z" fill="#6E7681"/>
<path d="M694.665 247.392C694.665 244.447 697.053 242.059 699.999 242.059C702.944 242.059 705.332 244.447 705.332 247.392M694.665 247.392C694.665 250.338 697.053 252.726 699.999 252.726C702.944 252.726 705.332 250.338 705.332 247.392M694.665 247.392H705.332" stroke="#6E7681" stroke-width="2"/>
</g>
<path opacity="0.3" d="M699.999 117.94C697.053 117.94 694.665 115.552 694.665 112.607C694.665 109.661 697.053 107.273 699.999 107.273C702.944 107.273 705.332 109.661 705.332 112.607C705.332 115.552 702.944 117.94 699.999 117.94Z" stroke="#6E7681" stroke-width="2"/>
<path opacity="0.3" fill-rule="evenodd" clip-rule="evenodd" d="M772.727 181H704.15C703.728 182.76 702.214 184.095 700.364 184.251L683.981 222.735L680.301 221.169L696.684 182.684C696.09 181.951 695.735 181.017 695.735 180C695.735 178.172 696.884 176.612 698.5 176.005V117.94H701.5V176.004C702.813 176.496 703.818 177.617 704.15 179H772.727V181Z" fill="#6E7681"/>
<path opacity="0.3" d="M928.578 585.091L926.378 574.631C926.212 573.842 926.297 573.224 926.485 572.808C930.059 564.904 937.57 561 948.25 561C958.93 561 966.441 564.904 970.015 572.808C970.203 573.224 970.288 573.841 970.122 574.631L967.922 585.091C967.533 586.943 965.9 588.268 964.008 588.268H932.492C930.601 588.268 928.967 586.943 928.578 585.091Z" stroke="#6E7681" stroke-width="8" stroke-linejoin="round"/>
<rect opacity="0.3" x="354" y="496" width="92" height="92" rx="8" stroke="#6E7681" stroke-width="8"/>
<path opacity="0.3" d="M386.678 531.314H390.698L390.698 569.314H386.971L386.971 537.499V536.292L386.118 537.146L376.328 546.935V541.664L386.678 531.314Z" fill="#6E7681" stroke="#6E7681"/>
<path opacity="0.3" d="M398.789 549.723C398.789 542.899 400.37 538.296 402.684 535.41C404.991 532.534 408.063 531.314 411.17 531.314C414.279 531.314 417.382 532.535 419.717 535.412C422.061 538.299 423.67 542.901 423.67 549.723C423.67 557.145 422.057 562.044 419.71 565.077C417.375 568.095 414.276 569.313 411.17 569.313C408.065 569.313 404.998 568.096 402.692 565.079C400.374 562.047 398.789 557.147 398.789 549.723ZM411.17 534.45C409.116 534.45 406.929 535.482 405.275 537.921C403.629 540.348 402.516 544.152 402.516 549.723C402.516 556.456 403.621 560.565 405.275 563.002C406.955 565.479 409.164 566.177 411.17 566.177C413.175 566.177 415.412 565.48 417.123 563.006C418.808 560.568 419.943 556.458 419.943 549.723C419.943 544.149 418.8 540.344 417.123 537.918C415.438 535.48 413.222 534.45 411.17 534.45Z" fill="#6E7681" stroke="#6E7681"/>
<path opacity="0.3" fill-rule="evenodd" clip-rule="evenodd" d="M379.746 511.667C378.569 511.667 377.815 512.567 377.815 513.417C377.815 513.791 378.017 514.105 378.459 514.418C378.911 514.738 379.496 514.97 380.063 515.196L380.074 515.2V515.2C380.083 515.204 380.093 515.208 380.102 515.211C380.637 515.424 381.378 515.718 381.985 516.149C382.609 516.592 383.211 517.266 383.211 518.25C383.211 519.856 381.841 521.333 379.947 521.333C378.374 521.333 377.111 520.344 376.469 519.435L377.558 518.665C378.034 519.34 378.935 520 379.947 520C381.124 520 381.878 519.101 381.878 518.25C381.878 517.885 381.672 517.562 381.213 517.237C380.748 516.907 380.147 516.664 379.581 516.439C379.559 516.43 379.537 516.421 379.514 516.412C378.987 516.203 378.274 515.92 377.689 515.507C377.068 515.067 376.482 514.4 376.482 513.417C376.482 511.811 377.852 510.334 379.746 510.334C381.318 510.334 382.581 511.321 383.224 512.231L382.135 513C381.659 512.326 380.758 511.667 379.746 511.667Z" fill="#6E7681"/>
<path opacity="0.3" d="M416.039 513.335L419.118 521.791L417.949 525H419.283L423.529 513.335H422.196L419.784 519.96L417.372 513.335H416.039Z" fill="#6E7681"/>
<path opacity="0.3" d="M391.356 513.335V521.334H390.022V520.32C389.831 520.976 388.783 521.668 388.039 521.668C386.207 521.668 384.723 519.97 384.723 518.08V513.335H386.056V518.08C386.056 519.273 386.983 520.335 388.039 520.335C389.096 520.335 390.022 519.441 390.022 518.248V513.335H391.356Z" fill="#6E7681"/>
<path opacity="0.3" d="M392.855 521.334V513.334H394.189V514.349C394.38 513.692 395.095 513.001 396.172 513.001C398.337 513.001 399.488 514.699 399.488 516.589V521.334H398.155V516.589C398.155 515.396 397.228 514.251 396.172 514.251C395.115 514.251 394.189 515.228 394.189 516.421V521.334H392.855Z" fill="#6E7681"/>
<path opacity="0.3" fill-rule="evenodd" clip-rule="evenodd" d="M406.288 520.655C405.735 521.081 405.048 521.334 404.305 521.334C402.473 521.334 400.988 519.802 400.988 517.913L400.988 516.089C400.988 514.199 402.473 512.668 404.305 512.668C405.048 512.668 405.735 512.92 406.288 513.346V510H407.621V521.333H406.288V520.655ZM404.305 514.001C405.361 514.001 406.288 514.896 406.288 516.089V517.913C406.288 519.105 405.361 520.001 404.305 520.001C403.248 520.001 402.322 519.105 402.322 517.913L402.322 516.089C402.322 514.896 403.248 514.001 404.305 514.001Z" fill="#6E7681"/>
<path opacity="0.3" fill-rule="evenodd" clip-rule="evenodd" d="M412.329 514.668C411.328 514.668 410.638 515.194 410.385 515.704L409.191 515.111C409.688 514.109 410.866 513.335 412.329 513.335C413.993 513.335 415.537 514.497 415.537 516.154V521.334L414.204 521.334V520.589C413.57 521.064 412.787 521.334 412.051 521.334C411.345 521.334 410.635 521.197 410.08 520.834C409.491 520.449 409.121 519.836 409.121 519.039C409.121 518.285 409.414 517.687 409.902 517.254C410.367 516.843 410.97 516.614 411.565 516.483C412.15 516.353 412.675 516.3 413.193 516.263C413.346 516.251 413.496 516.242 413.645 516.232C413.829 516.22 414.014 516.208 414.204 516.193V516.154C414.204 515.433 413.473 514.668 412.329 514.668ZM414.204 517.53C414.031 517.543 413.865 517.554 413.705 517.564C413.561 517.574 413.423 517.583 413.29 517.592C412.798 517.628 412.346 517.676 411.853 517.784C411.37 517.891 411.013 518.052 410.786 518.253C410.583 518.432 410.454 518.668 410.454 519.039C410.454 519.37 410.583 519.57 410.809 519.718C411.069 519.888 411.491 520.001 412.051 520.001C412.517 520.001 413.073 519.805 413.507 519.441C413.932 519.085 414.204 518.603 414.204 518.03V517.53Z" fill="#6E7681"/>
<path opacity="0.3" d="M375 489V503" stroke="#6E7681" stroke-width="4" stroke-linecap="round" stroke-linejoin="round"/>
<path opacity="0.3" d="M385 489V503" stroke="#6E7681" stroke-width="4" stroke-linecap="round" stroke-linejoin="round"/>
<path opacity="0.3" d="M395 489V503" stroke="#6E7681" stroke-width="4" stroke-linecap="round" stroke-linejoin="round"/>
<path opacity="0.3" d="M405 489V503" stroke="#6E7681" stroke-width="4" stroke-linecap="round" stroke-linejoin="round"/>
<path opacity="0.3" d="M415 489V503" stroke="#6E7681" stroke-width="4" stroke-linecap="round" stroke-linejoin="round"/>
<path opacity="0.3" d="M425 489V503" stroke="#6E7681" stroke-width="4" stroke-linecap="round" stroke-linejoin="round"/>
<path opacity="0.3" fill-rule="evenodd" clip-rule="evenodd" d="M303.999 -400C303.999 -402.209 302.208 -404 299.999 -404C297.79 -404 295.999 -402.209 295.999 -400V97.6128C273.589 99.3866 255.338 115.936 250.986 137.519C249.895 142.933 254.476 147.455 259.999 147.455H339.999C345.522 147.455 350.103 142.933 349.012 137.519C344.66 115.936 326.409 99.3866 303.999 97.6128V-400ZM299.999 105.455C320.306 105.455 337.263 119.875 341.157 139.038C341.001 139.204 340.599 139.455 339.999 139.455H259.999C259.399 139.455 258.997 139.204 258.841 139.038C262.735 119.875 279.692 105.455 299.999 105.455Z" fill="#6E7681"/>
<circle opacity="0.3" cx="1095" cy="554.5" r="25" stroke="#6E7681" stroke-width="8"/>
<path opacity="0.3" fill-rule="evenodd" clip-rule="evenodd" d="M1031 513C1028.79 513 1027 514.791 1027 517H1017C1010.37 517 1005 522.373 1005 529V580C1005 586.627 1010.37 592 1017 592H1031H1129C1135.63 592 1141 586.627 1141 580V529C1141 522.373 1135.63 517 1129 517H1035C1035 514.791 1033.21 513 1031 513ZM1129 525H1042.32C1042.76 526.251 1043 527.597 1043 529V580C1043 581.403 1042.76 582.749 1042.32 584H1129C1131.21 584 1133 582.209 1133 580V529C1133 526.791 1131.21 525 1129 525ZM1017 525H1031C1033.21 525 1035 526.791 1035 529V580C1035 582.209 1033.21 584 1031 584H1017C1014.79 584 1013 582.209 1013 580V529C1013 526.791 1014.79 525 1017 525Z" fill="#6E7681"/>
<circle opacity="0.3" cx="1095" cy="554.5" r="3.5" stroke="#6E7681" stroke-width="3"/>
<path fill-rule="evenodd" clip-rule="evenodd" d="M472.071 457.532C429.159 457.532 404.391 424.7 404.391 379.196C404.391 332.828 432.327 304.892 472.359 304.892C492.807 304.892 510.951 313.82 519.015 327.068L521.319 309.5H563.079V522.62H518.727V439.1C510.375 450.044 491.943 457.532 472.071 457.532ZM449.031 381.5C449.031 360.188 462.279 345.5 483.303 345.5C504.039 345.5 518.439 359.9 518.439 381.5C518.439 403.1 504.039 417.5 483.303 417.5C462.279 417.5 449.031 402.812 449.031 381.5Z" fill="#016F4E"/>
<path d="M920.412 309.499C914.364 308.059 908.604 307.483 903.42 307.483C884.124 307.483 871.452 316.987 865.404 331.099L863.1 309.787H821.34V453.499H865.692V391.003C865.692 362.491 880.956 351.259 906.3 351.259H920.412V309.499Z" fill="#016F4E"/>
<path fill-rule="evenodd" clip-rule="evenodd" d="M461.487 770.5H419.727V553.348H464.079V643.204C472.719 630.244 491.727 621.604 512.463 621.604C552.783 621.604 578.415 652.996 578.415 699.94C578.415 744.58 549.903 774.244 509.007 774.244C490.902 774.244 475.119 767.043 466.458 755.979L461.487 770.5ZM476.703 726.054C482.661 730.911 490.483 733.636 499.503 733.636C520.527 733.636 533.775 718.948 533.775 697.636C533.775 676.324 520.527 661.636 499.503 661.636C499.252 661.636 499.003 661.638 498.755 661.642C478.421 661.984 464.367 676.296 464.367 697.636C464.367 709.84 468.964 719.745 476.703 726.054Z" fill="#016F4E"/>
<path d="M966.408 578.692C966.408 592.804 955.176 604.036 941.352 604.036C927.24 604.036 916.008 592.804 916.008 578.692C916.008 564.58 927.24 553.636 941.352 553.636C955.176 553.636 966.408 564.58 966.408 578.692Z" fill="#016F4E"/>
<path d="M919.464 770.5H963.816V626.5H919.464V770.5Z" fill="#016F4E"/>
<path fill-rule="evenodd" clip-rule="evenodd" d="M564.219 556.754C567.059 583.358 572.982 604.405 584.171 619.441C603.585 645.529 627.307 659.92 653.593 666.892C653.582 668.166 653.555 669.484 653.497 670.838C653.493 670.947 653.488 671.056 653.483 671.166C652.988 681.965 650.531 695.003 639.329 706.344C630.926 714.851 617.602 722.404 596.494 727.343C596.023 726.985 595.549 726.633 595.072 726.288C594.605 725.951 594.016 725.828 593.453 725.95C577.971 729.313 558.363 731.317 533.54 731.317C532.81 731.317 531.995 731.305 531.09 731.293C521.832 731.164 504.233 730.918 489.078 742.37C473.775 753.934 461.388 776.98 461.388 822.257C461.388 835.831 459.581 873.314 455.931 921.022C455.888 921.585 456.082 922.14 456.466 922.554C456.849 922.969 457.388 923.204 457.953 923.204H461.541L461.541 923.205C458.921 1020.63 453.397 1159.11 444 1229.37H538.008L538.008 1229.37C538.039 1229.37 538.069 1229.37 538.099 1229.37H868.446C868.477 1229.37 868.507 1229.37 868.538 1229.37L868.538 1229.37L899.775 1229.37L956 1229.37C947.54 1160.48 944.641 1026.01 943.648 928.949C943.628 927.019 943.609 925.104 943.591 923.204H948.592C949.157 923.204 949.696 922.969 950.08 922.554C950.464 922.14 950.657 921.585 950.614 921.022C946.965 873.314 945.157 835.831 945.157 822.257C945.157 776.98 932.771 753.934 917.467 742.37C902.313 730.918 884.811 731.162 875.553 731.291C874.648 731.304 873.735 731.317 873.005 731.317C857.809 731.317 844.567 730.566 833.03 729.212L760.746 668.125C784.764 660.408 806.639 646.312 824.834 621.862C825.988 620.31 827.088 618.701 828.134 617.037C835.458 605.386 840.184 591.001 843.173 574.25C843.6 571.856 843.992 569.409 844.352 566.91C844.775 563.974 845.153 560.966 845.489 557.887C849.293 559.145 852.919 559.948 855.545 559.95C855.921 559.951 856.275 559.935 856.607 559.901C867.598 558.798 873.103 542.02 876.899 526.188C877.441 523.927 877.949 521.684 878.432 519.509C883.29 497.66 881.43 469.144 871.087 465.783L871.087 465.783C869.264 465.191 867.475 464.955 865.727 464.999C865.637 465.001 865.547 465.005 865.456 465.008L865.384 465.011L865.342 465.013C858.637 465.339 852.559 469.718 847.613 473.725C847.349 461.974 846.82 451.719 845.814 442.49C843.265 419.115 837.66 402.325 825.564 384.493C808.029 360.303 774.887 338.945 711.301 340.074C709.39 340.028 707.457 340.003 705.501 340C705.337 340 705.173 340 705.009 340C704.301 340.001 703.59 340.004 702.877 340.01C699.394 339.979 695.981 340.019 692.638 340.125C637.881 341.865 601.946 361.511 586.781 382.185C580.751 390.406 576.169 398.239 572.691 406.512C568.199 417.203 565.551 428.63 564.009 442.583L564.01 442.583C562.926 452.389 562.39 463.442 562.143 476.364C561.754 476.045 561.356 475.716 560.948 475.379C554.393 469.963 545.416 462.547 535.459 465.783C525.116 469.145 523.256 497.66 528.114 519.51C531.982 536.907 537.378 558.64 549.939 559.902C553.234 560.233 558.775 558.855 564.219 556.754ZM760.746 668.125L757.075 665.023L760.746 668.125L760.746 668.125ZM760.746 668.125L833.026 729.211C825.719 728.354 819.095 727.254 813.092 725.95C812.529 725.828 811.941 725.951 811.474 726.288C810.997 726.633 810.523 726.985 810.052 727.343C788.944 722.404 775.621 714.852 767.218 706.345C755.738 694.724 753.442 681.321 753.03 670.371C755.625 669.691 758.197 668.944 760.746 668.125ZM941.096 820.545L941.096 820.538L838.546 733.873L838.542 733.873L941.096 820.545Z" fill="#1C5947"/>
<path d="M1301.4 712.824V706.776C1301.4 692.662 1312.64 684.021 1325.89 675.093C1342.3 663.859 1362.75 649.17 1362.75 617.775C1362.75 577.451 1335.68 553.544 1290.46 553.544C1245.53 553.544 1214.42 583.787 1214.42 627.856H1260.79C1260.79 607.694 1271.74 595.021 1289.31 595.021C1305.72 595.021 1314.94 604.526 1314.94 620.943C1314.94 635.057 1304.57 643.697 1292.76 653.202C1278.07 665.012 1261.37 678.837 1261.37 706.776V712.824H1301.4Z" fill="#016F4E"/>
<path fill-rule="evenodd" clip-rule="evenodd" d="M185.289 453.652H136.617L212.649 240.532H258.153L333.897 453.652H284.361L269.385 408.724H200.65L185.289 453.652ZM214.089 369.556H256.137L240.873 324.052C238.962 318.079 236.852 311.312 235.695 306.22C235.458 305.174 235.26 304.199 235.113 303.316C234.249 308.212 231.945 316.276 229.353 324.052L214.089 369.556Z" fill="#016F4E"/>
<path d="M683.36 265.864V340.744C683.36 364.36 675.584 374.152 656.576 374.152C638.432 374.152 630.368 363.784 630.368 340.168V265.864H586.016V356.296C586.016 391.72 606.176 413.608 639.008 413.608C656.288 413.608 674.144 405.544 683.072 393.736L685.952 409.864H727.712V265.864H683.36Z" fill="#016F4E"/>
<path d="M774.242 243.4C788.066 243.4 799.298 232.168 799.298 218.056C799.298 203.944 788.066 193 774.242 193C760.13 193 748.898 203.944 748.898 218.056C748.898 232.168 760.13 243.4 774.242 243.4ZM774.242 243.4C788.066 243.4 799.298 232.168 799.298 218.056C799.298 203.944 788.066 193 774.242 193C760.13 193 748.898 203.944 748.898 218.056C748.898 232.168 760.13 243.4 774.242 243.4Z" fill="#016F4E"/>
<path d="M796.707 409.864H752.355V265.864H796.707V409.864Z" fill="#016F4E"/>
<path d="M978.555 453.652V417.652L995.547 399.796L1027.8 453.652H1079.07L1026.65 366.676L1080.8 309.652H1025.21L978.555 361.492V236.5H934.203V453.652H978.555Z" fill="#016F4E"/>
<path d="M1078.85 522.772C1087.49 525.364 1097.57 526.804 1108.23 526.804C1133.57 526.804 1149.7 514.42 1161.8 485.044L1234.95 309.652H1188.87L1154.02 402.1L1122.63 309.652H1075.11L1133 458.548L1130.41 465.46C1124.65 481.012 1118.31 485.62 1103.33 485.62H1078.85V522.772Z" fill="#016F4E"/>
<path d="M130.079 770.652V691.74C130.079 673.884 141.311 662.364 158.879 662.364C174.143 662.364 184.223 674.172 184.223 692.316V770.652H228.575V681.66C228.575 643.932 208.703 622.044 174.431 622.044C155.711 622.044 139.295 629.244 130.367 641.628V553.5H85.7266V770.652H130.079Z" fill="#016F4E"/>
<path fill-rule="evenodd" clip-rule="evenodd" d="M323.453 774.108C277.373 774.108 243.965 743.868 243.965 698.364C243.965 652.86 277.373 622.332 323.453 622.332C369.245 622.332 402.653 652.86 402.653 698.364C402.653 743.868 369.245 774.108 323.453 774.108ZM288.605 698.076C288.605 676.476 302.717 662.076 323.453 662.076C343.901 662.076 358.013 676.476 358.013 698.076C358.013 719.964 343.901 734.364 323.453 734.364C302.717 734.364 288.605 719.964 288.605 698.076Z" fill="#016F4E"/>
<path fill-rule="evenodd" clip-rule="evenodd" d="M637.065 770.652H595.305V553.5H639.657V643.356C648.297 630.396 667.305 621.756 688.041 621.756C728.361 621.756 753.993 653.148 753.993 700.092C753.993 744.732 725.481 774.396 684.585 774.396C666.48 774.396 650.697 767.195 642.036 756.132L637.065 770.652ZM652.281 726.206C658.24 731.063 666.061 733.788 675.081 733.788C696.105 733.788 709.353 719.1 709.353 697.788C709.353 676.476 696.105 661.788 675.081 661.788C674.831 661.788 674.581 661.79 674.333 661.794C653.999 662.136 639.945 676.448 639.945 697.788C639.945 709.992 644.542 719.898 652.281 726.206Z" fill="#016F4E"/>
<path d="M753.74 839.772C762.38 842.364 772.46 843.804 783.116 843.804C808.46 843.804 824.588 831.42 836.684 802.044L909.836 626.652H863.756L828.908 719.1L797.516 626.652H749.996L807.884 775.548L805.292 782.46C799.532 798.012 793.196 802.62 778.22 802.62H753.74V839.772Z" fill="#016F4E"/>
<path d="M978.082 725.148C978.082 754.236 1001.99 774.396 1040 774.396C1077.44 774.396 1103.65 755.676 1103.65 724.86C1103.65 701.82 1090.69 690.876 1067.07 685.692L1040.29 679.932C1030.21 677.628 1024.74 673.884 1024.74 667.26C1024.74 659.484 1031.07 654.3 1041.15 654.3C1051.81 654.3 1057.86 660.924 1057.86 670.716H1099.91C1099.91 641.628 1076.58 622.044 1043.17 622.044C1008.61 622.044 982.978 639.324 982.978 669.276C982.978 694.62 995.938 706.14 1022.43 711.9L1048.93 717.66C1059.59 719.964 1061.89 724.572 1061.89 728.892C1061.89 736.38 1055.55 741.276 1041.73 741.276C1028.19 741.276 1020.71 735.228 1020.13 725.148H978.082Z" fill="#016F4E"/>
<path d="M1203.14 732.06C1197.96 733.788 1192.78 734.652 1188.46 734.652C1178.09 734.652 1170.89 729.18 1170.89 711.036V663.516H1202.86V626.652H1170.89V582.012H1126.54V626.652H1104.65V663.516H1126.54V720.252C1126.54 760.572 1147.27 774.108 1176.94 774.108C1189.03 774.108 1199.98 771.804 1208.33 767.772L1203.14 732.06Z" fill="#016F4E"/>
<path d="M1282.63 774.396C1296.74 774.396 1309.13 762.588 1309.13 748.476C1309.13 734.076 1296.74 722.268 1282.63 722.268C1267.94 722.268 1256.14 734.076 1256.14 748.476C1256.14 762.588 1267.94 774.396 1282.63 774.396Z" fill="#016F4E"/>
</g>
<defs>
<clipPath id="clip0_1865_2685">
<rect width="1400" height="1200" rx="64" fill="white"/>
</clipPath>
</defs>
</svg>
