<svg width="2160" height="1200" viewBox="0 0 2160 1200" fill="none" xmlns="http://www.w3.org/2000/svg">
<g clip-path="url(#clip0_1862_2392)">
<rect width="2160" height="1200" rx="64" fill="#003324"/>
<path opacity="0.3" fill-rule="evenodd" clip-rule="evenodd" d="M-235 600H680V648.167V650.17V656.167V658.17V849.536V857.536V921L-235 921V600ZM688 857.536V921V929H680L-235 929H-243V600V592H-235H680H688H1472H1480H2395H2403V600V921V929H2395L1480 929H1472V857.536H690L688 857.536ZM688 849.536L690 849.536L1470 849.536L1472 849.536V658.17H688V849.536ZM1480 849.536V857.536V921L2395 921V600H1480V648.167V650.17V656.167V658.17V849.536ZM688 648.167V600H1472V648.167H688Z" fill="#6E7681"/>
<rect opacity="0.3" x="4" y="-4" width="472" height="232" rx="20" transform="matrix(1 0 0 -1 83.9258 332)" stroke="#6E7681" stroke-width="8"/>
<path opacity="0.3" d="M246.263 132.586C226.95 123.555 182.44 154.089 168.277 190.118C161.345 207.754 153.354 224.39 159.06 235.165C175.023 265.306 204.943 172.723 225.964 179.026C241.785 183.77 219.768 245.114 247.87 266.059C286.318 294.716 313.29 182.148 357.639 200.386C369.934 205.442 346.225 275.951 371.163 285.21C390.997 292.574 430.242 232.252 447.987 243.773C461.142 252.313 417.795 280.912 433.697 301.505C458.256 333.306 487.79 292.329 487.423 247.223C487.201 219.974 471.246 199.746 451.922 198.795C431.028 197.766 401.517 254.898 388.447 238.564C376.545 223.688 392.91 136.334 351.66 150.437C310.41 164.54 300.162 229.519 272.057 214.547C242.441 198.77 271.51 144.391 246.263 132.586Z" fill="#6E7681"/>
<path opacity="0.3" d="M1620.86 505H1556.91C1551.59 505 1547.43 509.597 1547.96 514.896L1554.46 579.896C1554.92 584.496 1558.79 588 1563.41 588H1614.36C1618.99 588 1622.86 584.496 1623.32 579.896L1629.82 514.896C1630.35 509.597 1626.19 505 1620.86 505Z" stroke="#6E7681" stroke-width="8" stroke-linejoin="round"/>
<path opacity="0.3" d="M1570.96 453.092C1570.96 453.092 1562.02 449.668 1554.38 452.132C1546.61 454.64 1539.4 461.549 1543.25 468.754C1546.72 475.229 1555.06 475.869 1562.02 473.603C1570.96 470.689 1572.45 462.16 1572.45 462.16" stroke="#6E7681" stroke-width="8" stroke-linecap="round"/>
<path opacity="0.3" d="M1600.12 449.337C1600.12 449.337 1609.76 445.686 1617.22 448.497C1624.69 451.307 1632.8 457.989 1628.88 465.068C1625.36 471.409 1617.22 472.188 1609.56 469.753C1601.9 467.319 1598.68 458.326 1598.68 458.326" stroke="#6E7681" stroke-width="8" stroke-linecap="round"/>
<path opacity="0.3" d="M1570.55 413.526C1570.55 413.526 1558.18 408.287 1547.31 413.613C1536.43 418.94 1530.11 429.12 1534.2 436.024C1538.57 443.429 1548.83 443.512 1558.51 439.513C1568.19 435.514 1572.31 424.323 1572.31 424.323" stroke="#6E7681" stroke-width="8" stroke-linecap="round"/>
<path opacity="0.3" d="M1599.36 407.214C1599.36 407.214 1610.34 403.886 1622.28 406.255C1634.23 408.624 1644.62 417.938 1640.35 426.587C1636.52 434.335 1625.04 435.078 1615 432.244C1606.38 429.812 1598.71 418.212 1598.71 418.212" stroke="#6E7681" stroke-width="8" stroke-linecap="round"/>
<path opacity="0.3" d="M1564.78 369.071C1564.78 369.071 1550.58 366.314 1537.14 374.926C1523.71 383.538 1519.08 393.295 1525.78 400.542C1531.8 407.055 1544.77 404.208 1554.29 398.375C1564.78 391.95 1568.22 379.656 1568.22 379.656" stroke="#6E7681" stroke-width="8" stroke-linecap="round"/>
<path opacity="0.3" d="M1593.54 368.202C1593.54 368.202 1601.85 363.02 1620.17 363.045C1638.48 363.07 1648.58 371.394 1645.27 381.334C1642.31 390.24 1629.02 393.101 1616.72 391.912C1606.15 390.891 1594.92 379.98 1594.92 379.98" stroke="#6E7681" stroke-width="8" stroke-linecap="round"/>
<path opacity="0.3" d="M1582.36 488.8C1590.03 445.545 1591.21 389.011 1572.13 356.31" stroke="#6E7681" stroke-width="8" stroke-linecap="round"/>
<path opacity="0.3" fill-rule="evenodd" clip-rule="evenodd" d="M904 586C904 582.686 906.686 580 910 580L1250 580C1253.31 580 1256 582.686 1256 586C1256 589.314 1253.31 592 1250 592L910 592C906.686 592 904 589.314 904 586Z" fill="#6E7681"/>
<rect opacity="0.3" x="920" y="366" width="320" height="210" rx="12" stroke="#6E7681" stroke-width="8" stroke-linejoin="round"/>
<path opacity="0.3" d="M939 541.465L939 384.465L1221 384.465L1221 541.465L939 541.465Z" stroke="#6E7681" stroke-width="8" stroke-linecap="round" stroke-linejoin="round"/>
<path opacity="0.3" fill-rule="evenodd" clip-rule="evenodd" d="M619.746 521H654.065C661.245 521 667.065 526.821 667.065 534V579.403C667.065 586.582 661.245 592.403 654.065 592.403H619.746C612.566 592.403 606.746 586.582 606.746 579.403V577.715C605.785 577.906 604.792 578.007 603.771 578.007C598.17 578.007 593.405 574.972 590.176 570.668C586.948 566.365 585.07 560.604 585.07 554.41C585.07 548.217 586.948 542.456 590.176 538.153C593.405 533.849 598.17 530.814 603.771 530.814C604.902 530.814 605.998 530.938 607.055 531.171C608.347 525.352 613.538 521 619.746 521ZM603.771 570.007C604.764 570.007 605.767 569.797 606.746 569.372V539.449C605.767 539.024 604.764 538.814 603.771 538.814C601.252 538.814 598.668 540.165 596.576 542.954C594.483 545.744 593.07 549.781 593.07 554.41C593.07 559.04 594.483 563.077 596.576 565.867C598.668 568.655 601.252 570.007 603.771 570.007ZM614.746 579.403V573.558C614.747 573.558 614.747 573.557 614.748 573.557V535.264C614.747 535.264 614.747 535.263 614.746 535.263V534C614.746 533.954 614.747 533.907 614.748 533.86V533.267C614.748 530.506 616.987 528.267 619.748 528.267H654.067C656.829 528.267 659.067 530.506 659.067 533.267V578.669C659.067 578.716 659.066 578.763 659.065 578.809V579.403C659.065 582.164 656.827 584.403 654.065 584.403H619.746C616.985 584.403 614.746 582.164 614.746 579.403Z" fill="#6E7681"/>
<path opacity="0.3" d="M650.906 571.201C652.563 571.201 653.906 569.858 653.906 568.201C653.906 566.544 652.563 565.201 650.906 565.201C649.249 565.201 647.906 566.544 647.906 568.201C647.906 569.858 649.249 571.201 650.906 571.201Z" fill="#6E7681"/>
<path opacity="0.3" d="M627.906 542.201V571.201H632.906V560.357C632.906 559.56 633.384 558.684 634.556 557.884C635.733 557.081 637.211 556.659 638.264 556.659C639.052 556.659 639.63 556.971 640.067 557.52C640.541 558.117 640.906 559.086 640.906 560.357V571.2L645.906 571.201V560.357C645.906 558.177 645.284 556.048 643.98 554.408C642.638 552.721 640.644 551.659 638.264 551.659C636.551 551.659 634.619 552.156 632.906 553.054V542.202L627.906 542.201Z" fill="#6E7681"/>
<path opacity="0.3" d="M476.781 588L556.781 588" stroke="#6E7681" stroke-width="8" stroke-linecap="round"/>
<circle opacity="0.3" cx="1080" cy="180" r="84" stroke="#6E7681" stroke-width="8"/>
<g opacity="0.3">
<path fill-rule="evenodd" clip-rule="evenodd" d="M1152.73 180C1152.73 177.055 1150.34 174.667 1147.39 174.667C1144.45 174.667 1142.06 177.055 1142.06 180H1152.73Z" fill="#6E7681"/>
<path d="M1152.73 180C1152.73 182.946 1150.34 185.334 1147.39 185.334C1144.45 185.334 1142.06 182.946 1142.06 180M1152.73 180C1152.73 177.055 1150.34 174.667 1147.39 174.667C1144.45 174.667 1142.06 177.055 1142.06 180M1152.73 180H1142.06" stroke="#6E7681" stroke-width="2"/>
</g>
<g opacity="0.3">
<path fill-rule="evenodd" clip-rule="evenodd" d="M1007.27 180C1007.27 182.945 1009.66 185.333 1012.61 185.333C1015.55 185.333 1017.94 182.945 1017.94 180H1007.27Z" fill="#6E7681"/>
<path d="M1007.27 180C1007.27 177.054 1009.66 174.666 1012.61 174.666C1015.55 174.666 1017.94 177.054 1017.94 180M1007.27 180C1007.27 182.945 1009.66 185.333 1012.61 185.333C1015.55 185.333 1017.94 182.945 1017.94 180M1007.27 180H1017.94" stroke="#6E7681" stroke-width="2"/>
</g>
<g opacity="0.3">
<path fill-rule="evenodd" clip-rule="evenodd" d="M1074.67 247.392C1074.67 250.338 1077.05 252.726 1080 252.726C1082.94 252.726 1085.33 250.338 1085.33 247.392H1074.67Z" fill="#6E7681"/>
<path d="M1080 242.059C1077.05 242.059 1074.67 244.447 1074.67 247.392H1085.33C1085.33 244.447 1082.94 242.059 1080 242.059Z" fill="#6E7681"/>
<path d="M1074.67 247.392C1074.67 244.447 1077.05 242.059 1080 242.059C1082.94 242.059 1085.33 244.447 1085.33 247.392M1074.67 247.392C1074.67 250.338 1077.05 252.726 1080 252.726C1082.94 252.726 1085.33 250.338 1085.33 247.392M1074.67 247.392H1085.33" stroke="#6E7681" stroke-width="2"/>
</g>
<path opacity="0.3" d="M1080 117.94C1077.05 117.94 1074.67 115.552 1074.67 112.607C1074.67 109.661 1077.05 107.273 1080 107.273C1082.94 107.273 1085.33 109.661 1085.33 112.607C1085.33 115.552 1082.94 117.94 1080 117.94Z" stroke="#6E7681" stroke-width="2"/>
<path opacity="0.3" fill-rule="evenodd" clip-rule="evenodd" d="M1152.73 181H1084.15C1083.73 182.76 1082.21 184.095 1080.36 184.251L1063.98 222.735L1060.3 221.169L1076.68 182.684C1076.09 181.951 1075.73 181.017 1075.73 180C1075.73 178.172 1076.88 176.612 1078.5 176.005L1078.5 117.94H1081.5L1081.5 176.004C1082.81 176.496 1083.82 177.617 1084.15 179H1152.73V181Z" fill="#6E7681"/>
<path opacity="0.3" d="M1308.58 585.091L1306.38 574.631C1306.21 573.842 1306.3 573.224 1306.49 572.808C1310.06 564.904 1317.57 561 1328.25 561C1338.93 561 1346.44 564.904 1350.01 572.808C1350.2 573.224 1350.29 573.841 1350.12 574.631L1347.92 585.091C1347.53 586.943 1345.9 588.268 1344.01 588.268H1312.49C1310.6 588.268 1308.97 586.943 1308.58 585.091Z" stroke="#6E7681" stroke-width="8" stroke-linejoin="round"/>
<rect opacity="0.3" x="734" y="496" width="92" height="92" rx="8" stroke="#6E7681" stroke-width="8"/>
<path opacity="0.3" d="M766.678 531.314H770.698L770.698 569.314H766.971L766.971 537.499V536.292L766.118 537.146L756.328 546.935V541.664L766.678 531.314Z" fill="#6E7681" stroke="#6E7681"/>
<path opacity="0.3" d="M778.789 549.723C778.789 542.899 780.37 538.296 782.684 535.41C784.991 532.534 788.063 531.314 791.17 531.314C794.279 531.314 797.382 532.535 799.717 535.412C802.061 538.299 803.67 542.901 803.67 549.723C803.67 557.145 802.057 562.044 799.71 565.077C797.375 568.095 794.276 569.313 791.17 569.313C788.065 569.313 784.998 568.096 782.692 565.079C780.374 562.047 778.789 557.147 778.789 549.723ZM791.17 534.45C789.116 534.45 786.929 535.482 785.275 537.921C783.629 540.348 782.516 544.152 782.516 549.723C782.516 556.456 783.621 560.565 785.275 563.002C786.955 565.479 789.164 566.177 791.17 566.177C793.175 566.177 795.412 565.48 797.123 563.006C798.808 560.568 799.943 556.458 799.943 549.723C799.943 544.149 798.8 540.344 797.123 537.918C795.438 535.48 793.222 534.45 791.17 534.45Z" fill="#6E7681" stroke="#6E7681"/>
<path opacity="0.3" fill-rule="evenodd" clip-rule="evenodd" d="M759.746 511.667C758.569 511.667 757.815 512.567 757.815 513.417C757.815 513.791 758.017 514.105 758.459 514.418C758.911 514.738 759.496 514.97 760.063 515.196L760.074 515.2V515.2C760.083 515.204 760.093 515.208 760.102 515.211C760.637 515.424 761.378 515.718 761.985 516.149C762.609 516.592 763.211 517.266 763.211 518.25C763.211 519.856 761.841 521.333 759.947 521.333C758.374 521.333 757.111 520.344 756.469 519.435L757.558 518.665C758.034 519.34 758.935 520 759.947 520C761.124 520 761.878 519.101 761.878 518.25C761.878 517.885 761.672 517.562 761.213 517.237C760.748 516.907 760.147 516.664 759.581 516.439C759.559 516.43 759.537 516.421 759.514 516.412C758.987 516.203 758.274 515.92 757.689 515.507C757.068 515.067 756.482 514.4 756.482 513.417C756.482 511.811 757.852 510.334 759.746 510.334C761.318 510.334 762.581 511.321 763.224 512.231L762.135 513C761.659 512.326 760.758 511.667 759.746 511.667Z" fill="#6E7681"/>
<path opacity="0.3" d="M796.039 513.335L799.118 521.791L797.949 525H799.283L803.529 513.335H802.196L799.784 519.96L797.372 513.335H796.039Z" fill="#6E7681"/>
<path opacity="0.3" d="M771.356 513.335V521.334H770.022V520.32C769.831 520.976 768.783 521.668 768.039 521.668C766.207 521.668 764.723 519.97 764.723 518.08V513.335H766.056V518.08C766.056 519.273 766.983 520.335 768.039 520.335C769.096 520.335 770.022 519.441 770.022 518.248V513.335H771.356Z" fill="#6E7681"/>
<path opacity="0.3" d="M772.855 521.334V513.334H774.189V514.349C774.38 513.692 775.095 513.001 776.172 513.001C778.337 513.001 779.488 514.699 779.488 516.589V521.334H778.155V516.589C778.155 515.396 777.228 514.251 776.172 514.251C775.115 514.251 774.189 515.228 774.189 516.421V521.334H772.855Z" fill="#6E7681"/>
<path opacity="0.3" fill-rule="evenodd" clip-rule="evenodd" d="M786.288 520.655C785.735 521.081 785.048 521.334 784.305 521.334C782.473 521.334 780.988 519.802 780.988 517.913L780.988 516.089C780.988 514.199 782.473 512.668 784.305 512.668C785.048 512.668 785.735 512.92 786.288 513.346V510H787.621V521.333H786.288V520.655ZM784.305 514.001C785.361 514.001 786.288 514.896 786.288 516.089V517.913C786.288 519.105 785.361 520.001 784.305 520.001C783.248 520.001 782.322 519.105 782.322 517.913L782.322 516.089C782.322 514.896 783.248 514.001 784.305 514.001Z" fill="#6E7681"/>
<path opacity="0.3" fill-rule="evenodd" clip-rule="evenodd" d="M792.329 514.668C791.328 514.668 790.638 515.194 790.385 515.704L789.191 515.111C789.688 514.109 790.866 513.335 792.329 513.335C793.993 513.335 795.537 514.497 795.537 516.154V521.334L794.204 521.334V520.589C793.57 521.064 792.787 521.334 792.051 521.334C791.345 521.334 790.635 521.197 790.08 520.834C789.491 520.449 789.121 519.836 789.121 519.039C789.121 518.285 789.414 517.687 789.902 517.254C790.367 516.843 790.97 516.614 791.565 516.483C792.15 516.353 792.675 516.3 793.193 516.263C793.346 516.251 793.496 516.242 793.645 516.232C793.829 516.22 794.014 516.208 794.204 516.193V516.154C794.204 515.433 793.473 514.668 792.329 514.668ZM794.204 517.53C794.031 517.543 793.865 517.554 793.705 517.564C793.561 517.574 793.423 517.583 793.29 517.592C792.798 517.628 792.346 517.676 791.853 517.784C791.37 517.891 791.013 518.052 790.786 518.253C790.583 518.432 790.454 518.668 790.454 519.039C790.454 519.37 790.583 519.57 790.809 519.718C791.069 519.888 791.491 520.001 792.051 520.001C792.517 520.001 793.073 519.805 793.507 519.441C793.932 519.085 794.204 518.603 794.204 518.03V517.53Z" fill="#6E7681"/>
<path opacity="0.3" d="M755 489V503" stroke="#6E7681" stroke-width="4" stroke-linecap="round" stroke-linejoin="round"/>
<path opacity="0.3" d="M765 489V503" stroke="#6E7681" stroke-width="4" stroke-linecap="round" stroke-linejoin="round"/>
<path opacity="0.3" d="M775 489V503" stroke="#6E7681" stroke-width="4" stroke-linecap="round" stroke-linejoin="round"/>
<path opacity="0.3" d="M785 489V503" stroke="#6E7681" stroke-width="4" stroke-linecap="round" stroke-linejoin="round"/>
<path opacity="0.3" d="M795 489V503" stroke="#6E7681" stroke-width="4" stroke-linecap="round" stroke-linejoin="round"/>
<path opacity="0.3" d="M805 489V503" stroke="#6E7681" stroke-width="4" stroke-linecap="round" stroke-linejoin="round"/>
<path opacity="0.3" fill-rule="evenodd" clip-rule="evenodd" d="M683.999 -400C683.999 -402.209 682.208 -404 679.999 -404C677.79 -404 675.999 -402.209 675.999 -400V97.6128C653.589 99.3866 635.338 115.936 630.986 137.519C629.895 142.933 634.476 147.455 639.999 147.455H719.999C725.522 147.455 730.103 142.933 729.012 137.519C724.66 115.936 706.409 99.3866 683.999 97.6128V-400ZM679.999 105.455C700.306 105.455 717.263 119.875 721.157 139.038C721.001 139.204 720.599 139.455 719.999 139.455H639.999C639.399 139.455 638.997 139.204 638.841 139.038C642.735 119.875 659.692 105.455 679.999 105.455Z" fill="#6E7681"/>
<circle opacity="0.3" cx="1475" cy="554.5" r="25" stroke="#6E7681" stroke-width="8"/>
<path opacity="0.3" fill-rule="evenodd" clip-rule="evenodd" d="M1411 513C1408.79 513 1407 514.791 1407 517H1397C1390.37 517 1385 522.373 1385 529V580C1385 585.799 1389.11 590.637 1394.58 591.756C1395.36 591.916 1396.17 592 1397 592H1411H1509C1515.63 592 1521 586.627 1521 580V529C1521 522.373 1515.63 517 1509 517H1415C1415 514.791 1413.21 513 1411 513ZM1509 525H1422.32C1422.76 526.251 1423 527.597 1423 529V580C1423 581.403 1422.76 582.749 1422.32 584H1509C1511.21 584 1513 582.209 1513 580V529C1513 526.791 1511.21 525 1509 525ZM1397 525H1411C1413.21 525 1415 526.791 1415 529V580C1415 582.209 1413.21 584 1411 584H1397C1396.86 584 1396.73 583.993 1396.59 583.979C1394.57 583.775 1393 582.071 1393 580V529C1393 526.791 1394.79 525 1397 525Z" fill="#6E7681"/>
<circle opacity="0.3" cx="1475" cy="554.5" r="3.5" stroke="#6E7681" stroke-width="3"/>
<path fill-rule="evenodd" clip-rule="evenodd" d="M852.071 457.532C809.159 457.532 784.391 424.7 784.391 379.196C784.391 332.828 812.327 304.892 852.359 304.892C872.807 304.892 890.951 313.82 899.015 327.068L901.319 309.5H943.079V522.62H898.727V439.1C890.375 450.044 871.943 457.532 852.071 457.532ZM829.031 381.5C829.031 360.188 842.279 345.5 863.303 345.5C884.039 345.5 898.439 359.9 898.439 381.5C898.439 403.1 884.039 417.5 863.303 417.5C842.279 417.5 829.031 402.812 829.031 381.5Z" fill="#016F4E"/>
<path d="M1300.41 309.499C1294.36 308.059 1288.6 307.483 1283.42 307.483C1264.12 307.483 1251.45 316.987 1245.4 331.099L1243.1 309.787H1201.34V453.499H1245.69V391.003C1245.69 362.491 1260.96 351.259 1286.3 351.259H1300.41V309.499Z" fill="#016F4E"/>
<path fill-rule="evenodd" clip-rule="evenodd" d="M841.487 770.5H799.727V553.348H844.079V643.204C852.719 630.244 871.727 621.604 892.463 621.604C932.783 621.604 958.415 652.996 958.415 699.94C958.415 744.58 929.903 774.244 889.007 774.244C870.902 774.244 855.119 767.043 846.458 755.979L841.487 770.5ZM856.703 726.054C862.661 730.911 870.483 733.636 879.503 733.636C900.527 733.636 913.775 718.948 913.775 697.636C913.775 676.324 900.527 661.636 879.503 661.636C879.252 661.636 879.003 661.638 878.755 661.642C858.421 661.984 844.367 676.296 844.367 697.636C844.367 709.84 848.964 719.745 856.703 726.054Z" fill="#016F4E"/>
<path d="M1346.41 578.692C1346.41 592.804 1335.18 604.036 1321.35 604.036C1307.24 604.036 1296.01 592.804 1296.01 578.692C1296.01 564.58 1307.24 553.636 1321.35 553.636C1335.18 553.636 1346.41 564.58 1346.41 578.692Z" fill="#016F4E"/>
<path d="M1299.46 770.5H1343.82V626.5H1299.46V770.5Z" fill="#016F4E"/>
<path fill-rule="evenodd" clip-rule="evenodd" d="M944.221 556.754C947.061 583.358 952.984 604.405 964.173 619.441C983.587 645.529 1007.31 659.92 1033.59 666.892C1033.58 668.166 1033.56 669.484 1033.5 670.838L1033.49 670.967L1033.48 671.166C1032.99 681.965 1030.53 695.003 1019.33 706.344C1010.93 714.851 997.603 722.404 976.495 727.343C976.025 726.985 975.551 726.633 975.073 726.288C974.606 725.951 974.018 725.828 973.455 725.95C957.972 729.313 938.365 731.317 913.542 731.317C912.812 731.317 911.997 731.305 911.091 731.293C901.834 731.164 884.234 730.918 869.08 742.37C853.776 753.934 841.39 776.98 841.39 822.257C841.39 835.831 839.582 873.314 835.933 921.022C835.89 921.585 836.084 922.14 836.467 922.554C836.851 922.969 837.39 923.204 837.955 923.204H841.543L841.543 923.205C838.922 1020.63 833.399 1159.11 824.002 1229.37H918.01L918.01 1229.37C918.025 1229.37 918.04 1229.37 918.055 1229.37L918.07 1229.37L918.101 1229.37H1248.45C1248.48 1229.37 1248.51 1229.37 1248.54 1229.37L1248.54 1229.37L1279.78 1229.37L1336 1229.37C1327.54 1160.48 1324.64 1026.01 1323.65 928.948C1323.63 927.018 1323.61 925.103 1323.59 923.204H1328.59C1329.16 923.204 1329.7 922.969 1330.08 922.554C1330.47 922.14 1330.66 921.585 1330.62 921.022C1326.97 873.314 1325.16 835.831 1325.16 822.257C1325.16 776.98 1312.77 753.934 1297.47 742.37C1282.31 730.918 1264.81 731.162 1255.55 731.291C1254.65 731.304 1253.74 731.317 1253.01 731.317C1237.81 731.317 1224.57 730.566 1213.03 729.212L1140.75 668.125C1164.77 660.408 1186.64 646.312 1204.84 621.862C1205.99 620.31 1207.09 618.701 1208.14 617.037C1215.46 605.386 1220.19 591.001 1223.17 574.25C1223.6 571.856 1223.99 569.409 1224.35 566.91C1224.78 563.974 1225.15 560.966 1225.49 557.887C1229.29 559.145 1232.92 559.948 1235.55 559.95C1235.92 559.951 1236.28 559.935 1236.61 559.901C1247.6 558.798 1253.1 542.02 1256.9 526.188C1257.44 523.927 1257.95 521.684 1258.43 519.509C1263.29 497.66 1261.43 469.144 1251.09 465.783L1251.09 465.783C1249.27 465.191 1247.48 464.955 1245.73 464.999C1245.68 465 1245.64 465.002 1245.59 465.003C1245.51 465.006 1245.43 465.009 1245.34 465.013C1238.64 465.339 1232.56 469.718 1227.61 473.725C1227.35 461.974 1226.82 451.719 1225.82 442.49C1223.27 419.115 1217.66 402.325 1205.57 384.493C1188.03 360.303 1154.89 338.945 1091.3 340.074C1089.39 340.027 1087.45 340.003 1085.49 340C1085.33 340 1085.17 340 1085.01 340C1084.3 340.001 1083.59 340.004 1082.88 340.01C1079.4 339.979 1075.98 340.019 1072.64 340.125C1039.67 341.173 1013.52 348.712 994.627 359.058C982.139 365.896 972.816 373.959 966.782 382.185C952.962 401.028 946.745 417.83 944.011 442.583L944.011 442.583C942.928 452.389 942.391 463.442 942.145 476.364C941.756 476.045 941.357 475.716 940.949 475.379C934.394 469.963 925.417 462.547 915.46 465.783C905.118 469.145 903.257 497.66 908.115 519.51C911.984 536.907 917.38 558.64 929.94 559.902C933.235 560.233 938.777 558.855 944.221 556.754ZM1140.75 668.125L1137.08 665.023L1140.75 668.125L1140.75 668.125ZM1140.75 668.125L1213.03 729.211C1205.72 728.354 1199.1 727.254 1193.09 725.95C1192.53 725.828 1191.94 725.951 1191.48 726.288C1191 726.633 1190.52 726.985 1190.05 727.343C1168.95 722.404 1155.62 714.852 1147.22 706.345C1135.74 694.724 1133.44 681.321 1133.03 670.371C1135.63 669.691 1138.2 668.944 1140.75 668.125ZM1321.1 820.545L1321.1 820.538L1218.55 733.873L1218.54 733.873L1321.1 820.545Z" fill="#1C5947"/>
<path d="M1681.4 712.824V706.776C1681.4 692.662 1692.64 684.021 1705.89 675.093C1722.3 663.859 1742.75 649.17 1742.75 617.775C1742.75 577.451 1715.68 553.544 1670.46 553.544C1625.53 553.544 1594.42 583.787 1594.42 627.856H1640.79C1640.79 607.694 1651.74 595.021 1669.31 595.021C1685.72 595.021 1694.94 604.526 1694.94 620.943C1694.94 635.057 1684.57 643.697 1672.76 653.202C1658.07 665.012 1641.37 678.837 1641.37 706.776V712.824H1681.4Z" fill="#016F4E"/>
<path fill-rule="evenodd" clip-rule="evenodd" d="M565.289 453.652H516.617L592.649 240.532H638.153L713.897 453.652H664.361L649.385 408.724H580.65L565.289 453.652ZM594.089 369.556H636.137L620.873 324.052C618.962 318.079 616.852 311.312 615.695 306.22C615.458 305.174 615.26 304.199 615.113 303.316C614.249 308.212 611.945 316.276 609.353 324.052L594.089 369.556Z" fill="#016F4E"/>
<path d="M1063.36 265.864V340.744C1063.36 364.36 1055.58 374.152 1036.58 374.152C1018.43 374.152 1010.37 363.784 1010.37 340.168V265.864H966.016V356.296C966.016 391.72 986.176 413.608 1019.01 413.608C1036.29 413.608 1054.14 405.544 1063.07 393.736L1065.95 409.864H1107.71V265.864H1063.36Z" fill="#016F4E"/>
<path d="M1154.24 243.4C1168.07 243.4 1179.3 232.168 1179.3 218.056C1179.3 203.944 1168.07 193 1154.24 193C1140.13 193 1128.9 203.944 1128.9 218.056C1128.9 232.168 1140.13 243.4 1154.24 243.4ZM1154.24 243.4C1168.07 243.4 1179.3 232.168 1179.3 218.056C1179.3 203.944 1168.07 193 1154.24 193C1140.13 193 1128.9 203.944 1128.9 218.056C1128.9 232.168 1140.13 243.4 1154.24 243.4Z" fill="#016F4E"/>
<path d="M1176.71 409.864H1132.36V265.864H1176.71V409.864Z" fill="#016F4E"/>
<path d="M1358.56 453.652V417.652L1375.55 399.796L1407.8 453.652H1459.07L1406.65 366.676L1460.8 309.652H1405.21L1358.56 361.492V236.5H1314.2V453.652H1358.56Z" fill="#016F4E"/>
<path d="M1458.85 522.772C1467.49 525.364 1477.57 526.804 1488.23 526.804C1513.57 526.804 1529.7 514.42 1541.8 485.044L1614.95 309.652H1568.87L1534.02 402.1L1502.63 309.652H1455.11L1513 458.548L1510.41 465.46C1504.65 481.012 1498.31 485.62 1483.33 485.62H1458.85V522.772Z" fill="#016F4E"/>
<path d="M510.079 770.652V691.74C510.079 673.884 521.311 662.364 538.879 662.364C554.143 662.364 564.223 674.172 564.223 692.316V770.652H608.575V681.66C608.575 643.932 588.703 622.044 554.431 622.044C535.711 622.044 519.295 629.244 510.367 641.628V553.5H465.727V770.652H510.079Z" fill="#016F4E"/>
<path fill-rule="evenodd" clip-rule="evenodd" d="M703.453 774.108C657.373 774.108 623.965 743.868 623.965 698.364C623.965 652.86 657.373 622.332 703.453 622.332C749.245 622.332 782.653 652.86 782.653 698.364C782.653 743.868 749.245 774.108 703.453 774.108ZM668.605 698.076C668.605 676.476 682.717 662.076 703.453 662.076C723.901 662.076 738.013 676.476 738.013 698.076C738.013 719.964 723.901 734.364 703.453 734.364C682.717 734.364 668.605 719.964 668.605 698.076Z" fill="#016F4E"/>
<path fill-rule="evenodd" clip-rule="evenodd" d="M1017.06 770.652H975.305V553.5H1019.66V643.356C1028.3 630.396 1047.3 621.756 1068.04 621.756C1108.36 621.756 1133.99 653.148 1133.99 700.092C1133.99 744.732 1105.48 774.396 1064.58 774.396C1046.48 774.396 1030.7 767.195 1022.04 756.132L1017.06 770.652ZM1032.28 726.206C1038.24 731.063 1046.06 733.788 1055.08 733.788C1076.1 733.788 1089.35 719.1 1089.35 697.788C1089.35 676.476 1076.1 661.788 1055.08 661.788C1054.83 661.788 1054.58 661.79 1054.33 661.794C1034 662.136 1019.94 676.448 1019.94 697.788C1019.94 709.992 1024.54 719.898 1032.28 726.206Z" fill="#016F4E"/>
<path d="M1133.74 839.772C1142.38 842.364 1152.46 843.804 1163.12 843.804C1188.46 843.804 1204.59 831.42 1216.68 802.044L1289.84 626.652H1243.76L1208.91 719.1L1177.52 626.652H1130L1187.88 775.548L1185.29 782.46C1179.53 798.012 1173.2 802.62 1158.22 802.62H1133.74V839.772Z" fill="#016F4E"/>
<path d="M1358.08 725.148C1358.08 754.236 1381.99 774.396 1420 774.396C1457.44 774.396 1483.65 755.676 1483.65 724.86C1483.65 701.82 1470.69 690.876 1447.07 685.692L1420.29 679.932C1410.21 677.628 1404.74 673.884 1404.74 667.26C1404.74 659.484 1411.07 654.3 1421.15 654.3C1431.81 654.3 1437.86 660.924 1437.86 670.716H1479.91C1479.91 641.628 1456.58 622.044 1423.17 622.044C1388.61 622.044 1362.98 639.324 1362.98 669.276C1362.98 694.62 1375.94 706.14 1402.43 711.9L1428.93 717.66C1439.59 719.964 1441.89 724.572 1441.89 728.892C1441.89 736.38 1435.55 741.276 1421.73 741.276C1408.19 741.276 1400.71 735.228 1400.13 725.148H1358.08Z" fill="#016F4E"/>
<path d="M1583.14 732.06C1577.96 733.788 1572.78 734.652 1568.46 734.652C1558.09 734.652 1550.89 729.18 1550.89 711.036V663.516H1582.86V626.652H1550.89V582.012H1506.54V626.652H1484.65V663.516H1506.54V720.252C1506.54 760.572 1527.27 774.108 1556.94 774.108C1569.03 774.108 1579.98 771.804 1588.33 767.772L1583.14 732.06Z" fill="#016F4E"/>
<path d="M1662.63 774.396C1676.74 774.396 1689.13 762.588 1689.13 748.476C1689.13 734.076 1676.74 722.268 1662.63 722.268C1647.94 722.268 1636.14 734.076 1636.14 748.476C1636.14 762.588 1647.94 774.396 1662.63 774.396Z" fill="#016F4E"/>
</g>
<defs>
<clipPath id="clip0_1862_2392">
<rect width="2160" height="1200" rx="64" fill="white"/>
</clipPath>
</defs>
</svg>
