<svg width="1920" height="1200" viewBox="0 0 1920 1200" fill="none" xmlns="http://www.w3.org/2000/svg">
<g clip-path="url(#clip0_1865_2546)">
<rect width="1920" height="1200" rx="64" fill="#003324"/>
<path opacity="0.3" fill-rule="evenodd" clip-rule="evenodd" d="M-355 600H560V648.167V650.17V656.167V658.17V849.536V857.536V921L-355 921V600ZM568 857.536V921V929H560L-355 929H-363V600V592H-355H560H568H1352H1360H2275H2283V600V921V929H2275L1360 929H1352V857.536H570L568 857.536ZM568 849.536L570 849.536L1350 849.536L1352 849.536V658.17H568V849.536ZM1360 849.536V857.536V921L2275 921V600H1360V648.167V650.17V656.167V658.17V849.536ZM568 648.167V600H1352V648.167H568Z" fill="#6E7681"/>
<rect opacity="0.3" x="4" y="-4" width="472" height="232" rx="20" transform="matrix(1 0 0 -1 -36.0742 332)" stroke="#6E7681" stroke-width="8"/>
<path opacity="0.3" d="M126.263 132.586C106.95 123.555 62.4396 154.089 48.2772 190.118C41.3449 207.754 33.3544 224.39 39.0604 235.165C55.0229 265.306 84.9435 172.723 105.964 179.026C121.785 183.77 99.7682 245.114 127.87 266.059C166.318 294.716 193.29 182.148 237.639 200.386C249.934 205.442 226.225 275.951 251.163 285.21C270.997 292.574 310.242 232.252 327.987 243.773C341.142 252.313 297.795 280.912 313.697 301.505C338.256 333.306 367.79 292.329 367.423 247.223C367.201 219.974 351.246 199.746 331.922 198.795C311.028 197.766 281.517 254.898 268.447 238.564C256.545 223.688 272.91 136.334 231.66 150.437C190.41 164.54 180.162 229.519 152.057 214.547C122.441 198.77 151.51 144.391 126.263 132.586Z" fill="#6E7681"/>
<path opacity="0.3" d="M1500.86 505H1436.91C1431.59 505 1427.43 509.597 1427.96 514.896L1434.46 579.896C1434.92 584.496 1438.79 588 1443.41 588H1494.36C1498.99 588 1502.86 584.496 1503.32 579.896L1509.82 514.896C1510.35 509.597 1506.19 505 1500.86 505Z" stroke="#6E7681" stroke-width="8" stroke-linejoin="round"/>
<path opacity="0.3" d="M1450.96 453.092C1450.96 453.092 1442.02 449.668 1434.38 452.132C1426.61 454.64 1419.4 461.549 1423.25 468.754C1426.72 475.229 1435.06 475.869 1442.02 473.603C1450.96 470.689 1452.45 462.16 1452.45 462.16" stroke="#6E7681" stroke-width="8" stroke-linecap="round"/>
<path opacity="0.3" d="M1480.12 449.337C1480.12 449.337 1489.76 445.686 1497.22 448.497C1504.69 451.307 1512.8 457.989 1508.88 465.068C1505.36 471.409 1497.22 472.188 1489.56 469.753C1481.9 467.319 1478.68 458.326 1478.68 458.326" stroke="#6E7681" stroke-width="8" stroke-linecap="round"/>
<path opacity="0.3" d="M1450.55 413.526C1450.55 413.526 1438.18 408.287 1427.31 413.613C1416.43 418.94 1410.11 429.12 1414.2 436.024C1418.57 443.429 1428.83 443.512 1438.51 439.513C1448.19 435.514 1452.31 424.323 1452.31 424.323" stroke="#6E7681" stroke-width="8" stroke-linecap="round"/>
<path opacity="0.3" d="M1479.36 407.214C1479.36 407.214 1490.34 403.886 1502.28 406.255C1514.23 408.624 1524.62 417.938 1520.35 426.587C1516.52 434.335 1505.04 435.078 1495 432.244C1486.38 429.812 1478.71 418.212 1478.71 418.212" stroke="#6E7681" stroke-width="8" stroke-linecap="round"/>
<path opacity="0.3" d="M1444.78 369.071C1444.78 369.071 1430.58 366.314 1417.14 374.926C1403.71 383.538 1399.08 393.295 1405.78 400.542C1411.8 407.055 1424.77 404.208 1434.29 398.375C1444.78 391.95 1448.22 379.656 1448.22 379.656" stroke="#6E7681" stroke-width="8" stroke-linecap="round"/>
<path opacity="0.3" d="M1473.54 368.202C1473.54 368.202 1481.85 363.02 1500.17 363.045C1518.48 363.07 1528.58 371.394 1525.27 381.334C1522.31 390.24 1509.02 393.101 1496.72 391.912C1486.15 390.891 1474.92 379.98 1474.92 379.98" stroke="#6E7681" stroke-width="8" stroke-linecap="round"/>
<path opacity="0.3" d="M1462.36 488.8C1470.03 445.545 1471.21 389.011 1452.13 356.31" stroke="#6E7681" stroke-width="8" stroke-linecap="round"/>
<path opacity="0.3" fill-rule="evenodd" clip-rule="evenodd" d="M784 586C784 582.686 786.686 580 790 580L1130 580C1133.31 580 1136 582.686 1136 586C1136 589.314 1133.31 592 1130 592L790 592C786.686 592 784 589.314 784 586Z" fill="#6E7681"/>
<rect opacity="0.3" x="800" y="366" width="320" height="210" rx="12" stroke="#6E7681" stroke-width="8" stroke-linejoin="round"/>
<path opacity="0.3" d="M819 541.465L819 384.465L1101 384.465L1101 541.465L819 541.465Z" stroke="#6E7681" stroke-width="8" stroke-linecap="round" stroke-linejoin="round"/>
<path opacity="0.3" fill-rule="evenodd" clip-rule="evenodd" d="M499.746 521H534.065C541.245 521 547.065 526.821 547.065 534V579.403C547.065 586.582 541.245 592.403 534.065 592.403H499.746C492.566 592.403 486.746 586.582 486.746 579.403V577.715C485.785 577.906 484.792 578.007 483.771 578.007C478.17 578.007 473.405 574.972 470.176 570.668C466.948 566.365 465.07 560.604 465.07 554.41C465.07 548.217 466.948 542.456 470.176 538.153C473.405 533.849 478.17 530.814 483.771 530.814C484.902 530.814 485.998 530.938 487.055 531.171C488.347 525.352 493.538 521 499.746 521ZM483.771 570.007C484.764 570.007 485.767 569.797 486.746 569.372V539.449C485.767 539.024 484.764 538.814 483.771 538.814C481.252 538.814 478.668 540.165 476.576 542.954C474.483 545.744 473.07 549.781 473.07 554.41C473.07 559.04 474.483 563.077 476.576 565.867C478.668 568.655 481.252 570.007 483.771 570.007ZM494.746 579.403V573.558C494.747 573.558 494.747 573.557 494.748 573.557V535.264C494.747 535.264 494.747 535.263 494.746 535.263V534C494.746 533.954 494.747 533.907 494.748 533.86V533.267C494.748 530.506 496.987 528.267 499.748 528.267H534.067C536.829 528.267 539.067 530.506 539.067 533.267V578.669C539.067 578.716 539.066 578.763 539.065 578.809V579.403C539.065 582.164 536.827 584.403 534.065 584.403H499.746C496.985 584.403 494.746 582.164 494.746 579.403Z" fill="#6E7681"/>
<path opacity="0.3" d="M530.906 571.201C532.563 571.201 533.906 569.858 533.906 568.201C533.906 566.544 532.563 565.201 530.906 565.201C529.249 565.201 527.906 566.544 527.906 568.201C527.906 569.858 529.249 571.201 530.906 571.201Z" fill="#6E7681"/>
<path opacity="0.3" d="M507.906 542.201V571.201H512.906V560.357C512.906 559.56 513.384 558.684 514.556 557.884C515.733 557.081 517.211 556.659 518.264 556.659C519.052 556.659 519.63 556.971 520.067 557.52C520.541 558.117 520.906 559.086 520.906 560.357V571.2L525.906 571.201V560.357C525.906 558.177 525.284 556.048 523.98 554.408C522.638 552.721 520.644 551.659 518.264 551.659C516.551 551.659 514.619 552.156 512.906 553.054V542.202L507.906 542.201Z" fill="#6E7681"/>
<path opacity="0.3" d="M356.781 588L436.781 588" stroke="#6E7681" stroke-width="8" stroke-linecap="round"/>
<circle opacity="0.3" cx="960" cy="180" r="84" stroke="#6E7681" stroke-width="8"/>
<g opacity="0.3">
<path fill-rule="evenodd" clip-rule="evenodd" d="M1032.73 180C1032.73 177.055 1030.34 174.667 1027.39 174.667C1024.45 174.667 1022.06 177.055 1022.06 180H1032.73Z" fill="#6E7681"/>
<path d="M1032.73 180C1032.73 182.946 1030.34 185.334 1027.39 185.334C1024.45 185.334 1022.06 182.946 1022.06 180M1032.73 180C1032.73 177.055 1030.34 174.667 1027.39 174.667C1024.45 174.667 1022.06 177.055 1022.06 180M1032.73 180H1022.06" stroke="#6E7681" stroke-width="2"/>
</g>
<g opacity="0.3">
<path fill-rule="evenodd" clip-rule="evenodd" d="M887.275 180C887.275 182.945 889.663 185.333 892.608 185.333C895.554 185.333 897.941 182.945 897.941 180H887.275Z" fill="#6E7681"/>
<path d="M887.275 180C887.275 177.054 889.663 174.666 892.608 174.666C895.554 174.666 897.941 177.054 897.941 180M887.275 180C887.275 182.945 889.663 185.333 892.608 185.333C895.554 185.333 897.941 182.945 897.941 180M887.275 180H897.941" stroke="#6E7681" stroke-width="2"/>
</g>
<g opacity="0.3">
<path fill-rule="evenodd" clip-rule="evenodd" d="M954.665 247.392C954.665 250.338 957.053 252.726 959.999 252.726C962.944 252.726 965.332 250.338 965.332 247.392H954.665Z" fill="#6E7681"/>
<path d="M959.999 242.059C957.053 242.059 954.665 244.447 954.665 247.392H965.332C965.332 244.447 962.944 242.059 959.999 242.059Z" fill="#6E7681"/>
<path d="M954.665 247.392C954.665 244.447 957.053 242.059 959.999 242.059C962.944 242.059 965.332 244.447 965.332 247.392M954.665 247.392C954.665 250.338 957.053 252.726 959.999 252.726C962.944 252.726 965.332 250.338 965.332 247.392M954.665 247.392H965.332" stroke="#6E7681" stroke-width="2"/>
</g>
<path opacity="0.3" d="M959.999 117.94C957.053 117.94 954.665 115.552 954.665 112.607C954.665 109.661 957.053 107.273 959.999 107.273C962.944 107.273 965.332 109.661 965.332 112.607C965.332 115.552 962.944 117.94 959.999 117.94Z" stroke="#6E7681" stroke-width="2"/>
<path opacity="0.3" fill-rule="evenodd" clip-rule="evenodd" d="M1032.73 181H964.15C963.728 182.76 962.214 184.095 960.364 184.251L943.981 222.735L940.301 221.169L956.684 182.684C956.09 181.951 955.735 181.017 955.735 180C955.735 178.172 956.884 176.612 958.5 176.005V117.94H961.5V176.004C962.813 176.496 963.818 177.617 964.15 179H1032.73V181Z" fill="#6E7681"/>
<path opacity="0.3" d="M1188.58 585.091L1186.38 574.631C1186.21 573.842 1186.3 573.224 1186.49 572.808C1190.06 564.904 1197.57 561 1208.25 561C1218.93 561 1226.44 564.904 1230.01 572.808C1230.2 573.224 1230.29 573.841 1230.12 574.631L1227.92 585.091C1227.53 586.943 1225.9 588.268 1224.01 588.268H1192.49C1190.6 588.268 1188.97 586.943 1188.58 585.091Z" stroke="#6E7681" stroke-width="8" stroke-linejoin="round"/>
<rect opacity="0.3" x="614" y="496" width="92" height="92" rx="8" stroke="#6E7681" stroke-width="8"/>
<path opacity="0.3" d="M646.678 531.314H650.698L650.698 569.314H646.971L646.971 537.499V536.292L646.118 537.146L636.328 546.935V541.664L646.678 531.314Z" fill="#6E7681" stroke="#6E7681"/>
<path opacity="0.3" d="M658.789 549.723C658.789 542.899 660.37 538.296 662.684 535.41C664.991 532.534 668.063 531.314 671.17 531.314C674.279 531.314 677.382 532.535 679.717 535.412C682.061 538.299 683.67 542.901 683.67 549.723C683.67 557.145 682.057 562.044 679.71 565.077C677.375 568.095 674.276 569.313 671.17 569.313C668.065 569.313 664.998 568.096 662.692 565.079C660.374 562.047 658.789 557.147 658.789 549.723ZM671.17 534.45C669.116 534.45 666.929 535.482 665.275 537.921C663.629 540.348 662.516 544.152 662.516 549.723C662.516 556.456 663.621 560.565 665.275 563.002C666.955 565.479 669.164 566.177 671.17 566.177C673.175 566.177 675.412 565.48 677.123 563.006C678.808 560.568 679.943 556.458 679.943 549.723C679.943 544.149 678.8 540.344 677.123 537.918C675.438 535.48 673.222 534.45 671.17 534.45Z" fill="#6E7681" stroke="#6E7681"/>
<path opacity="0.3" fill-rule="evenodd" clip-rule="evenodd" d="M639.746 511.667C638.569 511.667 637.815 512.567 637.815 513.417C637.815 513.791 638.017 514.105 638.459 514.418C638.911 514.738 639.496 514.97 640.063 515.196L640.074 515.2V515.2C640.083 515.204 640.093 515.208 640.102 515.211C640.637 515.424 641.378 515.718 641.985 516.149C642.609 516.592 643.211 517.266 643.211 518.25C643.211 519.856 641.841 521.333 639.947 521.333C638.374 521.333 637.111 520.344 636.469 519.435L637.558 518.665C638.034 519.34 638.935 520 639.947 520C641.124 520 641.878 519.101 641.878 518.25C641.878 517.885 641.672 517.562 641.213 517.237C640.748 516.907 640.147 516.664 639.581 516.439C639.559 516.43 639.537 516.421 639.514 516.412C638.987 516.203 638.274 515.92 637.689 515.507C637.068 515.067 636.482 514.4 636.482 513.417C636.482 511.811 637.852 510.334 639.746 510.334C641.318 510.334 642.581 511.321 643.224 512.231L642.135 513C641.659 512.326 640.758 511.667 639.746 511.667Z" fill="#6E7681"/>
<path opacity="0.3" d="M676.039 513.335L679.118 521.791L677.949 525H679.283L683.529 513.335H682.196L679.784 519.96L677.372 513.335H676.039Z" fill="#6E7681"/>
<path opacity="0.3" d="M651.356 513.335V521.334H650.022V520.32C649.831 520.976 648.783 521.668 648.039 521.668C646.207 521.668 644.723 519.97 644.723 518.08V513.335H646.056V518.08C646.056 519.273 646.983 520.335 648.039 520.335C649.096 520.335 650.022 519.441 650.022 518.248V513.335H651.356Z" fill="#6E7681"/>
<path opacity="0.3" d="M652.855 521.334V513.334H654.189V514.349C654.38 513.692 655.095 513.001 656.172 513.001C658.337 513.001 659.488 514.699 659.488 516.589V521.334H658.155V516.589C658.155 515.396 657.228 514.251 656.172 514.251C655.115 514.251 654.189 515.228 654.189 516.421V521.334H652.855Z" fill="#6E7681"/>
<path opacity="0.3" fill-rule="evenodd" clip-rule="evenodd" d="M666.288 520.655C665.735 521.081 665.048 521.334 664.305 521.334C662.473 521.334 660.988 519.802 660.988 517.913L660.988 516.089C660.988 514.199 662.473 512.668 664.305 512.668C665.048 512.668 665.735 512.92 666.288 513.346V510H667.621V521.333H666.288V520.655ZM664.305 514.001C665.361 514.001 666.288 514.896 666.288 516.089V517.913C666.288 519.105 665.361 520.001 664.305 520.001C663.248 520.001 662.322 519.105 662.322 517.913L662.322 516.089C662.322 514.896 663.248 514.001 664.305 514.001Z" fill="#6E7681"/>
<path opacity="0.3" fill-rule="evenodd" clip-rule="evenodd" d="M672.329 514.668C671.328 514.668 670.638 515.194 670.385 515.704L669.191 515.111C669.688 514.109 670.866 513.335 672.329 513.335C673.993 513.335 675.537 514.497 675.537 516.154V521.334L674.204 521.334V520.589C673.57 521.064 672.787 521.334 672.051 521.334C671.345 521.334 670.635 521.197 670.08 520.834C669.491 520.449 669.121 519.836 669.121 519.039C669.121 518.285 669.414 517.687 669.902 517.254C670.367 516.843 670.97 516.614 671.565 516.483C672.15 516.353 672.675 516.3 673.193 516.263C673.346 516.251 673.496 516.242 673.645 516.232C673.829 516.22 674.014 516.208 674.204 516.193V516.154C674.204 515.433 673.473 514.668 672.329 514.668ZM674.204 517.53C674.031 517.543 673.865 517.554 673.705 517.564C673.561 517.574 673.423 517.583 673.29 517.592C672.798 517.628 672.346 517.676 671.853 517.784C671.37 517.891 671.013 518.052 670.786 518.253C670.583 518.432 670.454 518.668 670.454 519.039C670.454 519.37 670.583 519.57 670.809 519.718C671.069 519.888 671.491 520.001 672.051 520.001C672.517 520.001 673.073 519.805 673.507 519.441C673.932 519.085 674.204 518.603 674.204 518.03V517.53Z" fill="#6E7681"/>
<path opacity="0.3" d="M635 489V503" stroke="#6E7681" stroke-width="4" stroke-linecap="round" stroke-linejoin="round"/>
<path opacity="0.3" d="M645 489V503" stroke="#6E7681" stroke-width="4" stroke-linecap="round" stroke-linejoin="round"/>
<path opacity="0.3" d="M655 489V503" stroke="#6E7681" stroke-width="4" stroke-linecap="round" stroke-linejoin="round"/>
<path opacity="0.3" d="M665 489V503" stroke="#6E7681" stroke-width="4" stroke-linecap="round" stroke-linejoin="round"/>
<path opacity="0.3" d="M675 489V503" stroke="#6E7681" stroke-width="4" stroke-linecap="round" stroke-linejoin="round"/>
<path opacity="0.3" d="M685 489V503" stroke="#6E7681" stroke-width="4" stroke-linecap="round" stroke-linejoin="round"/>
<path opacity="0.3" fill-rule="evenodd" clip-rule="evenodd" d="M563.999 -400C563.999 -402.209 562.208 -404 559.999 -404C557.79 -404 555.999 -402.209 555.999 -400V97.6128C533.589 99.3866 515.338 115.936 510.986 137.519C509.895 142.933 514.476 147.455 519.999 147.455H599.999C605.522 147.455 610.103 142.933 609.012 137.519C604.66 115.936 586.409 99.3866 563.999 97.6128V-400ZM559.999 105.455C580.306 105.455 597.263 119.875 601.157 139.038C601.001 139.204 600.599 139.455 599.999 139.455H519.999C519.399 139.455 518.997 139.204 518.841 139.038C522.735 119.875 539.692 105.455 559.999 105.455Z" fill="#6E7681"/>
<circle opacity="0.3" cx="1355" cy="554.5" r="25" stroke="#6E7681" stroke-width="8"/>
<path opacity="0.3" fill-rule="evenodd" clip-rule="evenodd" d="M1291 513C1288.79 513 1287 514.791 1287 517H1277C1270.37 517 1265 522.373 1265 529V580C1265 586.627 1270.37 592 1277 592H1291H1389C1395.63 592 1401 586.627 1401 580V529C1401 522.373 1395.63 517 1389 517H1295C1295 514.791 1293.21 513 1291 513ZM1389 525H1302.32C1302.76 526.251 1303 527.597 1303 529V580C1303 581.403 1302.76 582.749 1302.32 584H1389C1391.21 584 1393 582.209 1393 580V529C1393 526.791 1391.21 525 1389 525ZM1277 525H1291C1293.21 525 1295 526.791 1295 529V580C1295 582.209 1293.21 584 1291 584H1277C1274.79 584 1273 582.209 1273 580V529C1273 526.791 1274.79 525 1277 525Z" fill="#6E7681"/>
<circle opacity="0.3" cx="1355" cy="554.5" r="3.5" stroke="#6E7681" stroke-width="3"/>
<path fill-rule="evenodd" clip-rule="evenodd" d="M732.071 457.532C689.159 457.532 664.391 424.7 664.391 379.196C664.391 332.828 692.327 304.892 732.359 304.892C752.807 304.892 770.951 313.82 779.015 327.068L781.319 309.5H823.079V522.62H778.727V439.1C770.375 450.044 751.943 457.532 732.071 457.532ZM709.031 381.5C709.031 360.188 722.279 345.5 743.303 345.5C764.039 345.5 778.439 359.9 778.439 381.5C778.439 403.1 764.039 417.5 743.303 417.5C722.279 417.5 709.031 402.812 709.031 381.5Z" fill="#016F4E"/>
<path d="M1180.41 309.499C1174.36 308.059 1168.6 307.483 1163.42 307.483C1144.12 307.483 1131.45 316.987 1125.4 331.099L1123.1 309.787H1081.34V453.499H1125.69V391.003C1125.69 362.491 1140.96 351.259 1166.3 351.259H1180.41V309.499Z" fill="#016F4E"/>
<path fill-rule="evenodd" clip-rule="evenodd" d="M721.487 770.5H679.727V553.348H724.079V643.204C732.719 630.244 751.727 621.604 772.463 621.604C812.783 621.604 838.415 652.996 838.415 699.94C838.415 744.58 809.903 774.244 769.007 774.244C750.902 774.244 735.119 767.043 726.458 755.979L721.487 770.5ZM736.703 726.054C742.661 730.911 750.483 733.636 759.503 733.636C780.527 733.636 793.775 718.948 793.775 697.636C793.775 676.324 780.527 661.636 759.503 661.636C759.252 661.636 759.003 661.638 758.755 661.642C738.421 661.984 724.367 676.296 724.367 697.636C724.367 709.84 728.964 719.745 736.703 726.054Z" fill="#016F4E"/>
<path d="M1226.41 578.692C1226.41 592.804 1215.18 604.036 1201.35 604.036C1187.24 604.036 1176.01 592.804 1176.01 578.692C1176.01 564.58 1187.24 553.636 1201.35 553.636C1215.18 553.636 1226.41 564.58 1226.41 578.692Z" fill="#016F4E"/>
<path d="M1179.46 770.5H1223.82V626.5H1179.46V770.5Z" fill="#016F4E"/>
<path fill-rule="evenodd" clip-rule="evenodd" d="M824.219 556.754C827.059 583.358 832.982 604.405 844.171 619.441C863.585 645.529 887.307 659.92 913.593 666.892C913.582 668.166 913.555 669.484 913.497 670.838L913.492 670.967L913.483 671.166C912.988 681.965 910.531 695.003 899.329 706.344C890.926 714.851 877.602 722.404 856.494 727.343C856.023 726.985 855.549 726.633 855.072 726.288C854.605 725.951 854.016 725.828 853.453 725.95C837.971 729.313 818.363 731.317 793.54 731.317C792.81 731.317 791.995 731.305 791.09 731.293C781.832 731.164 764.233 730.918 749.078 742.37C733.775 753.934 721.388 776.98 721.388 822.257C721.388 835.831 719.581 873.314 715.931 921.022C715.888 921.585 716.082 922.14 716.466 922.554C716.849 922.969 717.388 923.204 717.953 923.204H721.541L721.541 923.205C718.921 1020.63 713.397 1159.11 704 1229.37H798.008L798.008 1229.37C798.023 1229.37 798.038 1229.37 798.053 1229.37L798.069 1229.37L798.099 1229.37H1128.45C1128.48 1229.37 1128.51 1229.37 1128.54 1229.37L1128.54 1229.37L1159.77 1229.37L1216 1229.37C1207.54 1160.48 1204.64 1026.01 1203.65 928.948C1203.63 927.018 1203.61 925.103 1203.59 923.204H1208.59C1209.16 923.204 1209.7 922.969 1210.08 922.554C1210.46 922.14 1210.66 921.585 1210.61 921.022C1206.96 873.314 1205.16 835.831 1205.16 822.257C1205.16 776.98 1192.77 753.934 1177.47 742.37C1162.31 730.918 1144.81 731.162 1135.55 731.291C1134.65 731.304 1133.74 731.317 1133.01 731.317C1117.81 731.317 1104.57 730.566 1093.03 729.212L1020.75 668.125C1044.76 660.408 1066.64 646.312 1084.83 621.862C1085.99 620.31 1087.09 618.701 1088.13 617.037C1095.46 605.386 1100.18 591.001 1103.17 574.25C1103.6 571.856 1103.99 569.409 1104.35 566.91C1104.77 563.974 1105.15 560.966 1105.49 557.887C1109.29 559.145 1112.92 559.948 1115.55 559.95C1115.92 559.951 1116.28 559.935 1116.61 559.901C1127.6 558.798 1133.1 542.02 1136.9 526.188C1137.44 523.927 1137.95 521.684 1138.43 519.509C1143.29 497.66 1141.43 469.144 1131.09 465.783L1131.09 465.783C1129.26 465.191 1127.47 464.955 1125.73 464.999C1125.68 465 1125.63 465.002 1125.59 465.003C1125.51 465.006 1125.42 465.009 1125.34 465.013C1118.64 465.339 1112.56 469.718 1107.61 473.725C1107.35 461.974 1106.82 451.719 1105.81 442.49C1103.27 419.115 1097.66 402.325 1085.56 384.493C1068.03 360.303 1034.89 338.945 971.301 340.074C969.385 340.027 967.447 340.003 965.486 340C965.327 340 965.168 340 965.009 340C964.301 340.001 963.59 340.004 962.877 340.01C959.394 339.979 955.981 340.019 952.638 340.125C919.669 341.173 893.522 348.712 874.625 359.058C862.137 365.896 852.815 373.959 846.781 382.185C832.96 401.028 826.744 417.83 824.009 442.583L824.01 442.583C822.926 452.389 822.39 463.442 822.143 476.364C821.754 476.045 821.356 475.716 820.948 475.379C814.393 469.963 805.416 462.547 795.459 465.783C785.116 469.145 783.256 497.66 788.114 519.51C791.982 536.907 797.378 558.64 809.939 559.902C813.234 560.233 818.775 558.855 824.219 556.754ZM1020.75 668.125L1017.07 665.023L1020.75 668.125L1020.75 668.125ZM1020.75 668.125L1093.03 729.211C1085.72 728.354 1079.1 727.254 1073.09 725.95C1072.53 725.828 1071.94 725.951 1071.47 726.288C1071 726.633 1070.52 726.985 1070.05 727.343C1048.94 722.404 1035.62 714.852 1027.22 706.345C1015.74 694.724 1013.44 681.321 1013.03 670.371C1015.62 669.691 1018.2 668.944 1020.75 668.125ZM1201.1 820.545L1201.1 820.538L1098.55 733.873L1098.54 733.873L1201.1 820.545Z" fill="#1C5947"/>
<path d="M1561.4 712.824V706.776C1561.4 692.662 1572.64 684.021 1585.89 675.093C1602.3 663.859 1622.75 649.17 1622.75 617.775C1622.75 577.451 1595.68 553.544 1550.46 553.544C1505.53 553.544 1474.42 583.787 1474.42 627.856H1520.79C1520.79 607.694 1531.74 595.021 1549.31 595.021C1565.72 595.021 1574.94 604.526 1574.94 620.943C1574.94 635.057 1564.57 643.697 1552.76 653.202C1538.07 665.012 1521.37 678.837 1521.37 706.776V712.824H1561.4Z" fill="#016F4E"/>
<path fill-rule="evenodd" clip-rule="evenodd" d="M445.289 453.652H396.617L472.649 240.532H518.153L593.897 453.652H544.361L529.385 408.724H460.65L445.289 453.652ZM474.089 369.556H516.137L500.873 324.052C498.962 318.079 496.852 311.312 495.695 306.22C495.458 305.174 495.26 304.199 495.113 303.316C494.249 308.212 491.945 316.276 489.353 324.052L474.089 369.556Z" fill="#016F4E"/>
<path d="M943.36 265.864V340.744C943.36 364.36 935.584 374.152 916.576 374.152C898.432 374.152 890.368 363.784 890.368 340.168V265.864H846.016V356.296C846.016 391.72 866.176 413.608 899.008 413.608C916.288 413.608 934.144 405.544 943.072 393.736L945.952 409.864H987.712V265.864H943.36Z" fill="#016F4E"/>
<path d="M1034.24 243.4C1048.07 243.4 1059.3 232.168 1059.3 218.056C1059.3 203.944 1048.07 193 1034.24 193C1020.13 193 1008.9 203.944 1008.9 218.056C1008.9 232.168 1020.13 243.4 1034.24 243.4ZM1034.24 243.4C1048.07 243.4 1059.3 232.168 1059.3 218.056C1059.3 203.944 1048.07 193 1034.24 193C1020.13 193 1008.9 203.944 1008.9 218.056C1008.9 232.168 1020.13 243.4 1034.24 243.4Z" fill="#016F4E"/>
<path d="M1056.71 409.864H1012.36V265.864H1056.71V409.864Z" fill="#016F4E"/>
<path d="M1238.56 453.652V417.652L1255.55 399.796L1287.8 453.652H1339.07L1286.65 366.676L1340.8 309.652H1285.21L1238.56 361.492V236.5H1194.2V453.652H1238.56Z" fill="#016F4E"/>
<path d="M1338.85 522.772C1347.49 525.364 1357.57 526.804 1368.23 526.804C1393.57 526.804 1409.7 514.42 1421.8 485.044L1494.95 309.652H1448.87L1414.02 402.1L1382.63 309.652H1335.11L1393 458.548L1390.41 465.46C1384.65 481.012 1378.31 485.62 1363.33 485.62H1338.85V522.772Z" fill="#016F4E"/>
<path d="M390.079 770.652V691.74C390.079 673.884 401.311 662.364 418.879 662.364C434.143 662.364 444.223 674.172 444.223 692.316V770.652H488.575V681.66C488.575 643.932 468.703 622.044 434.431 622.044C415.711 622.044 399.295 629.244 390.367 641.628V553.5H345.727V770.652H390.079Z" fill="#016F4E"/>
<path fill-rule="evenodd" clip-rule="evenodd" d="M583.453 774.108C537.373 774.108 503.965 743.868 503.965 698.364C503.965 652.86 537.373 622.332 583.453 622.332C629.245 622.332 662.653 652.86 662.653 698.364C662.653 743.868 629.245 774.108 583.453 774.108ZM548.605 698.076C548.605 676.476 562.717 662.076 583.453 662.076C603.901 662.076 618.013 676.476 618.013 698.076C618.013 719.964 603.901 734.364 583.453 734.364C562.717 734.364 548.605 719.964 548.605 698.076Z" fill="#016F4E"/>
<path fill-rule="evenodd" clip-rule="evenodd" d="M897.065 770.652H855.305V553.5H899.657V643.356C908.297 630.396 927.305 621.756 948.041 621.756C988.361 621.756 1013.99 653.148 1013.99 700.092C1013.99 744.732 985.481 774.396 944.585 774.396C926.48 774.396 910.697 767.195 902.036 756.132L897.065 770.652ZM912.281 726.206C918.24 731.063 926.061 733.788 935.081 733.788C956.105 733.788 969.353 719.1 969.353 697.788C969.353 676.476 956.105 661.788 935.081 661.788C934.831 661.788 934.581 661.79 934.333 661.794C913.999 662.136 899.945 676.448 899.945 697.788C899.945 709.992 904.542 719.898 912.281 726.206Z" fill="#016F4E"/>
<path d="M1013.74 839.772C1022.38 842.364 1032.46 843.804 1043.12 843.804C1068.46 843.804 1084.59 831.42 1096.68 802.044L1169.84 626.652H1123.76L1088.91 719.1L1057.52 626.652H1010L1067.88 775.548L1065.29 782.46C1059.53 798.012 1053.2 802.62 1038.22 802.62H1013.74V839.772Z" fill="#016F4E"/>
<path d="M1238.08 725.148C1238.08 754.236 1261.99 774.396 1300 774.396C1337.44 774.396 1363.65 755.676 1363.65 724.86C1363.65 701.82 1350.69 690.876 1327.07 685.692L1300.29 679.932C1290.21 677.628 1284.74 673.884 1284.74 667.26C1284.74 659.484 1291.07 654.3 1301.15 654.3C1311.81 654.3 1317.86 660.924 1317.86 670.716H1359.91C1359.91 641.628 1336.58 622.044 1303.17 622.044C1268.61 622.044 1242.98 639.324 1242.98 669.276C1242.98 694.62 1255.94 706.14 1282.43 711.9L1308.93 717.66C1319.59 719.964 1321.89 724.572 1321.89 728.892C1321.89 736.38 1315.55 741.276 1301.73 741.276C1288.19 741.276 1280.71 735.228 1280.13 725.148H1238.08Z" fill="#016F4E"/>
<path d="M1463.14 732.06C1457.96 733.788 1452.78 734.652 1448.46 734.652C1438.09 734.652 1430.89 729.18 1430.89 711.036V663.516H1462.86V626.652H1430.89V582.012H1386.54V626.652H1364.65V663.516H1386.54V720.252C1386.54 760.572 1407.27 774.108 1436.94 774.108C1449.03 774.108 1459.98 771.804 1468.33 767.772L1463.14 732.06Z" fill="#016F4E"/>
<path d="M1542.63 774.396C1556.74 774.396 1569.13 762.588 1569.13 748.476C1569.13 734.076 1556.74 722.268 1542.63 722.268C1527.94 722.268 1516.14 734.076 1516.14 748.476C1516.14 762.588 1527.94 774.396 1542.63 774.396Z" fill="#016F4E"/>
</g>
<defs>
<clipPath id="clip0_1865_2546">
<rect width="1920" height="1200" rx="64" fill="white"/>
</clipPath>
</defs>
</svg>
