<svg width="2160" height="1200" viewBox="0 0 2160 1200" fill="none" xmlns="http://www.w3.org/2000/svg">
<g clip-path="url(#clip0_1470_3836)">
<rect width="2160" height="1200" rx="64" fill="Canvas"/>
<path opacity="0.1" fill-rule="evenodd" clip-rule="evenodd" d="M-235 600H680V648.167V650.17V656.167V658.17V849.536V857.536V921L-235 921V600ZM688 857.536V921V929H680L-235 929H-243V600V592H-235H680H688H1472H1480H2395H2403V600V921V929H2395L1480 929H1472V857.536H690L688 857.536ZM688 849.536L690 849.536L1470 849.536L1472 849.536V658.17H688V849.536ZM1480 849.536V857.536V921L2395 921V600H1480V648.167V650.17V656.167V658.17V849.536ZM688 648.167V600H1472V648.167H688Z" fill="CanvasText"/>
<rect opacity="0.1" x="4" y="-4" width="472" height="232" rx="20" transform="matrix(1 0 0 -1 83.9258 332)" stroke="CanvasText" stroke-width="8"/>
<path opacity="0.1" d="M246.263 132.585C226.95 123.554 182.44 154.088 168.277 190.117C161.345 207.753 153.354 224.389 159.06 235.164C175.023 265.305 204.943 172.722 225.964 179.025C241.785 183.769 219.768 245.113 247.87 266.058C286.318 294.715 313.29 182.147 357.639 200.385C369.934 205.441 346.225 275.95 371.163 285.209C390.997 292.573 430.242 232.251 447.987 243.772C461.142 252.312 417.795 280.912 433.697 301.504C458.256 333.305 487.79 292.328 487.423 247.222C487.201 219.973 471.246 199.745 451.922 198.794C431.028 197.765 401.517 254.897 388.447 238.563C376.545 223.687 392.91 136.333 351.66 150.436C310.41 164.539 300.162 229.518 272.057 214.546C242.441 198.769 271.51 144.39 246.263 132.585Z" fill="CanvasText"/>
<path opacity="0.1" d="M1620.86 505H1556.91C1551.59 505 1547.43 509.597 1547.96 514.896L1554.46 579.896C1554.92 584.496 1558.79 588 1563.41 588H1614.36C1618.99 588 1622.86 584.496 1623.32 579.896L1629.82 514.896C1630.35 509.597 1626.19 505 1620.86 505Z" stroke="CanvasText" stroke-width="8" stroke-linejoin="round"/>
<path opacity="0.1" d="M1570.96 453.092C1570.96 453.092 1562.02 449.668 1554.38 452.132C1546.61 454.64 1539.4 461.549 1543.25 468.754C1546.72 475.229 1555.06 475.869 1562.02 473.603C1570.96 470.689 1572.45 462.16 1572.45 462.16" stroke="CanvasText" stroke-width="8" stroke-linecap="round"/>
<path opacity="0.1" d="M1600.12 449.337C1600.12 449.337 1609.76 445.686 1617.22 448.497C1624.69 451.307 1632.8 457.989 1628.88 465.068C1625.36 471.409 1617.22 472.188 1609.56 469.753C1601.9 467.319 1598.68 458.326 1598.68 458.326" stroke="CanvasText" stroke-width="8" stroke-linecap="round"/>
<path opacity="0.1" d="M1570.55 413.526C1570.55 413.526 1558.18 408.287 1547.31 413.613C1536.43 418.94 1530.11 429.12 1534.2 436.024C1538.57 443.429 1548.83 443.512 1558.51 439.513C1568.19 435.514 1572.31 424.323 1572.31 424.323" stroke="CanvasText" stroke-width="8" stroke-linecap="round"/>
<path opacity="0.1" d="M1599.36 407.214C1599.36 407.214 1610.34 403.886 1622.28 406.255C1634.23 408.624 1644.62 417.938 1640.35 426.587C1636.52 434.335 1625.04 435.078 1615 432.244C1606.38 429.812 1598.71 418.212 1598.71 418.212" stroke="CanvasText" stroke-width="8" stroke-linecap="round"/>
<path opacity="0.1" d="M1564.78 369.071C1564.78 369.071 1550.58 366.314 1537.14 374.926C1523.71 383.538 1519.08 393.295 1525.78 400.542C1531.8 407.055 1544.77 404.208 1554.29 398.375C1564.78 391.95 1568.22 379.656 1568.22 379.656" stroke="CanvasText" stroke-width="8" stroke-linecap="round"/>
<path opacity="0.1" d="M1593.54 368.202C1593.54 368.202 1601.85 363.02 1620.17 363.045C1638.48 363.07 1648.58 371.394 1645.27 381.334C1642.31 390.24 1629.02 393.101 1616.72 391.912C1606.15 390.891 1594.92 379.98 1594.92 379.98" stroke="CanvasText" stroke-width="8" stroke-linecap="round"/>
<path opacity="0.1" d="M1582.36 488.8C1590.03 445.545 1591.21 389.011 1572.13 356.31" stroke="CanvasText" stroke-width="8" stroke-linecap="round"/>
<path opacity="0.1" fill-rule="evenodd" clip-rule="evenodd" d="M904 586C904 582.686 906.686 580 910 580L1250 580C1253.31 580 1256 582.686 1256 586C1256 589.314 1253.31 592 1250 592L910 592C906.686 592 904 589.314 904 586Z" fill="CanvasText"/>
<rect opacity="0.1" x="920" y="366" width="320" height="210" rx="12" stroke="CanvasText" stroke-width="8" stroke-linejoin="round"/>
<path opacity="0.1" d="M939 541.465L939 384.465L1221 384.465L1221 541.465L939 541.465Z" stroke="CanvasText" stroke-width="8" stroke-linecap="round" stroke-linejoin="round"/>
<path opacity="0.1" fill-rule="evenodd" clip-rule="evenodd" d="M619.746 521H654.065C661.245 521 667.065 526.82 667.065 534V579.402C667.065 586.582 661.245 592.402 654.065 592.402H619.746C612.566 592.402 606.746 586.582 606.746 579.402V577.715C605.785 577.906 604.792 578.006 603.771 578.006C598.17 578.006 593.405 574.971 590.176 570.667C586.948 566.364 585.07 560.603 585.07 554.41C585.07 548.217 586.948 542.456 590.176 538.153C593.405 533.849 598.17 530.813 603.771 530.813C604.902 530.813 605.998 530.937 607.055 531.17C608.347 525.351 613.538 521 619.746 521ZM603.771 570.006C604.764 570.006 605.767 569.796 606.746 569.371V539.449C605.767 539.024 604.764 538.813 603.771 538.813C601.252 538.813 598.668 540.165 596.576 542.953C594.483 545.743 593.07 549.781 593.07 554.41C593.07 559.039 594.483 563.077 596.576 565.866C598.668 568.655 601.252 570.006 603.771 570.006ZM614.746 579.402V573.558C614.747 573.557 614.747 573.557 614.748 573.556V535.264C614.747 535.263 614.747 535.263 614.746 535.262V534C614.746 533.953 614.747 533.907 614.748 533.86V533.267C614.748 530.505 616.987 528.267 619.748 528.267H654.067C656.829 528.267 659.067 530.505 659.067 533.267V578.669C659.067 578.716 659.066 578.762 659.065 578.809V579.402C659.065 582.164 656.827 584.402 654.065 584.402H619.746C616.985 584.402 614.746 582.164 614.746 579.402Z" fill="CanvasText"/>
<path opacity="0.1" d="M650.906 571.2C652.563 571.2 653.906 569.857 653.906 568.2C653.906 566.543 652.563 565.2 650.906 565.2C649.249 565.2 647.906 566.543 647.906 568.2C647.906 569.857 649.249 571.2 650.906 571.2Z" fill="CanvasText"/>
<path opacity="0.1" d="M627.906 542.201V571.201H632.906V560.357C632.906 559.56 633.384 558.684 634.556 557.884C635.733 557.081 637.211 556.659 638.264 556.659C639.052 556.659 639.63 556.971 640.067 557.52C640.541 558.117 640.906 559.086 640.906 560.357V571.2L645.906 571.201V560.357C645.906 558.177 645.284 556.048 643.98 554.408C642.638 552.721 640.644 551.659 638.264 551.659C636.551 551.659 634.619 552.156 632.906 553.054V542.202L627.906 542.201Z" fill="CanvasText"/>
<path opacity="0.1" d="M476.781 588L556.781 588" stroke="CanvasText" stroke-width="8" stroke-linecap="round"/>
<circle opacity="0.1" cx="1080" cy="180" r="84" stroke="CanvasText" stroke-width="8"/>
<g opacity="0.1">
<path fill-rule="evenodd" clip-rule="evenodd" d="M1152.73 180C1152.73 177.055 1150.34 174.667 1147.39 174.667C1144.45 174.667 1142.06 177.055 1142.06 180H1152.73Z" fill="CanvasText"/>
<path d="M1152.73 180C1152.73 182.946 1150.34 185.334 1147.39 185.334C1144.45 185.334 1142.06 182.946 1142.06 180M1152.73 180C1152.73 177.055 1150.34 174.667 1147.39 174.667C1144.45 174.667 1142.06 177.055 1142.06 180M1152.73 180H1142.06" stroke="CanvasText" stroke-width="2"/>
</g>
<g opacity="0.1">
<path fill-rule="evenodd" clip-rule="evenodd" d="M1007.27 180C1007.27 182.945 1009.66 185.333 1012.61 185.333C1015.55 185.333 1017.94 182.945 1017.94 180H1007.27Z" fill="CanvasText"/>
<path d="M1007.27 180C1007.27 177.054 1009.66 174.666 1012.61 174.666C1015.55 174.666 1017.94 177.054 1017.94 180M1007.27 180C1007.27 182.945 1009.66 185.333 1012.61 185.333C1015.55 185.333 1017.94 182.945 1017.94 180M1007.27 180H1017.94" stroke="CanvasText" stroke-width="2"/>
</g>
<g opacity="0.1">
<path fill-rule="evenodd" clip-rule="evenodd" d="M1074.67 247.392C1074.67 250.338 1077.05 252.726 1080 252.726C1082.94 252.726 1085.33 250.338 1085.33 247.392H1074.67Z" fill="CanvasText"/>
<path d="M1080 242.059C1077.05 242.059 1074.67 244.447 1074.67 247.392H1085.33C1085.33 244.447 1082.94 242.059 1080 242.059Z" fill="CanvasText"/>
<path d="M1074.67 247.392C1074.67 244.447 1077.05 242.059 1080 242.059C1082.94 242.059 1085.33 244.447 1085.33 247.392M1074.67 247.392C1074.67 250.338 1077.05 252.726 1080 252.726C1082.94 252.726 1085.33 250.338 1085.33 247.392M1074.67 247.392H1085.33" stroke="CanvasText" stroke-width="2"/>
</g>
<path opacity="0.1" d="M1080 117.94C1077.05 117.94 1074.67 115.552 1074.67 112.607C1074.67 109.661 1077.05 107.273 1080 107.273C1082.94 107.273 1085.33 109.661 1085.33 112.607C1085.33 115.552 1082.94 117.94 1080 117.94Z" stroke="CanvasText" stroke-width="2"/>
<path opacity="0.1" fill-rule="evenodd" clip-rule="evenodd" d="M1152.73 181.001H1084.15C1083.73 182.761 1082.21 184.096 1080.36 184.252L1063.98 222.736L1060.3 221.17L1076.68 182.685C1076.09 181.952 1075.73 181.018 1075.73 180.001C1075.73 178.173 1076.88 176.613 1078.5 176.006L1078.5 117.941H1081.5L1081.5 176.005C1082.81 176.497 1083.82 177.618 1084.15 179.001H1152.73V181.001Z" fill="CanvasText"/>
<path opacity="0.1" d="M1308.58 585.091L1306.38 574.631C1306.21 573.842 1306.3 573.224 1306.49 572.808C1310.06 564.904 1317.57 561 1328.25 561C1338.93 561 1346.44 564.904 1350.01 572.808C1350.2 573.224 1350.29 573.841 1350.12 574.631L1347.92 585.091C1347.53 586.943 1345.9 588.268 1344.01 588.268H1312.49C1310.6 588.268 1308.97 586.943 1308.58 585.091Z" stroke="CanvasText" stroke-width="8" stroke-linejoin="round"/>
<rect opacity="0.1" x="734" y="496" width="92" height="92" rx="8" stroke="CanvasText" stroke-width="8"/>
<path opacity="0.1" d="M766.678 531.314H770.698L770.698 569.314H766.971L766.971 537.5V536.293L766.118 537.146L756.328 546.936V541.665L766.678 531.314Z" fill="CanvasText" stroke="CanvasText"/>
<path opacity="0.1" d="M778.789 549.724C778.789 542.9 780.37 538.297 782.684 535.411C784.991 532.535 788.063 531.314 791.17 531.314C794.279 531.314 797.382 532.535 799.717 535.413C802.061 538.3 803.67 542.902 803.67 549.724C803.67 557.146 802.057 562.045 799.71 565.077C797.375 568.096 794.276 569.314 791.17 569.314C788.065 569.314 784.998 568.096 782.692 565.08C780.374 562.047 778.789 557.148 778.789 549.724ZM791.17 534.451C789.116 534.451 786.929 535.483 785.275 537.922C783.629 540.348 782.516 544.152 782.516 549.724C782.516 556.456 783.621 560.565 785.275 563.003C786.955 565.479 789.164 566.178 791.17 566.178C793.175 566.178 795.412 565.481 797.123 563.006C798.808 560.569 799.943 556.458 799.943 549.724C799.943 544.15 798.8 540.345 797.123 537.918C795.438 535.481 793.222 534.451 791.17 534.451Z" fill="CanvasText" stroke="CanvasText"/>
<path opacity="0.1" fill-rule="evenodd" clip-rule="evenodd" d="M759.746 511.667C758.569 511.667 757.815 512.567 757.815 513.417C757.815 513.791 758.017 514.105 758.459 514.418C758.911 514.738 759.496 514.97 760.063 515.196L760.074 515.2V515.2C760.083 515.204 760.093 515.208 760.102 515.211C760.637 515.424 761.378 515.718 761.985 516.149C762.609 516.592 763.211 517.266 763.211 518.25C763.211 519.856 761.841 521.333 759.947 521.333C758.374 521.333 757.111 520.344 756.469 519.435L757.558 518.665C758.034 519.34 758.935 520 759.947 520C761.124 520 761.878 519.101 761.878 518.25C761.878 517.885 761.672 517.562 761.213 517.237C760.748 516.907 760.147 516.664 759.581 516.439C759.559 516.43 759.537 516.421 759.514 516.412C758.987 516.203 758.274 515.92 757.689 515.507C757.068 515.067 756.482 514.4 756.482 513.417C756.482 511.811 757.852 510.334 759.746 510.334C761.318 510.334 762.581 511.321 763.224 512.231L762.135 513C761.659 512.326 760.758 511.667 759.746 511.667Z" fill="CanvasText"/>
<path opacity="0.1" d="M796.039 513.335L799.118 521.791L797.949 525H799.283L803.529 513.335H802.196L799.784 519.96L797.372 513.335H796.039Z" fill="CanvasText"/>
<path opacity="0.1" d="M771.356 513.335V521.334H770.022V520.32C769.831 520.976 768.783 521.668 768.039 521.668C766.207 521.668 764.723 519.97 764.723 518.08V513.335H766.056V518.08C766.056 519.273 766.983 520.335 768.039 520.335C769.096 520.335 770.022 519.441 770.022 518.248V513.335H771.356Z" fill="CanvasText"/>
<path opacity="0.1" d="M772.855 521.334V513.334H774.189V514.349C774.38 513.692 775.095 513.001 776.172 513.001C778.337 513.001 779.488 514.699 779.488 516.589V521.334H778.155V516.589C778.155 515.396 777.228 514.251 776.172 514.251C775.115 514.251 774.189 515.228 774.189 516.421V521.334H772.855Z" fill="CanvasText"/>
<path opacity="0.1" fill-rule="evenodd" clip-rule="evenodd" d="M786.288 520.655C785.735 521.081 785.048 521.334 784.305 521.334C782.473 521.334 780.988 519.802 780.988 517.913L780.988 516.089C780.988 514.199 782.473 512.668 784.305 512.668C785.048 512.668 785.735 512.92 786.288 513.346V510H787.621V521.333H786.288V520.655ZM784.305 514.001C785.361 514.001 786.288 514.896 786.288 516.089V517.913C786.288 519.105 785.361 520.001 784.305 520.001C783.248 520.001 782.322 519.105 782.322 517.913L782.322 516.089C782.322 514.896 783.248 514.001 784.305 514.001Z" fill="CanvasText"/>
<path opacity="0.1" fill-rule="evenodd" clip-rule="evenodd" d="M792.329 514.668C791.328 514.668 790.638 515.194 790.385 515.704L789.191 515.111C789.688 514.109 790.866 513.335 792.329 513.335C793.993 513.335 795.537 514.497 795.537 516.154V521.334L794.204 521.334V520.589C793.57 521.064 792.787 521.334 792.051 521.334C791.345 521.334 790.635 521.197 790.08 520.834C789.491 520.449 789.121 519.836 789.121 519.039C789.121 518.285 789.414 517.687 789.902 517.254C790.367 516.843 790.97 516.614 791.565 516.483C792.15 516.353 792.675 516.3 793.193 516.263C793.346 516.251 793.496 516.242 793.645 516.232C793.829 516.22 794.014 516.208 794.204 516.193V516.154C794.204 515.433 793.473 514.668 792.329 514.668ZM794.204 517.53C794.031 517.543 793.865 517.554 793.705 517.564C793.561 517.574 793.423 517.583 793.29 517.592C792.798 517.628 792.346 517.676 791.853 517.784C791.37 517.891 791.013 518.052 790.786 518.253C790.583 518.432 790.454 518.668 790.454 519.039C790.454 519.37 790.583 519.57 790.809 519.718C791.069 519.888 791.491 520.001 792.051 520.001C792.517 520.001 793.073 519.805 793.507 519.441C793.932 519.085 794.204 518.603 794.204 518.03V517.53Z" fill="CanvasText"/>
<path opacity="0.1" d="M755 489V503" stroke="CanvasText" stroke-width="4" stroke-linecap="round" stroke-linejoin="round"/>
<path opacity="0.1" d="M765 489V503" stroke="CanvasText" stroke-width="4" stroke-linecap="round" stroke-linejoin="round"/>
<path opacity="0.1" d="M775 489V503" stroke="CanvasText" stroke-width="4" stroke-linecap="round" stroke-linejoin="round"/>
<path opacity="0.1" d="M785 489V503" stroke="CanvasText" stroke-width="4" stroke-linecap="round" stroke-linejoin="round"/>
<path opacity="0.1" d="M795 489V503" stroke="CanvasText" stroke-width="4" stroke-linecap="round" stroke-linejoin="round"/>
<path opacity="0.1" d="M805 489V503" stroke="CanvasText" stroke-width="4" stroke-linecap="round" stroke-linejoin="round"/>
<path opacity="0.45" d="M725.513 142.966C723.637 141.091 721.094 140.037 718.442 140.037L641.562 140.037C638.91 140.037 636.366 141.091 634.491 142.966L-235.445 1012.9C-241.744 1019.2 -237.283 1029.97 -228.373 1029.97H1588.38C1597.29 1029.97 1601.75 1019.2 1595.45 1012.9L725.513 142.966Z" fill="url(#paint0_radial_1470_3836)"/>
<path opacity="0.1" fill-rule="evenodd" clip-rule="evenodd" d="M684.003 -400C684.003 -402.209 682.212 -404 680.003 -404C677.794 -404 676.003 -402.209 676.003 -400V97.6128C653.593 99.3866 635.342 115.936 630.99 137.519C629.899 142.933 634.48 147.455 640.003 147.455H720.003C725.526 147.455 730.107 142.933 729.016 137.519C724.664 115.936 706.413 99.3866 684.003 97.6128V-400ZM680.003 105.455C700.31 105.455 717.267 119.875 721.161 139.038C721.005 139.204 720.603 139.455 720.003 139.455H640.003C639.403 139.455 639.001 139.204 638.845 139.038C642.739 119.875 659.696 105.455 680.003 105.455Z" fill="CanvasText"/>
<circle opacity="0.1" cx="1475" cy="554.5" r="25" stroke="CanvasText" stroke-width="8"/>
<path opacity="0.1" fill-rule="evenodd" clip-rule="evenodd" d="M1411 513C1408.79 513 1407 514.791 1407 517H1397C1390.37 517 1385 522.373 1385 529V580C1385 585.799 1389.11 590.637 1394.58 591.756C1395.36 591.916 1396.17 592 1397 592H1411H1509C1515.63 592 1521 586.627 1521 580V529C1521 522.373 1515.63 517 1509 517H1415C1415 514.791 1413.21 513 1411 513ZM1509 525H1422.32C1422.76 526.251 1423 527.597 1423 529V580C1423 581.403 1422.76 582.749 1422.32 584H1509C1511.21 584 1513 582.209 1513 580V529C1513 526.791 1511.21 525 1509 525ZM1397 525H1411C1413.21 525 1415 526.791 1415 529V580C1415 582.209 1413.21 584 1411 584H1397C1396.86 584 1396.73 583.993 1396.59 583.979C1394.57 583.775 1393 582.071 1393 580V529C1393 526.791 1394.79 525 1397 525Z" fill="CanvasText"/>
<circle opacity="0.1" cx="1475" cy="554.5" r="3.5" stroke="CanvasText" stroke-width="3"/>
<path fill-rule="evenodd" clip-rule="evenodd" d="M852.071 457.532C809.159 457.532 784.391 424.7 784.391 379.196C784.391 332.828 812.327 304.892 852.359 304.892C872.807 304.892 890.951 313.82 899.015 327.068L901.319 309.5H943.079V522.62H898.727V439.1C890.375 450.044 871.943 457.532 852.071 457.532ZM829.031 381.5C829.031 360.188 842.279 345.5 863.303 345.5C884.039 345.5 898.439 359.9 898.439 381.5C898.439 403.1 884.039 417.5 863.303 417.5C842.279 417.5 829.031 402.812 829.031 381.5Z" fill="CanvasText"/>
<path d="M1300.41 309.499C1294.36 308.059 1288.6 307.483 1283.42 307.483C1264.12 307.483 1251.45 316.987 1245.4 331.099L1243.1 309.787H1201.34V453.499H1245.69V391.003C1245.69 362.491 1260.96 351.259 1286.3 351.259H1300.41V309.499Z" fill="CanvasText"/>
<path fill-rule="evenodd" clip-rule="evenodd" d="M841.487 770.5H799.727V553.348H844.079V643.204C852.719 630.244 871.727 621.604 892.463 621.604C932.783 621.604 958.415 652.996 958.415 699.94C958.415 744.58 929.903 774.244 889.007 774.244C870.902 774.244 855.119 767.043 846.458 755.979L841.487 770.5ZM856.703 726.054C862.661 730.911 870.483 733.636 879.503 733.636C900.527 733.636 913.775 718.948 913.775 697.636C913.775 676.324 900.527 661.636 879.503 661.636C879.252 661.636 879.003 661.638 878.755 661.642C858.421 661.984 844.367 676.296 844.367 697.636C844.367 709.84 848.964 719.745 856.703 726.054Z" fill="CanvasText"/>
<path d="M1346.41 578.692C1346.41 592.804 1335.18 604.036 1321.35 604.036C1307.24 604.036 1296.01 592.804 1296.01 578.692C1296.01 564.58 1307.24 553.636 1321.35 553.636C1335.18 553.636 1346.41 564.58 1346.41 578.692Z" fill="CanvasText"/>
<path d="M1299.46 770.5H1343.82V626.5H1299.46V770.5Z" fill="CanvasText"/>
<path d="M1082.92 676.413C1085.83 676.378 1088.72 676.302 1091.6 676.181C1134.76 674.362 1174.81 662.211 1204.83 621.862C1205.99 620.31 1207.09 618.701 1208.13 617.037C1215.46 605.386 1220.18 591.001 1223.17 574.25C1223.6 571.856 1223.99 569.409 1224.35 566.91C1226.87 549.418 1227.79 529.381 1227.84 507.019C1227.85 504.918 1227.85 502.857 1227.85 500.832C1227.86 476.87 1227.53 458.194 1225.81 442.49C1223.27 419.115 1217.66 402.325 1205.56 384.493C1188.03 360.302 1154.89 338.945 1091.3 340.074C1147.08 341.433 1183.64 361.283 1198.97 382.185C1222.16 413.803 1223.94 439.677 1223.79 507.01C1223.67 557.949 1219.02 596.001 1201.58 619.441C1170.61 661.054 1128.68 671.809 1082.88 672.358L1082.92 676.413Z" fill="black"/>
<path d="M1033.58 662.349C1033.57 660.204 1033.55 658.244 1033.62 656.522C1033.63 656.463 1033.63 656.405 1033.63 656.347H1132.91C1132.92 656.405 1132.92 656.463 1132.92 656.522C1132.99 658.244 1132.98 660.203 1132.96 662.349C1132.87 674.181 1132.73 691.68 1147.22 706.345C1162.01 721.324 1192.07 733.344 1253.01 733.344C1253.75 733.344 1254.58 733.332 1255.48 733.32C1273.99 733.062 1323.13 732.378 1323.13 822.257V822.264C1323.13 868.005 1323.13 1124.58 1336 1229.37H1248.54C1248.51 1228.7 1248.48 1228.02 1248.45 1227.34H918.1C918.068 1228.02 918.038 1228.7 918.008 1229.37H824C838.017 1124.57 843.416 867.981 843.416 822.257C843.416 732.378 892.56 733.062 911.063 733.32C911.965 733.332 912.793 733.344 913.54 733.344C974.48 733.344 1004.53 721.323 1019.33 706.344C1033.81 691.68 1033.68 674.181 1033.58 662.349Z" fill="#E7C273"/>
<path d="M1033.49 671.166C1035.32 674.639 1037.35 677.879 1039.58 680.882C1070.87 722.924 1113.23 734.898 1159.51 734.344C1174.48 734.165 1189.04 732.906 1202.95 729.863C1174.19 725.24 1157.22 716.468 1147.22 706.345C1132.73 691.68 1132.87 674.181 1132.96 662.349C1132.98 660.203 1133 658.244 1132.92 656.522C1132.92 656.463 1132.92 656.405 1132.92 656.347H1033.64C1033.63 656.405 1033.63 656.463 1033.63 656.522C1033.55 658.244 1033.57 660.204 1033.59 662.349C1033.61 665.03 1033.63 668.002 1033.49 671.166Z" fill="black" fill-opacity="0.6"/>
<path d="M841.543 923.206C858.571 940.049 881.986 950.45 907.829 950.45C959.889 950.45 1002.09 908.247 1002.09 856.188C1002.09 804.128 959.889 761.926 907.829 761.926C884.765 761.926 863.636 770.209 847.254 783.963C844.825 794.428 843.418 807.046 843.418 822.257C843.418 837.328 842.831 875.306 841.543 923.206Z" fill="black" fill-opacity="0.6"/>
<path d="M1263.75 761.904C1283.97 761.904 1302.7 768.273 1318.06 779.113C1321.24 790.464 1323.13 804.616 1323.13 822.257V822.267C1323.13 837.942 1323.13 878.364 1323.65 928.949C1307.36 942.369 1286.5 950.428 1263.75 950.428C1263.17 950.428 1262.59 950.423 1262.01 950.413C1265.17 1023.66 1270.8 1130.9 1279.78 1229.37H1248.54C1248.51 1228.7 1248.48 1228.02 1248.45 1227.34H1200L1179.94 899.354C1173.26 886.415 1169.48 871.731 1169.48 856.166C1169.48 804.107 1211.69 761.904 1263.75 761.904Z" fill="black" fill-opacity="0.6"/>
<path d="M918.1 1227.34H1248.45C1247.46 1205.7 1245.75 1179.47 1243.85 1150.29L1243.85 1150.26C1239.47 1082.92 1234.07 999.863 1234.07 921.176H1328.59C1324.94 873.466 1323.13 835.915 1323.13 822.257C1323.13 732.378 1273.99 733.062 1255.48 733.319C1254.58 733.332 1253.75 733.343 1253.01 733.343C1228.08 733.343 1208.32 731.332 1192.66 727.931C1185.65 733.002 1179.37 739.539 1172.75 746.433C1153.95 766.008 1132.37 788.469 1083.27 788.468C1034.17 788.469 1012.6 766.009 993.799 746.433C987.178 739.539 980.9 733.002 973.884 727.931C958.224 731.332 938.466 733.343 913.54 733.343C912.794 733.343 911.965 733.332 911.063 733.319C892.56 733.062 843.416 732.378 843.416 822.257C843.416 835.915 841.602 873.466 837.953 921.176H932.475C932.475 999.864 927.074 1082.92 922.695 1150.26C920.796 1179.46 919.09 1205.7 918.1 1227.34Z" fill="#02DA9A"/>
<path fill-rule="evenodd" clip-rule="evenodd" d="M973.454 725.95C974.017 725.827 974.605 725.95 975.072 726.288C982.236 731.466 988.62 738.113 995.188 744.952L995.262 745.029C1004.68 754.834 1014.59 765.139 1028.19 773.039C1041.75 780.911 1059.06 786.441 1083.27 786.441C1107.49 786.441 1124.8 780.911 1138.35 773.039C1151.96 765.139 1161.87 754.834 1171.28 745.029L1171.36 744.952C1177.93 738.113 1184.31 731.466 1191.47 726.288C1191.94 725.95 1192.53 725.827 1193.09 725.95C1208.58 729.313 1228.18 731.316 1253.01 731.316C1253.74 731.316 1254.65 731.303 1255.55 731.291C1264.81 731.162 1282.31 730.918 1297.47 742.369C1312.77 753.934 1325.16 776.979 1325.16 822.257C1325.16 835.831 1326.97 873.314 1330.61 921.021C1330.66 921.584 1330.46 922.14 1330.08 922.554C1329.7 922.968 1329.16 923.203 1328.59 923.203H1236.1C1236.19 1001.21 1241.53 1083.36 1245.87 1150.13L1245.88 1150.18C1247.77 1179.35 1249.48 1205.59 1250.47 1227.25C1250.5 1227.8 1250.29 1228.34 1249.91 1228.74C1249.53 1229.14 1249 1229.37 1248.45 1229.37H918.1C917.546 1229.37 917.016 1229.14 916.634 1228.74C916.251 1228.34 916.049 1227.8 916.074 1227.25C917.066 1205.58 918.773 1179.33 920.671 1150.14L920.672 1150.13C925.014 1083.36 930.355 1001.21 930.446 923.203H837.953C837.389 923.203 836.85 922.968 836.466 922.554C836.082 922.14 835.889 921.584 835.932 921.021C839.581 873.314 841.389 835.831 841.389 822.257C841.389 776.979 853.775 753.934 869.079 742.369C884.233 730.918 901.832 731.163 911.09 731.292C911.995 731.305 912.811 731.316 913.54 731.316C938.363 731.316 957.971 729.313 973.454 725.95ZM911.045 735.347C901.773 735.218 885.513 735.034 871.523 745.605C857.629 756.103 845.444 777.655 845.444 822.257C845.444 835.789 843.68 872.473 840.141 919.148H930.447V827.99C930.447 826.87 931.355 825.962 932.475 825.962C933.595 825.962 934.502 826.87 934.502 827.99V921.176C934.502 999.93 929.098 1083.04 924.72 1150.36L924.718 1150.39C922.881 1178.65 921.225 1204.11 920.224 1225.32H1246.32C1245.32 1204.12 1243.67 1178.67 1241.83 1150.42L1241.83 1150.39L1241.83 1150.37C1237.45 1083.05 1232.04 999.934 1232.04 921.176V827.99C1232.04 826.87 1232.95 825.962 1234.07 825.962C1235.19 825.962 1236.1 826.87 1236.1 827.99V919.148H1326.4C1322.87 872.473 1321.1 835.789 1321.1 822.257C1321.1 777.655 1308.92 756.103 1295.02 745.605C1281.03 735.034 1264.78 735.218 1255.51 735.347C1254.61 735.359 1253.77 735.371 1253.01 735.371C1228.45 735.371 1208.82 733.427 1193.13 730.104C1186.57 734.972 1180.62 741.159 1174.21 747.838L1174.14 747.906C1164.78 757.658 1154.52 768.34 1140.39 776.545C1126.18 784.797 1108.16 790.496 1083.27 790.496C1058.38 790.496 1040.36 784.797 1026.15 776.545C1012.03 768.34 1001.77 757.658 992.403 747.906L992.337 747.838C985.923 741.16 979.973 734.972 973.42 730.104C957.729 733.427 938.099 735.371 913.54 735.371C912.78 735.371 911.939 735.359 911.045 735.347Z" fill="black"/>
<path d="M1251.09 465.783C1261.43 469.144 1263.3 497.66 1258.44 519.509C1254.57 536.907 1249.17 558.64 1236.61 559.901C1229.03 560.663 1209.57 552.385 1206.75 547.062C1192.45 520.149 1199.63 496.204 1223.43 477.16C1230.09 471.824 1239.98 462.172 1251.09 465.783Z" fill="#D0B170"/>
<path d="M1251.09 465.783C1249.13 465.147 1247.21 464.923 1245.34 465.013C1226.68 498.242 1225.53 520.064 1225.4 557.857C1229.78 559.313 1233.93 560.17 1236.61 559.901C1249.17 558.64 1254.57 536.907 1258.43 519.509C1263.29 497.66 1261.43 469.144 1251.09 465.783Z" fill="black" fill-opacity="0.6"/>
<path fill-rule="evenodd" clip-rule="evenodd" d="M1242.53 478.396C1241.54 477.86 1240.31 478.222 1239.77 479.205C1235.23 487.535 1232.83 493.426 1231.4 499.483C1230.08 505.034 1229.6 510.672 1228.94 518.286C1228.89 518.901 1228.84 519.529 1228.78 520.171C1228.68 521.287 1229.51 522.27 1230.63 522.367C1231.74 522.463 1232.72 521.638 1232.82 520.522C1232.87 519.914 1232.92 519.32 1232.97 518.74C1233.64 511.006 1234.1 505.665 1235.34 500.417C1236.67 494.831 1238.89 489.289 1243.33 481.147C1243.87 480.164 1243.51 478.933 1242.53 478.396Z" fill="black"/>
<path d="M915.46 465.783C905.118 469.144 903.257 497.66 908.115 519.509C911.984 536.907 917.38 558.64 929.94 559.901C937.519 560.663 956.979 552.385 959.807 547.062C974.105 520.149 966.919 496.204 943.127 477.16C936.46 471.824 926.571 462.172 915.46 465.783Z" fill="#D0B170"/>
<path fill-rule="evenodd" clip-rule="evenodd" d="M924.026 478.391C925.009 477.854 926.24 478.217 926.777 479.2C931.32 487.529 933.719 493.421 935.152 499.477C936.466 505.028 936.951 510.666 937.607 518.28C937.66 518.895 937.714 519.524 937.77 520.166C937.867 521.281 937.041 522.264 935.926 522.361C934.81 522.458 933.827 521.632 933.73 520.516C933.678 519.908 933.626 519.314 933.576 518.734C932.909 511 932.448 505.66 931.206 500.411C929.884 494.825 927.657 489.283 923.217 481.141C922.681 480.158 923.043 478.927 924.026 478.391Z" fill="black"/>
<path d="M964.171 619.441C946.728 596.001 942.083 557.949 941.965 507.01C941.81 439.677 943.59 413.803 966.781 382.185C982.872 360.248 1022.35 339.471 1082.88 340.01C1143.41 339.471 1182.88 360.248 1198.97 382.185C1222.16 413.803 1223.94 439.677 1223.79 507.01C1223.67 557.949 1219.03 596.001 1201.58 619.441C1170.61 661.054 1128.68 671.809 1082.88 672.358C1037.07 672.906 995.138 661.054 964.171 619.441Z" fill="#E7C273"/>
<ellipse cx="1035.46" cy="512.622" rx="10.4102" ry="16.925" fill="#4D2C19"/>
<ellipse cx="1131.08" cy="512.622" rx="10.4102" ry="16.925" fill="#4D2C19"/>
<path d="M1156.56 480.282C1158.57 482.544 1158.74 486.613 1155.89 489.054C1148.03 495.774 1144.98 481.776 1133.29 481.98C1126.53 482.097 1122.19 488.211 1118.28 481.98C1112.79 473.222 1125.54 468.984 1133.82 468.983C1143.51 468.983 1153.24 476.533 1156.56 480.282Z" fill="#3A2113"/>
<path d="M1009.99 480.282C1007.98 482.544 1007.81 486.613 1010.66 489.054C1018.51 495.774 1021.57 481.776 1033.26 481.98C1040.01 482.097 1044.35 488.211 1048.26 481.98C1053.75 473.222 1041.01 468.984 1032.73 468.983C1023.03 468.983 1013.31 476.533 1009.99 480.282Z" fill="#3A2113"/>
<path fill-rule="evenodd" clip-rule="evenodd" d="M1071.58 527.993C1072.45 528.694 1072.59 529.97 1071.89 530.843C1069.6 533.696 1068.11 538.075 1068.11 544.441C1068.11 549.157 1070.06 552.204 1072.81 554.115C1075.65 556.09 1079.49 556.942 1083.21 556.819C1084.33 556.783 1085.27 557.66 1085.3 558.779C1085.34 559.898 1084.46 560.835 1083.34 560.872C1079 561.015 1074.24 560.047 1070.5 557.445C1066.66 554.778 1064.05 550.49 1064.05 544.441C1064.05 537.474 1065.69 532.095 1068.73 528.307C1069.43 527.434 1070.7 527.293 1071.58 527.993Z" fill="black"/>
<path fill-rule="evenodd" clip-rule="evenodd" d="M1027.39 592.303C1027.73 591.235 1028.87 590.643 1029.94 590.981C1068.01 603.02 1097.43 603.02 1135.51 590.981C1136.57 590.643 1137.71 591.235 1138.05 592.303C1138.39 593.37 1137.8 594.509 1136.73 594.847C1097.86 607.138 1067.59 607.138 1028.71 594.847C1027.65 594.509 1027.05 593.37 1027.39 592.303Z" fill="black"/>
<path d="M966.783 382.185C982.874 360.248 1022.35 339.471 1082.88 340.01C1143.41 339.471 1182.88 360.248 1198.97 382.185C1212.8 401.028 1219.01 417.83 1221.75 442.583C1221.75 442.583 1137.11 443.935 1082.88 443.935C1028.65 443.935 944.012 442.583 944.012 442.583C946.746 417.83 952.962 401.028 966.783 382.185Z" fill="black"/>
<path d="M1115.38 470.359C1112.21 473.583 1106.35 473.969 1102.07 470.337C1090.87 460.818 1106.53 454.381 1104.22 438.553C1102.56 427.114 1096.54 420.7 1104.55 415.846C1117.75 407.839 1124.19 423.629 1124.97 437.995C1125.83 453.811 1120.62 465.016 1115.38 470.359Z" fill="black"/>
<path d="M1083.34 471.13C1079.5 473.512 1073.87 474.402 1070.42 469.982C1061.13 458.079 1078.54 453.511 1080.05 439.615C1081.3 428.123 1076.9 420.705 1085.75 417.632C1099.12 412.985 1103.23 429.972 1100 443.993C1096.41 459.561 1089.7 467.183 1083.34 471.13Z" fill="black"/>
<path d="M1049.64 467.097C1044.69 469.582 1038.27 466.368 1036.26 462.614C1029.9 450.724 1047.11 447.376 1054.6 435.459C1060.75 425.672 1058.31 417.033 1069.02 417.398C1083.17 417.88 1080.12 435.266 1072 447.142C1062.98 460.329 1055.02 464.399 1049.64 467.097Z" fill="black"/>
<path fill-rule="evenodd" clip-rule="evenodd" d="M565.289 453.652H516.617L592.649 240.532H638.153L713.897 453.652H664.361L649.385 408.724H580.65L565.289 453.652ZM594.089 369.556H636.137L620.873 324.052C618.962 318.079 616.852 311.312 615.695 306.22C615.458 305.174 615.26 304.199 615.113 303.316C614.249 308.212 611.945 316.276 609.353 324.052L594.089 369.556Z" fill="CanvasText"/>
<path d="M1063.36 265.864V340.744C1063.36 364.36 1055.58 374.152 1036.58 374.152C1018.43 374.152 1010.37 363.784 1010.37 340.168V265.864H966.016V356.296C966.016 391.72 986.176 413.608 1019.01 413.608C1036.29 413.608 1054.14 405.544 1063.07 393.736L1065.95 409.864H1107.71V265.864H1063.36Z" fill="#02DA9A" stroke="black" stroke-width="3"/>
<path d="M1154.24 243.4C1168.07 243.4 1179.3 232.168 1179.3 218.056C1179.3 203.944 1168.07 193 1154.24 193C1140.13 193 1128.9 203.944 1128.9 218.056C1128.9 232.168 1140.13 243.4 1154.24 243.4ZM1154.24 243.4C1168.07 243.4 1179.3 232.168 1179.3 218.056C1179.3 203.944 1168.07 193 1154.24 193C1140.13 193 1128.9 203.944 1128.9 218.056C1128.9 232.168 1140.13 243.4 1154.24 243.4Z" fill="#02DA9A"/>
<path d="M1154.24 243.4C1168.07 243.4 1179.3 232.168 1179.3 218.056C1179.3 203.944 1168.07 193 1154.24 193C1140.13 193 1128.9 203.944 1128.9 218.056C1128.9 232.168 1140.13 243.4 1154.24 243.4Z" stroke="black" stroke-width="3"/>
<path d="M1176.71 409.864H1132.36V265.864H1176.71V409.864Z" fill="#02DA9A" stroke="black" stroke-width="3"/>
<path d="M1358.56 453.652V417.652L1375.55 399.796L1407.8 453.652H1459.07L1406.65 366.676L1460.8 309.652H1405.21L1358.56 361.492V236.5H1314.2V453.652H1358.56Z" fill="CanvasText"/>
<path d="M1458.85 522.772C1467.49 525.364 1477.57 526.804 1488.23 526.804C1513.57 526.804 1529.7 514.42 1541.8 485.044L1614.95 309.652H1568.87L1534.02 402.1L1502.63 309.652H1455.11L1513 458.548L1510.41 465.46C1504.65 481.012 1498.31 485.62 1483.33 485.62H1458.85V522.772Z" fill="CanvasText"/>
<path d="M510.079 770.652V691.74C510.079 673.884 521.311 662.364 538.879 662.364C554.143 662.364 564.223 674.172 564.223 692.316V770.652H608.575V681.66C608.575 643.932 588.703 622.044 554.431 622.044C535.711 622.044 519.295 629.244 510.367 641.628V553.5H465.727V770.652H510.079Z" fill="CanvasText"/>
<path fill-rule="evenodd" clip-rule="evenodd" d="M703.453 774.108C657.373 774.108 623.965 743.868 623.965 698.364C623.965 652.86 657.373 622.332 703.453 622.332C749.245 622.332 782.653 652.86 782.653 698.364C782.653 743.868 749.245 774.108 703.453 774.108ZM668.605 698.076C668.605 676.476 682.717 662.076 703.453 662.076C723.901 662.076 738.013 676.476 738.013 698.076C738.013 719.964 723.901 734.364 703.453 734.364C682.717 734.364 668.605 719.964 668.605 698.076Z" fill="CanvasText"/>
<path fill-rule="evenodd" clip-rule="evenodd" d="M1017.06 770.652H975.305V553.5H1019.66V643.356C1028.3 630.396 1047.3 621.756 1068.04 621.756C1108.36 621.756 1133.99 653.148 1133.99 700.092C1133.99 744.732 1105.48 774.396 1064.58 774.396C1046.48 774.396 1030.7 767.195 1022.04 756.132L1017.06 770.652ZM1032.28 726.206C1038.24 731.063 1046.06 733.788 1055.08 733.788C1076.1 733.788 1089.35 719.1 1089.35 697.788C1089.35 676.476 1076.1 661.788 1055.08 661.788C1054.83 661.788 1054.58 661.79 1054.33 661.794C1034 662.136 1019.94 676.448 1019.94 697.788C1019.94 709.992 1024.54 719.898 1032.28 726.206Z" fill="CanvasText"/>
<path d="M1133.74 839.772C1142.38 842.364 1152.46 843.804 1163.12 843.804C1188.46 843.804 1204.59 831.42 1216.68 802.044L1289.84 626.652H1243.76L1208.91 719.1L1177.52 626.652H1130L1187.88 775.548L1185.29 782.46C1179.53 798.012 1173.2 802.62 1158.22 802.62H1133.74V839.772Z" fill="CanvasText"/>
<path d="M1358.08 725.148C1358.08 754.236 1381.99 774.396 1420 774.396C1457.44 774.396 1483.65 755.676 1483.65 724.86C1483.65 701.82 1470.69 690.876 1447.07 685.692L1420.29 679.932C1410.21 677.628 1404.74 673.884 1404.74 667.26C1404.74 659.484 1411.07 654.3 1421.15 654.3C1431.81 654.3 1437.86 660.924 1437.86 670.716H1479.91C1479.91 641.628 1456.58 622.044 1423.17 622.044C1388.61 622.044 1362.98 639.324 1362.98 669.276C1362.98 694.62 1375.94 706.14 1402.43 711.9L1428.93 717.66C1439.59 719.964 1441.89 724.572 1441.89 728.892C1441.89 736.38 1435.55 741.276 1421.73 741.276C1408.19 741.276 1400.71 735.228 1400.13 725.148H1358.08Z" fill="CanvasText"/>
<path d="M1583.14 732.06C1577.96 733.788 1572.78 734.652 1568.46 734.652C1558.09 734.652 1550.89 729.18 1550.89 711.036V663.516H1582.86V626.652H1550.89V582.012H1506.54V626.652H1484.65V663.516H1506.54V720.252C1506.54 760.572 1527.27 774.108 1556.94 774.108C1569.03 774.108 1579.98 771.804 1588.33 767.772L1583.14 732.06Z" fill="CanvasText"/>
<path d="M1628.63 774.396C1642.74 774.396 1655.13 762.588 1655.13 748.476C1655.13 734.076 1642.74 722.268 1628.63 722.268C1613.94 722.268 1602.14 734.076 1602.14 748.476C1602.14 762.588 1613.94 774.396 1628.63 774.396Z" fill="CanvasText"/>
</g>
<rect x="2" y="2" width="2156" height="1196" rx="62" stroke="CanvasText" stroke-width="4"/>
<defs>
<radialGradient id="paint0_radial_1470_3836" cx="0" cy="0" r="1" gradientUnits="userSpaceOnUse" gradientTransform="translate(680.001 97.4549) rotate(90) scale(533.214 1066.43)">
<stop stop-color="CanvasText" stop-opacity="0.6"/>
<stop offset="1" stop-color="CanvasText" stop-opacity="0"/>
</radialGradient>
<clipPath id="clip0_1470_3836">
<rect width="2160" height="1200" rx="64" fill="CanvasText"/>
</clipPath>
</defs>
</svg>
