<svg width="114" height="40" viewBox="0 0 114 40" fill="none" xmlns="http://www.w3.org/2000/svg">
<rect x="0.5" y="0.5" width="113" height="39" rx="19.5" fill="ButtonFace"/>
<path d="M36.3212 17.3091C36.3309 17.4491 36.3309 17.5891 36.3309 17.7304C36.3309 22.0356 33.0535 27.0007 27.0606 27.0007V26.9981C25.2903 27.0007 23.5567 26.4936 22.0664 25.5375C22.3238 25.5685 22.5825 25.5839 22.8419 25.5846C24.309 25.5859 25.7341 25.0936 26.8883 24.1872C25.4941 24.1607 24.2716 23.2517 23.8445 21.9246C24.3329 22.0188 24.8361 21.9994 25.3154 21.8685C23.7954 21.5614 22.7019 20.2259 22.7019 18.6749C22.7019 18.6607 22.7019 18.6472 22.7019 18.6336C23.1548 18.8859 23.6619 19.0259 24.1806 19.0414C22.749 18.0846 22.3077 16.1801 23.1722 14.691C24.8264 16.7265 27.2671 17.9639 29.8871 18.0949C29.6245 16.9633 29.9832 15.7775 30.8296 14.982C32.1419 13.7485 34.2058 13.8117 35.4393 15.1233C36.169 14.9794 36.8683 14.7117 37.5083 14.3323C37.2651 15.0865 36.7561 15.7272 36.0761 16.1343C36.7219 16.0581 37.3529 15.8852 37.9471 15.6214C37.5096 16.2768 36.9587 16.8478 36.3212 17.3091Z" fill="#1D9BF0"/>
<path d="M49.12 14.48H55.84V15.904H50.544V19.528H54.88V20.952H50.544V26H49.12V14.48ZM60.7219 26.24C59.8739 26.24 59.1352 26.048 58.5059 25.664C57.8819 25.2747 57.4019 24.736 57.0659 24.048C56.7299 23.3547 56.5619 22.5627 56.5619 21.672C56.5619 20.776 56.7325 19.984 57.0739 19.296C57.4152 18.608 57.9005 18.0747 58.5299 17.696C59.1592 17.312 59.8899 17.12 60.7219 17.12C61.5699 17.12 62.3085 17.312 62.9379 17.696C63.5672 18.08 64.0499 18.616 64.3859 19.304C64.7219 19.992 64.8899 20.7813 64.8899 21.672C64.8899 22.5733 64.7192 23.3707 64.3779 24.064C64.0419 24.752 63.5592 25.288 62.9299 25.672C62.3005 26.0507 61.5645 26.24 60.7219 26.24ZM60.7219 24.888C61.5912 24.888 62.2499 24.6 62.6979 24.024C63.1512 23.4427 63.3779 22.6587 63.3779 21.672C63.3779 20.6747 63.1512 19.8933 62.6979 19.328C62.2445 18.7573 61.5859 18.472 60.7219 18.472C59.8472 18.472 59.1859 18.76 58.7379 19.336C58.2952 19.912 58.0739 20.6907 58.0739 21.672C58.0739 22.6693 58.3005 23.456 58.7539 24.032C59.2125 24.6027 59.8685 24.888 60.7219 24.888ZM66.8113 14.24H68.2353V26H66.8113V14.24ZM70.7956 14.24H72.2196V26H70.7956V14.24ZM78.3 26.24C77.452 26.24 76.7133 26.048 76.084 25.664C75.46 25.2747 74.98 24.736 74.644 24.048C74.308 23.3547 74.14 22.5627 74.14 21.672C74.14 20.776 74.3107 19.984 74.652 19.296C74.9933 18.608 75.4787 18.0747 76.108 17.696C76.7373 17.312 77.468 17.12 78.3 17.12C79.148 17.12 79.8867 17.312 80.516 17.696C81.1453 18.08 81.628 18.616 81.964 19.304C82.3 19.992 82.468 20.7813 82.468 21.672C82.468 22.5733 82.2973 23.3707 81.956 24.064C81.62 24.752 81.1373 25.288 80.508 25.672C79.8787 26.0507 79.1427 26.24 78.3 26.24ZM78.3 24.888C79.1693 24.888 79.828 24.6 80.276 24.024C80.7293 23.4427 80.956 22.6587 80.956 21.672C80.956 20.6747 80.7293 19.8933 80.276 19.328C79.8227 18.7573 79.164 18.472 78.3 18.472C77.4253 18.472 76.764 18.76 76.316 19.336C75.8733 19.912 75.652 20.6907 75.652 21.672C75.652 22.6693 75.8787 23.456 76.332 24.032C76.7907 24.6027 77.4467 24.888 78.3 24.888ZM83.1169 17.352L84.5329 17.36L86.4609 23.68L88.4049 17.36H89.6609L91.5969 23.68L93.5329 17.36H94.9409L92.3009 26H91.1169L89.0289 19.432L86.9409 26H85.7569L83.1169 17.352Z" fill="ButtonText"/>
<rect x="0.5" y="0.5" width="113" height="39" rx="19.5" stroke="Highlight"/>
</svg>
