<svg width="1400" height="1200" viewBox="0 0 1400 1200" fill="none" xmlns="http://www.w3.org/2000/svg">
<g clip-path="url(#clip0_1847_1286)">
<rect width="1400" height="1200" rx="64" fill="#6E7681" fill-opacity="0.1"/>
<path opacity="0.3" fill-rule="evenodd" clip-rule="evenodd" d="M-615 600H300V648.167V650.17V656.167V658.17V849.536V857.536V921L-615 921V600ZM308 857.536V921V929H300L-615 929H-623V600V592H-615H300H308H1092H1100H2015H2023V600V921V929H2015L1100 929H1092V857.536H310L308 857.536ZM308 849.536L310 849.536L1090 849.536L1092 849.536V658.17H308V849.536ZM1100 849.536V857.536V921L2015 921V600H1100V648.167V650.17V656.167V658.17V849.536ZM308 648.167V600H1092V648.167H308Z" fill="#6E7681"/>
<rect opacity="0.3" x="4" y="-4" width="472" height="232" rx="20" transform="matrix(1 0 0 -1 -296.074 332)" stroke="#6E7681" stroke-width="8"/>
<path opacity="0.3" d="M-133.737 132.586C-153.05 123.555 -197.56 154.089 -211.723 190.118C-218.655 207.754 -226.646 224.39 -220.94 235.165C-204.977 265.306 -175.057 172.723 -154.036 179.026C-138.215 183.77 -160.232 245.114 -132.13 266.059C-93.6818 294.716 -66.7104 182.148 -22.3609 200.386C-10.0661 205.442 -33.7748 275.951 -8.83747 285.21C10.9967 292.574 50.242 232.252 67.9872 243.773C81.1416 252.313 37.7946 280.912 53.697 301.505C78.2558 333.306 107.79 292.329 107.423 247.223C107.201 219.974 91.2461 199.746 71.9222 198.795C51.0281 197.766 21.5168 254.898 8.4472 238.564C-3.45506 223.688 12.9102 136.334 -28.3398 150.437C-69.5897 164.54 -79.8383 229.519 -107.943 214.547C-137.559 198.77 -108.49 144.391 -133.737 132.586Z" fill="#6E7681"/>
<path opacity="0.3" d="M1176.91 505C1171.59 505 1167.43 509.597 1167.96 514.896L1174.46 579.896C1174.92 584.496 1178.79 588 1183.41 588H1234.36C1238.99 588 1242.86 584.496 1243.32 579.896L1249.82 514.896C1250.35 509.597 1246.19 505 1240.86 505H1176.91Z" stroke="#6E7681" stroke-width="8" stroke-linejoin="round"/>
<path opacity="0.3" d="M1190.96 453.092C1190.96 453.092 1182.02 449.668 1174.38 452.132C1166.61 454.64 1159.4 461.549 1163.25 468.754C1166.72 475.229 1175.06 475.869 1182.02 473.603C1190.96 470.689 1192.45 462.16 1192.45 462.16" stroke="#6E7681" stroke-width="8" stroke-linecap="round"/>
<path opacity="0.3" d="M1220.12 449.337C1220.12 449.337 1229.76 445.686 1237.22 448.497C1244.69 451.307 1252.8 457.989 1248.88 465.068C1245.36 471.409 1237.22 472.188 1229.56 469.753C1221.9 467.319 1218.68 458.326 1218.68 458.326" stroke="#6E7681" stroke-width="8" stroke-linecap="round"/>
<path opacity="0.3" d="M1190.55 413.526C1190.55 413.526 1178.18 408.287 1167.31 413.613C1156.43 418.94 1150.11 429.12 1154.2 436.024C1158.57 443.429 1168.83 443.512 1178.51 439.513C1188.19 435.514 1192.31 424.323 1192.31 424.323" stroke="#6E7681" stroke-width="8" stroke-linecap="round"/>
<path opacity="0.3" d="M1219.36 407.214C1219.36 407.214 1230.34 403.886 1242.28 406.255C1254.23 408.624 1264.62 417.938 1260.35 426.587C1256.52 434.335 1245.04 435.078 1235 432.244C1226.38 429.812 1218.71 418.212 1218.71 418.212" stroke="#6E7681" stroke-width="8" stroke-linecap="round"/>
<path opacity="0.3" d="M1184.78 369.071C1184.78 369.071 1170.58 366.314 1157.14 374.926C1143.71 383.538 1139.08 393.295 1145.78 400.542C1151.8 407.055 1164.77 404.208 1174.29 398.375C1184.78 391.95 1188.22 379.656 1188.22 379.656" stroke="#6E7681" stroke-width="8" stroke-linecap="round"/>
<path opacity="0.3" d="M1213.54 368.202C1213.54 368.202 1221.85 363.02 1240.17 363.045C1258.48 363.07 1268.58 371.394 1265.27 381.334C1262.31 390.24 1249.02 393.101 1236.72 391.912C1226.15 390.891 1214.92 379.98 1214.92 379.98" stroke="#6E7681" stroke-width="8" stroke-linecap="round"/>
<path opacity="0.3" d="M1202.36 488.8C1210.03 445.545 1211.21 389.011 1192.13 356.31" stroke="#6E7681" stroke-width="8" stroke-linecap="round"/>
<path opacity="0.3" fill-rule="evenodd" clip-rule="evenodd" d="M524 586C524 582.686 526.686 580 530 580L870 580C873.314 580 876 582.686 876 586C876 589.314 873.314 592 870 592L530 592C526.686 592 524 589.314 524 586Z" fill="#6E7681"/>
<rect opacity="0.3" x="540" y="366" width="320" height="210" rx="12" stroke="#6E7681" stroke-width="8" stroke-linejoin="round"/>
<path opacity="0.3" d="M559 541.465L559 384.465L841 384.465L841 541.465L559 541.465Z" stroke="#6E7681" stroke-width="8" stroke-linecap="round" stroke-linejoin="round"/>
<path opacity="0.3" fill-rule="evenodd" clip-rule="evenodd" d="M239.746 521H274.065C281.245 521 287.065 526.82 287.065 534V579.402C287.065 586.582 281.245 592.402 274.065 592.402H239.746C232.566 592.402 226.746 586.582 226.746 579.402V577.715C225.785 577.906 224.792 578.006 223.771 578.006C218.17 578.006 213.405 574.971 210.176 570.667C206.948 566.364 205.07 560.603 205.07 554.41C205.07 548.217 206.948 542.456 210.176 538.153C213.405 533.849 218.17 530.813 223.771 530.813C224.902 530.813 225.998 530.937 227.055 531.17C228.347 525.351 233.538 521 239.746 521ZM223.771 570.006C224.764 570.006 225.767 569.796 226.746 569.371V539.449C225.767 539.024 224.764 538.813 223.771 538.813C221.252 538.813 218.668 540.165 216.576 542.953C214.483 545.743 213.07 549.781 213.07 554.41C213.07 559.039 214.483 563.077 216.576 565.866C218.668 568.655 221.252 570.006 223.771 570.006ZM234.746 579.402V573.558C234.747 573.557 234.747 573.557 234.748 573.556V535.264C234.747 535.263 234.747 535.263 234.746 535.262V534C234.746 533.953 234.747 533.907 234.748 533.86V533.267C234.748 530.505 236.987 528.267 239.748 528.267H274.067C276.829 528.267 279.067 530.505 279.067 533.267V578.669C279.067 578.716 279.066 578.762 279.065 578.809V579.402C279.065 582.164 276.827 584.402 274.065 584.402H239.746C236.985 584.402 234.746 582.164 234.746 579.402Z" fill="#6E7681"/>
<path opacity="0.3" d="M270.906 571.2C272.563 571.2 273.906 569.857 273.906 568.2C273.906 566.543 272.563 565.2 270.906 565.2C269.249 565.2 267.906 566.543 267.906 568.2C267.906 569.857 269.249 571.2 270.906 571.2Z" fill="#6E7681"/>
<path opacity="0.3" d="M247.906 542.201V571.201H252.906V560.357C252.906 559.56 253.384 558.684 254.556 557.884C255.733 557.081 257.211 556.659 258.264 556.659C259.052 556.659 259.63 556.971 260.067 557.52C260.541 558.117 260.906 559.086 260.906 560.357V571.2L265.906 571.201V560.357C265.906 558.177 265.284 556.048 263.98 554.408C262.638 552.721 260.644 551.659 258.264 551.659C256.551 551.659 254.619 552.156 252.906 553.054V542.202L247.906 542.201Z" fill="#6E7681"/>
<path opacity="0.3" d="M96.7812 588L176.781 588" stroke="#6E7681" stroke-width="8" stroke-linecap="round"/>
<circle opacity="0.3" cx="700" cy="180" r="84" stroke="#6E7681" stroke-width="8"/>
<g opacity="0.3">
<path fill-rule="evenodd" clip-rule="evenodd" d="M772.725 180C772.725 177.055 770.337 174.667 767.392 174.667C764.446 174.667 762.059 177.055 762.059 180H772.725Z" fill="#6E7681"/>
<path d="M772.725 180C772.725 182.946 770.337 185.334 767.392 185.334C764.446 185.334 762.059 182.946 762.059 180M772.725 180C772.725 177.055 770.337 174.667 767.392 174.667C764.446 174.667 762.059 177.055 762.059 180M772.725 180H762.059" stroke="#6E7681" stroke-width="2"/>
</g>
<g opacity="0.3">
<path fill-rule="evenodd" clip-rule="evenodd" d="M627.275 180C627.275 182.945 629.663 185.333 632.608 185.333C635.554 185.333 637.941 182.945 637.941 180H627.275Z" fill="#6E7681"/>
<path d="M627.275 180C627.275 177.054 629.663 174.666 632.608 174.666C635.554 174.666 637.941 177.054 637.941 180M627.275 180C627.275 182.945 629.663 185.333 632.608 185.333C635.554 185.333 637.941 182.945 637.941 180M627.275 180H637.941" stroke="#6E7681" stroke-width="2"/>
</g>
<g opacity="0.3">
<path fill-rule="evenodd" clip-rule="evenodd" d="M694.665 247.392C694.665 250.338 697.053 252.726 699.999 252.726C702.944 252.726 705.332 250.338 705.332 247.392H694.665Z" fill="#6E7681"/>
<path d="M699.999 242.059C697.053 242.059 694.665 244.447 694.665 247.392H705.332C705.332 244.447 702.944 242.059 699.999 242.059Z" fill="#6E7681"/>
<path d="M694.665 247.392C694.665 244.447 697.053 242.059 699.999 242.059C702.944 242.059 705.332 244.447 705.332 247.392M694.665 247.392C694.665 250.338 697.053 252.726 699.999 252.726C702.944 252.726 705.332 250.338 705.332 247.392M694.665 247.392H705.332" stroke="#6E7681" stroke-width="2"/>
</g>
<path opacity="0.3" d="M699.999 117.94C697.053 117.94 694.665 115.552 694.665 112.607C694.665 109.661 697.053 107.273 699.999 107.273C702.944 107.273 705.332 109.661 705.332 112.607C705.332 115.552 702.944 117.94 699.999 117.94Z" stroke="#6E7681" stroke-width="2"/>
<path opacity="0.3" fill-rule="evenodd" clip-rule="evenodd" d="M772.727 181H704.15C703.728 182.76 702.214 184.095 700.364 184.251L683.981 222.735L680.301 221.169L696.684 182.684C696.09 181.951 695.735 181.017 695.735 180C695.735 178.172 696.884 176.612 698.5 176.005L698.5 117.94H701.5L701.5 176.004C702.813 176.496 703.818 177.617 704.15 179H772.727V181Z" fill="#6E7681"/>
<path opacity="0.3" d="M928.578 585.091L926.378 574.631C926.212 573.842 926.297 573.224 926.485 572.808C930.059 564.904 937.57 561 948.25 561C958.93 561 966.441 564.904 970.015 572.808C970.203 573.224 970.288 573.841 970.122 574.631L967.922 585.091C967.533 586.943 965.9 588.268 964.008 588.268H932.492C930.601 588.268 928.967 586.943 928.578 585.091Z" stroke="#6E7681" stroke-width="8" stroke-linejoin="round"/>
<rect opacity="0.3" x="354" y="496" width="92" height="92" rx="8" stroke="#6E7681" stroke-width="8"/>
<path opacity="0.3" d="M386.971 537.5V536.293L386.118 537.146L376.328 546.936V541.665L386.678 531.314H390.698L390.698 569.314H386.971L386.971 537.5Z" fill="#6E7681" stroke="#6E7681"/>
<path opacity="0.3" d="M398.789 549.724C398.789 542.9 400.37 538.297 402.684 535.411C404.991 532.535 408.063 531.314 411.17 531.314C414.279 531.314 417.382 532.535 419.717 535.413C422.061 538.3 423.67 542.902 423.67 549.724C423.67 557.146 422.057 562.045 419.71 565.077C417.375 568.096 414.276 569.314 411.17 569.314C408.065 569.314 404.998 568.096 402.692 565.08C400.374 562.047 398.789 557.148 398.789 549.724ZM411.17 534.451C409.116 534.451 406.929 535.483 405.275 537.922C403.629 540.348 402.516 544.152 402.516 549.724C402.516 556.456 403.621 560.565 405.275 563.003C406.955 565.479 409.164 566.178 411.17 566.178C413.175 566.178 415.412 565.481 417.123 563.006C418.808 560.569 419.943 556.458 419.943 549.724C419.943 544.15 418.8 540.345 417.123 537.918C415.438 535.481 413.222 534.451 411.17 534.451Z" fill="#6E7681" stroke="#6E7681"/>
<path opacity="0.3" fill-rule="evenodd" clip-rule="evenodd" d="M379.746 511.667C378.569 511.667 377.815 512.567 377.815 513.417C377.815 513.791 378.017 514.105 378.459 514.418C378.911 514.738 379.496 514.97 380.063 515.196L380.074 515.2C380.083 515.204 380.093 515.208 380.102 515.211C380.637 515.424 381.378 515.718 381.985 516.149C382.609 516.592 383.211 517.266 383.211 518.25C383.211 519.856 381.841 521.333 379.947 521.333C378.374 521.333 377.111 520.344 376.469 519.435L377.558 518.665C378.034 519.34 378.935 520 379.947 520C381.124 520 381.878 519.101 381.878 518.25C381.878 517.885 381.672 517.562 381.213 517.237C380.748 516.907 380.147 516.664 379.581 516.439C379.559 516.43 379.537 516.421 379.514 516.412C378.987 516.203 378.274 515.92 377.689 515.507C377.068 515.067 376.482 514.4 376.482 513.417C376.482 511.811 377.852 510.334 379.746 510.334C381.318 510.334 382.581 511.321 383.224 512.231L382.135 513C381.659 512.326 380.758 511.667 379.746 511.667Z" fill="#6E7681"/>
<path opacity="0.3" d="M416.039 513.335L419.118 521.791L417.949 525H419.283L423.529 513.335H422.196L419.784 519.96L417.372 513.335H416.039Z" fill="#6E7681"/>
<path opacity="0.3" d="M391.356 513.335V521.334H390.022V520.32C389.831 520.976 388.783 521.668 388.039 521.668C386.207 521.668 384.723 519.97 384.723 518.08V513.335H386.056V518.08C386.056 519.273 386.983 520.335 388.039 520.335C389.096 520.335 390.022 519.441 390.022 518.248V513.335H391.356Z" fill="#6E7681"/>
<path opacity="0.3" d="M392.855 521.334V513.334H394.189V514.349C394.38 513.692 395.095 513.001 396.172 513.001C398.337 513.001 399.488 514.699 399.488 516.589V521.334H398.155V516.589C398.155 515.396 397.228 514.251 396.172 514.251C395.115 514.251 394.189 515.228 394.189 516.421V521.334H392.855Z" fill="#6E7681"/>
<path opacity="0.3" fill-rule="evenodd" clip-rule="evenodd" d="M406.288 520.655C405.735 521.081 405.048 521.334 404.305 521.334C402.473 521.334 400.988 519.802 400.988 517.913L400.988 516.089C400.988 514.199 402.473 512.668 404.305 512.668C405.048 512.668 405.735 512.92 406.288 513.346V510H407.621V521.333H406.288V520.655ZM404.305 514.001C405.361 514.001 406.288 514.896 406.288 516.089V517.913C406.288 519.105 405.361 520.001 404.305 520.001C403.248 520.001 402.322 519.105 402.322 517.913L402.322 516.089C402.322 514.896 403.248 514.001 404.305 514.001Z" fill="#6E7681"/>
<path opacity="0.3" fill-rule="evenodd" clip-rule="evenodd" d="M412.329 514.668C411.328 514.668 410.638 515.194 410.385 515.704L409.191 515.111C409.688 514.109 410.866 513.335 412.329 513.335C413.993 513.335 415.537 514.497 415.537 516.154V521.334L414.204 521.334V520.589C413.57 521.064 412.787 521.334 412.051 521.334C411.345 521.334 410.635 521.197 410.08 520.834C409.491 520.449 409.121 519.836 409.121 519.039C409.121 518.285 409.414 517.687 409.902 517.254C410.367 516.843 410.97 516.614 411.565 516.483C412.15 516.353 412.675 516.3 413.193 516.263C413.346 516.251 413.496 516.242 413.645 516.232C413.829 516.22 414.014 516.208 414.204 516.193V516.154C414.204 515.433 413.473 514.668 412.329 514.668ZM414.204 517.53C414.031 517.543 413.865 517.554 413.705 517.564C413.561 517.574 413.423 517.583 413.29 517.592C412.798 517.628 412.346 517.676 411.853 517.784C411.37 517.891 411.013 518.052 410.786 518.253C410.583 518.432 410.454 518.668 410.454 519.039C410.454 519.37 410.583 519.57 410.809 519.718C411.069 519.888 411.491 520.001 412.051 520.001C412.517 520.001 413.073 519.805 413.507 519.441C413.932 519.085 414.204 518.603 414.204 518.03V517.53Z" fill="#6E7681"/>
<path opacity="0.3" d="M375 489V503" stroke="#6E7681" stroke-width="4" stroke-linecap="round" stroke-linejoin="round"/>
<path opacity="0.3" d="M385 489V503" stroke="#6E7681" stroke-width="4" stroke-linecap="round" stroke-linejoin="round"/>
<path opacity="0.3" d="M395 489V503" stroke="#6E7681" stroke-width="4" stroke-linecap="round" stroke-linejoin="round"/>
<path opacity="0.3" d="M405 489V503" stroke="#6E7681" stroke-width="4" stroke-linecap="round" stroke-linejoin="round"/>
<path opacity="0.3" d="M415 489V503" stroke="#6E7681" stroke-width="4" stroke-linecap="round" stroke-linejoin="round"/>
<path opacity="0.3" d="M425 489V503" stroke="#6E7681" stroke-width="4" stroke-linecap="round" stroke-linejoin="round"/>
<path opacity="0.6" d="M345.513 142.965C343.637 141.09 341.094 140.036 338.442 140.036L261.562 140.036C258.91 140.036 256.366 141.09 254.491 142.965L-615.445 1012.9C-621.744 1019.2 -617.283 1029.97 -608.373 1029.97H1208.38C1217.29 1029.97 1221.75 1019.2 1215.45 1012.9L345.513 142.965Z" fill="url(#paint0_radial_1847_1286)"/>
<path opacity="0.3" fill-rule="evenodd" clip-rule="evenodd" d="M304.003 -400C304.003 -402.209 302.212 -404 300.003 -404C297.794 -404 296.003 -402.209 296.003 -400V97.6128C273.593 99.3866 255.342 115.936 250.99 137.519C249.899 142.933 254.48 147.455 260.003 147.455H340.003C345.526 147.455 350.107 142.933 349.016 137.519C344.664 115.936 326.413 99.3866 304.003 97.6128V-400ZM300.003 105.455C320.31 105.455 337.267 119.875 341.161 139.038C341.005 139.204 340.603 139.455 340.003 139.455H260.003C259.403 139.455 259.001 139.204 258.845 139.038C262.739 119.875 279.696 105.455 300.003 105.455Z" fill="#6E7681"/>
<circle opacity="0.3" cx="1095" cy="554.5" r="25" stroke="#6E7681" stroke-width="8"/>
<path opacity="0.3" fill-rule="evenodd" clip-rule="evenodd" d="M1031 513C1028.79 513 1027 514.791 1027 517H1017C1010.37 517 1005 522.373 1005 529V580C1005 585.799 1009.11 590.637 1014.58 591.756C1015.36 591.916 1016.17 592 1017 592H1031H1129C1135.63 592 1141 586.627 1141 580V529C1141 522.373 1135.63 517 1129 517H1035C1035 514.791 1033.21 513 1031 513ZM1129 525H1042.32C1042.76 526.251 1043 527.597 1043 529V580C1043 581.403 1042.76 582.749 1042.32 584H1129C1131.21 584 1133 582.209 1133 580V529C1133 526.791 1131.21 525 1129 525ZM1017 525H1031C1033.21 525 1035 526.791 1035 529V580C1035 582.209 1033.21 584 1031 584H1017C1016.86 584 1016.73 583.993 1016.59 583.979C1014.57 583.775 1013 582.071 1013 580V529C1013 526.791 1014.79 525 1017 525Z" fill="#6E7681"/>
<circle opacity="0.3" cx="1095" cy="554.5" r="3.5" stroke="#6E7681" stroke-width="3"/>
<path fill-rule="evenodd" clip-rule="evenodd" d="M496.071 457.532C453.159 457.532 428.391 424.7 428.391 379.196C428.391 332.828 456.327 304.892 496.359 304.892C516.807 304.892 534.951 313.82 543.015 327.068L545.319 309.5H587.079V522.62H542.727V439.1C534.375 450.044 515.943 457.532 496.071 457.532ZM473.031 381.5C473.031 360.188 486.279 345.5 507.303 345.5C528.039 345.5 542.439 359.9 542.439 381.5C542.439 403.1 528.039 417.5 507.303 417.5C486.279 417.5 473.031 402.812 473.031 381.5Z" fill="white"/>
<path d="M944.412 309.499C938.364 308.059 932.604 307.483 927.42 307.483C908.124 307.483 895.452 316.987 889.404 331.099L887.1 309.787H845.34V453.499H889.692V391.003C889.692 362.491 904.956 351.259 930.3 351.259H944.412V309.499Z" fill="white"/>
<path fill-rule="evenodd" clip-rule="evenodd" d="M485.487 770.5H443.727V553.348H488.079V643.204C496.719 630.244 515.727 621.604 536.463 621.604C576.783 621.604 602.415 652.996 602.415 699.94C602.415 744.58 573.903 774.244 533.007 774.244C514.902 774.244 499.119 767.043 490.458 755.979L485.487 770.5ZM500.703 726.054C506.661 730.911 514.483 733.636 523.503 733.636C544.527 733.636 557.775 718.948 557.775 697.636C557.775 676.324 544.527 661.636 523.503 661.636C523.252 661.636 523.003 661.638 522.755 661.642C502.421 661.984 488.367 676.296 488.367 697.636C488.367 709.84 492.964 719.745 500.703 726.054Z" fill="white"/>
<path d="M990.408 578.692C990.408 592.804 979.176 604.036 965.352 604.036C951.24 604.036 940.008 592.804 940.008 578.692C940.008 564.58 951.24 553.636 965.352 553.636C979.176 553.636 990.408 564.58 990.408 578.692Z" fill="white"/>
<path d="M943.464 770.5H987.816V626.5H943.464V770.5Z" fill="white"/>
<path d="M423.783 489.345C383.107 560.052 521.434 639.342 693.332 639.342C886.74 639.342 1031.63 496.713 977.789 461.904C949.827 443.826 895.463 442.363 867.363 455.144C833.412 470.585 780.824 489.811 679.892 491.803C618.97 493.005 565.964 487.446 532.738 469.122L532.519 469.001C489.871 445.479 438.436 463.872 423.783 489.345Z" fill="#7A6332"/>
<path fill-rule="evenodd" clip-rule="evenodd" d="M701.089 454.802C652.053 454.802 608.025 454.379 574.516 494.04C521.438 541.883 574.516 664.912 574.516 664.912H827.661C827.661 664.912 880.736 541.884 827.661 494.04C794.151 454.378 750.124 454.802 701.089 454.802Z" fill="black"/>
<path d="M574.516 494.04C608.025 454.379 652.053 454.802 701.089 454.802C750.124 454.802 794.151 454.378 827.661 494.04C880.736 541.884 827.661 664.912 827.661 664.912H574.516C574.516 664.912 521.438 541.883 574.516 494.04Z" fill="black"/>
<path fill-rule="evenodd" clip-rule="evenodd" d="M701.089 454.802C652.053 454.802 608.025 454.379 574.516 494.04C521.438 541.883 574.516 664.912 574.516 664.912H827.661C827.661 664.912 880.736 541.884 827.661 494.04C794.151 454.378 750.124 454.802 701.089 454.802Z" fill="black"/>
<path fill-rule="evenodd" clip-rule="evenodd" d="M701.089 345.95C519.838 345.95 504.924 430.556 508.699 525.683C511.294 591.088 511.574 618.459 508.699 681.367C679.86 688.103 766.952 676.879 887.61 676.879C892.969 602.413 895.084 580.422 887.61 525.683C873.926 425.457 882.339 345.95 701.089 345.95ZM701.089 454.802C652.053 454.802 608.025 454.379 574.516 494.04C521.438 541.883 574.516 664.912 574.516 664.912H827.661C827.661 664.912 880.736 541.884 827.661 494.04C794.151 454.378 750.124 454.802 701.089 454.802Z" fill="black"/>
<path d="M655.765 661.226C655.748 659.066 655.733 657.093 655.807 655.359C655.81 655.3 655.812 655.241 655.815 655.183H746.566C746.569 655.241 746.571 655.3 746.574 655.359C746.648 657.093 746.632 659.066 746.616 661.226C744.221 673.138 746.384 690.757 760.968 705.521C775.865 720.602 810.724 732.704 872.079 732.704C872.831 732.704 873.665 732.693 874.573 732.68C893.202 732.421 942.681 731.732 942.681 822.223V822.229C942.681 868.282 942.68 1126.6 955.638 1232.11H867.581C867.551 1231.43 867.52 1230.75 867.489 1230.07H534.893C534.861 1230.75 534.831 1231.43 534.801 1232.11H440.152C454.265 1126.6 459.701 868.257 459.701 822.223C459.701 731.732 509.179 732.421 527.808 732.68C528.716 732.693 529.55 732.704 530.302 732.704C591.657 732.704 626.517 720.602 641.413 705.521C655.997 690.757 658.16 673.138 655.765 661.226Z" fill="#E7C273"/>
<path d="M655.756 661.226C656.392 664.387 656.706 667.951 656.553 671.756C658.158 674.633 659.902 677.343 661.793 679.885C693.292 722.213 731.34 734.269 777.935 733.711C792.839 733.532 807.34 732.292 821.201 729.301C790.654 724.698 771.303 715.88 761.119 705.682C761.065 705.628 761.012 705.575 760.959 705.521C760.879 705.44 760.799 705.359 760.72 705.278C746.352 690.564 744.225 673.074 746.606 661.227C746.623 659.067 746.639 657.093 746.565 655.359L746.557 655.183H655.806L655.798 655.359C655.724 657.093 655.739 659.066 655.756 661.226Z" fill="black" fill-opacity="0.4"/>
<path d="M457.812 923.858C474.957 940.816 498.531 951.287 524.55 951.287C576.964 951.287 619.454 908.797 619.454 856.383C619.454 803.969 576.964 761.479 524.55 761.479C501.329 761.479 480.056 769.819 463.563 783.667C461.117 794.203 459.7 806.906 459.7 822.222C459.7 837.395 459.11 875.631 457.812 923.858Z" fill="black" fill-opacity="0.4"/>
<path d="M882.892 761.46C903.252 761.46 922.115 767.872 937.572 778.786C940.777 790.214 942.683 804.463 942.683 822.224V822.234C942.683 838.015 942.683 878.712 943.204 929.642C926.807 943.153 905.797 951.267 882.892 951.267C882.308 951.267 881.726 951.262 881.145 951.252C884.324 1025 878.484 1132.97 899.032 1232.11H867.583C867.553 1231.43 867.522 1230.75 867.491 1230.07H818.71L798.513 899.845C791.787 886.819 787.988 872.035 787.988 856.364C787.988 803.95 830.478 761.46 882.892 761.46Z" fill="black" fill-opacity="0.4"/>
<path d="M534.895 1230.07H867.491C866.494 1208.28 864.777 1181.87 862.866 1152.49L862.864 1152.46C858.456 1084.66 853.018 1001.04 853.018 921.817H948.183C944.509 873.782 942.683 835.975 942.683 822.224C942.683 731.733 893.204 732.422 874.575 732.681C873.668 732.694 872.833 732.705 872.081 732.705C846.986 732.705 827.094 730.681 811.327 727.256C804.263 732.362 797.942 738.943 791.276 745.884C772.347 765.593 750.629 788.206 701.193 788.206C651.756 788.206 630.039 765.593 611.11 745.884C604.444 738.943 598.123 732.362 591.059 727.256C575.292 730.681 555.4 732.705 530.305 732.705C529.553 732.705 528.719 732.694 527.811 732.681C509.182 732.422 459.703 731.733 459.703 822.224C459.703 835.975 457.877 873.782 454.203 921.817H549.368C549.368 1001.04 543.93 1084.66 539.522 1152.46C537.61 1181.85 535.892 1208.27 534.895 1230.07Z" fill="#02DA9A"/>
<path d="M530.295 730.664C529.774 730.664 529.214 730.658 528.606 730.65C529.214 730.658 529.797 730.664 530.295 730.664Z" fill="black"/>
<path fill-rule="evenodd" clip-rule="evenodd" d="M524.171 734.691C515.404 734.7 502.786 735.514 491.198 742.837C502.784 735.516 515.403 734.7 524.171 734.691Z" fill="black"/>
<path fill-rule="evenodd" clip-rule="evenodd" d="M592.246 725.601C591.776 725.261 591.183 725.137 590.617 725.26C575.028 728.647 555.287 730.664 530.295 730.664C529.774 730.664 529.214 730.658 528.606 730.65C528.34 730.646 527.191 730.631 526.912 730.627C517.378 730.506 500.298 730.634 485.531 741.792C470.123 753.435 457.652 776.637 457.652 822.223C457.652 835.89 455.832 873.628 452.158 921.66C452.115 922.227 452.31 922.786 452.696 923.203C453.083 923.62 453.625 923.857 454.194 923.857H547.316C547.224 1002.4 541.847 1085.1 537.475 1152.32L537.475 1152.33L537.475 1152.33C535.564 1181.71 533.844 1208.16 532.847 1229.97C532.821 1230.53 533.025 1231.07 533.41 1231.48C533.795 1231.88 534.328 1232.11 534.886 1232.11H867.482C868.039 1232.11 868.572 1231.88 868.958 1231.48C869.343 1231.07 869.546 1230.53 869.521 1229.97C868.585 1209.53 867.017 1185.03 865.251 1157.85L864.898 1152.42L864.895 1152.38C860.524 1085.16 855.143 1002.4 855.051 923.857H948.174C948.742 923.857 949.285 923.62 949.671 923.203C950.057 922.786 950.252 922.227 950.209 921.66C946.535 873.628 944.715 835.89 944.715 822.223C944.715 776.637 932.244 753.435 916.836 741.792L916.827 741.785C902.062 730.633 884.995 730.506 875.464 730.627C875.148 730.631 874.699 730.637 874.383 730.642C874.155 730.645 874.017 730.647 873.789 730.65C873.171 730.658 872.576 730.664 872.072 730.664C847.08 730.664 827.339 728.647 811.751 725.26C811.184 725.137 810.592 725.261 810.122 725.601C802.909 730.815 796.481 737.507 789.868 744.392C780.387 754.264 770.334 764.717 756.64 772.67C742.994 780.596 725.562 786.164 701.183 786.164C676.804 786.164 659.373 780.596 645.727 772.67C632.034 764.717 621.98 754.264 612.499 744.392C605.886 737.507 599.459 730.815 592.246 725.601ZM461.744 822.223C461.744 777.318 474.013 755.62 488.001 745.049C488.662 744.55 489.327 744.075 489.996 743.623C490.395 743.353 490.796 743.091 491.198 742.837C502.786 735.514 515.404 734.7 524.171 734.691C524.514 734.691 524.853 734.692 525.187 734.694C525.484 734.695 525.776 734.698 526.063 734.7C526.674 734.706 527.261 734.714 527.817 734.722C528.145 734.727 528.467 734.731 528.781 734.735C529.316 734.742 529.826 734.746 530.304 734.746C555.03 734.746 574.794 732.789 590.591 729.443C597.189 734.344 603.18 740.574 609.638 747.298C619.067 757.116 629.462 767.939 643.685 776.2C657.989 784.508 676.135 790.246 701.192 790.246C726.25 790.246 744.396 784.508 758.7 776.2C772.923 767.939 783.318 757.116 792.748 747.298C799.205 740.574 805.196 734.344 811.794 729.443C827.592 732.789 847.355 734.746 872.081 734.746C872.559 734.746 874.064 734.728 874.601 734.722C875.767 734.705 877.044 734.688 878.412 734.692C880.304 734.696 882.371 734.74 884.565 734.878C889.537 735.193 895.162 735.995 900.881 737.94C902.733 738.57 904.595 739.32 906.448 740.212C909.132 741.504 911.796 743.094 914.384 745.049C928.373 755.62 940.641 777.318 940.641 822.223C940.641 835.848 942.417 872.781 945.98 919.775H855.059C855.059 919.775 859.663 865.801 845.854 827.995C845.467 826.936 844.94 825.954 843.813 825.954C842.685 825.954 841.385 826.936 841.772 827.995C851.774 855.379 852.115 883.08 851.544 902.962C851.462 905.799 851.362 908.476 851.269 910.971L851.268 910.973L851.268 910.98C851.113 915.136 850.976 918.785 850.976 921.816C850.976 939.397 856.405 1084.44 860.81 1152.33L860.827 1152.59L860.827 1152.6C862.676 1181.03 864.344 1206.68 865.352 1228.03H537.033C538.042 1206.67 539.709 1181.04 541.558 1152.59L541.56 1152.56C545.968 1084.78 551.409 939.419 551.409 921.816C551.409 904.213 546.805 865.801 560.614 827.995C561.001 826.936 559.7 825.954 558.573 825.954C557.446 825.954 556.918 826.936 556.532 827.995C542.723 865.801 547.326 919.775 547.326 919.775H456.405C459.968 872.781 461.744 835.848 461.744 822.223Z" fill="black"/>
<path fill-rule="evenodd" clip-rule="evenodd" d="M619.735 394.897C672.375 376.17 735.797 353.608 815.775 356.118C855.897 357.377 896.754 383.751 927.414 409.541C942.781 422.468 955.662 435.313 964.7 444.925C969.22 449.732 972.781 453.733 975.214 456.534C976.431 457.935 977.366 459.036 977.997 459.788C978.131 459.947 978.251 460.091 978.357 460.218C978.502 460.392 978.622 460.536 978.715 460.649L978.811 460.765C985.786 465.348 989.604 471.734 990.461 479.353C991.318 486.974 989.202 495.701 984.612 504.982C975.432 523.545 956.12 544.807 929.185 564.886C875.281 605.07 790.395 640.851 693.335 640.851C607.184 640.851 529.361 620.988 478.105 592.174C452.488 577.774 433.381 561.067 423.258 543.361C413.089 525.573 412.01 506.785 422.476 488.591C446.444 446.927 493.568 420.244 528.857 417.188C544.404 415.842 561.799 414.334 584.761 406.956C595.872 403.385 607.479 399.257 619.678 394.917L619.735 394.897ZM425.094 490.097C415.223 507.257 416.181 524.896 425.88 541.861C435.626 558.909 454.217 575.281 479.585 589.541C530.298 618.05 607.587 637.831 693.335 637.831C789.682 637.831 873.946 602.298 927.38 562.465C954.113 542.535 973.017 521.614 981.904 503.643C986.348 494.659 988.229 486.531 987.46 479.69C986.698 472.919 983.33 467.282 976.971 463.172C963.301 454.333 943.016 449.481 922.555 448.46C902.097 447.439 881.745 450.262 867.991 456.518C833.863 472.039 781.073 491.316 679.925 493.312C618.99 494.515 565.619 488.979 532.011 470.444L531.792 470.323C510.847 458.771 487.722 457.5 468.01 462.267C448.246 467.047 432.15 477.832 425.094 490.097ZM533.251 467.678L533.47 467.799C566.313 485.912 618.955 491.495 679.865 490.293C780.58 488.305 832.966 469.129 866.74 453.768C881.085 447.244 901.966 444.408 922.705 445.443C940.066 446.31 957.528 449.898 971.139 456.465C968.886 453.913 965.979 450.695 962.5 446.994C953.518 437.443 940.724 424.684 925.47 411.853C894.885 386.126 854.711 360.362 815.68 359.137C736.301 356.646 673.345 379.031 620.69 397.763L620.678 397.767C608.493 402.102 596.845 406.245 585.686 409.831C562.39 417.317 544.714 418.847 529.136 420.196L529.118 420.198C499.8 422.736 461.754 442.187 436.659 473.269C444.989 467.078 455.589 462.164 467.3 459.332C487.631 454.415 511.548 455.708 533.251 467.678Z" fill="black"/>
<path d="M870.147 463.327C880.56 466.711 882.433 495.421 877.542 517.419C873.647 534.935 868.215 556.816 855.569 558.086C847.938 558.852 828.345 550.518 825.498 545.159C811.103 518.063 818.338 493.954 842.292 474.781C849.004 469.409 858.961 459.691 870.147 463.327Z" fill="#D0B170"/>
<path d="M870.143 463.327C868.174 462.686 866.242 462.46 864.359 462.552C845.572 496.006 844.41 517.977 844.277 556.027C848.689 557.493 852.872 558.356 855.565 558.086C868.211 556.816 873.643 534.935 877.538 517.419C882.43 495.421 880.557 466.711 870.143 463.327Z" fill="black" fill-opacity="0.4"/>
<path fill-rule="evenodd" clip-rule="evenodd" d="M861.408 476.02C860.419 475.48 859.179 475.845 858.639 476.835C854.065 485.221 851.649 491.153 850.206 497.25C848.884 502.839 848.395 508.515 847.734 516.182C847.681 516.801 847.627 517.433 847.57 518.08C847.473 519.203 848.304 520.192 849.428 520.29C850.551 520.387 851.54 519.556 851.638 518.433C851.691 517.82 851.743 517.222 851.793 516.638C852.465 508.852 852.929 503.475 854.179 498.19C855.51 492.567 857.752 486.986 862.223 478.79C862.763 477.8 862.398 476.56 861.408 476.02Z" fill="black"/>
<path d="M532.231 463.327C521.818 466.711 519.945 495.421 524.836 517.419C528.731 534.935 534.163 556.816 546.809 558.086C554.44 558.852 574.032 550.518 576.88 545.159C591.274 518.063 584.04 493.954 560.086 474.781C553.374 469.409 543.417 459.691 532.231 463.327Z" fill="#D0B170"/>
<path fill-rule="evenodd" clip-rule="evenodd" d="M540.849 476.02C541.839 475.48 543.079 475.845 543.619 476.835C548.193 485.221 550.608 491.153 552.051 497.25C553.374 502.839 553.863 508.515 554.523 516.182C554.577 516.801 554.631 517.433 554.687 518.08C554.785 519.203 553.953 520.192 552.83 520.29C551.707 520.387 550.718 519.556 550.62 518.433C550.567 517.82 550.515 517.222 550.465 516.638C549.793 508.852 549.329 503.475 548.079 498.19C546.748 492.567 544.506 486.986 540.035 478.79C539.495 477.8 539.86 476.56 540.849 476.02Z" fill="black"/>
<path d="M581.283 618.03C563.721 594.43 559.045 556.12 558.926 504.834C558.77 437.042 560.562 410.992 583.911 379.159C600.111 357.073 639.854 336.154 700.797 336.697C761.74 336.154 801.483 357.073 817.683 379.159C841.032 410.992 842.824 437.042 842.668 504.834C842.549 556.12 837.873 594.43 820.311 618.03C789.133 659.927 737.712 670.755 700.797 671.307C663.882 671.859 612.461 659.927 581.283 618.03Z" fill="#E7C273"/>
<path d="M664.399 508.673C664.399 518.841 659.248 527.083 652.893 527.083C646.538 527.083 641.387 518.841 641.387 508.673C641.387 498.505 646.538 490.263 652.893 490.263C659.248 490.263 664.399 498.505 664.399 508.673Z" fill="#4D2C19"/>
<path d="M761.056 508.673C761.056 518.841 755.904 527.083 749.549 527.083C743.195 527.083 738.043 518.841 738.043 508.673C738.043 498.505 743.195 490.263 749.549 490.263C755.904 490.263 761.056 498.505 761.056 508.673Z" fill="#4D2C19"/>
<path d="M776.023 474.15C778.045 476.409 777.747 479.767 774.872 482.204C766.958 488.914 763.645 475.097 751.86 475.301C745.051 475.418 740.84 481.522 736.901 475.301C731.366 466.557 744.668 462.644 753.01 462.644C762.786 462.643 772.672 470.407 776.023 474.15Z" fill="#3A2113"/>
<path d="M627.59 474.15C625.568 476.409 625.866 479.767 628.741 482.204C636.656 488.914 639.969 475.097 651.754 475.301C658.563 475.418 662.773 481.522 666.712 475.301C672.247 466.557 658.945 462.644 650.603 462.644C640.827 462.643 630.942 470.407 627.59 474.15Z" fill="#3A2113"/>
<path d="M697.773 515.424C695.617 527.048 676.838 553.395 700.074 557.997" stroke="black" stroke-width="4" stroke-linecap="round"/>
<path fill-rule="evenodd" clip-rule="evenodd" d="M644.846 588.064C645.186 586.991 646.073 586.574 647.148 586.913C685.486 601.3 715.819 601.3 754.157 586.913C755.232 586.574 756.118 586.991 756.458 588.064C756.798 589.136 756.383 590.026 755.307 590.365C716.168 605.005 685.136 605.005 645.997 590.365C644.922 590.026 644.506 589.136 644.846 588.064Z" fill="black"/>
<path fill-rule="evenodd" clip-rule="evenodd" d="M540.773 452.356H863.682C862.581 406.255 854.914 381.821 835.126 346.114C821.206 320.995 788.298 274.137 702.228 273.624C616.134 273.111 583.249 320.995 569.329 346.114C553.943 373.878 545.885 394.826 542.544 424.445C541.588 432.918 541.018 442.101 540.773 452.356Z" fill="#BC9D5B"/>
<path fill-rule="evenodd" clip-rule="evenodd" d="M609.596 301.479C589.128 316.341 577.557 334.376 570.646 346.846C555.326 374.49 547.353 395.247 544.04 424.614C543.139 432.606 542.582 441.246 542.319 450.845H862.128C861.52 428.63 859.335 411.552 854.952 395.74C850.468 379.563 843.664 364.643 833.801 346.846C826.895 334.384 815.319 316.603 794.847 301.867C774.392 287.143 744.957 275.389 702.215 275.134C659.471 274.879 630.045 286.632 609.596 301.479ZM607.822 299.035C628.819 283.788 658.882 271.855 702.233 272.113C745.561 272.372 775.615 284.302 796.611 299.416C817.591 314.517 829.429 332.725 836.443 345.382C846.368 363.291 853.291 378.441 857.863 394.933C862.434 411.425 864.635 429.191 865.187 452.32L865.224 453.866H539.223L539.26 452.32C539.505 442.031 540.077 432.802 541.039 424.275C544.408 394.405 552.552 373.265 568.004 345.382C575.014 332.733 586.844 314.266 607.822 299.035Z" fill="black"/>
<path fill-rule="evenodd" clip-rule="evenodd" d="M533.781 428.304C591.169 365.882 691.158 357.637 794.297 357.637L533.781 428.304Z" fill="#CEB888"/>
<path fill-rule="evenodd" clip-rule="evenodd" d="M538.602 425.434L782.832 359.185C735.26 359.498 688.771 361.941 647.21 371.039C604.243 380.444 566.657 396.937 538.602 425.434ZM646.565 368.088C691.795 358.188 742.713 356.128 794.302 356.128L794.698 359.096L529.137 431.132L532.675 427.283C561.653 395.763 601.326 377.991 646.565 368.088Z" fill="black"/>
<path d="M977.787 461.904C977.787 461.904 894.876 360.112 815.724 357.628C736.03 355.127 672.833 377.609 620.18 396.34C607.986 400.678 596.357 404.815 585.219 408.394C562.086 415.827 544.548 417.346 528.983 418.694C494.189 421.706 447.504 448.107 423.781 489.345C438.434 463.872 489.869 445.479 532.517 469.001L532.736 469.122C565.962 487.447 618.968 493.005 679.891 491.803C780.823 489.811 833.411 470.585 867.361 455.144C895.461 442.363 949.825 443.826 977.787 461.904Z" fill="#BC9D5B"/>
<path fill-rule="evenodd" clip-rule="evenodd" d="M619.731 394.897C672.372 376.17 735.793 353.608 815.772 356.118C855.893 357.377 896.751 383.751 927.41 409.541C942.778 422.468 955.658 435.313 964.696 444.925C969.216 449.732 972.778 453.733 975.211 456.534C976.427 457.935 977.362 459.036 977.994 459.788C978.31 460.164 978.55 460.453 978.711 460.649C978.792 460.747 978.854 460.821 978.895 460.872L978.942 460.929L978.954 460.944L978.957 460.948C978.958 460.949 978.959 460.95 977.788 461.903L978.959 460.95L976.968 463.172C963.297 454.333 943.013 449.481 922.551 448.46C902.093 447.439 881.742 450.262 867.987 456.518C833.86 472.039 781.07 491.316 679.921 493.312C618.986 494.515 565.616 488.979 532.008 470.444L531.788 470.323C510.843 458.771 487.719 457.5 468.007 462.267C448.242 467.047 432.146 477.832 425.091 490.097L422.473 488.591C446.44 446.927 493.564 420.244 528.854 417.188C544.4 415.842 561.795 414.334 584.758 406.956C595.869 403.385 607.475 399.257 619.674 394.917L619.731 394.897ZM436.656 473.269C444.986 467.078 455.586 462.164 467.297 459.332C487.627 454.415 511.544 455.708 533.247 467.678L533.466 467.799C566.309 485.912 618.952 491.495 679.862 490.293C780.577 488.305 832.963 469.129 866.736 453.768C881.082 447.244 901.962 444.408 922.702 445.443C940.063 446.31 957.524 449.898 971.136 456.465C968.882 453.913 965.976 450.695 962.496 446.994C953.515 437.443 940.72 424.684 925.466 411.853C894.882 386.126 854.707 360.362 815.677 359.137C736.297 356.646 673.341 379.031 620.687 397.763L620.674 397.767C608.489 402.102 596.842 406.245 585.682 409.831C562.386 417.317 544.71 418.847 529.132 420.196L529.114 420.198C499.796 422.736 461.751 442.187 436.656 473.269Z" fill="black"/>
<path fill-rule="evenodd" clip-rule="evenodd" d="M209.289 453.652H160.617L236.649 240.532H282.153L357.897 453.652H308.361L293.385 408.724H224.65L209.289 453.652ZM238.089 369.556H280.137L264.873 324.052C262.962 318.079 260.852 311.312 259.695 306.22C259.458 305.174 259.26 304.199 259.113 303.316C258.249 308.212 255.945 316.276 253.353 324.052L238.089 369.556Z" fill="white"/>
<path d="M707.36 265.864V340.744C707.36 364.36 699.584 374.152 680.576 374.152C662.432 374.152 654.368 363.784 654.368 340.168V265.864H610.016V356.296C610.016 391.72 630.176 413.608 663.008 413.608C680.288 413.608 698.144 405.544 707.072 393.736L709.952 409.864H751.712V265.864H707.36Z" fill="#02DA9A" stroke="black" stroke-width="3"/>
<path d="M798.242 243.4C812.066 243.4 823.298 232.168 823.298 218.056C823.298 203.944 812.066 193 798.242 193C784.13 193 772.898 203.944 772.898 218.056C772.898 232.168 784.13 243.4 798.242 243.4ZM798.242 243.4C812.066 243.4 823.298 232.168 823.298 218.056C823.298 203.944 812.066 193 798.242 193C784.13 193 772.898 203.944 772.898 218.056C772.898 232.168 784.13 243.4 798.242 243.4Z" fill="#02DA9A" stroke="black" stroke-width="3"/>
<path d="M820.707 409.864H776.355V265.864H820.707V409.864Z" fill="#02DA9A" stroke="black" stroke-width="3"/>
<path d="M1002.56 453.652V417.652L1019.55 399.796L1051.8 453.652H1103.07L1050.65 366.676L1104.8 309.652H1049.21L1002.56 361.492V236.5H958.203V453.652H1002.56Z" fill="white"/>
<path d="M1102.85 522.772C1111.49 525.364 1121.57 526.804 1132.23 526.804C1157.57 526.804 1173.7 514.42 1185.8 485.044L1258.95 309.652H1212.87L1178.02 402.1L1146.63 309.652H1099.11L1157 458.548L1154.41 465.46C1148.65 481.012 1142.31 485.62 1127.33 485.62H1102.85V522.772Z" fill="white"/>
<path d="M154.079 770.652V691.74C154.079 673.884 165.311 662.364 182.879 662.364C198.143 662.364 208.223 674.172 208.223 692.316V770.652H252.575V681.66C252.575 643.932 232.703 622.044 198.431 622.044C179.711 622.044 163.295 629.244 154.367 641.628V553.5H109.727V770.652H154.079Z" fill="white"/>
<path fill-rule="evenodd" clip-rule="evenodd" d="M347.453 774.108C301.373 774.108 267.965 743.868 267.965 698.364C267.965 652.86 301.373 622.332 347.453 622.332C393.245 622.332 426.653 652.86 426.653 698.364C426.653 743.868 393.245 774.108 347.453 774.108ZM312.605 698.076C312.605 676.476 326.717 662.076 347.453 662.076C367.901 662.076 382.013 676.476 382.013 698.076C382.013 719.964 367.901 734.364 347.453 734.364C326.717 734.364 312.605 719.964 312.605 698.076Z" fill="white"/>
<path fill-rule="evenodd" clip-rule="evenodd" d="M661.065 770.652H619.305V553.5H663.657V643.356C672.297 630.396 691.305 621.756 712.041 621.756C752.361 621.756 777.993 653.148 777.993 700.092C777.993 744.732 749.481 774.396 708.585 774.396C690.48 774.396 674.697 767.195 666.036 756.132L661.065 770.652ZM676.281 726.206C682.24 731.063 690.061 733.788 699.081 733.788C720.105 733.788 733.353 719.1 733.353 697.788C733.353 676.476 720.105 661.788 699.081 661.788C698.831 661.788 698.581 661.79 698.333 661.794C677.999 662.136 663.945 676.448 663.945 697.788C663.945 709.992 668.542 719.898 676.281 726.206Z" fill="white"/>
<path d="M777.74 839.772C786.38 842.364 796.46 843.804 807.116 843.804C832.46 843.804 848.588 831.42 860.684 802.044L933.836 626.652H887.756L852.908 719.1L821.516 626.652H773.996L831.884 775.548L829.292 782.46C823.532 798.012 817.196 802.62 802.22 802.62H777.74V839.772Z" fill="white"/>
<path d="M1002.08 725.148C1002.08 754.236 1025.99 774.396 1064 774.396C1101.44 774.396 1127.65 755.676 1127.65 724.86C1127.65 701.82 1114.69 690.876 1091.07 685.692L1064.29 679.932C1054.21 677.628 1048.74 673.884 1048.74 667.26C1048.74 659.484 1055.07 654.3 1065.15 654.3C1075.81 654.3 1081.86 660.924 1081.86 670.716H1123.91C1123.91 641.628 1100.58 622.044 1067.17 622.044C1032.61 622.044 1006.98 639.324 1006.98 669.276C1006.98 694.62 1019.94 706.14 1046.43 711.9L1072.93 717.66C1083.59 719.964 1085.89 724.572 1085.89 728.892C1085.89 736.38 1079.55 741.276 1065.73 741.276C1052.19 741.276 1044.71 735.228 1044.13 725.148H1002.08Z" fill="white"/>
<path d="M1227.14 732.06C1221.96 733.788 1216.78 734.652 1212.46 734.652C1202.09 734.652 1194.89 729.18 1194.89 711.036V663.516H1226.86V626.652H1194.89V582.012H1150.54V626.652H1128.65V663.516H1150.54V720.252C1150.54 760.572 1171.27 774.108 1200.94 774.108C1213.03 774.108 1223.98 771.804 1232.33 767.772L1227.14 732.06Z" fill="white"/>
<path d="M1272.63 774.396C1286.74 774.396 1299.13 762.588 1299.13 748.476C1299.13 734.076 1286.74 722.268 1272.63 722.268C1257.94 722.268 1246.14 734.076 1246.14 748.476C1246.14 762.588 1257.94 774.396 1272.63 774.396Z" fill="white"/>
</g>
<defs>
<radialGradient id="paint0_radial_1847_1286" cx="0" cy="0" r="1" gradientUnits="userSpaceOnUse" gradientTransform="translate(300.001 97.454) rotate(90) scale(533.214 1066.43)">
<stop stop-color="white" stop-opacity="0.6"/>
<stop offset="1" stop-color="white" stop-opacity="0"/>
</radialGradient>
<clipPath id="clip0_1847_1286">
<rect width="1400" height="1200" rx="64" fill="white"/>
</clipPath>
</defs>
</svg>
